<?xml version="1.0" encoding="UTF-8"?>
<svg data-bbox="37.31 -0.688 437.379 513.377" height="512" width="512" xmlns="http://www.w3.org/2000/svg" data-type="shape">
    <g>
        <path d="m107.952-.635 3.692-.043 4.041.03q2.131-.01 4.263-.026c3.858-.022 7.715-.014 11.573.002 4.037.013 8.075.001 12.112-.007 6.782-.009 13.563.003 20.345.027 7.838.027 15.675.018 23.513-.01q10.095-.032 20.191-.012c4.02.008 8.039.009 12.058-.008q5.67-.02 11.34.025 2.079.01 4.158-.006a299 299 0 0 1 5.683.028l3.21.006C248.114.244 249.583 1.755 252 5c.567 3.23.567 3.23.488 6.832l-.049 3.916q-.062 2.033-.127 4.064-.038 2.063-.068 4.123A764 764 0 0 1 252 34l3.375-.014q40.623-.167 81.246-.245c13.096-.026 26.193-.061 39.29-.118q17.118-.076 34.238-.094c6.045-.006 12.09-.021 18.135-.058q8.53-.05 17.061-.037 3.136-.002 6.268-.03c2.85-.025 5.698-.019 8.547-.005l2.515-.044 2.32.03 1.992-.006c3.383 1.044 4.871 2.855 7.013 5.62.492 2.84.674 5.078.63 7.911l.021 2.407c.018 2.673.001 5.345-.016 8.018q.008 2.896.023 5.793c.021 5.315.011 10.63-.005 15.945-.01 5.729.007 11.458.02 17.186.023 11.226.018 22.452.003 33.678q-.016 13.682-.007 27.364l.002 3.93.005 7.902c.014 24.011 0 48.023-.027 72.034q-.034 32.89.003 65.78a43186 43186 0 0 1 .017 81.752l-.002 3.913c-.005 9.114.003 18.227.014 27.34q.022 16.653-.016 33.305a3323 3323 0 0 0-.002 17.002q.022 7.776-.02 15.552-.008 2.82.01 5.638c.015 2.548 0 5.093-.024 7.64l.036 2.232c-.069 3.702-.6 5.586-2.751 8.634-3.657 2.567-5.72 2.671-10.168 2.674l-2.193.022c-2.432.018-4.862.001-7.293-.016q-2.637.01-5.274.023c-4.836.021-9.672.011-14.508-.004-5.214-.012-10.427.006-15.64.02-10.216.022-20.431.017-30.647.002q-12.45-.015-24.9-.007l-3.577.002-7.192.005c-22.493.014-44.986-.002-67.48-.029q-28.966-.031-57.933.005a35788 35788 0 0 1-74.4.017l-3.562-.002c-8.292-.005-16.585.003-24.878.014q-15.153.022-30.308-.016a2751 2751 0 0 0-15.47-.002q-7.077.021-14.153-.02-2.565-.008-5.13.01c-2.318.015-4.635 0-6.954-.024l-3.907-.002c-4.36-.817-5.798-2.016-8.347-5.627-.492-2.84-.674-5.077-.63-7.91l-.021-2.408c-.019-2.673-.001-5.344.016-8.017a2677 2677 0 0 0-.024-5.793c-.02-5.315-.01-10.63.005-15.945.012-5.729-.006-11.458-.02-17.187a10501 10501 0 0 1-.003-33.677q.017-13.683.008-27.364l-.003-3.93-.004-7.902c-.014-24.011 0-48.023.026-72.034q.035-32.89-.002-65.78a43186 43186 0 0 1-.017-81.752l.002-3.914q.005-13.67-.015-27.34-.022-16.652.017-33.305c.013-5.667.018-11.334.002-17.002q-.022-7.776.02-15.55.008-2.82-.01-5.64c-.015-2.547 0-5.092.024-7.64l-.036-2.231c.072-3.901.563-5.552 3.036-8.636 3.059-2.377 4.42-2.655 8.245-2.61h3.336l3.567.079 3.678.021c3.873.028 7.743.09 11.615.154q3.94.037 7.881.069A2470 2470 0 0 1 98 34l-.064-2.583a992 992 0 0 1-.156-9.533q-.03-2.059-.082-4.117a405 405 0 0 1-.089-5.935l-.063-3.602c.907-6.451 4.087-8.854 10.406-8.865M116 18v211c6.02-4.013 11.735-8.023 17.375-12.5 8.691-6.833 17.552-13.414 26.487-19.922q2.19-1.616 4.344-3.277l2.126-1.637 1.882-1.47c2.97-1.986 5.252-2.323 8.786-2.194 6.13 3.053 11.358 7.186 16.75 11.375 7.853 6.046 15.763 12 23.768 17.843a435 435 0 0 1 13.723 10.477c1.528 1.404 1.528 1.404 2.759 1.305V18zM56 52v442h400V52H252c-.21 65.31-.21 65.31-.388 130.622-.05 12.614-.05 12.614-.077 18.513q-.026 6.2-.032 12.397-.01 7.899-.057 15.798a1061 1061 0 0 0-.011 5.807 928 928 0 0 1-.036 7.827l.014 2.31c-.043 3.192-.221 5.39-1.816 8.19-1.996 1.919-2.99 2.131-5.738 2.16-5.785-.28-9.23-3.084-13.61-6.624l-2.458-1.899a655 655 0 0 1-5.16-4.03c-3.47-2.73-6.982-5.4-10.498-8.07a2065 2065 0 0 1-5.257-4.008c-8.258-6.314-16.62-12.485-25.011-18.621-1.347-.99-2.665-2.02-3.963-3.073-1.839-1.585-1.839-1.585-4.144-.877-3.93 2.249-7.358 4.997-10.883 7.828-6.314 4.993-12.686 9.878-19.188 14.625-8.088 5.91-16.068 11.954-24.01 18.06l-2.556 1.96-2.268 1.745c-2.88 2.114-4.755 2.562-8.29 2.672l-2.372.114C102 255 102 255 100.388 253.476c-1.935-3.45-1.811-6.66-1.787-10.512l-.02-2.473c-.019-2.738-.016-5.475-.014-8.213l-.03-5.883c-.028-5.328-.037-10.656-.043-15.985-.01-5.566-.036-11.133-.06-16.7-.044-10.543-.072-21.086-.096-31.63-.027-12.002-.07-24.004-.116-36.006C98.13 101.383 98.06 76.69 98 52z"/>
        <path d="m108.983 408.871 3.214-.01 3.558.005 3.758-.007q5.181-.007 10.362-.005 5.58-.001 11.162-.01 10.94-.01 21.88-.011 8.89 0 17.78-.006 25.187-.014 50.372-.013h5.494q22.053-.001 44.106-.023 22.625-.021 45.25-.02 12.71.001 25.42-.013 10.821-.015 21.642-.005 5.524.006 11.047-.005c3.988-.01 7.976-.003 11.964.004l3.545-.015 3.23.014h2.79c2.65.27 4.218.798 6.443 2.249 2.113 3.168 2.332 5.132 2.559 8.867-.89 3.396-2.592 5.39-5.559 7.133-4.053.763-8.07.674-12.184.635l-3.789.023c-3.468.021-6.936.01-10.404-.005-3.74-.011-7.482.006-11.223.02-7.328.022-14.655.018-21.983.003q-8.933-.016-17.864-.007l-2.567.002-5.163.005a19007 19007 0 0 1-48.423-.03 12684 12684 0 0 0-41.56.005 18428 18428 0 0 1-53.392.018l-2.557-.003q-8.922-.005-17.845.015-10.872.022-21.744-.016a1368 1368 0 0 0-11.096-.002c-4.007.018-8.014-.003-12.021-.028l-3.554.033c-8.75-.106-8.75-.106-11.853-3.077-2.757-4.019-2.462-5.798-1.778-10.591 3.28-4.263 5.77-5.125 10.983-5.129"/>
        <path d="m115.185 306.365 3.789-.024c3.468-.02 6.935-.01 10.404.005 3.74.012 7.482-.006 11.223-.02a4385 4385 0 0 1 21.983-.003q8.931.017 17.864.008l2.567-.002 5.163-.005a19007 19007 0 0 1 48.423.029q20.78.031 41.56-.005a18428 18428 0 0 1 55.949-.015q8.922.005 17.845-.015 10.872-.022 21.743.017c3.7.013 7.398.018 11.097.002 4.007-.018 8.013.003 12.02.028l3.554-.034c8.75.107 8.75.107 11.854 3.077 2.757 4.02 2.462 5.799 1.777 10.592-2.207 2.968-3.486 3.829-7 5-1.688.093-3.38.129-5.071.131l-3.197.012-3.524-.003-3.734.01q-5.14.01-10.28.01-5.54.005-11.08.016-12.118.02-24.236.024l-15.126.012q-20.933.02-41.867.025l-2.707.001h-2.713l-5.445.002h-2.727q-21.888.009-43.774.046-22.461.035-44.922.037-12.615-.001-25.23.025-10.74.023-21.48.012-5.483-.008-10.964.011c-3.959.015-7.917.007-11.876-.004l-3.51.025-3.213-.02-2.77.002c-4.054-.594-6.698-2.519-9.554-5.374-.786-6.85-.786-6.85 1.774-10.596 4.197-4.007 9.971-3.09 15.411-3.039"/>
        <path d="m115.07 357.4 3.707-.012a988 988 0 0 1 10.04.039c3.506.023 7.012.02 10.517.02 5.886.005 11.77.03 17.656.065 6.802.042 13.604.06 20.407.063q10.869.008 21.738.047 3.13.009 6.26.013c3.888.007 7.775.031 11.663.058l3.503.002 3.208.03 2.784.014c2.646.282 4.223.813 6.446 2.26 2.446 3.668 2.723 6.735 2 11-1.87 2.432-3.28 3.641-6 5-1.65.097-3.305.131-4.959.134l-3.178.013-3.5-.001-3.677.01q-4.998.011-9.998.012-4.17.001-8.342.008-9.841.011-19.682.01-10.155.001-20.31.025-8.715.02-17.43.018-5.205-.001-10.412.013c-3.872.012-7.743.007-11.615.001l-3.488.017-3.196-.012-2.774.001c-2.647-.27-4.215-.8-6.439-2.249-2.112-3.168-2.331-5.132-2.558-8.867 2.296-8.766 10.2-7.827 17.629-7.732"/>
        <path d="m295.807 357.726 3-.03 3.286-.002 3.465-.025c3.79-.025 7.581-.033 11.372-.04l7.888-.027q8.274-.025 16.549-.027c6.373-.004 12.745-.034 19.118-.076 6.134-.039 12.267-.05 18.4-.051q3.913-.006 7.825-.038c3.647-.026 7.292-.022 10.938-.01l3.275-.044c7.323.072 7.323.072 11.247 3.05 2.828 4.008 2.518 5.777 1.83 10.594-1.87 2.431-3.281 3.64-6 5a76 76 0 0 1-4.61.14l-2.945.018-3.241.003-3.405.015q-5.596.021-11.193.027l-7.758.018q-7.101.014-14.201.018-10.448.007-20.897.051c-6.033.024-12.067.032-18.1.034q-3.85.004-7.7.024c-3.588.017-7.177.015-10.766.009l-3.222.028c-9.215-.053-9.215-.053-12.962-3.385-1.859-4.104-2.346-6.034-.812-10.312 2.76-4.093 4.88-4.936 9.619-4.962"/>
        <path d="m295.776 246.746 2.978-.017 3.264.012 3.44-.01c3.763-.01 7.525-.003 11.288.003l7.828-.005q8.21-.005 16.42.01 9.49.015 18.98-.003 9.129-.014 18.258-.004 3.885.003 7.77-.005c3.617-.005 7.234.003 10.852.014l3.257-.012 2.987.017 2.591.002c2.575.28 4.138.852 6.311 2.252 2.446 3.668 2.723 6.734 2 11-1.87 2.431-3.281 3.64-6 5a78 78 0 0 1-4.648.154l-2.97.026-3.27.013-3.434.025q-5.646.036-11.29.055l-3.888.017c-5.39.02-10.78.04-16.17.051q-11.585.023-23.17.107c-6.086.043-12.172.059-18.258.065a1171 1171 0 0 0-7.766.046c-3.62.032-7.24.032-10.86.024l-3.25.05c-7.272-.061-7.272-.061-11.168-3.017-1.984-2.794-2.858-4.193-2.858-7.616 2.273-5.794 4.47-8.248 10.776-8.254"/>
        <path d="m297.896 186.74 2.906-.021 3.152.007 3.347-.015c3.65-.014 7.3-.013 10.95-.011l7.61-.013q7.974-.01 15.948-.002c6.14.006 12.28-.006 18.42-.028 5.914-.02 11.829-.022 17.743-.019q3.77 0 7.54-.016c3.512-.012 7.024-.005 10.535.006l3.152-.023c6.435.047 10.122.716 14.801 5.396.79 6.875.79 6.875-1.82 10.596-4.711 3.562-8.847 3.097-14.607 3.035l-3.5.021c-3.818.017-7.634-.002-11.451-.023q-3.978 0-7.954.007-8.334.005-16.667-.04c-6.421-.031-12.841-.031-19.262-.014-6.181.016-12.363.009-18.544-.008q-3.943-.008-7.886.001c-3.67.006-7.34-.014-11.01-.042l-3.304.02c-7.338-.093-7.338-.093-10.642-2.407-1.795-2.849-2.285-4.77-2.353-8.146 1.22-3.523 1.92-5.46 5.312-7.156 2.696-.847 4.77-1.098 7.584-1.105"/>
        <path d="m294.89 127.606 3.055-.034 3.348.008 3.529-.025c3.86-.024 7.72-.025 11.58-.023l6.002-.017c6.29-.02 12.582-.022 18.873-.016 6.49.007 12.98-.016 19.469-.053q8.358-.045 16.716-.038 4.992.004 9.984-.028c3.711-.022 7.421-.012 11.132.005l3.343-.04c7.442.083 7.442.083 10.76 3.063 2.05 4.03 1.891 6.092 1.32 10.592-2.33 3.245-4.17 4.27-8 5-1.565.09-3.133.13-4.7.134l-2.85.013-3.107-.001-3.287.01c-3.59.01-7.181.011-10.771.012l-7.48.01q-7.842.008-15.684.008-8.057 0-16.112.02-9.723.025-19.446.023-3.708.002-7.415.013c-3.455.01-6.909.007-10.363.001l-3.1.017-2.86-.012-2.472.001c-3.472-.367-6.313-1.468-9.104-3.561-1.678-2.266-2.049-3.877-2.25-6.688 1.64-5.736 3.832-8.368 9.89-8.394"/>
        <path d="M263 358c3.343 1.207 3.947 1.92 6 5 .663 6.965.663 6.965-1.562 10.438-3.247 2.08-5.59 2.494-9.438 2.562-2.88-1.216-4.452-2.303-6.375-4.75-.953-3.432-.542-5.828.375-9.25 3.417-3.808 5.958-4.644 11-4"/>
    </g>
</svg>
