<?xml version="1.0" encoding="UTF-8"?>
<svg data-bbox="0.02 0.055 757.28 209.145" viewBox="0 0 757.3 209.3" xmlns="http://www.w3.org/2000/svg" data-type="color">
    <g>
        <path d="M275.5 83c-6.2 0-10-3.8-10.3-9.1L251 77c.3 9.8 10.5 17 23.9 17s21.9-6.6 21.9-15.9c0-17.3-30.9-14.3-30.9-24.1 0-3.1 2.9-5.3 7-5.3 4.8 0 8.5 3.1 8.8 7.5l13.8-3.3c-1-8.6-10-14.8-22.2-14.8s-19.9 6.1-19.9 14.8c0 16.6 30.2 14.6 30.2 24.9-.1 3.6-4 5.2-8.1 5.2" fill="#ffffff" data-color="1"/>
        <path d="M324.7 94c13.1 0 22.4-9.5 22.4-22.9V39h-12.3v31.4c0 6.8-4.2 11.6-10.1 11.6s-10.1-4.8-10.1-11.6V39h-12.3v32c0 13.5 9.3 23 22.4 23" fill="#ffffff" data-color="1"/>
        <path d="M376.6 83c-6.2 0-10-3.8-10.3-9.1l-14.3 3c.3 9.8 10.5 17 23.9 17s21.9-6.6 21.9-15.9c0-17.3-30.9-14.3-30.9-24.1 0-3.1 2.9-5.3 7-5.3 4.8 0 8.5 3.1 8.8 7.5l13.8-3.3c-1-8.6-10-14.8-22.2-14.8s-19.9 6.1-19.9 14.8c0 16.6 30.2 14.6 30.2 24.9 0 3.7-3.9 5.3-8 5.3" fill="#ffffff" data-color="1"/>
        <path fill="#ffffff" d="M428.4 93V50.7h17.1V39H399v11.7h17.1V93z" data-color="1"/>
        <path d="M474.4 39h-14.9l-19.1 54h13.4l3.8-12.3h18.6l4 12.3h13.3zm-14 33.1 6.4-20.6 6.6 20.6z" fill="#ffffff" data-color="1"/>
        <path fill="#ffffff" d="M510.3 39v54H498V39z" data-color="1"/>
        <path fill="#ffffff" d="M530.9 56.8 550.4 93H564V39h-12.2v36.5L532.5 39h-13.9v54h12.3z" data-color="1"/>
        <path d="m587.6 39-19.1 54H582l3.8-12.3h18.6l4 12.3h13.3l-19.1-54zm.9 33.1 6.4-20.6 6.6 20.6z" fill="#ffffff" data-color="1"/>
        <path d="M658.2 64.8c5.6-1.7 9.1-6.5 9.1-12.3 0-7.9-5.6-13.5-13.4-13.5h-27.7v54h29c8.5 0 14.4-6.1 14.4-14.6 0-7-4.4-12.3-11.4-13.6m-19.8-15h11.1c3.2 0 5.5 2.3 5.5 5.6s-2.3 5.6-5.6 5.6h-11zM650.9 82h-12.5V69.7H651c3.5 0 6 2.6 6 6.1s-2.6 6.2-6.1 6.2" fill="#ffffff" data-color="1"/>
        <path fill="#ffffff" d="M688.2 39h-12.3v54h37.2V81.2h-24.9z" data-color="1"/>
        <path fill="#ffffff" d="M730 81.7v-12h21.6v-8.6H730V50.2h26.5V39h-38.7v54h39.5V81.7z" data-color="1"/>
        <path fill="#ffffff" d="M287 140.4h-21.2V119h-12.3v54h12.3v-22.6H287V173h12.3v-54H287z" data-color="1"/>
        <path d="M332.6 118c-15.8 0-26.9 11.6-26.9 28s11.1 28 26.9 28 26.9-11.6 26.9-28-11.1-28-26.9-28m0 44c-8.1 0-13.9-6.7-13.9-16.2s5.8-16.2 13.9-16.2 13.9 6.7 13.9 16.2-5.7 16.2-13.9 16.2" fill="#ffffff" data-color="1"/>
        <path d="M410.2 136.3c0-10.1-7-17.3-16.9-17.3H366v54h12.3v-19.6h11.1l7.1 19.6h14.6l-10.5-21.4c5.9-2.8 9.6-8.3 9.6-15.3m-20.1 8.5h-11.8v-14.6h12.1c4 0 6.8 3 6.8 7.3s-3 7.3-7.1 7.3" fill="#ffffff" data-color="1"/>
        <path fill="#ffffff" d="M429.8 119v54h-12.3v-54z" data-color="1"/>
        <path fill="#ffffff" d="M477.9 130.3V119h-40.7v11.7H465l-28.4 30.8V173h41.8v-11.8h-28.5z" data-color="1"/>
        <path d="M508.6 118c-15.8 0-26.9 11.6-26.9 28s11.1 28 26.9 28 26.9-11.6 26.9-28-11.1-28-26.9-28m0 44c-8.1 0-13.9-6.7-13.9-16.2s5.8-16.2 13.9-16.2 13.9 6.7 13.9 16.2-5.8 16.2-13.9 16.2" fill="#ffffff" data-color="1"/>
        <path fill="#ffffff" d="M575.2 155.5 555.9 119H542v54h12.3v-36.2l19.5 36.2h13.7v-54h-12.3z" data-color="1"/>
        <path d="M202.4 67.4c-20.5-53.9-81.1-81-135-60.5-26.1 9.9-46.8 29.5-58.2 55s-12.2 53.9-2.3 80c4.1 10.6 9.7 20.2 16.5 28.6 20.3 25 50.3 38.7 81.2 38.7 3.7 0 7.4-.2 11.2-.6.5-.1 1-.1 1.4-.2.9-.1 1.8-.2 2.7-.4.9-.1 1.7-.3 2.6-.4.5-.1 1.1-.2 1.6-.3 1.2-.2 2.3-.5 3.5-.7.3-.1.6-.1.9-.2 1.4-.3 2.7-.7 4.1-1 .1 0 .2-.1.4-.1 1.5-.4 2.9-.9 4.4-1.3h.1c1.5-.5 3-1 4.6-1.6 1-.4 2-.8 2.9-1.2.3-.1.5-.2.8-.3.8-.3 1.5-.6 2.2-1 .2-.1.5-.2.7-.3.9-.4 1.9-.9 2.8-1.3 2-1 4-2.1 5.9-3.2.1-.1.2-.1.2-.1 2.8-1.7 5.6-3.4 8.2-5.4.2-.1.4-.3.6-.5.6-.4 1.2-.9 1.8-1.4.3-.2.6-.4.8-.6.5-.4 1.1-.9 1.6-1.3.8-.6 1.5-1.2 2.2-1.9.1-.1.3-.2.4-.4 4.6-4 8.8-8.3 12.6-13 22.8-28.1 30.4-67.1 16.6-103.1m-40.6 110.2c-.3.2-.6.5-.9.7-.5.4-.9.7-1.4 1-.2.2-.5.4-.7.5l-2.1 1.5h-.1c-.8.6-1.7 1.1-2.5 1.6 0 0-.1 0-.1.1-.8.5-1.6 1-2.4 1.4-.1.1-.2.1-.3.2-.8.5-1.7.9-2.5 1.4-.9.5-1.8.9-2.7 1.4h-.1l-2.4 1.2-.6.3c-.6.3-1.3.6-2 .9-.2.1-.5.2-.7.3-.9.4-1.7.7-2.6 1-1 .4-2.1.8-3.1 1.1-.2.1-.5.2-.7.2-1 .3-2 .7-3 1-.2.1-.4.1-.6.2h-.2l9.2-20.9h28.2c-1.5 1.4-3.1 2.8-4.8 4.1-.4.3-.7.5-.9.8M88 137.7l8.2 23H41.9c13.1-12 29.1-19.9 46.1-23m49.7 4.7c11 4.2 21.1 10.5 29.8 18.4H109l-8.6-24.4c12.3-.6 25 1.3 37.3 6m-11.6 30.4-10.5 23.8c-27 3.2-54-5.8-73.6-23.8zm30.9-34.5 40.2-29.8c-.8 17.5-6.5 34.4-16.3 48.6-7-7.3-15.1-13.7-23.9-18.8m34.2-66.7c2.8 7.4 4.6 14.9 5.5 22.4l-51.8 38.3-3-1.2c-5.5-2.1-11-3.7-16.6-4.8L159.4 30c14 10.2 25.2 24.3 31.8 41.6M71.7 18.1C82.5 14 93.6 12 104.6 12c15.7 0 30.9 4 44.5 11.4l-35.8 101.2q-8.55-.75-17.1 0L60.3 23.3c3.6-1.9 7.4-3.7 11.4-5.2M49.9 29.9 84 126.3c-6.7 1.3-13.3 3.4-19.6 6L12.6 94c1.1-9.3 3.6-18.5 7.5-27.2 6.7-14.9 17-27.5 29.8-36.9m-37.8 78.6 40.2 29.7c-8.7 5-16.8 11.4-23.9 19-4.1-6-7.6-12.5-10.3-19.6q-5.4-14.25-6-29.1" fill="#ffffff" data-color="1"/>
    </g>
</svg>
