<?xml version="1.0" encoding="UTF-8"?>
<svg data-bbox="31.716 54.955 448.719 402.112" height="512" width="512" xmlns="http://www.w3.org/2000/svg" data-type="shape">
    <g>
        <path d="m337 74 1.766 1.29C351.76 85.186 360.605 103.616 365 119l2.375-.5c13.675-1.886 27.17.593 38.625 8.5 9.313 7.178 16.174 15.792 20 27v3l3.188-.25c9.987.035 19.096 4.172 26.812 10.25l2.012 1.484c11.626 9.228 19.416 24.04 21.988 38.516 1.65 18.562-1.128 34.572-12.96 49.469-6.898 7.487-16.76 14.408-27.04 15.531l2.2 2.16c12.366 12.54 20.645 25.907 25.8 42.84l.71 2.281c4.862 18.316 2.502 39.755-6.605 56.309A158 158 0 0 1 456 385l-1.426 2.047c-12.445 16.007-33.395 23.261-52.686 26.47-4.17.518-8.21.645-12.406.66l-2.491.02q-4.046.028-8.093.041l-2.803.013q-7.332.03-14.664.044c-5.045.011-10.09.046-15.135.085-3.886.026-7.772.035-11.659.038q-2.79.008-5.58.035c-2.6.025-5.198.024-7.798.017l-2.32.039c-3.657-.036-5.764-.4-8.893-2.355-2.624-2.763-3.046-4.36-3.046-8.154 1.604-3.53 2.742-4.828 6-7a100 100 0 0 1 7.89-.255l2.435-.011q2.623-.01 5.245-.008 4.171-.002 8.344-.03 11.863-.068 23.728-.077c4.84-.005 9.68-.03 14.521-.065a669 669 0 0 1 5.495-.007c21.598.06 42.143-4.207 58.408-19.488 9.423-10.074 13.524-23.091 13.372-36.684l-.023-2.896c-.4-17.416-6.114-33.815-18.415-46.479-9.665-8.593-21.006-13.677-34-14l-.41 2.79c-2.093 12.306-6.096 22.79-14.59 32.21-3.139 1.57-5.539 1.352-9 1-2.937-2.125-2.937-2.125-5-5-.695-5.236 1.056-8.365 3.813-12.625 3.795-6.25 6.085-12.08 7.187-19.375l.379-2.184c1.066-11.998-7.157-25.925-14.379-34.816-8.001-8.667-17.979-14.168-29.754-15.254-7.65-.297-14.541.969-21.89 2.919-4.764 1.213-8.476 1.588-13.356.335-2.783-1.698-3.019-3.064-3.957-6.23a410 410 0 0 1-.856-3.958c-5.821-24.99-18.69-49.323-40.75-63.687A219 219 0 0 0 252 150l-2.492-1.395c-20.852-11.025-48.282-13.82-70.914-6.93C151.359 151.712 130.566 168.394 118 195c-6.207 14.912-8.028 29.82-8.518 45.803-.448 11.07-.448 11.07-4.17 14.963-3.027 1.616-5.962 2.244-9.312 2.984-15.819 3.847-27.469 13.593-36 27.25-10.23 18.17-13.914 38.187-8.977 58.652C55.076 358.544 61.905 369.708 72 380l1.64 1.715c14.062 13.387 32.679 14.719 50.996 14.635a1253 1253 0 0 1 9.874.004c9.349.031 18.698.026 28.047.006 5.74-.01 11.478.003 17.218.03q3.271.009 6.544-.012c3.042-.02 6.082-.008 9.124.01l2.722-.04c4.414.058 6.274.226 9.893 2.971C210 402 210 402 210.625 405.5c-.809 4.529-1.97 5.731-5.625 8.5-3.208.72-6.34.663-9.617.615l-2.92.017c-3.184.012-6.368-.012-9.553-.038q-3.336-.003-6.671 0-7-.004-13.999-.052a2258 2258 0 0 0-17.843-.037c-4.598.004-9.195-.009-13.793-.026q-3.285-.01-6.572-.009c-25.755-.015-48.246-5.085-67.282-23.661-19.793-20.215-25.312-43.907-25.023-71.461C32.223 299.985 39.48 282.463 51 267l1.488-2.012C61.228 254.032 74.532 245.658 88 242h4l-.105-2.867c-.822-32.21 10.942-62.135 32.748-85.768 17.379-18.147 42.798-30.889 67.95-32.611 2.486-.003 4.93.05 7.407.246l.262-1.766c3.32-19.368 15.315-36.229 31.054-47.738C263.3 49.412 306.49 48.651 337 74M230 96c-6.245 7.918-10.436 16.21-13 26l3.305.445C243.025 125.728 262.836 133.4 280 149l1.91 1.7c16.391 15.42 25.147 36.388 32.09 57.3l1.865-.208c21.01-2.237 39.469-1.277 56.819 12.31C385.22 230.902 392.396 243.618 398 259c4.083.089 8.166.14 12.25.188l3.453.076c14.297.122 29.016-3.484 39.77-13.502 8.97-10.348 10.386-21.482 9.722-34.631-.44-4.812-2.006-8.868-4.195-13.131l-1.32-2.605C451.676 184.55 443.755 177.918 432 174a285 285 0 0 0-8-.5c-7.595-.365-7.595-.365-11-1.5-.738-2.082-.738-2.082-1.312-4.812-2.868-11.382-7.984-21.547-18.282-27.75-9.343-4.837-17.933-5.964-28.156-2.875-4.636 1.377-7.632 2.073-12.25.437-2.629-4.323-3.672-8.517-4.687-13.437-3.95-16.961-13.634-30.992-28.25-40.5C290.068 64.537 253.926 69.88 230 96"/>
        <path d="m275 240 2.164 1.25c6.99 4.607 11.195 11.587 13.412 19.592.868 4.418.75 8.904.76 13.392l.02 3.254q.015 3.399.015 6.798c.004 3.44.04 6.877.078 10.316q.009 3.315.012 6.632l.043 3.076c-.07 11.103-3.361 19.532-11.059 27.522-9.577 8.49-19.164 8.71-31.356 8.295-8.179-.499-14.314-4.493-20.089-10.127-7.01-8.613-8.314-16.16-8.336-27.047l-.02-3.534q-.015-3.698-.015-7.394c-.004-3.748-.04-7.495-.078-11.244q-.009-3.6-.012-7.203l-.043-3.366c.06-10.563 2.931-18.525 10.215-26.232 11.462-9.917 31.233-11.746 44.289-3.98m-31.875 16.875c-3.043 2.703-4.906 5.269-5.392 9.388l-.024 2.502-.038 2.853-.007 3.062-.02 3.168q-.015 3.315-.015 6.632c-.004 3.376-.04 6.75-.078 10.125q-.009 3.225-.012 6.45l-.043 3.05c.048 7.464 1.464 10.769 6.691 16.145 5.218 3.246 10.434 4.262 16.5 3.188 4.544-1.253 7.092-2.987 10.313-6.438 3.154-5.833 3.441-10.759 3.398-17.316l.01-2.954a864 864 0 0 0-.017-6.155c-.016-3.131 0-6.262.02-9.393q-.004-3-.013-5.998l.019-2.823c-.073-6.763-1.245-11.03-5.98-16.111-7.797-5.979-17.912-5.386-25.312.625"/>
        <path d="M193.09 238.746 195 240l2.067 1.285c7.227 4.923 14.017 12.82 16.746 21.215.283 3.776-.982 6.162-2.938 9.312-2.543 1.611-4.911 1.783-7.883 1.668-3.529-.85-5.17-3.571-6.992-6.48-4.641-7.337-8.982-11.457-17.41-13.688-5.812-.7-10.007 1.546-14.617 4.871-3.218 2.773-5.03 6.057-6.785 9.88l-.905 1.853c-4.809 10.041-4.9 22.917-1.845 33.584 2.807 7.158 8.06 14.116 15.062 17.625 6.089 1.522 11.063 2.052 16.688-1.125 5.072-3.557 8.502-8.38 11.25-13.875C199 304 199 304 202.313 302.5c3.687-.5 3.687-.5 7 .437C212 305 212 305 213.563 308.187c.775 6.759-1.89 11.16-5.75 16.438-7.071 8.573-16.38 14.485-27.567 15.824-11.76.344-20.502-2.6-29.246-10.45-9.981-9.45-15.79-22.952-16.433-36.648a251 251 0 0 1-.004-5.726l.023-3.046c.173-7.834 1.16-14.374 4.414-21.58l1.32-2.94c5.525-11.094 14.017-18.511 25.465-23.2 8.478-2.266 19.509-2.424 27.305 1.887"/>
        <path d="M342.273 293.477C348.074 298.2 351.461 303.682 353 311c1.029 14.922-6.836 24.23-16.157 35.02a728 728 0 0 1-3.538 4.03l-1.645 1.86-1.48 1.661c-1.28 1.44-1.28 1.44-2.18 3.43l3.98-.106 5.207-.082 2.62-.076c4.88-.056 8.26.009 12.193 3.263 1.564 3.13 1.697 6.611 1 10-1.412 2.094-1.412 2.094-4 4-3.275.62-6.515.585-9.84.567l-2.907.019a622 622 0 0 1-6.08-.01c-3.097-.013-6.191.021-9.289.06q-2.955 0-5.912-.007l-2.8.04c-4.543-.065-6.549-.193-10.26-3.024C300 369 300 369 299.436 366.063c1.158-6.303 6.128-11.048 10.25-15.75q1.609-1.857 3.215-3.715l1.593-1.843c3.586-4.182 7.04-8.473 10.505-12.755l2.261-2.726 2.176-2.649 1.934-2.336c2.485-3.492 3.7-6.107 3.441-10.414-.984-3.648-.984-3.648-3.812-5.875-4.341-.98-6.735-1.495-10.875.125-3.255 2.872-3.842 5.93-5.063 10-1.632 4.417-1.632 4.417-4.062 5.875-6.777.753-6.777.753-10.438-1.5-2.596-4.154-3.013-8.018-2.156-12.738 1.927-6.642 5.127-12.523 11.031-16.336 10.53-5.469 22.492-6.667 32.836.051"/>
        <path d="M264 362c3.584 3.565 4.503 5.979 4.546 10.984l.06 3.578.003 3.833.05 3.946c.044 3.451.064 6.902.08 10.352.019 3.527.06 7.053.1 10.578.076 6.91.126 13.82.161 20.729l2.598-2.809q1.731-1.815 3.464-3.628l1.702-1.854c3.036-3.14 4.682-4.57 9.025-5.666 3.215-.043 4.656.064 7.211 1.957 2.562 3.843 2.674 5.434 2 10-1.164 1.685-1.164 1.685-2.785 3.46l-1.926 2.112L288 432l-2.713 2.88a610 610 0 0 1-7.684 7.922 405 405 0 0 0-3.206 3.308 447 447 0 0 1-4.71 4.824l-1.414 1.499c-2.49 2.474-4.381 3.6-7.753 4.634-6.815-.13-11.133-5.355-15.723-9.899l-1.709-1.681a1095 1095 0 0 1-3.54-3.513 708 708 0 0 0-5.423-5.312 2390 2390 0 0 1-3.453-3.432l-1.635-1.575c-3.535-3.579-5.154-6.561-6.037-11.655 1.112-3.275 2.072-5.238 4.75-7.437 3.464-.866 5.775-.429 9.25.437 2.62 1.91 4.75 4.179 6.938 6.563l1.783 1.865c1.44 1.51 2.862 3.04 4.279 4.572l.011-2.25q.056-10.507.173-21.012c.04-3.6.072-7.2.087-10.801.015-3.476.05-6.951.097-10.427.022-1.97.024-3.94.026-5.909l.06-3.64.027-3.202c.645-3.431 1.84-4.594 4.519-6.759 3.222-1.61 5.576-.827 9 0"/>
    </g>
</svg>
