<?xml version="1.0" encoding="UTF-8"?>
<svg data-bbox="3.748 -0.381 504.504 512.762" height="512" width="512" xmlns="http://www.w3.org/2000/svg" data-type="shape">
    <g>
        <path d="m230.852-.3 5.973-.013q6.23-.01 12.46-.002c5.26.006 10.521-.011 15.782-.034 4.108-.015 8.216-.016 12.324-.013q2.905 0 5.81-.016c17.278-.08 34.457 1.303 51.112 6.191l2.765.788c26.646 7.756 51.138 20.205 72.922 37.4l2.657 2.07c10.882 8.674 21.52 18.137 30.343 28.93l2.176 2.48c42.155 48.744 63.025 113.634 63.074 177.52l.002 2.38C508.178 312.643 492.792 369.923 460 415l-1.4 1.961c-6.14 8.574-12.644 16.567-19.916 24.203a171 171 0 0 0-6.434 7.21c-2.764 3.182-5.712 5.958-8.933 8.673a209 209 0 0 0-4.977 4.343c-38.048 33.884-86.729 50.952-137.226 50.91l-5.98.014q-6.237.01-12.473.001c-5.27-.005-10.54.012-15.81.035-4.112.015-8.224.015-12.336.012q-2.91 0-5.82.016c-17.176.08-33.837-1.63-50.445-6.19l-2.92-.789c-33.203-9.173-62.665-26.47-87.712-49.97-2.098-1.947-4.22-3.8-6.43-5.617-3.016-2.56-5.576-5.367-8.129-8.386a261 261 0 0 0-4.71-5.383C24.81 387.215 3.798 321.087 3.75 256.376c0-.808 0-1.616-.002-2.449C3.8 215.37 11.438 177.343 27 142.001l1.137-2.58C39.287 114.438 53.942 92.475 72 72l1.42-1.61C78.94 64.16 84.594 58.33 91 53l2.75-2.446c26.16-23.115 58.571-39.048 92.5-46.804l1.999-.458C202.464.246 216.372-.312 230.852-.3M146 77l-1.976 1.852c-5.158 4.97-9.613 10.518-14.024 16.149l-1.428 1.819c-7.28 9.33-13.802 18.848-19.572 29.18l-1.21 2.135c-22.02 39.098-32.276 83.32-32.102 127.99l.006 3.016c.05 14.493.458 28.609 3.306 42.86l.586 3.122c10.703 56.261 39.5 111.421 85.414 146.878l1.64 1.28c38.588 29.982 87.304 45.337 136.146 39.9A193 193 0 0 0 336 486l2.162-.668c25.746-8.135 48.54-21.626 68.838-39.332l1.757-1.531C426.361 428.974 440.945 411.11 453 391l1.194-1.988c15.93-26.867 26.278-56.317 31.806-87.011l.497-2.626c5.18-28.498 4.825-60.936-.497-89.374l-.471-2.718c-10.727-60.751-44.513-118.982-95.292-154.753C310.687-1.87 214.16 12.196 146 77m31.58-51.67c-.862.305-1.723.61-2.61.926l-2.719.996-2.671.949c-4.94 1.771-9.78 3.677-14.579 5.8v1c10.66.981 16.536-.572 25-7a215 215 0 0 1 5-3c-3.432-1.144-4.132-.853-7.421.329M110 62q-2.617 2.32-5.25 4.625l-2.414 2.226c-2.918 2.685-5.922 5.262-8.937 7.836L92 78.001v1c4.478.293 8.953.469 13.438.625l3.818.254c7.23.227 7.23.227 13.498-2.963 2.284-2.535 4.284-5.127 6.246-7.916 4.765-5.4 9.356-10.514 15-15v-1c-14.237-1.112-23.551-1.626-34 9m-40.468 40.505a70 70 0 0 0-4.446 8.226c-1.166 2.437-2.504 4.685-3.93 6.98-4.832 6.762-4.832 6.762-7.156 14.289h31c4.013-7.162 4.013-7.162 8.017-14.328 3.086-5.484 6.29-10.784 9.913-15.932 1.245-1.684 1.245-1.684 1.07-3.74-18.734-2.725-18.734-2.725-34.468 4.505M44 151c-6.08 13.297-6.08 13.297-9 25h33c2.87-7.647 2.87-7.647 5.688-15.313l1.324-3.613c1.141-3.012 1.141-3.012.988-6.074zm-15 44-2 11.375-.632 3.583-.493 2.815c-.25 1.43-.25 1.43-.507 2.888-.42 2.274-.42 2.274-.368 4.339h34l2-10.25c.21-1.06.418-2.12.633-3.212l.492-2.554.508-2.602c.469-2.64.469-2.64.367-6.382zm-6 44v25h34v-25zm1 44c.29 2.825.578 5.651.875 8.562l.262 2.655.23 2.162.223 2.174c.538 3.205 1.518 6.322 2.41 9.447h33c-.798-12.878-.798-12.878-3-25zm8 44 2.813 9.625.866 2.998.716 2.416.714 2.444c1.042 2.942 2.496 5.725 3.891 8.517h32c-1.485-6.865-1.485-6.865-3.289-13.598l-.6-2.024-.736-2.44L66 327zm17 44c4.02 8.26 8.073 16.38 12.813 24.25l1.129 1.875c1 1.637 2.028 3.257 3.058 4.875l1.196 2.17c1.747 2.139 1.747 2.139 4.899 2.284l3.76-.064c.663-.005 1.324-.01 2.006-.017a467 467 0 0 0 6.327-.123q2.148-.03 4.295-.055c3.506-.044 7.012-.113 10.517-.195-1.205-3.138-2.51-6.082-4.171-9.004l-1.266-2.248-1.313-2.31c-4-7.044-7.618-14.175-11.25-21.438zm35 53c4.103 5.638 8.34 10.717 13.415 15.523C100 442 100 442 102.024 444.413c4.28 4.504 7.819 5.776 13.945 6.079 6.022.088 12.022-.119 18.031-.492q-1.391-1.9-2.793-3.793l-1.57-2.134c-2.063-2.614-4.34-4.832-6.8-7.065C121 435 121 435 119.54 432.118c-2.06-3.643-3.71-6.35-7.54-8.117-9.218-1.438-18.732-.667-28 0m53 44c8.528 6.925 19.73 11.094 29.938 14.875l2.326.866c5.171 1.858 10.349 3.189 15.736 4.259-3.466-3.668-7.714-5.875-12.05-8.365-4.129-2.417-7.602-5.018-11.2-8.198-7.199-5.533-16.16-4.078-24.75-3.437"/>
        <path d="M353.91 168.246 356 170l.113-2.45.2-3.238.175-3.199c.555-3.378 1.504-5.362 3.512-8.113 3.447-1.724 7.23-1.503 11-1 2.501 1.876 3.62 3.239 5 6 .106 1.883.149 3.77.161 5.655l.03 3.591.012 3.898.017 3.992q.015 4.187.02 8.375c.006 3.571.03 7.142.058 10.713.023 3.41.025 6.822.03 10.233l.037 3.88-.009 3.62.011 3.177c-.424 3.31-1.404 5.19-3.367 7.866-3.448 1.724-7.23 1.503-11 1-2.502-1.876-3.62-3.239-5-6a84 84 0 0 1-.14-4.613l-.06-2.784a361 361 0 0 1-.054-5.796c-.129-5.817-.129-5.817-3.043-10.737L351 192l-2-1.957c-16.323-15.143-37.375-22.97-59.578-22.317-15.868 1.268-30.606 7.538-42.422 18.274l-2.258 1.98c-10.72 9.976-17.208 23.27-21.742 37.02l2.927.011q13.662.056 27.324.173 7.023.062 14.046.087 6.78.025 13.558.097 2.586.023 5.17.024c2.417.002 4.831.03 7.247.062l2.156-.015c4.776.1 7.212 1.183 10.572 4.56 1.55 3.101 1.29 5.58 1 9-1.74 2.965-2.8 4.652-6.156 5.627-3.563.469-7.077.505-10.664.487h-2.337c-2.538 0-5.075-.008-7.613-.015l-5.292-.005q-6.951-.007-13.903-.024-7.099-.014-14.197-.02-13.92-.018-27.838-.05v24l6.897-.047c7.524-.05 15.047-.083 22.571-.108q6.843-.02 13.684-.07 6.604-.048 13.208-.059a793 793 0 0 0 5.036-.032c2.354-.022 4.706-.025 7.06-.024l2.099-.032c4.312.027 7.011.74 10.445 3.373 1.574 3.148 1.67 6.592 1 10-1.568 2.6-1.568 2.6-4 5-2.663.48-4.684.637-7.339.568l-2.219.002a489 489 0 0 1-7.239-.082q-2.514-.014-5.027-.021c-4.407-.02-8.812-.068-13.218-.124-4.498-.051-8.995-.074-13.493-.099-8.822-.054-17.644-.139-26.465-.244a1831 1831 0 0 0 3.726 9.058l1.046 2.567c7.94 19.105 22.201 33.064 41.158 41.246 23.725 8.724 49.505 7.905 72.562-2.437C348.16 333.546 354.528 328.61 361 323c4.561-3.93 4.561-3.93 8.5-4.563 4.437.713 5.817 2.012 8.5 5.563 1.068 2.848 1.123 4.414.5 7.375-8.828 15.449-30.354 25.005-46.625 30-28.171 7.243-58.694 5.017-84.152-9.613C235.21 343.666 225.4 334.334 217 322l-1.63-2.367c-3.219-4.994-5.52-10.161-7.62-15.696l-.747-1.965c-1.782-4.906-2.972-9.86-4.003-14.972l-2.507.08c-3.748.103-7.495.168-11.243.232l-3.945.127-3.79.05c-1.152.025-2.304.052-3.49.079C175 287 175 287 172.615 284.692c-2.092-3.485-2.053-5.687-1.616-9.692.85-2.62 1.412-3.63 3.74-5.093 2.712-1.088 4.763-1.135 7.682-1.102l2.8.015 3.528.055L200 269v-24c-4.712.079-4.712.079-9.423.18-4.927.041-8.414-.55-12.366-3.528-2.309-3.15-1.716-6.93-1.211-10.652 1.727-3.29 2.442-3.814 6-5a95 95 0 0 1 4.668-.316l2.705-.127 2.814-.12 2.85-.13q3.48-.16 6.963-.307l.812-2.938c7.41-25.74 22.184-48.911 46.012-62.253 32.998-17.654 74.309-14.545 104.086 8.437"/>
        <path d="M410 377c2.493 2.104 2.911 3.733 3.938 6.813.13 6.658-5.099 11.87-9.438 16.5l-1.434 1.587c-2.455 2.657-4.598 4.922-8.066 6.1-3.806-.136-6.212-.461-9.375-2.625-2.19-3.202-2.557-5.51-2.625-9.375 2.291-4.789 5.958-8.427 9.563-12.25l1.787-1.93c5.192-5.552 8.036-6.608 15.65-4.82"/>
        <path d="M176 104c2.7 1.8 4.542 3.084 6 6 .356 4.187-.003 7.702-2.605 11.09a121 121 0 0 1-4.211 3.918c-2.191 1.999-3.919 4.1-5.746 6.43-2.472 2.86-3.316 3.522-7.063 4.75-4.74-.264-7.085-1.898-10.375-5.188-.883-4.143-1.303-6.927 1.024-10.629 3.044-4.039 6.47-7.734 9.976-11.371l2.172-2.324c3.266-2.994 6.57-3.102 10.828-2.676"/>
        <path d="M354 420c2.7 1.8 4.542 3.084 6 6 .42 4.721-.086 7.253-3 11-2.597 1.721-5.348 2.98-8.187 4.25l-2.213 1.063c-4.916 2.264-9.183 3.401-14.6 3.687-2.934-1.212-4.429-2.273-6.375-4.75-.931-3.353-.405-5.889.375-9.25 1.991-3.228 3.767-4.67 7.238-6.14.82-.349 1.641-.697 2.487-1.055l2.587-1.055 2.553-1.102c4.475-1.86 8.202-3.323 13.135-2.648"/>
        <path d="M442 178c4.77 3.446 5.76 8.48 7.313 13.875l.837 2.684c1.42 4.8 2.363 8.502.85 13.441-2.244 3.193-3.647 3.904-7.437 4.938-4.09.071-5.52-.233-8.563-2.938-1.305-2.4-2.15-4.431-3-7l-1.07-3.102c-3.884-11.812-3.884-11.812-2.93-16.898 4.24-5.272 7.426-6.744 14-5"/>
        <path d="M234 66c2.7 1.8 4.542 3.084 6 6 .354 3.754.492 6.159-1.437 9.457-3.526 3.498-7.322 5.055-11.875 6.918l-2.514 1.113c-5.115 2.14-8.635 3.026-14.174 1.512-2.932-2.083-3.823-3.458-4.937-6.875-.081-4.045.697-5.741 2.937-9.125 2.676-1.816 5.528-3.055 8.5-4.312l2.34-1.05c9.466-4.207 9.466-4.207 15.16-3.638"/>
        <path d="M441 315c2.753 1.796 4.526 3.053 6 6 .62 6.373-1.221 11.021-3.687 16.75l-1.03 2.574c-1.562 3.696-2.67 6.17-5.799 8.754-3.801 1.41-6.663 1.196-10.484-.078-2.562-2-2.562-2-4-5-.125-6.388 1.844-12.078 4.313-17.875l.896-2.258c2.917-7.005 5.735-9.856 13.791-8.867"/>
        <path d="M138 162c2.431 1.87 3.64 3.281 5 6-.024 6.402-1.798 12.033-4.25 17.875l-.871 2.258c-1.42 3.449-2.42 5.494-5.356 7.883-4.03 1.572-6.313.935-10.523-.016-1.987-1.529-2.853-2.541-3.622-4.934-.746-6.2.359-10.663 2.747-16.379l.898-2.376c3.252-8.11 7.159-11.43 15.977-10.311"/>
        <path d="M405.684 116.371c5.491 1.49 8.835 7.452 12.066 11.816l2.36 3.168c2.626 3.674 3.306 6.008 3.23 10.602C423 144 423 144 420.938 147c-3.686 2.51-5.555 2.626-9.938 2-4.881-2.238-7.25-5.633-10.187-9.938l-1.326-1.88c-5.531-7.93-5.531-7.93-5.362-12.682 1.736-6.943 4.925-7.933 11.559-8.129"/>
        <path d="M353 73c2.703.983 5.134 2.322 7.625 3.75l1.945 1.055c9.726 5.38 9.726 5.38 11.278 9.379.396 4.156.563 6.136-1.66 9.816-2.677 2.448-3.647 2.938-7.27 3.355-5.108-.463-8.306-2.381-12.606-5.043l-2.26-1.318C345.893 91.49 342.676 89.168 340 85c-.66-3.962-.366-5.452 1.875-8.812 3.577-3.683 6.06-3.578 11.125-3.188"/>
        <path d="m268.125 435.625 1.992.072c1.962.078 3.923.19 5.883.303l3.25.066c4.503.19 7.101.514 10.938 2.997 2 3.243 2.401 5.152 2.476 8.875-1.12 3.48-2.737 4.894-5.664 7.062-3.292.655-6.469.563-9.812.438l-2.62-.018c-12.889-.243-12.889-.243-17.568-4.045-1.442-3.424-2.012-6.801-1-10.375 3.691-4.831 6.142-5.612 12.125-5.375"/>
        <path d="M152.684 362.371c3.46.94 4.952 2.978 7.316 5.629l1.333 1.484c9.308 10.61 9.308 10.61 9.605 16.516-.418 3.107-1.151 4.327-2.938 7.062-3.3 2.132-5.116 2.525-8.937 2.602-5.207-1.677-8.593-7.462-11.75-11.664l-2.324-3.063c-2.543-3.757-4.05-6.432-3.864-11 1.94-6.514 5.284-7.38 11.559-7.566"/>
        <path d="M126 299c5.553 3.195 6.632 7.556 8.313 13.375l.798 2.54c1.341 4.429 2.407 8.413 1.889 13.085-1.8 2.7-3.084 4.542-6 6-3.781.357-6.183.467-9.52-1.441-3.432-3.541-4.469-7.147-5.855-11.809l-.824-2.488c-1.708-5.526-2.074-9.596-.801-15.262 3.562-4.19 6.638-4.766 12-4"/>
        <path d="M122 230c2.608 2.214 3.85 3.973 4.348 7.391.119 2.88.099 5.728.027 8.609l-.004 2.984c-.128 10.514-.128 10.514-3.996 14.828-3.374 1.687-6.757 2.212-10.375 1.188-2.898-2.035-4.724-3.601-5.429-7.173-.137-2.585-.105-5.115-.008-7.702l.017-2.645c.107-5.672.277-11.685 3.858-16.355 3.855-2.776 7.155-2.208 11.562-1.125"/>
        <path d="M204 412c3.15 1.265 5.944 2.947 8.813 4.75l2.271 1.344c6.962 4.23 6.962 4.23 8.916 7.906.629 4.951.779 6.867-2.062 11-3.737 2.544-5.466 2.424-9.938 2-2.7-.99-5.133-2.322-7.625-3.75l-1.945-1.055c-9.445-5.225-9.445-5.225-11.43-9.195-.686-6.971-.686-6.971 2-11 3.748-2.499 6.661-2.71 11-2"/>
        <path d="M455 248c2.123 1.84 2.91 3.299 3.266 6.087.103 2.582.093 5.142.046 7.726l.01 2.658c-.097 11.877-.097 11.877-3.947 16.466-3.407 1.525-6.788 2.078-10.375 1.063-2.727-1.844-2.727-1.844-5-5-.66-3.684-.562-7.269-.437-11l.017-2.984c.093-5.528.242-10.244 3.795-14.766 4.263-3.279 7.801-2.092 12.625-.25"/>
        <path d="m287.813 56.688 2.658-.01c6.262.052 12.165.14 16.967 4.573 1.91 3.363 2.262 4.94 1.563 8.75-2.026 4.374-2.026 4.374-5 6-5.043.63-9.942.34-15 0l-3.286-.106c-6.973-.347-6.973-.347-10.34-2.832-2.114-3.172-2.516-4.724-2.187-8.5l.168-2.371C274 60 274 60 275.438 58.235c4.031-1.942 7.963-1.627 12.375-1.547"/>
    </g>
</svg>
