<?xml version="1.0" encoding="UTF-8"?>
<svg data-bbox="47.336 -0.551 416.978 512.869" height="512" width="512" xmlns="http://www.w3.org/2000/svg" data-type="shape">
    <g>
        <path d="m129.602-.508 3.163-.019c3.486-.016 6.97-.003 10.456.01q3.755-.009 7.51-.022 9.13-.022 18.26-.002 7.42.013 14.84.006l2.136-.002 4.297-.004c13.416-.011 26.833.002 40.25.023q17.262.026 34.525-.004a15924 15924 0 0 1 46.523-.011q7.41.003 14.823-.012 9.975-.018 19.95.02 3.663.008 7.326-.006c3.33-.01 6.66.003 9.99.023l2.937-.027C372.211-.47 375.65.085 380 4c4.842 5.284 4.568 10.296 4.514 17.097l.021 3.397c.019 3.759.008 7.517-.002 11.276q.01 4.041.026 8.082a4162 4162 0 0 1 .013 19.673q-.009 7.994.002 15.986l.002 2.299.006 4.622c.017 14.445.008 28.89-.009 43.336-.015 13.221 0 26.442.029 39.663a14199 14199 0 0 1 .026 47.613q-.001 7.986.022 15.973.028 9.727-.005 19.457-.018 4.964.004 9.929c.016 3.585.001 7.169-.021 10.754l.036 3.183c-.091 7.013-.091 7.013-3.012 10.31-3.22 1.638-5.085 1.881-8.652 1.35-3.136-1.78-3.841-2.523-5-6a76 76 0 0 1-.123-4.539l-.007-2.837.01-3.121-.003-3.312c-.002-3.68.004-7.36.009-11.041v-7.893q0-8.511.008-17.022.01-12.304.012-24.61.004-19.962.018-39.926.014-19.395.02-38.79l.001-2.438.006-18.883c.01-30.863.03-61.726.049-92.588H136v60c-4.592 9.183-4.592 9.183-10 12-20.053 5.013-41.331 1-62 1v352c58.025-.08 58.025-.08 116.051-.18 11.213-.01 11.213-.01 16.459-.011q5.505-.004 11.012-.02 7.02-.02 14.04-.015 2.578 0 5.157-.012c2.32-.01 4.64-.008 6.96-.003l3.941-.005c3.297.24 5.484.68 8.38 2.246 2.341 3.512 2.496 4.865 2 9-1.555 2.656-1.555 2.656-4 5-2.709.502-4.796.673-7.502.628l-2.3.022c-2.544.017-5.087 0-7.632-.019q-2.734.007-5.47.022c-4.954.018-9.909.005-14.863-.014-5.184-.017-10.367-.008-15.55-.003a7010 7010 0 0 1-26.123-.04 6166 6166 0 0 0-30.197-.014c-9.682.016-19.363.01-29.044-.008q-6.18-.01-12.36.002-7.283.01-14.563-.032a676 676 0 0 0-5.343 0 555 555 0 0 1-7.298-.03l-2.131.026c-5.002-.084-7.828-1.324-11.624-4.54-3.377-4.314-4.5-7.107-4.507-12.57l-.033-3.978.025-4.35a1856 1856 0 0 1-.023-17.37c.007-4.579-.009-9.158-.022-13.737-.022-8.97-.022-17.94-.013-26.91q.009-10.935-.002-21.872l-.002-3.144-.006-6.322c-.017-19.768-.008-39.536.009-59.304.015-18.083 0-36.167-.029-54.25a26557 26557 0 0 1-.028-62.005l.002-3.131c.002-7.28-.008-14.56-.022-21.84q-.028-13.313.005-26.626c.011-4.528.014-9.055-.004-13.583q-.024-6.22.014-12.441.008-2.247-.012-4.494c-.089-11.22 1.923-18.705 9.862-26.83l1.55-1.526 1.678-1.698a903 903 0 0 1 5.452-5.445l3.822-3.834q3.991-3.998 8.002-7.98c3.413-3.39 6.807-6.798 10.197-10.211 2.624-2.639 5.257-5.267 7.894-7.893q1.882-1.879 3.756-3.767a807 807 0 0 1 5.281-5.254l1.533-1.557c6.99-6.828 13.578-8.675 23.223-8.586m-15.49 24.266-1.537 1.532q-2.527 2.521-5.048 5.05l-3.493 3.49a8249 8249 0 0 0-7.327 7.332q-4.705 4.712-9.42 9.416-3.609 3.605-7.213 7.214L76.6 61.264q-2.424 2.422-4.842 4.849l-2.79 2.793C66.885 70.642 66.885 70.642 67 72h53V19c-2.166 0-4.535 3.407-5.887 4.758"/>
        <path d="M433.203 332.887c17.436 16.338 29.728 40.955 30.938 64.906.445 14.505.34 28.313-4.141 42.207l-.633 1.965C454.3 457.026 446.184 469.779 435 481l-2.578 2.598c-20.804 20.636-46.454 28.687-75.11 28.72C347.059 512.213 337.74 511.2 328 508l-1.988-.65c-25.393-8.616-47.116-27.582-59.305-51.432-12.41-25.613-14.496-55.111-5.45-82.105C266.51 359.06 273.943 347.094 285 336l2.57-2.593c41.345-40.947 103.36-36.722 145.633-.52M297 347l-2.473 2.438c-15.56 16.226-23.089 38.61-22.88 60.86.716 23.907 10.705 45.71 27.78 62.23C316.186 488.212 337.91 497.172 361 497c24.236-.817 44.991-9.773 62-27l2.465-2.468c17.499-18.427 23.463-40.886 22.886-65.665-.345-7.707-1.846-14.567-4.351-21.867l-1.063-3.148c-8.457-22.377-25.644-39.736-47.243-49.578-34.798-14.916-72.261-6.67-98.694 19.726"/>
        <path d="m131.809 207.602 2.805-.009a780 780 0 0 1 5.847.016c2.965.016 5.928 0 8.893-.019q2.852.003 5.705.012l2.659-.018c5.787.065 9.931 1.241 15.282 3.416 3.88.417 3.88.417 5.875-1.5 2.944-2.078 4.592-2.076 8.125-1.5 2.938 2 2.938 2 5 5 .16 3.369.221 5.002-1 8-1.403 1.384-1.403 1.384-3.03 2.675-2.588 2.478-3.417 4.065-3.695 7.643q-.029 2.478.026 4.956l-.02 2.674c-.017 2.81.005 5.618.032 8.427a942 942 0 0 1 0 8.406q-.012 2.608.026 5.216c-.004 7.258-1.57 13.628-6.464 19.253l-1.57 1.891c-6.418 5.178-13.181 6.472-21.238 6.426l-2.782.019q-2.893.01-5.786-.01c-2.926-.013-5.848.021-8.774.06-19.614.081-19.614.081-27.633-7.42-5.943-6.17-6.407-12.909-6.428-21.11l-.02-2.87q-.015-2.996-.014-5.993c-.005-3.035-.04-6.069-.079-9.104q-.009-2.922-.012-5.846l-.043-2.718c.05-6.9 1.433-13.2 6.196-18.433 6.658-6.23 13.287-7.601 22.117-7.54M120 229c-.686 2.891-.702 5.664-.664 8.625l-.014 2.499q-.005 2.607.027 5.214c.026 2.655 0 5.305-.032 7.96q.005 2.539.02 5.077l-.031 2.394c.084 3.979.436 5.847 2.71 9.231 3.816 2.558 6.946 2.706 11.39 2.63l2.432.007q2.536-.002 5.073-.04c2.582-.034 5.16-.02 7.742 0q2.47-.011 4.941-.03l2.327.015c4.972-.109 7.598-1.01 11.08-4.582 1.252-2.505 1.113-4.208 1.097-7.007l-.01-2.989-.025-3.129-.014-3.152q-.018-3.86-.049-7.723a174 174 0 0 0-13.312 12.313c-6.353 6.51-6.353 6.51-10.5 7.062-4.316-.507-5.354-2.136-8.188-5.375-8.657-14.015-8.657-14.015-7-22 2.188-2.692 3.585-2.939 7-3.437 3.74.545 4.695 1.496 7 4.437a98 98 0 0 1 3 5c6.034-4.984 11.519-10.419 17-16l-1-2q-7.765-.184-15.533-.274-2.64-.038-5.281-.103c-2.535-.06-5.068-.089-7.604-.11l-2.374-.079c-5.362-.003-8.068.856-11.208 5.566"/>
        <path d="m132.273 303.7 2.674-.013q2.791-.008 5.583-.002c2.829.003 5.656-.02 8.485-.046q2.722-.003 5.446-.002l2.535-.027c5.676.044 9.774 1.187 15.004 3.39 2.027.774 2.027.774 4 1l2.25-2c2.917-2.12 3.47-2.317 6.875-2.062 2.987.57 3.741.926 5.937 3.188 1.258 3.858 1.1 5.976-.062 9.875-1.392 1.335-1.392 1.335-3.023 2.645-2.578 2.486-3.425 4.08-3.703 7.657q-.029 2.468.026 4.936l-.02 2.667c-.017 2.803.005 5.604.032 8.407.011 2.792.014 5.583 0 8.375q-.012 2.598.026 5.196c-.004 7.442-1.404 15.213-6.76 20.78-9.112 7.72-19.295 7.078-30.637 6.934-3-.035-5.998-.02-8.998-.002q-2.895-.01-5.791-.029l-2.68.015c-7.15-.133-13.268-1.89-18.812-6.546l-1.598-1.973-1.652-1.965c-3.718-5.53-3.744-10.609-3.782-17.078l-.027-2.933q-.021-3.07-.027-6.14c-.012-3.106-.061-6.21-.112-9.315q-.014-2.993-.021-5.987l-.06-2.779c.048-6.841 1.766-12.173 5.619-17.865 6.94-6.704 13.86-8.311 23.273-8.301M121 323c-2.475 4.95-1.313 12.607-1.35 18.112q-.025 2.694-.083 5.386a503 503 0 0 0-.09 7.772l-.07 2.422c.016 4.013.314 5.888 2.584 9.315 4.02 2.664 6.945 2.702 11.669 2.623l2.505.007q2.614-.001 5.227-.04c2.665-.034 5.327-.02 7.992 0q2.544-.01 5.088-.03l2.409.015c3.61-.077 5.691-.25 8.589-2.492 2.398-3.275 2.65-5.079 2.627-9.097l-.01-2.988-.025-3.13-.014-3.152q-.017-3.861-.048-7.722a174 174 0 0 0-13.313 12.312c-6.386 6.543-6.386 6.543-11.062 7.063C140 359 140 359 138.007 356.907c-2.176-3.15-4.034-6.371-5.757-9.781l-.957-1.778c-2.169-4.27-2.727-7.593-2.293-12.347 1.437-2.5 1.437-2.5 4-4 3.075-.021 5.987.408 9 1l.812 2.312c1.127 2.988 1.127 2.988 4.188 5.688l16-16-1-2q-7.553-.112-15.107-.165a803 803 0 0 1-5.135-.062 793 793 0 0 0-7.395-.066l-2.308-.047c-4.537-.002-7.46.507-11.055 3.34"/>
        <path d="m131.05 111.664 2.948-.02q3.083-.015 6.165-.015c3.128-.004 6.254-.04 9.381-.078q3.003-.009 6.006-.012l2.81-.044c5.531.039 9.19.809 13.866 3.841 1.825.902 1.825.902 3.873-.096 2.028-1.23 2.028-1.23 3.9-3.24 3.01-.34 5.097-.55 8 0 2.563 2.062 2.563 2.062 4 5 .13 3.49.007 5.878-2.399 8.558l-1.63 1.587c-3.72 4.219-3.777 7.701-3.635 13.156l-.013 2.656c-.01 2.786.017 5.57.052 8.355.216 24.757.216 24.757-6.234 33.09l-1.89 1.535-1.86 1.59c-6.423 3.957-12.228 4.927-19.606 4.871l-2.591.01q-2.696.002-5.393-.017c-2.728-.016-5.454 0-8.182.02q-2.636-.004-5.271-.013l-2.435.019c-7.38-.09-14.995-1.603-20.576-6.794-5.515-6.696-7.09-13.697-6.966-22.162l-.007-2.926q.001-3.039.04-6.076c.034-3.084.02-6.164 0-9.248q.01-2.969.03-5.938l-.015-2.762c.129-7.07 1.848-12.392 6.546-17.753l1.973-1.633 1.965-1.68c5.521-3.804 10.652-3.766 17.148-3.781M120 133c-.676 2.904-.68 5.688-.63 8.66l-.007 2.506q.001 2.614.04 5.227c.034 2.665.02 5.327 0 7.992q.01 2.544.03 5.088l-.015 2.408c.077 3.61.25 5.692 2.492 8.59 3.929 2.875 7.261 2.721 11.984 2.767l2.377.025q2.492.02 4.985.032c2.536.017 5.07.061 7.605.105q2.422.015 4.845.026l2.29.053c3.719-.015 5.8-.348 8.959-2.38 3.056-3.138 3.166-4.838 3.142-9.107l-.01-2.988-.025-3.13-.014-3.151q-.018-3.862-.049-7.723c-5.5 4.587-10.473 9.458-15.449 14.61-3.55 3.327-5.079 4.306-9.96 4.585-4.657-1.55-5.557-3.467-7.76-7.695l-1.268-2.625-1.35-2.555c-2.535-5.016-3.87-8.698-3.213-14.32 1.063-1.938 1.063-1.938 3-3 3.89-.495 6.057-.707 9.25 1.687A61 61 0 0 1 146 146c6-4.956 11.809-10.192 17-16v-2q-7.98-.186-15.96-.275-2.715-.037-5.427-.102c-2.604-.061-5.207-.09-7.812-.111l-2.44-.079c-5.418-.002-8.2.783-11.36 5.567"/>
        <path d="M413 377c2.685 2.252 2.963 3.806 3.625 7.25-1.53 9.176-12.338 16.659-18.746 23.11l-1.589 1.6q-4.152 4.184-8.314 8.359a2427 2427 0 0 0-8.515 8.6 1834 1834 0 0 1-6.618 6.656 679 679 0 0 0-3.137 3.172c-13.019 13.238-13.019 13.238-21.831 13.69-7.42-.837-11.69-4.776-16.77-9.828l-1.917-1.887a949 949 0 0 1-3.976-3.954 688 688 0 0 0-6.108-5.99 2355 2355 0 0 1-3.874-3.856c-.61-.589-1.22-1.178-1.85-1.784-3.797-3.86-5.261-6.504-5.38-12.138.787-2.648 1.523-3.629 3.688-5.312 3.48-1.035 5.785-.548 9.312.312 2.503 1.714 4.509 3.807 6.59 6.004l1.786 1.812a700 700 0 0 1 5.562 5.747q1.9 1.946 3.806 3.888c3.102 3.168 6.184 6.353 9.256 9.549 5.936-4.88 11.346-10.228 16.754-15.678q2.411-2.43 4.83-4.854 5.117-5.137 10.228-10.28 5.954-5.99 11.914-11.97 2.38-2.391 4.756-4.788l2.904-2.914 2.56-2.576c3.765-3.557 6.079-3.075 11.054-1.94"/>
        <path d="m223.406 159.369 3.53-.022c3.854-.017 7.708.003 11.564.024q4.012 0 8.025-.007c5.609-.005 11.218.011 16.826.04 6.483.031 12.965.031 19.448.014 6.238-.016 12.477-.01 18.715.008q3.981.008 7.962-.002c3.706-.005 7.411.015 11.118.043l3.337-.02 3.059.038 2.655.009c3.167.68 4.371 1.992 6.355 4.506.684 4.181.573 6.158-1.828 9.682-4.695 3.43-8.813 3.018-14.493 2.965l-3.465.027c-3.78.022-7.56.007-11.34-.01q-3.939.005-7.879.015c-5.504.009-11.008-.003-16.513-.027a2216 2216 0 0 0-19.074.01c-6.124.025-12.247.022-18.371.007q-3.905-.006-7.808.013c-3.637.012-7.272-.007-10.909-.035l-3.265.03c-7.281-.103-7.281-.103-11.228-3.03C208 171 208 171 207.437 168c1.742-9.29 8.01-8.715 15.969-8.631"/>
        <path d="m224.32 255.353 3.466-.027c3.78-.022 7.559-.007 11.339.01q3.94-.005 7.88-.015c5.504-.009 11.008.003 16.512.027 6.359.027 12.716.019 19.074-.009 6.124-.025 12.248-.023 18.372-.008q3.903.005 7.808-.013a992 992 0 0 1 10.908.035l3.266-.03c7.281.103 7.281.103 11.223 3.03C336 261 336 261 336.625 264c-.878 4.215-2.159 5.426-5.625 8-3.769.75-7.488.683-11.32.647l-3.466.026c-3.78.023-7.56.008-11.34-.009q-3.939.005-7.879.015c-5.504.009-11.008-.003-16.513-.027a2216 2216 0 0 0-19.074.009c-6.124.025-12.247.023-18.371.008q-3.905-.005-7.808.012c-3.637.013-7.272-.006-10.909-.034l-3.265.03c-7.282-.103-7.282-.103-11.224-3.03C208 267 208 267 207.375 264c1.904-9.143 9.257-8.72 16.945-8.647"/>
        <path d="m218.266 127.467 3.843-.048 4.141.015q2.13-.007 4.26-.019 4.458-.014 8.916.009c3.807.017 7.613-.006 11.42-.041 2.93-.022 5.86-.021 8.791-.013q2.105.001 4.21-.02c1.963-.018 3.925 0 5.888.02l3.382.002c2.883.628 2.883.628 5.248 2.976 1.991 3.23 2.191 4.92 1.635 8.652-1.78 3.136-2.523 3.841-6 5-1.92.104-3.845.149-5.769.162l-3.59.029-3.883.013-3.987.017q-4.178.014-8.357.02c-3.563.005-7.126.03-10.69.058-3.405.023-6.81.025-10.216.03l-3.87.037-3.61-.01c-1.046.005-2.091.008-3.169.012-3.305-.425-5.186-1.408-7.859-3.368-1.545-3.091-1.293-5.594-1-9 3.023-4.072 5.314-4.505 10.266-4.533"/>
        <path d="M226.875 223.336q2.056-.005 4.113-.014a802 802 0 0 1 8.604.026c3.669.029 7.336.012 11.005-.018 2.83-.018 5.659-.012 8.488.001 2.008.005 4.016-.01 6.024-.026 10.12.13 10.12.13 13.22 3.05 2.08 3.293 2.467 4.822 1.671 8.645-1.645 2.604-2.361 3.573-5 5-4.618.77-9.202.7-13.875.664q-2.056.005-4.113.015a802 802 0 0 1-8.604-.027 691 691 0 0 0-11.005.018c-2.83.018-5.659.012-8.488 0-2.008-.006-4.016.01-6.024.025-10.12-.13-10.12-.13-13.22-3.049-2.08-3.294-2.467-4.823-1.671-8.646 4.415-6.987 11.315-5.722 18.875-5.664"/>
        <path d="m225.125 319.336 3.575-.014q3.737-.006 7.474.026c3.813.027 7.623 0 11.435-.032q3.633.005 7.266.02l3.454-.03c7.88.116 7.88.116 11.89 3.048C272 325 272 325 272.625 328c-.644 3.093-1.468 4.776-3.771 6.948-4.24 2.406-9.497 1.757-14.233 1.716l-3.65.015q-3.813.005-7.627-.027c-3.896-.027-7.79 0-11.686.032q-3.705-.005-7.412-.02l-3.535.03c-8.04-.116-8.04-.116-11.441-3.048-1.576-3.283-1.944-5.051-1.27-8.646 4.377-6.517 9.983-5.727 17.125-5.664"/>
        <path d="m227.875 351.75 3.879-.062 3.738-.016 3.418-.028c3.452.398 5.32 1.294 8.09 3.356 1.427 2.853 1.31 4.835 1 8-1.566 2.658-1.566 2.658-4 5-3.328.647-3.328.647-7.25.664l-2.106.015q-2.199.005-4.398-.027c-2.24-.027-4.475 0-6.715.032q-2.14-.006-4.281-.02l-3.922-.017C212 368 212 368 209.574 365.65c-1.916-3.226-2.124-4.955-1.574-8.65 4.077-7.183 12.625-5.221 19.875-5.25"/>
    </g>
</svg>
