<?xml version="1.0" encoding="UTF-8"?>
<svg data-bbox="6.607 5.847 498.857 498.545" height="512" width="512" xmlns="http://www.w3.org/2000/svg" data-type="shape">
    <g>
        <path d="M138.145 5.871c5.047-.145 10.033.379 15.043.941l2.053.213c4.453.548 7.916 1.66 11.76 3.975 1.488 2.977 1.332 6.103 1.5 9.375.265 5.884.265 5.884 1.5 11.625 3.98-1.65 6.543-3.455 9.374-6.625 2.928-2.986 5.133-4.721 9.395-4.895 11.367 2.648 21.114 15.7 27.793 24.645l1.34 1.739C220.886 51.014 221.6 53.942 221 59c-1.903 2.961-4.077 5.074-6.625 7.5-2.35 2.473-3.363 4.28-4.375 7.5 3.979 1.326 7.82 1.325 11.993 1.523 3.407.54 5.331 1.3 8.007 3.477.637 2.61.637 2.61 1 5l3.712-.011a54930 54930 0 0 1 98.113-.209l2.165-.003c11.547-.017 23.094-.049 34.64-.086q17.79-.056 35.58-.067a5539 5539 0 0 0 19.969-.047q9.407-.04 18.815-.03 3.443 0 6.887-.024c28.298-.18 28.298-.18 39.12 8.477l2.43 1.812c2.625 2.235 4.317 4.307 6.194 7.188l1.727 2.562c6.02 12.555 5.075 25.884 5.037 39.483q.007 3.656.016 7.311.016 8.865.001 17.73-.009 7.208-.004 14.417l.001 2.08.003 4.183c.009 13.05-.001 26.098-.017 39.146q-.02 16.767.003 33.533a20076 20076 0 0 1 .009 45.255q-.004 7.195.008 14.39.013 9.696-.014 19.391-.006 3.552.003 7.103c.009 3.24-.002 6.48-.017 9.72l.02 2.815c-.103 11.733-3.466 22.41-11.475 31.143-7.68 7.25-15.79 10.867-26.329 10.858l-3.994.004-4.377-.01h-4.612q-6.26-.001-12.52-.013-6.543-.008-13.085-.008-12.388-.005-24.776-.021-14.104-.015-28.208-.022-29.012-.017-58.025-.05v34c8.765-.157 8.765-.157 17.53-.36 8.02-.073 15.66.429 22.113 5.702 5.103 5.527 5.67 12.49 5.693 19.681l.02 2.26q.015 2.352.015 4.704c.004 2.375.04 4.748.079 7.122.068 9.037.004 17.09-6.45 24.047l-2 1.344-2 1.406c-4.282 2.342-8.56 2.24-13.343 2.234l-2.247.01q-3.73.01-7.46.011l-5.347.015q-7.264.019-14.529.024l-9.078.012q-14.202.02-28.404.027-16.393.007-32.786.05-12.673.033-25.346.034-7.567-.001-15.136.025-7.12.023-14.24.01-2.61-.002-5.22.013c-2.38.013-4.76.007-7.14-.004l-2.075.025c-6.03-.062-10.224-1.926-15.336-5.017-6.702-6.883-6.853-15.084-6.81-24.217l.03-2.351c.03-2.368.021-4.734.008-7.102q.01-2.292.026-4.584l-.009-2.11c.12-6.306 1.9-11.296 5.005-16.761 7.646-7.058 17.224-6.761 27.062-6.5L194 436v-34l-14.145.063c-15.435.067-30.87.111-46.304.144-9.357.02-18.714.049-28.07.095q-12.239.06-24.476.074a2329 2329 0 0 0-12.95.047q-6.106.039-12.212.03-2.23 0-4.46.024c-13.204.13-23.607-2.14-33.383-11.477-8.837-9.489-11.151-20.417-11.14-32.974l-.009-3.068c-.009-3.398-.01-6.795-.012-10.193l-.015-7.303q-.019-9.927-.024-19.854-.004-6.204-.011-12.409-.02-17.192-.026-34.385v-2.222l-.003-6.694v-2.239a22575 22575 0 0 0-.045-35.873q-.036-18.435-.037-36.871 0-10.343-.025-20.685-.025-9.735-.01-19.47 0-3.566-.014-7.13C6.51 108.916 6.51 108.916 17 96c8.508-8.492 18.203-11.552 30-12l.313-2.813c.737-3.416.942-4.196 3.687-6.187 3.215-.695 3.215-.695 6.938-1.125C63.526 73.233 63.526 73.233 69 72c-1.587-4.575-3.03-7.225-6.687-10.438-2.81-2.69-3.283-3.431-4.188-7.437C58.657 48.605 62.45 44.972 66 41l1.825-2.254C74.149 31.122 82.222 24.629 91 20c4.366 0 6.327.406 9.625 3.312L103 26c2.872 2.451 5.545 4.464 9 6 1.427-4.28 2.145-8.113 2.438-12.625.613-7.327.613-7.327 3.562-10.375 6.373-2.655 13.323-2.719 20.145-3.129M132 24a84 84 0 0 0-1.375 5.687C128.885 37.026 126.29 41.645 120 46c-5.51 1.836-11.33 1.997-16.804-.047A127 127 0 0 1 96 42a255 255 0 0 0-4-2 891 891 0 0 0-4.812 3.75l-2.707 2.11C82.257 47.777 80.64 49.58 79 52c.963 1.963 1.94 3.896 3.035 5.789 2.937 5.249 4.211 10.171 3.964 16.21-1.548 5.248-3.729 8.584-8 12-5.14 2.648-10.29 3.491-16 4-1.24 3.723-1.145 7.189-1.125 11.063l-.011 2.221c-.074 3.988-.074 3.988 1.136 7.717 1.839.482 3.698.886 5.563 1.25 6.39 1.5 11.912 3.9 15.621 9.555 2.053 5.52 1.88 12.45-.234 17.906-1.226 2.176-2.55 4.222-3.95 6.289a134 134 0 0 0-2 4q2.156 2.407 4.313 4.812l2.426 2.707c1.714 1.88 3.44 3.707 5.261 5.48 3.024-1.098 5.47-2.303 8.188-4.062 5.595-3.242 11.358-3.51 17.562-2.062 6.825 4.462 9.31 10.409 11.125 18.187A271 271 0 0 1 127 181c3.549 1.098 6.863 1.133 10.563 1.125l3.441.008c3.049.002 3.049.002 5.996-1.133 1.002-2.756 1.002-2.756 1.75-6.063 1.83-6.328 4.031-10.81 9.25-14.937 5.352-2.478 10.357-2.36 16-1 4.619 1.824 8.76 4.44 13 7a1138 1138 0 0 0 4.75-4.188l2.672-2.355c2.457-2.342 4.527-4.759 6.578-7.457l-1.812-2.063c-5.016-6.735-6.227-12.631-5.188-20.937 1.285-4.776 3.478-7.992 7.5-10.875 5.117-2.878 10.742-3.482 16.5-4.125q.333-4.124.625-8.25l.196-2.356c.538-5.56.538-5.56-1.82-10.394-1.942-.77-1.942-.77-4.188-1-5.912-1.093-10.014-3.06-14.188-7.563-3.549-5.324-3.33-11.252-2.625-17.437 1.301-3.29 3.048-6.065 5-9a141 141 0 0 0 2-4l-4.312-4.813-2.426-2.707c-1.714-1.88-3.44-3.706-5.262-5.48-3.023 1.1-5.469 2.304-8.187 4.062-4.387 2.543-8.782 3.14-13.813 2.938-5.257-1.551-8.534-3.765-12-8-2.395-4.614-3.57-9.105-4.472-14.18L152 24c-3.158-1.58-6.536-1.143-10-1.125l-2.234-.012c-4.013-.077-4.013-.077-7.766 1.137M29.188 107.812C-14.428 171.367 24 261.918 24 339h464c14.722-119.566 14.722-119.566-5-231-4.927-4.256-8.454-7.127-15.101-7.123l-2.541-.006-2.792.009-2.965-.003c-3.293-.002-6.587.004-9.88.01l-7.066-.001q-9.61.001-19.22.013-9.02.007-18.039.007-17.866.004-35.734.018-17.357.015-34.715.021h-2.16l-10.733.005q-44.526.016-89.054.05l-.227 1.832c-.35 2.766-.718 5.53-1.085 8.293l-.357 2.883c-.695 5.126-1.336 9.63-4.33 13.992-2.891.553-5.056.752-7.938.687-5.515-.139-5.515-.139-10.566 1.832L207 132c0 3.397.469 5.434 2.813 7.935l2.187 2.003c2.723 2.595 3.952 3.941 5.375 7.5-.559 5.314-3.093 8.46-6.375 12.563l-1.761 2.258c-6.325 7.61-14.472 14.118-23.239 18.741-4.381 0-6.344-.436-9.687-3.313L174 177c-3.336-3.745-3.336-3.745-8-5-3.248 1.722-3.248 1.722-4 5-.268 3.028-.444 6.055-.62 9.09-.373 2.862-.74 4.554-2.38 6.91-6.552 4.625-14.818 4.363-22.5 4.375l-2.91.005c-13.468-.206-13.468-.206-19.59-2.38-2.41-2.527-2.97-3.52-3.187-7.059l.375-6.75c-.21-3.57-1.125-5.318-3.188-8.191-4.373.485-6.073 1.72-8.937 5-2.445 2.545-3.822 3.902-7.125 5.25-10.473-.891-19.684-12.441-26.105-19.922-7.496-9.525-7.496-9.525-8.208-15.453 1.814-3.793 4.39-6.214 7.465-9.043 2.1-1.881 2.1-1.881 3.91-4.832.077-2.112.077-2.112-1-4-4.587-2.24-9.247-2.697-14.257-3.34-3.01-.725-4.045-1.097-5.743-3.66-.695-2.82-.695-2.82-1.125-6.125l-.468-3.488L46 110l-.343-2.856A490 490 0 0 1 45 101c-6.426-.803-11.43 2.43-15.812 6.812M24 355c-.582 13.524-.582 13.524 5.543 23.707 8.871 8.343 19.12 7.725 30.525 7.68q2.636.007 5.27.017c4.82.014 9.64.01 14.46.003 5.2-.005 10.402.008 15.603.018 10.187.017 20.373.018 30.56.013q12.42-.006 24.839.002l3.57.003 7.182.004c22.45.014 44.899.008 67.348-.003 20.537-.01 41.074.003 61.611.027q31.633.037 63.266.027c11.839-.003 23.678-.001 35.517.017q15.118.022 30.236-.003c5.141-.008 10.283-.01 15.424.005q7.064.02 14.127-.01 2.551-.006 5.103.01c9.899.056 19.176.03 27.254-6.482.516-.65 1.031-1.302 1.562-1.973l1.625-1.964C489.438 368.755 488 364.794 488 355zm187 47v34h90v-34zm-45 53c-.295 3.191-.295 3.191-.23 6.941l.001 2.07q.004 2.164.024 4.33c.018 2.216.02 4.432.02 6.65-.639 6.501-.639 6.501 1.185 12.009 2.29.1 4.58.126 6.872.127l2.203.005c2.454.004 4.909 0 7.363-.003l5.257.006q7.159.005 14.317 0 7.474-.003 14.95 0 12.555.003 25.109-.005 14.536-.007 29.074.002 12.457.007 24.914.003 7.45-.003 14.901.001 7.004.004 14.006-.005 2.578-.001 5.156.002 3.504.002 7.007-.006l3.971-.001c2.794.206 2.794.206 3.9-1.126.101-2.364.14-4.698.133-7.063l.003-2.14q0-2.245-.005-4.49c-.006-2.297 0-4.595.006-6.893q0-2.175-.004-4.352l.006-2.096c.264-3.263.264-3.263-1.139-5.966a158 158 0 0 0-6.826-.134l-2.189-.007q-3.657-.007-7.314-.004l-5.223-.01q-7.112-.014-14.225-.012-5.927-.002-11.854-.009-13.978-.011-27.957-.01-14.442 0-28.886-.025-12.38-.02-24.76-.018-7.402.001-14.805-.013-6.96-.014-13.92-.003-2.56.002-5.12-.007a1011 1011 0 0 0-6.967.005l-3.946-.002c-3.122-.068-3.122-.068-5.008 2.249"/>
        <path d="m285.032 123.866 2.073-.007q3.42-.007 6.84-.005l4.919-.01c4.446-.009 8.893-.01 13.339-.012q4.171 0 8.343-.005 14.568-.014 29.134-.013c9.038.001 18.075-.01 27.113-.025q11.656-.02 23.312-.018 6.954.001 13.908-.013 6.545-.014 13.09-.003 2.394.002 4.786-.007c24.194-.086 24.194-.086 33.11 8.252 4.957 6.6 7.116 11.972 7.148 20.184l.022 3.848.008 4.216.02 4.446q.028 7.298.041 14.595l.012 5.033q.03 11.826.042 23.652.015 13.629.077 27.258.044 10.548.048 21.096c.002 4.196.011 8.391.036 12.587q.035 5.926.018 11.854-.001 2.166.02 4.331c.091 10.247-.645 18.927-7.741 26.775-6.357 5.808-13.2 8.243-21.725 8.272l-2.165.011q-3.6.015-7.198.019l-5.155.02c-5.65.02-11.299.031-16.949.041l-5.837.012q-13.719.03-27.436.042-15.822.016-31.645.076-12.236.044-24.471.049c-4.87.002-9.74.011-14.61.036q-6.877.035-13.756.017-2.517 0-5.033.02c-10.32.08-18.617-.661-27.583-6.24-9.325-9.592-9.485-20.688-9.446-33.44l-.01-4.246c-.01-3.82-.006-7.64 0-11.46.005-4.012 0-8.023-.003-12.035q-.003-10.103.011-20.205.014-11.654-.004-23.307-.013-10.034-.005-20.067.006-5.98-.003-11.96-.008-5.625.01-11.249c.004-2.02-.002-4.04-.008-6.06.05-10.9.927-20.474 8.685-28.725 7.18-6.431 15.346-7.617 24.618-7.63M271 145c-4.631 9.261-2 20.645-2 31h187c1.922-18.665 1.922-18.665-4.5-32.813-3.423-2.71-7.106-2.32-11.274-2.334l-2.099-.012q-3.489-.013-6.978-.018l-4.997-.02a8119 8119 0 0 0-16.422-.042l-5.652-.012q-13.275-.029-26.552-.042-15.328-.016-30.656-.076a6973 6973 0 0 0-23.692-.048c-4.718-.003-9.435-.012-14.152-.037q-6.657-.033-13.314-.017-2.442 0-4.883-.02a495 495 0 0 0-6.674.003l-3.77-.007c-4.09.598-6.22 1.87-9.385 4.495m-2 48-.188 50.687-.082 15.999c-.01 4.737-.01 4.737-.016 9.473q-.008 3.163-.03 6.325c-.023 3.195-.026 6.39-.025 9.585l-.032 2.841c.023 4.86.195 8.15 3.373 12.09 4.352 3.808 7.958 4.126 13.622 4.14l2.05.01q3.405.011 6.811.01l4.879.016q6.633.019 13.265.024l8.286.011q12.961.022 25.924.028 14.964.007 29.93.05 11.565.032 23.13.034 6.909 0 13.818.024 6.499.025 12.998.01 2.385 0 4.768.014c2.172.013 4.343.007 6.515-.004l3.681.005c4.994-.56 8.236-2.198 11.635-5.872 2.227-3.3 2.813-5.768 2.808-9.657l.004-2.557-.01-2.807v-3.004q-.003-4.822-.017-9.643l-.003-5.948c-.005-7.357-.019-14.715-.032-22.072L456 193z"/>
        <path d="m87.386 251.855 3.738-.01q5.052-.011 10.103-.012 3.164-.001 6.327-.005 11.056-.015 22.112-.013 10.274-.001 20.547-.026 8.847-.019 17.695-.018 5.271.002 10.544-.013c3.924-.011 7.849-.007 11.774 0 1.725-.01 1.725-.01 3.485-.018 12.053.047 22.517 1.521 31.539 10.01 6.532 6.916 9.68 15.153 10.063 24.625-.291 9.95-4.256 18.72-11.387 25.637-9.092 7.568-17.874 8.434-29.441 8.392l-4.03.021a1672 1672 0 0 1-10.871.011q-4.555-.002-9.11.01-10.755.019-21.509 0a4258 4258 0 0 0-22.114.03q-9.528.032-19.055.023a2079 2079 0 0 0-11.351.016q-5.34.021-10.682-.007c-1.912-.006-3.825.008-5.737.023-11.664-.098-20.39-2.874-28.858-11.019-6.76-7.833-8.554-15.977-8.441-26.063.73-9.222 4.797-16.92 11.273-23.449 10.04-7.943 21.123-8.15 33.386-8.145M63.75 275.188c-2.908 3.652-4.633 7.09-4.75 11.812 1.222 6.169 4.33 11.131 9.5 14.75 3.975 1.988 7.325 2.376 11.749 2.39l3.22.018 3.516.003 3.717.015q5.042.019 10.085.024 3.154.004 6.308.012 9.878.021 19.757.027 11.384.007 22.767.051 8.813.032 17.624.033 5.256 0 10.514.025c3.913.02 7.826.015 11.74.009l3.493.028c7.682-.04 13.746-.628 19.823-5.76 4.039-4.847 5.771-7.996 5.539-14.347-.76-4.927-3.203-8.215-6.852-11.59-4.173-2.817-6.86-3.938-11.952-3.948l-3.356-.022-3.668.008-3.874-.016q-5.256-.017-10.513-.011-4.39 0-8.782-.009-10.362-.015-20.724-.005c-7.12.006-14.241-.007-21.362-.028q-9.177-.026-18.355-.02c-3.652.001-7.304-.001-10.956-.015-4.075-.015-8.149-.006-12.223.006l-3.656-.023c-7.449.047-13.198.649-18.329 6.583"/>
        <path d="M174.125 63.188c9.039 8.04 16.159 20.615 17.014 32.791.457 10.313.279 19.488-4.139 29.022l-1.062 2.374c-6.321 12.642-17.53 21.997-30.875 26.563-14.945 3.73-29.435 2.188-43.063-4.937-12.076-7.65-19.276-18.246-24.312-31.438-2.842-14.725-2.012-29.43 6.07-42.379 8.419-12.133 19.566-20.482 34.166-23.824 17.372-3.01 32.027 1.906 46.201 11.828m-64.809 18.883c-6.15 9.017-7.66 18.976-5.855 29.656 2.677 10.171 9.726 18.186 18.687 23.563 8.205 4.24 16.783 5.086 25.868 3.027 8.967-3.019 16.72-8.35 21.984-16.317 5.532-11.275 6.27-20.898 2.316-32.816-3.608-8.726-10.068-14.747-18.316-19.183-16.722-6.545-33.389-1.78-44.684 12.07"/>
        <path d="m291.836 150.482 2.701-.021a840 840 0 0 1 8.838.007q3.071-.003 6.142-.011 6.435-.008 12.872.021c5.501.023 11.002.01 16.504-.014 4.227-.015 8.455-.01 12.683 0q3.043.005 6.085-.01c2.835-.01 5.669.006 8.503.028l2.544-.025c3.678.054 5.834.195 8.811 2.45 1.604 2.266 2.024 3.347 1.981 6.093l.031 2c-.809 3.046-2.011 4.092-4.53 6a62 62 0 0 1-8.837.517l-2.701.021a840 840 0 0 1-8.838-.007q-3.071.004-6.142.011-6.435.008-12.872-.02a1932 1932 0 0 0-16.504.013c-4.227.015-8.455.01-12.682 0q-3.044-.005-6.086.01c-2.835.01-5.668-.006-8.503-.028l-2.544.025c-3.678-.054-5.833-.195-8.811-2.45-1.603-2.266-2.024-3.347-1.98-6.092l-.032-2c1.791-6.745 7.447-6.575 13.367-6.518"/>
        <path d="m91.124 277.807 2.223-.025q3.648-.036 7.297-.056l2.517-.016q6.592-.039 13.186-.06c4.54-.017 9.079-.062 13.618-.113 3.49-.033 6.982-.045 10.472-.05q2.51-.01 5.02-.046c2.344-.032 4.686-.032 7.03-.025l2.09-.05c3.804.05 5.351.577 8.365 2.979C165 283 165 283 165.437 286.062c-.416 2.798-.877 4.597-2.437 6.938-2.99 1.495-6.06 1.156-9.34 1.161l-2.292.015c-2.507.015-5.014.021-7.52.027l-5.217.017q-5.47.015-10.943.02c-4.678.006-9.357.03-14.036.058-3.592.019-7.183.024-10.775.025q-2.588.005-5.176.025c-2.41.017-4.821.015-7.232.008l-2.168.028c-2.875-.024-4.822-.047-7.213-1.73-1.697-2.58-1.968-4.58-2.088-7.654 2.76-6.968 5.142-7.15 12.124-7.193"/>
        <path d="M393 216c3.106 2.1 5.693 4.666 8.33 7.32 2.003 2.015 4.03 4.003 6.057 5.993 3.059 3.02 6.114 6.044 9.148 9.09l1.95 1.952c2.084 2.263 2.49 3.397 2.796 6.497-.34 3.8-1.157 4.811-3.781 7.523l-2.441 2.55L412 260l-4.09 4.168a1479 1479 0 0 1-8.531 8.586l-1.826 1.822c-2.933 2.689-5.644 2.825-9.576 2.768C386 277 386 277 383.5 274.875c-1.844-3.534-2.347-4.949-1.5-8.875 2.002-2.99 4.468-5.455 7-8l1.411-1.432c3.17-3.216 6.37-6.401 9.589-9.568l-1.636-1.541a988 988 0 0 1-7.301-7.022c-.85-.8-1.7-1.6-2.577-2.423-6.936-6.77-6.936-6.77-7.634-10.924.171-3.575.935-5.303 3.148-8.09 3.154-1.577 5.635-1.914 9-1"/>
        <path d="M338 216c2.964 2.028 3.823 3.492 5 6.875 0 4.774-2.535 7.61-5.736 10.92a295 295 0 0 1-6.014 5.58l-2.113 1.941A1073 1073 0 0 1 324 246c4.347 5.198 8.943 9.968 13.828 14.668 1.97 2.115 3.201 3.633 4.172 6.332-.176 3.352-.437 5.974-2.062 8.938-3.314 1.817-6.356 1.953-9.938 1.062-1.84-1.265-1.84-1.265-3.68-2.957l-2.097-1.922c-3.94-3.76-7.82-7.573-11.66-11.433-.815-.81-1.629-1.62-2.467-2.456l-2.342-2.345-2.115-2.119c-2.32-2.503-2.621-3.611-3.014-7.08.479-4.71 1.962-5.525 5.375-8.688l5.012-5.047 4.228-4.247 2.912-2.933q2.114-2.132 4.235-4.257l2.538-2.554c3.586-3.39 6.194-3.383 11.075-2.962"/>
        <path d="M374 209c1.938 1.063 1.938 1.063 3 3 .988 4.921.95 8.57-.276 13.423l-.922 3.72q-.513 1.982-1.029 3.962-.523 2.055-1.044 4.112-1.096 4.293-2.215 8.58c-.953 3.657-1.877 7.32-2.793 10.986-.711 2.828-1.44 5.652-2.173 8.475q-.522 2.024-1.026 4.05c-.472 1.891-.97 3.774-1.47 5.658l-.837 3.246c-1.476 3.387-3.16 4.77-6.215 6.788-3.436.8-6.787.665-9.937-1.062-4.007-7.306-.854-14.853 1.234-22.317q.531-1.947 1.059-3.895a1426 1426 0 0 1 2.24-8.132c.963-3.458 1.908-6.921 2.847-10.386q1.093-4.018 2.199-8.033.779-2.839 1.553-5.68l.98-3.509.85-3.072c2.782-8.317 4.997-10.89 13.975-9.914"/>
        <path d="m247.25 362.336 2.106-.014q2.199-.006 4.398.026c2.24.027 4.475 0 6.715-.032q2.14.005 4.281.02l3.922.017c3.328.647 3.328.647 5.746 3.001 1.96 3.28 2.287 4.888 1.582 8.646-2.599 3.266-4.099 4.82-8.242 5.647l-3.633.017-3.984.02-2.06-.032c-2.076-.027-4.146 0-6.222.032l-3.984-.02-3.633-.017C240.1 378.82 238.6 377.266 236 374c-.705-3.758-.379-5.367 1.582-8.646 3.263-3.176 5.166-2.998 9.668-3.018"/>
        <path d="m399 150.563 2.156-.021c3.158.038 5.487.266 8.285 1.775 2.501 2.702 2.497 5.087 2.559 8.683-1.346 2.948-2.086 4.543-5 6-2.641.178-5.232.278-7.875.313l-2.184.088c-3.493.042-5.541-.115-8.418-2.17-1.6-2.344-2.067-3.43-2.023-6.23l-.031-2c1.71-6.44 6.773-6.6 12.531-6.438"/>
        <path d="m432.5 150.375 2.3-.059c4.07.036 5.642.159 8.7 3.036 1.848 3.262 2.116 4.953 1.5 8.648-1.5 2.652-1.5 2.652-4 5-2.851.714-5.575.654-8.5.563l-2.3.033c-3.716-.05-5.636-.185-8.7-2.416-2.215-3.22-2.036-5.362-1.5-9.18 3.202-5.73 6.478-5.778 12.5-5.625"/>
    </g>
</svg>
