<?xml version="1.0" encoding="UTF-8"?>
<svg data-bbox="22.999 23.449 449.455 465.103" height="512" width="512" xmlns="http://www.w3.org/2000/svg" data-type="shape">
    <g>
        <path d="M85.08 23.492q2.094-.007 4.188-.019c3.807-.017 7.615-.008 11.422.004 4.118.01 8.235-.005 12.352-.016 8.055-.018 16.11-.014 24.165-.002q9.822.013 19.645.006l2.829-.002 5.69-.004c17.766-.011 35.532.002 53.299.023q22.847.026 45.695-.004a27906 27906 0 0 1 58.782-.013 9961 9961 0 0 0 22.43-.01q11.956-.017 23.914.013c4.064.01 8.128.015 12.192.001q5.589-.017 11.177.016c1.975.007 3.95-.006 5.924-.02C410.8 23.57 420.224 26.623 429 35c9.754 10.217 11.604 20.985 11.481 34.724q.003 2.198.01 4.397c.01 4-.006 8-.026 12-.018 4.323-.012 8.647-.009 12.97q.002 11.223-.033 22.446c-.032 10.818-.043 21.635-.048 32.453a31733 31733 0 0 1-.073 52.658q-.056 25.569-.082 51.138l-.003 3.187-.015 15.826c-.042 43.734-.113 87.467-.202 131.2h32c.093 6.779.172 13.554.22 20.332q.03 3.452.082 6.904c.05 3.324.072 6.648.09 9.972l.062 3.076c.003 11.326-3.62 20.511-11.454 28.717-9.6 9.165-19.874 11.609-32.865 11.508l-3.792.019c-3.443.016-6.885.008-10.328-.004-3.725-.01-7.45.005-11.174.016-7.285.017-14.57.014-21.854.002q-8.884-.013-17.77-.006l-2.559.002-5.148.004c-16.073.011-32.145-.002-48.218-.023q-20.664-.025-41.329.003a22838 22838 0 0 1-55.728.012q-8.869-.003-17.738.012-10.815.018-21.63-.013c-3.676-.01-7.351-.015-11.026-.001-3.992.014-7.983-.003-11.975-.023l-3.488.027c-11.624-.112-20.918-3.46-29.378-11.535-8.677-9.09-11.608-19.07-11.545-31.438l-.032-3.286c-.029-3.544-.03-7.087-.032-10.632q-.023-3.708-.05-7.418c-.044-6.48-.064-12.958-.079-19.437-.02-6.623-.061-13.246-.101-19.87q-.112-19.458-.16-38.92l-1.74 1.747a24433 24433 0 0 1-16.202 16.247q-4.167 4.174-8.33 8.354-4.013 4.029-8.033 8.053l-3.07 3.08a2450 2450 0 0 1-4.29 4.297l-2.469 2.477C56.999 392 56.999 392 55.999 392l.013-1.662q.144-20.057.114-40.116c-.008-6.467.002-12.933.055-19.4.05-6.245.052-12.488.02-18.733q-.005-3.568.04-7.136c.851-12.809.851-12.809-3.444-24.344-2.494-2.249-4.922-3.899-7.798-5.61-14.901-15.666-21.909-38.78-22-60 .87-26.247 11.341-48.36 30.375-66.312C66.954 137.213 85.88 128 104 128v-24H40l-.25-23.813-.11-7.448q-.018-2.973-.03-5.946l-.062-3.036C39.54 52.414 43.152 43.22 50.999 35 61.012 25.44 71.58 23.398 85.08 23.492M113 40l1.058 2.266 1.379 2.984 1.371 2.953c2.048 4.807 2.334 8.718 2.397 13.952l.03 2.16q.045 3.522.08 7.044l.064 4.893q.081 6.432.153 12.863.077 6.566.16 13.131.162 12.878.307 25.754l3.696.794 4.875 1.061 2.427.52c22.84 5.003 42.459 18.055 55.127 37.812 8.88 14.987 13.47 29.648 13.313 47.125l-.02 3.567c-.171 9.284-1.316 17.358-4.418 26.12l-1.062 3.138c-4.499 11.949-13.1 27.178-24.033 34.21-2.068 1.475-2.068 1.475-2.412 3.693l-.012 2.383-.042 2.74.016 3-.032 3.164c-.03 3.457-.03 6.914-.032 10.372q-.023 3.593-.05 7.184a4116 4116 0 0 0-.079 18.924c-.02 6.435-.061 12.87-.101 19.304q-.112 18.945-.16 37.889l-1.74-1.746a24433 24433 0 0 0-16.202-16.247q-4.167-4.174-8.33-8.354-4.014-4.029-8.033-8.053l-3.07-3.081a2450 2450 0 0 0-4.29-4.296l-2.469-2.477c-1.562-1.86-1.562-1.86-2.867-1.746q-.07 19.911-.103 39.822-.014 9.246-.047 18.493a6401 6401 0 0 0-.04 17.856q-.005 3.402-.021 6.802c-.015 3.184-.017 6.367-.016 9.55l-.021 2.82c.028 9.035 1.13 17.636 7.248 24.657 7.245 5.702 13.899 6.799 23 6 6.73-1.779 11.027-6.492 15-12 7.266-13.871 3-42.003 3-51h256c.059-60.921.059-60.921.098-121.842l.012-24.636.002-3.12q.014-24.924.043-49.849.028-25.58.034-51.159.003-15.784.027-31.568.015-10.823.011-21.647c0-4.163.001-8.326.012-12.49q.014-5.72.003-11.442c-.001-2.027.008-4.054.017-6.082-.03-9.218-.149-17.734-6.259-25.165-8.841-8.779-17.614-9.152-29.617-9.12l-3.567-.003q-4.887-.001-9.776.007-5.275.005-10.552.002-9.136 0-18.273.008-13.21.01-26.42.012-21.434.004-42.867.018-20.819.015-41.638.021h-2.593l-12.878.005Q166.41 39.966 113 40m-51.653 8.863C53.466 60.263 56 74.946 56 88h48c1.455-21.815 1.455-21.815-7-41-6.23-5.544-12.346-6.973-20.59-6.578-6.25 1.06-10.86 3.704-15.062 8.441m-1.16 117.387c-15.139 15.866-19.821 34.434-19.535 55.781.3 7.933 2.303 14.694 5.347 21.969l1.164 2.848C53.496 260.783 64.95 271.463 78 279l1.989 1.184c16.181 8.905 34.379 9.11 51.875 4.882 19.152-5.747 34.46-18.518 44.136-36.066 8.002-17.596 10.158-37.067 4.262-55.707-7.132-18.614-20.09-34.477-38.531-42.762-29.577-11.844-58.55-5.98-81.543 15.719M71.999 295v56c5.519-4.688 5.519-4.688 10.733-9.619l1.94-1.94 2.011-2.027 2.122-2.127q3.319-3.328 6.632-6.662l4.53-4.543q5.52-5.537 11.032-11.082c3.183 1.404 5.305 3.064 7.743 5.532l2.174 2.183 2.314 2.355 2.397 2.413q3.786 3.816 7.56 7.642a6352 6352 0 0 0 7.592 7.663q2.364 2.383 4.721 4.774l2.145 2.165 1.894 1.92c1.25 1.466 1.25 1.466 2.46 1.353v-56l-21 7c-21.175 3.53-39.12.229-59-7m112 129-1 33c-4 11-4 11-6 15a127781 127781 0 0 0 110.758.111q18.454.015 36.908.043 18.942.028 37.884.034 11.685.004 23.369.028 8.965.016 17.931.01 3.674 0 7.347.012c3.347.01 6.693.008 10.04.002 1.45.01 1.45.01 2.928.018 9.378-.041 17.57-.954 24.464-7.899C459.122 452.73 456 439.84 456 424z"/>
        <path d="M139.313 175.313c10.24 7.733 18.727 17.597 20.688 30.688 1.322 16.144-.435 29.16-11 42-7.622 8.828-17.494 15.042-29.303 16.231-16.643 1.033-28.751-2.004-41.662-12.888-8.63-8.006-13.703-18.292-14.352-30-.56-16.686 3.106-28.674 14.629-41.094 16.295-15.422 42.416-17.271 61-4.937m-52.312 20.688c-5.96 8.777-6.799 16.46-6 27 1.909 8.418 6.54 15.184 13.84 19.792 9.658 5.128 17.554 6.398 28.16 3.207 8.75-3.775 14.889-10.003 18.937-18.625 2.672-8.49 2.273-17.827-1.437-25.875-4.19-7.3-9.95-12.694-17.82-15.84-13.5-3.325-26.479-.13-35.68 10.34"/>
        <path d="M383.89 66.742C392.235 71.718 397.424 78.605 400 88c.998 11.1.349 20.734-6.75 29.812-5.658 6.058-12.705 9.779-20.985 10.524-10.615.239-19.56-.964-27.664-8.492-8.04-9.255-9.33-18.072-8.78-29.895.69-7.514 4.646-13.975 10.178-18.95 10.739-8.075 25.567-10.17 37.891-4.257m-29.266 20.883c-2.204 4.578-2.422 8.38-1.625 13.375 2.33 4.838 5.162 7.67 10 10 4.995.797 8.798.579 13.375-1.625 3.584-3.243 6.22-5.84 7.008-10.774.256-5.683-.446-9.25-4.383-13.601-4.35-3.936-7.917-4.639-13.601-4.383-4.934.787-7.53 3.424-10.774 7.008"/>
        <path d="M280 360h112v16H280z"/>
        <path d="M232 288h112v16H232z"/>
        <path d="M232 240h112v16H232z"/>
        <path d="M232 192h112v16H232z"/>
        <path d="M160 72h112v16H160z"/>
        <path d="M232 144h56v16h-56z"/>
    </g>
</svg>
