<?xml version="1.0" encoding="UTF-8"?>
<svg data-bbox="7.451 7.439 497.106 497.417" height="512" width="512" xmlns="http://www.w3.org/2000/svg" data-type="shape">
    <g>
        <path d="m309 7.469 2.645-.012q2.763-.003 5.527.022c2.818.021 5.634 0 8.453-.026q2.688.004 5.375.016l2.55-.025c3.803.061 5.819.105 8.974 2.36 2.123 3.16 2.15 6.257 2.226 9.946l.09 2.114A317 317 0 0 1 345 27c1.577.702 3.162 1.386 4.75 2.063l2.672 1.16c2.823.851 3.908.958 6.578-.223 1.903-1.578 1.903-1.578 3.625-3.5 2.653-2.827 4.11-4.259 8-5 6.658.987 11.05 6.924 14.964 12.073 6.07 7.68 11.601 13.513 21.642 14.915 7.592.525 15.147.33 22.743-.021 5.005-.213 10.014-.283 15.023-.364 2.656-.043 5.297-.132 7.953-.247 8.398-.268 13.79.411 20.292 6.11l1.633 1.972 1.68 1.965c3.254 4.723 3.732 9.026 3.686 14.646l.005 2.277c.003 2.514-.008 5.027-.019 7.54v5.412c.002 4.894-.01 9.788-.024 14.682-.013 5.116-.014 10.231-.016 15.347q-.011 14.529-.043 29.058a29634 29634 0 0 0-.043 33.084Q480.068 213.974 480 248l1.772-.063c2.66-.084 5.318-.135 7.978-.187l2.79-.101c6.789-.099 6.789-.099 10.068 2.1 1.506 2.436 1.897 3.688 1.91 6.526l.038 2.53-.025 2.71.012 2.818q.004 2.95-.022 5.901c-.02 2.992 0 5.981.026 8.973q-.004 2.874-.016 5.746l.025 2.687c-.104 7.007-1.869 12.294-6.52 17.602l-1.974 1.633-1.964 1.68c-4.197 2.891-7.852 3.695-12.907 3.703-1.169.006-2.337.012-3.54.02l-3.878-.01q-2.065.005-4.13.013c-3.78.013-7.562.012-11.343.01-4.079 0-8.157.01-12.236.02-7.99.017-15.98.022-23.971.023q-9.743.001-19.485.012-27.618.027-55.238.025h-6.02c-16.109-.001-32.218.018-48.326.046q-24.81.044-49.618.04c-9.286 0-18.572.006-27.858.027q-11.859.029-23.718.01c-4.034-.007-8.067-.007-12.1.01q-5.542.023-11.083-.005c-1.965-.004-3.93.011-5.896.027-8.138-.064-13.7-.976-19.993-6.49l-1.633-1.973-1.68-1.965c-3.747-5.439-3.765-10.453-3.78-16.852l-.021-2.842q-.015-2.966-.015-5.933c-.004-3.026-.04-6.052-.078-9.078q-.009-2.886-.012-5.772l-.043-2.74c.045-6.197.045-6.197 2.235-9.458 2.613-1.639 3.973-1.892 7.035-1.813l2.695.039 2.789.101 2.836.055c2.305.047 4.61.119 6.914.195v-16l-5.592.027q-26.046.121-52.091.18-13.391.03-26.783.095-11.67.06-23.34.075c-4.121.005-8.242.017-12.362.046q-5.817.04-11.632.03-2.136 0-4.272.024c-1.942.02-3.885.013-5.828.004l-3.296.011c-3.527-.619-4.7-1.63-6.804-4.492-.503-2.105-.503-2.105-.508-4.402l-.034-2.651.024-2.884-.02-3.056c-.018-3.336-.007-6.671.007-10.007q-.005-3.475-.012-6.949-.008-7.283.022-14.566c.022-6.228.01-12.456-.015-18.684-.014-4.783-.01-9.567 0-14.35q.005-3.445-.01-6.89c-.01-3.208.006-6.415.028-9.623l-.024-2.885.034-2.65.005-2.298C8.23 123.038 9.492 121.873 12 120c2.804-.492 2.804-.492 6.1-.48l3.79-.017 4.15.043q2.188.001 4.376-.002c3.959 0 7.917.023 11.875.05 4.137.026 8.275.028 12.412.033 7.834.012 15.668.045 23.502.085 8.919.045 17.837.067 26.756.087 18.347.042 36.693.112 55.039.201l-.027-2.034c-.089-7.008-.149-14.016-.193-21.025q-.03-3.92-.082-7.839c-.048-3.763-.071-7.526-.089-11.29l-.062-3.52c-.002-7.96 1.024-13.38 6.418-19.534l1.972-1.633 1.965-1.68c4.341-2.99 7.842-3.68 13.068-3.383l3.588.172 3.868.196c32.294 2.853 32.294 2.853 60.823-8.388 4.43-4.395 8.123-9.391 11.32-14.741 1.431-2.3 1.431-2.3 3.431-3.3 2.625-.5 2.625-.5 6 0 3.692 2.62 6.807 5.806 10 9 4.55-.402 8.78-2.355 13-4l.078-3.141q.084-2.055.172-4.11l.043-2.066c.15-3.097.439-5.285 2.183-7.88 3.734-2.669 7.037-2.378 11.524-2.335M312 24l-1 16-4.312 1.188c-6.537 1.953-12.638 4.78-18.727 7.836-2.741 1.316-4.912 1.974-7.961 2.101-4.37-1.639-6.954-4.673-10-8.125-3.215 1.409-5.322 3.104-7.75 5.625l-1.86 1.914L259 52c1.286 2.835 2.208 4.193 4.563 6.375C266.5 61.538 266.857 62.718 267 67c-.956 3.082-2.331 5.92-3.75 8.813a911 911 0 0 0-2.172 4.582l-1.072 2.276c-1.35 3.125-2.348 6.322-3.304 9.586C256 94 256 94 254 95c-4.66.453-9.327.703-14 1v16l6.813.313c6.602.303 6.602.303 9.023 1.894 1.5 2.31 2.2 4.524 2.976 7.168 1.823 5.866 4.294 11.169 7.114 16.617 1.277 3.576 1.198 5.4.074 9.008-1.629 2.117-1.629 2.117-3.562 3.875l-1.942 1.805L259 154c1.408 3.215 3.103 5.322 5.625 7.75l1.914 1.86L268 165c2.835-1.286 4.193-2.208 6.375-4.562 3.163-2.937 4.343-3.295 8.625-3.438 3.082.956 5.92 2.332 8.813 3.75a911 911 0 0 0 4.582 2.172l2.275 1.072c3.126 1.35 6.322 2.348 9.587 3.304C310 168 310 168 311 170c.453 4.66.703 9.327 1 14h16l.313-6.812c.302-6.603.302-6.603 1.894-9.024 2.31-1.5 4.523-2.2 7.168-2.976 5.866-1.823 11.168-4.294 16.617-7.114 3.576-1.277 5.4-1.197 9.008-.074 2.117 1.63 2.117 1.63 3.875 3.563l1.805 1.941L370 165c3.215-1.408 5.322-3.103 7.75-5.625l1.86-1.914 1.39-1.46c-1.286-2.835-2.208-4.193-4.562-6.376-2.938-3.163-3.295-4.342-3.438-8.625.956-3.082 2.331-5.919 3.75-8.812a911 911 0 0 0 2.172-4.582l1.072-2.276c1.35-3.125 2.348-6.322 3.304-9.586C384 114 384 114 386 113c4.66-.452 9.327-.702 14-1V96l-6.812-.312c-6.603-.303-6.603-.303-9.024-1.895-1.5-2.31-2.2-4.523-2.976-7.168-1.823-5.865-4.294-11.168-7.114-16.617-1.277-3.575-1.198-5.4-.074-9.008 1.629-2.117 1.629-2.117 3.563-3.875l1.94-1.804L381 54c-1.408-3.216-3.103-5.323-5.625-7.75l-1.914-1.86L372 43c-2.835 1.285-4.193 2.207-6.375 4.562C362.462 50.5 361.282 50.857 357 51c-3.082-.955-5.92-2.331-8.812-3.75a911 911 0 0 0-4.583-2.172l-2.275-1.072c-3.126-1.35-6.322-2.348-9.587-3.304C330 40 330 40 329 38c-.453-4.66-.703-9.327-1-14zM178 67c-1.907 3.33-2.247 6.18-2.227 9.974v2.911l.032 3.104.008 3.207c.011 3.372.037 6.744.062 10.117q.016 3.435.027 6.869.035 8.409.098 16.818h16l.113-7.77q.07-3.723.15-7.446.049-2.587.083-5.177c.034-2.48.086-4.959.142-7.439l.02-2.34c.147-5.353.147-5.353 1.728-7.529 2.267-1.669 3.618-1.694 6.419-1.731l2.85-.06 3.07-.02 3.148-.054c3.321-.054 6.643-.088 9.964-.121q3.377-.05 6.752-.104Q234.72 80.083 243 80q1.3-2.615 2.563-5.25l1.44-2.953c1.036-2.906 1.17-4.001-.003-6.797-1.768-1.768-4.313-1.146-6.71-1.16l-3.702-.03q-2.02-.008-4.037-.013l-4.123-.017q-4.332-.015-8.663-.02c-3.691-.005-7.382-.03-11.073-.058a1413 1413 0 0 0-8.526-.025q-2.04-.004-4.08-.025c-1.91-.017-3.82-.013-5.73-.008l-3.287-.011c-3.662.438-5.986 1.344-9.069 3.367m214-1c.215 3.55 1.613 6.484 3.055 9.684l1.1 2.45L397 80l1.764.018q9.076.098 18.152.245 3.389.05 6.777.084c3.245.033 6.489.085 9.733.142l3.068.019 2.851.06 2.51.034c2.766.514 3.476 1.135 5.145 3.398.385 2.93.385 2.93.399 6.587l.02 2.037c.019 2.257.016 4.514.013 6.772l.031 4.848c.028 4.392.037 8.784.043 13.177.01 4.588.036 9.177.06 13.765.044 8.691.072 17.382.095 26.073.027 9.894.071 19.787.117 29.68.093 20.354.164 40.708.222 61.061h16q.106-34.266.155-68.532c.016-10.606.037-21.213.071-31.82q.046-13.867.056-27.733c.004-4.896.013-9.79.035-14.686q.03-6.912.022-13.823.001-2.537.019-5.072c.015-2.31.01-4.62.003-6.93l.008-3.917c-.404-3.819-1.358-6.233-3.369-9.487-3.67-2.17-7.022-2.252-11.227-2.259l-3.741-.019-4.012.013-4.135-.006q-4.32-.004-8.642.01c-3.695.012-7.39.005-11.086-.007q-4.264-.009-8.527 0-2.044.003-4.09-.004c-1.9-.005-3.8.004-5.7.013l-3.28.005c-2.726-.002-2.726-.002-4.56 2.254M208 96v24l6 2c1.15 2.302 1.13 3.608 1.14 6.169l.018 2.647.003 2.91.015 3.06q.021 5.028.027 10.054l.017 6.965q.015 7.307.02 14.615c.006 6.253.03 12.505.058 18.758.019 4.796.024 9.592.026 14.389q.004 3.458.024 6.917c.017 3.22.015 6.44.008 9.66l.028 2.905c-.005.877-.01 1.753-.017 2.656l.005 2.307c-.483 2.582-1.285 3.425-3.372 4.988l-4 1v16h224V96h-16l-.113 6.02q-.073 2.889-.15 5.778c-.049 1.995-.084 3.99-.118 5.985l-.107 3.8-.08 3.506C415 124 415 124 413.692 125.87c-2.84 1.898-6.068 1.71-9.38 1.819l-2.126.103a427 427 0 0 1-5.186.21 404 404 0 0 0-2.562 5.25l-1.442 2.952c-1.059 2.973-1.31 3.979.004 6.797 1.579 1.903 1.579 1.903 3.5 3.625 2.827 2.653 4.259 4.11 5 8-1.21 8.166-11.166 15.194-16.812 20.813l-2.456 2.467-2.345 2.341-2.119 2.115c-2.183 2.024-3.458 2.58-6.393 3.14-5.85-.867-9.327-5.453-13.375-9.5-4.983.301-9.544 2.912-14 5l-.113 3.175q-.098 2.069-.2 4.137l-.068 2.092c-.273 5.137-.273 5.137-1.903 7.294-3.063 2.323-6.956 1.726-10.654 1.7l-2.656.008q-2.778.003-5.557-.016c-2.838-.016-5.675 0-8.513.02q-2.7-.004-5.399-.012l-2.575.018c-5.905-.07-5.905-.07-8.078-1.718-2.106-2.786-1.861-6.019-1.971-9.386l-.104-2.127A435 435 0 0 1 296 181a404 404 0 0 0-5.25-2.562l-2.953-1.442c-2.973-1.058-3.979-1.31-6.797.004-1.903 1.579-1.903 1.579-3.625 3.5-2.653 2.827-4.11 4.26-8 5-8.166-1.21-15.194-11.166-20.812-16.812l-2.467-2.455-4.457-4.464c-2.024-2.184-2.58-3.459-3.139-6.394.867-5.85 5.452-9.327 9.5-13.375-.302-4.983-2.913-9.544-5-14l-3.176-.113-4.137-.2-2.091-.068c-5.073-.27-5.073-.27-7.287-1.75-1.916-2.736-1.746-4.97-1.82-8.287l-.108-3.799-.069-3.97q-.05-2.003-.103-4.006c-.083-3.269-.147-6.538-.209-9.807zM24 136v80h176v-80zm152 96v16h16v-16zm-24 32c-1.789 21.54-1.789 21.54 3 30 3.504 2.038 6.593 2.251 10.596 2.255l3.397.017 3.716-.011 3.96.012c3.626.01 7.251.008 10.877.003 3.91-.002 7.822.007 11.732.014q11.492.018 22.983.013 9.339-.002 18.678.004l2.684.002q2.699 0 5.398.003c16.877.011 33.755.009 50.632.003q23.166-.005 46.332.025 23.782.03 47.563.024c8.903-.002 17.805 0 26.708.015q11.367.018 22.735 0c3.867-.005 7.734-.006 11.6.006 4.192.013 8.382.002 12.573-.01l3.71.022c8.052.073 8.052.073 15.126-3.397 3.486-7.816 3.486-7.816 2-29z"/>
        <path d="m17.01 311.492 3.059-.034 3.337.024 3.53-.02c3.855-.019 7.71-.007 11.564.007l8.026-.012q8.412-.009 16.826.021c6.482.022 12.965.015 19.447-.007q8.352-.026 16.704-.01 4.986.01 9.973-.006c3.706-.01 7.412.005 11.118.027l3.338-.024 3.058.034 2.655.005c3.159.675 4.372 2.004 6.355 4.503.39 3.016.39 3.016.25 6.25l-.11 3.266L136 328l3.46-.034q16.132-.151 32.267-.225c5.53-.026 11.06-.062 16.59-.118 5.336-.055 10.672-.084 16.008-.097q3.054-.015 6.109-.055a642 642 0 0 1 8.553-.039l2.553-.054c4.29.038 5.925.186 9.362 2.987L233 333l2.578 2.726c5.284 5.732 10.352 11.55 15.243 17.625 2.157 2.622 4.392 5.14 6.68 7.649 4.705 5.173 9.127 10.544 13.5 16l2.05 2.52 1.887 2.355 1.652 2.055c1.543 2.266 2.429 4.518 3.41 7.07l2.984.004q35.97.055 71.939.18c11.596.04 23.192.072 34.789.087q15.165.019 30.33.084c5.35.022 10.701.038 16.052.037q7.563 0 15.127.05 2.768.012 5.535.004c14.199-.038 25.5 1.298 36.244 11.554 8.832 9.252 11.33 18.398 11.5 30.937l.057 2.802-.026 2.663-.013 2.39c-.724 3.087-2.108 4.177-4.518 6.208-2.714.988-2.714.988-5.86 1.682l-3.574.81c-1.278.275-2.555.549-3.871.83l-4.053.907c-3.521.786-7.045 1.555-10.57 2.32-3.232.704-6.46 1.423-9.687 2.14a5105 5105 0 0 1-21.407 4.69q-5.424 1.178-10.848 2.363-12.75 2.78-25.501 5.553a160163 160163 0 0 0-45.404 9.886 12052 12052 0 0 0-55.391 12.178 15751 15751 0 0 1-14.593 3.243l-2.703.6a4863 4863 0 0 0-15.306 3.43q-4.6 1.034-9.202 2.05-2.056.459-4.108.928c-19.101 4.367-19.101 4.367-27.048-.24a255 255 0 0 1-5.37-3.644l-2.895-1.936a1009 1009 0 0 1-9.046-6.165 3579 3579 0 0 0-6.147-4.14q-6.745-4.544-13.452-9.144c-3.743-2.557-5.638-3.595-10.17-3.66l-3.214-.06-3.466-.035-3.552-.059c-3.75-.06-7.5-.106-11.25-.152q-3.809-.057-7.618-.117-9.346-.143-18.694-.258l.14 2.484.11 3.266.14 3.234C136 484 136 484 134.266 486.362c-2.548 1.843-3.656 2.128-6.758 2.092h-2.668c-.942-.022-1.884-.042-2.854-.063l-2.943-.018a993 993 0 0 1-9.292-.123q-3.152-.03-6.304-.055A2093 2093 0 0 1 88.001 488l.14 2.484.11 3.266.14 3.234C88 500 88 500 86.414 502.156c-3.256 2.488-5.337 2.351-9.413 2.362l-2.11.02a509 509 0 0 1-6.89-.007l-4.797.012q-5.023.008-10.047-.022c-4.29-.022-8.58-.01-12.872.015-3.3.014-6.602.01-9.903 0q-2.373-.005-4.746.01c-2.212.01-4.423-.006-6.635-.028l-3.812-.01c-3.903-.622-4.83-1.378-7.188-4.508a43.7 43.7 0 0 1-.508-7.44l-.019-2.278c-.016-2.522-.003-5.042.01-7.563q-.009-2.71-.022-5.421c-.018-4.909-.01-9.818.002-14.727.01-5.134 0-10.267-.006-15.401q-.008-12.933.022-25.865c.022-9.973.014-19.945-.008-29.918q-.026-12.836-.01-25.671c.006-5.113.007-10.226-.006-15.34q-.016-7.209.02-14.419a663 663 0 0 0-.005-5.297c-.011-2.407.002-4.813.022-7.22l-.027-2.127c.053-3.247.362-5.068 2.254-7.746 2.685-1.844 4.057-2.07 7.291-2.075M24 328v160h48V328zm64 0v144h32V328zm48 16v112l27.25-1.313c31.5-.466 51.177 9.542 75.123 30.098 1.729 1.423 1.729 1.423 4.627 2.215 2.841-.462 5.6-1.005 8.405-1.633l2.63-.569c2.92-.633 5.837-1.278 8.754-1.923q3.129-.683 6.257-1.363a8616 8616 0 0 0 17.023-3.73c5.95-1.308 11.901-2.606 17.853-3.905a34519 34519 0 0 0 33.701-7.381 56755 56755 0 0 1 37.067-8.117 81313 81313 0 0 0 47.703-10.446q7.572-1.66 15.142-3.325c8.82-1.94 17.643-3.866 26.476-5.745l6.752-1.446c2.04-.435 4.082-.861 6.124-1.288l3.601-.772 3.107-.654c2.562-.54 2.562-.54 4.405-2.703-.22-6.263-2.829-12.383-7-17-7.84-6.113-15.043-7.161-24.827-7.12l-2.295-.003c-2.521-.002-5.042.004-7.563.01l-5.442-.001q-7.368.001-14.737.013-7.708.007-15.415.008-14.588.005-29.175.02a59669 59669 0 0 1-33.221.023q-34.163.016-68.325.05l-.376 2.071-.514 2.722-.501 2.696c-1.505 6.208-5.67 9.883-10.609 13.51-5.496 2.604-10.704 2.443-16.687 2.5l-3.147.126-3.115.031-2.792.057c-8.895-1.946-15.515-8.395-21.673-14.737-.74-.746-1.48-1.492-2.244-2.26-2.332-2.355-4.65-4.723-6.967-7.091l-4.777-4.832Q200.783 396.913 195 391c1.606-3.41 3.405-5.618 6.125-8.25l2.196-2.14L205 379c3.082 1.37 5.158 2.925 7.511 5.332l2.023 2.053 2.153 2.213 4.554 4.615q3.58 3.644 7.15 7.295c2.3 2.349 4.61 4.688 6.92 7.027l2.154 2.22 2.023 2.042 1.766 1.805c4.083 3.27 9.764 2.873 14.745 2.398 3.483-1.203 5.327-1.99 7.375-5.063 1.316-6.182 1.494-12.199-1.375-17.937-1.847-2.35-1.847-2.35-4.062-4.625A207 207 0 0 1 248.5 377.5a234 234 0 0 0-9-10.5c-3.915-4.298-7.614-8.736-11.261-13.262-.74-.903-1.478-1.807-2.239-2.738l-1.236-1.77c-2.724-3.7-2.724-3.7-6.65-5.865-2.198-.225-4.298-.232-6.506-.16l-2.525-.002a431 431 0 0 0-8.044.113q-2.493.015-4.985.022c-6.143.036-12.286.134-18.429.224z"/>
        <path d="M347.313 63.313c10.24 7.733 18.727 17.597 20.688 30.688 1.322 16.144-.435 29.16-11 42-7.622 8.828-17.494 15.042-29.303 16.231-16.643 1.033-28.751-2.004-41.662-12.888-8.63-8.006-13.703-18.292-14.352-30-.56-16.686 3.106-28.674 14.629-41.093 16.295-15.423 42.416-17.272 61-4.938m-52.312 20.688c-5.96 8.777-6.799 16.46-6 27 1.909 8.418 6.54 15.184 13.84 19.792 9.658 5.128 17.554 6.398 28.16 3.207 8.75-3.775 14.889-10.003 18.937-18.624 2.672-8.491 2.273-17.828-1.437-25.876-4.19-7.3-9.95-12.694-17.82-15.84-13.5-3.325-26.479-.13-35.68 10.34"/>
        <path d="M120 140c5.654 1.84 10.723 4.29 16 7-6.783 14.517-13.873 28.868-21.062 43.188l-3.202 6.388Q107.872 204.29 104 212c-5.654-1.84-10.723-4.29-16-7 6.783-14.517 13.873-28.868 21.063-43.187l3.2-6.39Q116.129 147.71 120 140"/>
        <path d="M157 146c3.834 1.58 6.262 4.018 9.168 6.938l1.455 1.456a924 924 0 0 1 3.023 3.046c1.541 1.56 3.09 3.111 4.641 4.662 8.53 8.572 8.53 8.572 9.213 13.523-.06 3.706-.947 5.349-3.441 8.055l-1.925 2.095a631 631 0 0 1-11.571 11.725l-2.506 2.492A3748 3748 0 0 1 159 206c-3.633-1.696-5.945-3.738-8.75-6.625l-2.422-2.477L146 195c1.358-3.043 2.885-5.123 5.258-7.453l1.894-1.875 1.973-1.922 1.996-1.969q2.433-2.397 4.879-4.781c-1.358-3.043-2.885-5.123-5.258-7.453l-1.894-1.875-1.973-1.922-1.996-1.969A1237 1237 0 0 0 146 159c1.696-3.633 3.738-5.945 6.625-8.75l2.477-2.422z"/>
        <path d="M65 146c3.633 1.696 5.945 3.738 8.75 6.625l2.422 2.477L78 157c-1.358 3.043-2.885 5.123-5.258 7.453l-1.894 1.875-1.973 1.922-1.996 1.969A1237 1237 0 0 1 62 175c1.358 3.043 2.885 5.123 5.258 7.453l1.894 1.875 1.973 1.922 1.996 1.969Q75.554 190.616 78 193c-1.696 3.633-3.738 5.945-6.625 8.75l-2.477 2.422L67 206c-3.834-1.58-6.262-4.018-9.168-6.937l-1.455-1.457a924 924 0 0 1-3.023-3.046c-1.541-1.56-3.09-3.111-4.641-4.662-8.53-8.572-8.53-8.572-9.213-13.523.06-3.706.947-5.349 3.441-8.055l1.925-2.095A631 631 0 0 1 56.438 154.5l2.505-2.492Q61.97 149 65 146"/>
    </g>
</svg>
