<?xml version="1.0" encoding="UTF-8"?>
<svg data-bbox="-0.647 0 512.932 512.671" height="512" width="512" xmlns="http://www.w3.org/2000/svg" data-type="shape">
    <g>
        <path d="M85 0h342v153h15c6.767 1.692 12.329 4.89 16.179 10.814 3.4 6.92 3.338 13.372 3.212 20.971l-.018 3.93c-.015 3.418-.054 6.835-.098 10.253-.042 3.5-.06 7-.08 10.499-.042 6.844-.11 13.689-.195 20.533l3.086-.063c3.81-.073 7.618-.119 11.428-.157q2.465-.03 4.929-.082c2.373-.049 4.746-.071 7.12-.089l2.194-.062c6.346-.003 11.636 1.967 16.266 6.383 5.484 7.892 6.964 14.454 5.977 24.07-1.502 5.714-3.585 11.171-5.687 16.688a2471 2471 0 0 0-1.869 5.051 2268 2268 0 0 1-4.154 11.147 3338 3338 0 0 0-7.263 19.59L491.731 316l-2.64 7.172q-2.029 5.506-4.062 11.01a5445 5445 0 0 0-17.154 47.132 9278 9278 0 0 1-24.411 67.223q-3.469 9.45-6.864 18.928c-1.433 3.992-2.88 7.98-4.33 11.965q-1.005 2.78-1.992 5.569c-7.258 20.499-7.258 20.499-15.963 25.565-3.695 1.602-6.204 1.815-10.215 1.82l-2.04.015c-2.254.013-4.507.005-6.761-.004q-2.45.007-4.9.019c-4.485.016-8.971.014-13.457.008-4.839-.002-9.677.012-14.516.025q-14.218.028-28.436.023a20375 20375 0 0 0-29.766.017l-3.346.003c-20.884.019-41.768.018-62.653.01-19.11-.005-38.218.016-57.328.05q-29.425.05-58.851.043c-11.016-.002-22.03.003-33.046.028q-14.066.033-28.132.006c-4.785-.01-9.57-.01-14.354.01q-6.571.028-13.143-.008-2.376-.006-4.752.013C13.18 512.765 13.18 512.765 7 507c-5.142-5.175-7.248-9.212-7.26-16.511l-.012-1.986c-.01-2.205-.006-4.41-.002-6.615l-.016-4.78a3940 3940 0 0 1-.015-13.158c-.002-4.728-.015-9.455-.027-14.183-.022-10.34-.03-20.682-.035-31.023q-.006-9.684-.017-19.367-.032-26.808-.04-53.615v-3.467l-.001-6.958v-3.489l-.001-3.493c-.004-18.679-.03-37.357-.068-56.036q-.057-28.76-.058-57.52c0-10.766-.009-21.532-.038-32.299a6375 6375 0 0 1-.017-27.504c.008-4.678.007-9.355-.016-14.033q-.03-6.426.003-12.852a404 404 0 0 0-.016-4.643C-.708 115.048-.575 107.786 5 101c8.742-8.519 16.774-8 29-8V34h25V17h26zm18 18v213l306-1V18zM77 35v237c8.468-12.702 8.846-26.057 8.681-40.828q-.002-3.225.003-6.45a2295 2295 0 0 0-.076-17.365c-.037-6.067-.04-12.134-.048-18.201a9444 9444 0 0 0-.128-34.402c-.067-13.064-.1-26.128-.13-39.192A30309 30309 0 0 0 85 35zM52 52v289c8.883-13.325 7.681-28.171 7.568-43.558q-.003-4.023.002-8.046.002-8.625-.041-17.25c-.041-8.313-.054-16.626-.06-24.94q-.018-20.236-.092-40.473a20784 20784 0 0 1-.106-41.742l-.02-12.174A55542 55542 0 0 0 59 52zm-34 62c-.743 2.475-.743 2.475-.615 5.351l-.03 3.385.044 3.735-.013 3.955c-.011 3.631.009 7.26.034 10.891.021 3.912.014 7.824.01 11.737q-.002 10.17.041 20.34c.04 9.804.054 19.607.06 29.41.011 15.905.045 31.81.092 47.714a29096 29096 0 0 1 .106 49.24l.02 14.329c.051 39.638.14 79.275.251 118.913 19.763-29.644 17.911-65.29 17.45-99.32-.103-7.74-.122-15.48-.138-23.22-.03-13.795-.122-27.589-.256-41.383q-.197-20.054-.287-40.108l-.011-2.513-.053-12.487C34.56 179.645 34.315 145.323 34 111a257 257 0 0 0-5.187-.187l-2.918-.106c-3.456.35-5.232 1.062-7.895 3.293m409 57v59h16c.09-7.25.164-14.499.207-21.749.021-3.367.05-6.733.095-10.099.048-3.87.07-7.739.089-11.609l.062-3.665.001-3.397.027-2.994c-.302-3.052-.302-3.052-4.481-5.487zm-321.827 78.365c-1.639 2.284-2.464 4.598-3.403 7.248l-1.26 3.515-1.342 3.829-1.418 3.977q-1.509 4.23-3.003 8.465a4310 4310 0 0 1-4.733 13.323l-1.585 4.444-.788 2.208-2.352 6.606A2447 2447 0 0 1 74 334.062l-3.242 8.758-.855 2.31c-4.463 12.074-8.868 24.17-13.282 36.262l-2.23 6.11a32787 32787 0 0 0-16.106 44.217l-.692 1.905q-3.564 9.806-7.123 19.614l-1.178 3.245-2.236 6.168c-1.605 4.422-3.23 8.831-4.942 13.213l-.864 2.226c-.742 1.9-1.496 3.794-2.252 5.688-1.012 3.266-1.2 5.826-.998 9.222 2.807 1.403 5.124 1.13 8.266 1.134l1.98.007q3.314.009 6.628.006l4.776.011q6.585.014 13.172.017 7.093.007 14.186.022c11.427.02 22.854.03 34.28.039l16.127.015a97918 97918 0 0 0 67.488.044l3.492.002c18.687.008 37.373.033 56.059.066q28.749.049 57.498.054c10.769.002 21.538.011 32.306.036q13.752.034 27.502.02c4.68-.004 9.362-.002 14.042.017q6.42.026 12.84.001 2.33-.004 4.66.014c2.103.015 4.204.006 6.306-.01l3.547.003c2.937-.23 2.937-.23 4.673-2.363 1.406-2.562 2.424-5.105 3.402-7.861l1.26-3.515 1.342-3.814 1.418-3.973q1.507-4.222 3.004-8.448 2.355-6.645 4.728-13.284l.792-2.22 1.578-4.416 2.35-6.587a2568 2568 0 0 1 11.423-31.392c5.877-15.844 11.632-31.732 17.375-47.625 5.679-15.714 11.365-31.424 17.158-47.095q1.245-3.37 2.485-6.743c2.54-6.9 5.09-13.793 7.677-20.675 1.251-3.337 2.489-6.679 3.724-10.022q.881-2.37 1.78-4.733a632 632 0 0 0 2.422-6.51l1.396-3.726c.958-3.903.74-6.598-.142-10.496-1.822-1.822-4.68-1.129-7.127-1.131l-1.97-.007q-3.31-.006-6.62-.002l-4.76-.01q-6.572-.011-13.144-.01-7.076-.005-14.152-.016-15.486-.02-30.972-.024l-19.323-.012q-26.726-.019-53.452-.026h-3.458l-10.422-.002h-3.485q-27.966-.009-55.933-.046-28.68-.035-57.363-.037-16.116.001-32.232-.025-13.72-.023-27.441-.012-7.007.008-14.012-.011-6.406-.019-12.813 0-2.325.004-4.65-.01a572 572 0 0 0-6.292.01c-1.168-.002-2.336-.002-3.539-.003-2.834.138-2.834.138-4.667 1.739"/>
        <path d="m160.224 186.866 2.571-.007c2.853-.006 5.707-.005 8.56-.005l6.125-.01c5.554-.009 11.107-.01 16.661-.012q6.95-.001 13.897-.008 16.39-.011 32.781-.01 16.92 0 33.842-.025 14.516-.02 29.032-.018 8.674.001 17.35-.013 8.158-.014 16.315-.003 2.996.002 5.993-.007c2.724-.008 5.448-.003 8.172.004l2.402-.015c4.109.026 7.452.236 11.075 2.263 2.113 3.168 2.332 5.132 2.559 8.867-.913 3.487-2.776 4.904-5.559 7.133-3.06.492-5.56.677-8.616.635l-2.625.023c-2.903.02-5.805.004-8.708-.011q-3.121.01-6.244.026c-5.653.023-11.305.014-16.958-.002-5.913-.012-11.825 0-17.738.007-9.93.01-19.86-.003-29.79-.026a7228 7228 0 0 0-34.451.009q-14.784.033-29.568.013a4160 4160 0 0 0-17.664.007q-8.303.021-16.606-.024a703 703 0 0 0-6.1.006c-2.772.014-5.543-.003-8.316-.028l-2.445.033c-4.089-.071-5.939-.482-9.17-3.077-1.965-2.545-2.67-3.514-2.563-6.654.562-3.937.562-3.937 2.375-6.375 4.244-3.031 8.411-2.706 13.411-2.696"/>
        <path d="m157.578 127.492 2.65-.019c2.936-.016 5.87-.003 8.807.01q3.154-.009 6.307-.022c5.715-.018 11.43-.011 17.144.002 5.975.01 11.95 0 17.924-.006q15.051-.009 30.102.021a9231 9231 0 0 0 34.826-.007q14.937-.026 29.875-.01c5.951.006 11.903.007 17.854-.006a2707 2707 0 0 1 16.783.02q3.084.007 6.168-.006c2.802-.01 5.602.003 8.403.023l2.48-.027c3.612.05 5.679.217 8.602 2.428 2.195 3.09 2.057 5.301 1.887 8.982C367 141 367 141 365.25 143.5c-4.507 3.004-9.26 2.644-14.518 2.634l-2.55.007q-4.233.007-8.467.004l-6.066.01q-8.244.013-16.488.012-6.878.002-13.755.008-16.222.012-32.446.01-16.746.001-33.493.026-14.37.019-28.739.018-8.586-.002-17.172.013-8.073.014-16.145.002-2.965 0-5.93.008-4.042.009-8.086-.005l-2.377.016c-4.994-.032-8.777-.57-12.804-3.61-1.565-2.13-1.647-3.464-1.652-6.09l-.058-2.31c1.512-6.869 7.12-6.826 13.074-6.761"/>
        <path d="m159.041 67.369 2.731-.022c2.974-.017 5.946.003 8.92.024q3.102 0 6.204-.007 6.498-.003 12.995.04c5.554.033 11.108.027 16.662.009 4.27-.011 8.54-.002 12.809.013q3.072.008 6.144-.002a744 744 0 0 1 8.582.043l2.568-.02c3.78.061 5.723.101 8.842 2.372 2.13 3.095 2.436 5.447 2.502 9.181-1.168 2.767-2.128 4.38-4.58 6.12-3.606 1.31-7.177 1.158-10.965 1.139l-2.608.01c-2.844.01-5.687.003-8.53-.003q-2.968.002-5.934.006-6.218.003-12.435-.011c-5.311-.012-10.622-.005-15.932.007q-6.128.009-12.253 0-2.937-.003-5.874.005c-2.739.005-5.477-.003-8.215-.014l-2.449.012c-4.153-.031-7.564-.212-11.225-2.27-2.112-3.17-2.332-5.133-2.559-8.868 1.974-7.538 8.096-7.854 14.6-7.764"/>
    </g>
</svg>
