<?xml version="1.0" encoding="UTF-8"?>
<svg data-bbox="21 45 408.884 159.396" xmlns="http://www.w3.org/2000/svg" viewBox="0 0 450 250" height="250" width="450" data-type="shape">
    <g>
        <path d="M250.078 45.676c-4.153 1.24-6.611 3.289-8.852 7.374-1.404 2.557-1.648 6.63-1.648 27.502 0 22.702.147 24.749 2 27.895 2.861 4.858 6.297 7.057 12.099 7.744 3.915.464 6.142.127 9.766-1.476 6.211-2.748 8.582-7.679 8.613-17.913l.022-7.25h-9.774l-.402 7.109c-.312 5.529-.824 7.418-2.304 8.5-2.424 1.773-4.628 1.764-7.079-.028-1.825-1.335-1.941-2.808-1.941-24.581s.116-23.246 1.941-24.581c5.015-3.666 8.768-.68 9.356 7.447l.443 6.134h9.76v-6.184c0-7.437-2.63-13.576-6.896-16.096-3.75-2.215-10.609-2.94-15.104-1.596m-228 34.77v35.106h11v-28h3.878c5.847 0 6.548 1.517 7.122 15.398l.5 12.102 5.5.294 5.5.293-.26-11.293c-.299-13.041-1.427-18.1-4.659-20.911l-2.306-2.004 2.777-2.777c3.261-3.262 4.479-9.314 3.669-18.243-1.057-11.656-4.712-14.226-20.926-14.714l-11.795-.356zM89.66 48.303c-.781 3.722-10.582 65.148-10.582 66.32 0 .511 2.199.93 4.886.93h4.887l.67-4.75c1.194-8.458.992-8.25 8.045-8.25 7.059 0 6.359-.8 8.089 9.25l.646 3.75h5.388c2.964 0 5.389-.251 5.389-.557 0-.578-9.517-60.445-10.522-66.193l-.569-3.25h-7.875c-7.784 0-7.882.032-8.452 2.75m52.418 32.145v35.105l10.75-.002c12.343-.001 16.283-1.361 19.98-6.896 2.203-3.298 2.27-4.106 2.268-27.5-.001-26.51-.421-28.703-6.321-33.031-2.4-1.761-4.61-2.124-14.75-2.426l-11.927-.356zm60 .105v35h11v-70h-11zm104.499-33.75c-.242.688-2.847 16.458-5.79 35.046l-5.352 33.796 5.047-.296 5.047-.296 1.024-6 1.025-6 6.657-.294 6.657-.293.843 6.293.843 6.294 5.878.304c4.501.232 5.765-.002 5.398-1-.264-.717-2.887-16.491-5.829-35.054l-5.35-33.75h-7.83c-5.363 0-7.968.394-8.268 1.25m51.501 33.75v35h29v-10h-18v-60h-11zM42.521 57.775c1.001 1.428 1.557 4.426 1.557 8.389 0 7.42-1.81 10.178-7.25 11.049l-3.75.6v-22.26h3.943c2.942 0 4.339.565 5.5 2.223m119.986-.652c1.335 1.335 1.571 4.94 1.571 23.965 0 25.084.189 24.464-7.434 24.464h-3.566v-50h3.929c2.238 0 4.604.676 5.5 1.57m-60.892 29.679.721 6.75H91.987l.569-3.25c.498-2.844 4.283-27.571 4.631-30.25.197-1.522 3.61 19.09 4.428 26.75m214.838-13c1.016 7.287 2.082 14.713 2.367 16.5l.52 3.25h-10.524l.52-3.25c.285-1.787 1.351-9.213 2.367-16.5s2.085-13.25 2.375-13.25 1.359 5.963 2.375 13.25m88.473 46.711c-10.755 5.849-10.907 22.693-.26 28.773 7.43 4.242 16.896 2.431 21.954-4.2 5.562-7.292 3.83-18.233-3.779-23.875-3.975-2.948-13.123-3.304-17.915-.698m-85.639 14.564c-18.486 4.014-28.486 14.464-29.892 31.237-1.026 12.235 4.044 23.95 13.044 30.143 8.16 5.613 15.496 7.409 32.139 7.865 22.535.618 33.336-2.542 42.623-12.471 5.661-6.051 8.207-13.126 8.207-22.799 0-18.012-10.413-29.87-29.847-33.986-8.671-1.837-27.791-1.831-36.274.011m-298.209 7.956v8.481l22.6.269 22.6.269-22.35 17.076-22.35 17.076-.289 8.674-.289 8.674h80.078V186.59l-22.624-.269-22.624-.269 22.624-17.296 22.624-17.296v-16.908h-80zm85 26.019v34.5h83v-17h-54v-11h42v-13h-42v-11h50v-17h-79zm88 0v34.5h29v-20h10.757c17.407 0 20.943 1.919 24.299 13.187l2.029 6.813h27.66l-1.92-8.249c-2.218-9.523-3.643-12.088-7.955-14.318l-3.11-1.609 2.87-1.779c11.723-7.267 13.964-23.72 4.51-33.119-7.946-7.9-20.232-9.919-60.39-9.923l-27.75-.003zm61.747-14.849c3.214 2.389 4.037 6.422 1.774 8.686-2.68 2.679-8.47 3.652-21.771 3.657l-12.75.006v-15.248l14.997.427c13.146.373 15.336.678 17.75 2.472m88.706-1.542c7.888 2.19 13.5 11.296 11.974 19.43-.982 5.232-4.397 9.679-9.435 12.284-3.746 1.937-5.598 2.251-11.147 1.89-8.32-.541-12.929-3.19-15.774-9.066-7.434-15.357 6.595-29.477 24.382-24.538" clip-rule="evenodd" fill-rule="evenodd"/>
    </g>
</svg>
