<?xml version="1.0" encoding="UTF-8"?>
<svg data-bbox="-0.654 6.992 513.313 499.008" height="512" width="512" xmlns="http://www.w3.org/2000/svg" data-type="shape">
    <g>
        <path d="M256.375 6.992c3.532 1.356 5.35 3.385 7.938 6.133C268.69 17.676 273.166 21.938 278 26c.857.735 1.714 1.47 2.598 2.226 6.226 5.28 12.631 10.237 19.19 15.096 5.603 4.171 11.025 8.537 16.426 12.964 5.572 4.562 11.252 8.958 16.977 13.327 11.907 9.127 23.69 18.418 35.477 27.7a4636 4636 0 0 0 23.66 18.495c5.128 3.985 10.24 7.99 15.344 12.008 4.762 3.746 9.543 7.467 14.328 11.184a4799 4799 0 0 1 24.668 19.313A4271 4271 0 0 0 468 175l4.594 3.574q4.15 3.23 8.312 6.445c25.99 20.144 25.99 20.144 28.094 32.98.916 11.706-.753 20.84-8.164 30.114-6.04 6.208-12.977 10.554-21.711 11.152q-2.062.008-4.125-.015l-2.078.023c-4.621-.017-7.357-.751-11.922-2.273v171h8l-.176-2.45c-.366-8.67-.366-8.67 2.176-12.8 4.17-2.433 6.21-2.434 11-1.75 2.431 1.87 3.64 3.281 5 6 .07 1.874.084 3.75.063 5.625l-.028 3.039L487 428h7l-.07-1.793c-.126-5.49.25-9.276 3.195-14.02 2.494-1.579 4.84-1.598 7.742-1.683 3.272.76 4.797 2.082 7.133 4.496.499 2.953.675 5.333.631 8.285l.022 2.524c.017 2.752-.003 5.502-.024 8.253q0 2.87.007 5.739.003 6.012-.04 12.024c-.033 5.138-.027 10.276-.008 15.415.01 3.95.001 7.899-.014 11.848a943 943 0 0 0 .002 5.684 637 637 0 0 1-.043 7.943l.02 2.374c-.062 3.535-.258 5.525-2.434 8.374-2.504 1.816-4.03 2.386-7.119 2.537-3.42-.977-5.816-2.16-8-5-.945-2.971-1.108-5.644-1.062-8.75l.027-2.422L494 488h-7l.105 2.23c.218 7.839.218 7.839-1.168 11.832-2.81 2.81-5.023 3.407-8.937 3.938-4.05-1.452-5.6-2.4-8-6-.195-2.918-.195-2.918-.125-6.188l.055-3.293.07-2.52h-8v18H51v-18h-8l.176 2.45c.37 8.777.37 8.777-2.426 12.738C36.483 506 36.483 506 34 506c-6.375-2.088-6.375-2.088-8.203-4.754-.986-2.78-.992-5.053-.922-7.996l.055-2.985L25 488h-7l.07 1.793c.124 5.426-.018 9.47-3.383 13.957C12.423 505.428 10.81 505.8 8 506c-3.443-.984-5.91-2.069-8-5a71 71 0 0 1-.42-8.172l-.026-2.524a925 925 0 0 1-.023-8.269l-.023-5.743Q-.51 470.271-.5 464.25c.006-5.146-.025-10.292-.065-15.438A1591 1591 0 0 1-.59 436.95a672 672 0 0 0-.03-5.692c-.021-2.653-.012-5.304.006-7.957l-.04-2.38c.059-3.837.316-5.557 2.975-8.409 3.538-1.996 5.673-2.085 9.68-1.512 4.588 2.793 4.588 2.793 5.629 5.844.404 2.346.468 4.526.433 6.906l-.027 2.422L18 428h7l-.07-2.266-.055-2.984-.07-2.953c.2-2.879.603-4.415 2.195-6.797 3.709-2.473 6.702-2.761 11-2 3 1.75 3 1.75 5 5 .404 4.035.29 7.96 0 12h8V257l-6 2c-11.81 1.128-21.598-.521-31-8-7.611-7.478-11.064-15.487-11.312-26.125.14-10.418 3.208-17.72 10.437-25.211C19.133 194.096 25.538 189.027 32 184l1.769-1.376q4.007-3.105 8.04-6.179c3.317-2.534 6.6-5.111 9.879-7.695A3000 3000 0 0 1 68 156a4468 4468 0 0 0 23-18 4928 4928 0 0 1 25.318-19.801 4156 4156 0 0 0 20.682-16.2 4928 4928 0 0 1 25.318-19.8A4156 4156 0 0 0 183 65.999a4529 4529 0 0 1 23-18l4.594-3.573q4.15-3.23 8.312-6.446c6.155-4.773 12.118-9.648 17.856-14.925 2.735-2.511 5.547-4.925 8.363-7.344 2.564-2.34 4.862-4.904 7.137-7.524C254 7 254 7 256.375 6.992m-4.75 27.883c-8.467 7.582-17.26 14.686-26.293 21.574a804 804 0 0 0-10.02 7.8A2995 2995 0 0 1 199 77a4468 4468 0 0 0-23 18 4928 4928 0 0 1-25.318 19.802A4156 4156 0 0 0 130 131a4928 4928 0 0 1-25.318 19.801A4156 4156 0 0 0 84 167a4483 4483 0 0 1-23 18 3942 3942 0 0 0-23 18l-2.91 2.281c-9.464 6.803-9.464 6.803-14.426 16.832-.104 5.863.876 9.117 4.336 13.887 3.882 3.598 6.972 5.137 12.25 5.312l2.203.114c6.971-1.166 12.794-6.779 18.172-11.051l4.82-3.79 2.365-1.864A876 876 0 0 1 73.5 218c5.1-3.916 10.178-7.86 15.25-11.813 8.075-6.29 16.198-12.515 24.335-18.725a3092 3092 0 0 0 23.665-18.275c8.075-6.29 16.198-12.515 24.335-18.725a3092 3092 0 0 0 23.665-18.275c8.075-6.29 16.198-12.515 24.335-18.725 8.78-6.704 17.507-13.473 26.223-20.26A3428 3428 0 0 1 255 78c2.677 1.27 5.033 2.65 7.398 4.433l1.93 1.45 2.047 1.554 2.142 1.617c5.76 4.362 11.447 8.813 17.116 13.293 4.882 3.855 9.821 7.635 14.758 11.419q4.057 3.114 8.109 6.234 4.785 3.682 9.574 7.36a3341 3341 0 0 1 18.676 14.452c8.075 6.29 16.198 12.516 24.335 18.725a3092 3092 0 0 1 23.665 18.275c8.075 6.29 16.198 12.516 24.335 18.725 7.921 6.05 15.802 12.15 23.665 18.275A2608 2608 0 0 0 451.125 228l2.042 1.562q1.938 1.479 3.88 2.953 2.065 1.571 4.116 3.157l2.142 1.64 1.929 1.489c4.22 2.865 8.868 2.652 13.766 2.199 5.273-1.826 7.797-4.607 11-9 .89-2.669 1.22-4.486 1.313-7.25l.113-2.203c-1.153-6.898-5.437-10.882-10.801-14.797l-3.79-2.871c-.96-.72-.96-.72-1.941-1.453-2.92-2.199-5.78-4.47-8.644-6.739-5.4-4.25-10.823-8.47-16.25-12.687a4804 4804 0 0 1-24.668-19.314A4223 4223 0 0 0 404 148a4804 4804 0 0 1-24.668-19.314A4223 4223 0 0 0 358 112a4804 4804 0 0 1-24.668-19.314A4223 4223 0 0 0 312 76a4181 4181 0 0 1-21.297-16.66q-2.663-2.094-5.328-4.184c-20.032-15.71-20.032-15.71-26.781-21.906-3.106-2.436-4.43-.7-6.969 1.625M255 100c-2.248 1.448-2.248 1.448-4.625 3.625a329 329 0 0 1-14.437 11.562A1823 1823 0 0 0 218 129c-7.99 6.23-16.03 12.391-24.085 18.537a3092 3092 0 0 0-23.665 18.275c-8.075 6.29-16.198 12.516-24.335 18.725a3090 3090 0 0 0-23.665 18.275A2168 2168 0 0 1 104.5 216.5c-8.122 6.194-16.247 12.393-24.229 18.766C78 237 78 237 75.657 238.498c-4.672 3.074-4.672 3.074-7.481 7.737-.31 2.649-.334 5.166-.258 7.832l-.024 3.025c-.014 3.338.035 6.672.084 10.01q.004 3.592-.004 7.184c-.002 5.824.037 11.646.094 17.47.065 6.777.078 13.555.088 20.333.02 12.087.08 24.173.165 36.26q.126 17.607.185 35.215l.007 2.216.06 19.087c.084 27.378.263 54.755.427 82.133h204V342h120v145h50c.331-30.753.608-61.504.766-92.258l.058-10.904.012-2.192c.065-11.7.183-23.4.321-35.1q.21-18.02.254-36.042c.019-6.745.064-13.488.175-20.233a972 972 0 0 0 .11-19.058q.006-3.49.092-6.98c.705-13.055.705-13.055-5.009-24.177-3.071-2.682-6.346-4.854-9.866-6.9-3.052-1.845-5.752-4.058-8.538-6.281a805 805 0 0 0-3.195-2.446 3134 3134 0 0 1-9.68-7.43q-4.785-3.682-9.574-7.359a3341 3341 0 0 1-18.676-14.453c-8.075-6.29-16.198-12.515-24.335-18.725a3092 3092 0 0 1-23.665-18.275c-8.075-6.29-16.198-12.515-24.335-18.725a2784 2784 0 0 1-21.37-16.487A9851 9851 0 0 0 275 114l-2.416-1.88a2811 2811 0 0 0-7.022-5.433L263.395 105l-2.015-1.55-1.764-1.364c-1.745-1.276-1.745-1.276-4.615-2.085m36 260v127h84V360zM18 446v24h7v-24zm25 0v24h8v-24zm418 0v24h8v-24zm26 0v24h7v-24z"/>
        <path d="M119 342h120v104H119zm18 18v25h33v-25zm51 0v25h33v-25zm-51 43v25h33v-25zm51 0v25h33v-25z"/>
        <path d="M273 223h120v86H273zm18 18v25h84v-25zm0 43v7h84v-7z"/>
        <path d="M119 223h120v86H119zm18 18v8h84v-8zm0 26v24h84v-24z"/>
    </g>
</svg>
