<?xml version="1.0" encoding="UTF-8"?>
<svg data-bbox="17 -0.658 479.961 513.126" height="512" width="512" xmlns="http://www.w3.org/2000/svg" data-type="shape">
    <g>
        <path d="m192.307-.631 2.495-.022a581 581 0 0 1 8.14.024q2.834 0 5.666-.007 5.933-.003 11.866.04c5.07.033 10.139.027 15.209.009 3.899-.011 7.798-.002 11.697.013q2.805.008 5.608-.002c2.612-.005 5.223.015 7.835.043l2.34-.02c3.444.061 5.468.284 8.286 2.336C274.884 6.693 274 10.867 274 17h137l2-6c3.8-5.82 8.521-8.585 15-11 3.766-.637 7.418-.658 11.23-.594h3.136q3.255.009 6.512.052c3.311.042 6.62.041 9.933.034q3.178.016 6.357.04h2.977C478.015-.298 484.102 2.946 491 10c3.755 5.208 4.125 9.513 4.168 15.848l.018 2.097c.019 2.33.03 4.66.042 6.989l.037 5.049q.048 6.95.086 13.903.034 5.96.075 11.92c.246 37.742.379 75.484.485 113.226l.054 18.462c.06 19.756.18 39.51.324 59.266q.217 30.463.257 60.927c.019 12.509.084 25.016.21 37.524.082 8.597.104 17.194.08 25.791-.012 4.947 0 9.89.085 14.836.391 24.032-1.832 40.599-16.043 60.485-2.58 3.677-4.754 7.53-6.905 11.466a907 907 0 0 1-2.018 3.528l-1.892 3.308-1.03 1.8-2.998 5.24-1.707 2.982c-2.867 5.08-2.573 9.884-2.582 15.613-.134 4.315-.363 6.233-3.039 9.78-4.077 2.953-5.772 2.665-10.707 1.96-2.968-2.207-3.829-3.486-5-7-.13-3.438-.248-6.871-.254-10.312-.236-6.974-1.926-8.812-5.746-15.688l-1 33H17V17h162V5c3.363-5.45 7.316-5.722 13.307-5.631M197 18v24h59V18zm231 4c-1.56 3.12-1.121 6.43-1.098 9.852l.004 2.079c.005 2.564.019 5.13.032 7.694L427 59h50l.25-18.25.11-5.743q.018-2.262.03-4.523l.063-2.358c.002-3.345-.21-5.706-1.901-8.623-3.854-2.27-7.373-2.075-11.77-2.034l-2.712-.012q-2.835-.003-5.669.022c-2.891.021-5.78 0-8.67-.026q-2.757.004-5.512.016l-2.617-.025c-4.902.077-7.572.292-10.602 4.556M35 35v459h383c4.135-45.452 4.135-45.452-8-64-1.122-8.854-1.122-8.854-1.059-12.145l.028-2.225.031-2.31q-.012-2.46-.033-4.923c-.029-4.473-.009-8.944.02-13.416.022-4.837-.002-9.674-.02-14.51a4280 4280 0 0 1 .002-25.104c.034-12.097.024-24.195.004-36.293-.033-19.63-.03-39.261-.004-58.892q.039-28.594.019-57.189l-.003-3.564-.014-17.703c-.042-48.909-.019-97.817.03-146.726h-76v24h60v411H59V59h60V35zm102 0v33h178V35h-41v25h-95V35zM77 77v375h298V77h-42v9H119v-9zm350 0v16h50V77zm0 34v307h50V111zm7 325c4.548 8.37 4.548 8.37 9.211 16.668l1.582 2.764 1.582 2.756 1.652 2.884q1.986 3.466 3.973 6.928c3.745-4.765 6.617-10.061 9.635-15.3a1483 1483 0 0 1 3.18-5.477l2.01-3.48 1.846-3.193c1.483-2.366 1.483-2.366 1.33-4.55z"/>
        <path d="M185 317c2.917 2.447 3.01 4.065 3.625 7.875-.1 2.56-.329 3.758-1.95 5.766-1.829 1.562-3.71 2.972-5.675 4.359-9.904 7.245-13.155 17.14-15 29-.452 4.577-.835 9.16-1.09 13.753-.37 5.197-.777 8.629-4.91 12.247-3.11 1.118-5.82.789-9 0-3.39-1.897-6.118-4.412-9-7-1.65-1.402-3.31-2.792-4.97-4.182a908 908 0 0 1-6.465-5.495 223 223 0 0 0-3.259-2.7c-5.11-4.16-5.11-4.16-5.681-8.435.497-4.228 2.169-5.516 5.375-8.188 2.851-1.426 4.835-1.301 8-1 2.668 1.68 2.668 1.68 5.188 3.875l2.542 2.18L145 361l3 2 .078-1.984c.92-14.805 6.552-28.837 17.492-39.059 6.097-4.91 11.78-8.86 19.43-4.957"/>
        <path d="m131.966 144.823 2.494-.02c2.73-.02 5.459-.031 8.188-.041l2.821-.013q7.389-.03 14.778-.044c5.093-.011 10.186-.046 15.28-.085 3.912-.026 7.824-.035 11.736-.038q2.817-.008 5.633-.035a662 662 0 0 1 7.879-.017l2.355-.039c3.484.034 5.486.225 8.325 2.324 2.184 3.09 2.479 5.426 2.545 9.185-1.252 3.128-2.141 4.55-5.135 6.12-3.562 1.094-6.901 1.168-10.59 1.155l-2.308.015c-2.508.014-5.017.013-7.526.01l-5.249.014a3166 3166 0 0 1-10.992.002c-4.689-.006-9.377.01-14.066.034-3.612.015-7.225.016-10.837.013q-2.593 0-5.185.015c-2.42.013-4.839.006-7.259-.006l-2.149.023c-4.622-.048-7.796-.926-11.704-3.395-2.34-3.509-2.413-4.87-2-9 3.162-6.468 6.27-6.154 12.966-6.177"/>
        <path d="M194.957 347.285c3.198 1.119 4.464 3.24 6.23 6.023C202 355 202 355 202 357c7.422 2.474 12.53.166 19.187-3 8.22-3.668 15.198-6.02 24.141-3.29 4.804 2.082 7.938 4.846 10.672 9.29.74 3.085.52 4.721 0 8-1.996 2.994-3.383 4.638-6.973 5.441-2.09.121-2.09.121-6.027-.441l-4-4c-6.021-.246-10.361 2.631-15.45 5.625-7.042 3.796-16.934 3.733-24.511 1.504-6.864-3.221-11.858-7.858-16.039-14.13-1.275-3.824-1.076-6.127 0-10 3.635-4.456 6.17-5.484 11.957-4.714"/>
        <path d="m165.32 263.71 3.955-.039q2.14-.005 4.28-.006l4.39-.02q4.603-.018 9.205-.015c3.927 0 7.853-.027 11.779-.062 3.023-.022 6.046-.026 9.07-.025q2.17-.003 4.341-.027a423 423 0 0 1 6.082-.001l3.491-.009c3.775.605 5.425 1.79 8.087 4.495 1.15 3.949 1.431 6.03-.25 9.812-1.75 2.188-1.75 2.188-4.75 4.188-2.833.267-2.833.267-6.32.29l-3.954.039-4.28.006-4.39.02q-4.604.018-9.206.015c-3.926 0-7.852.027-11.779.062-3.023.022-6.046.026-9.07.025q-2.17.003-4.34.027c-2.028.02-4.055.01-6.082.001l-3.492.009c-3.775-.605-5.424-1.79-8.087-4.494-1.149-3.95-1.431-6.03.25-9.813 3.366-4.207 5.924-4.444 11.07-4.478"/>
        <path d="m244.05 203.839 3.702-.03 3.99-.012 4.11-.017q4.305-.015 8.61-.02c3.667-.006 7.334-.03 11-.058 2.83-.019 5.66-.024 8.489-.025 2.006-.005 4.012-.024 6.019-.042l3.72.009 3.261-.011c3.576.43 5.974 1.517 9.049 3.367 1.82 2.93 2.015 4.619 1.875 8.063-1.041 3.494-2.018 4.697-4.875 6.937-3.03.515-3.03.515-6.617.534l-1.987.026c-2.163.022-4.324.016-6.486.007l-4.52.018q-4.736.014-9.47-.008a935 935 0 0 0-12.119.041c-3.111.022-6.223.02-9.334.012q-2.235 0-4.468.021c-2.085.018-4.168.003-6.253-.02l-3.59-.003c-4.101-.816-5.598-2.384-8.156-5.628-.68-4.232-.485-6.204 1.75-9.875 3.73-3.522 7.31-3.254 12.3-3.286"/>
        <path d="m131.376 203.839 2.67-.03 2.88-.012 2.97-.017q3.113-.014 6.227-.02c3.167-.01 6.333-.04 9.5-.072q3.026-.01 6.053-.016l2.86-.037c5.232.017 8.964.376 13.464 3.365 1.82 2.93 2.015 4.619 1.875 8.063-1.028 3.45-2.107 4.675-4.875 6.937-2.39.508-2.39.508-5.072.518l-3.055.038-3.28-.025-3.384.012q-3.54.004-7.08-.021c-3.616-.022-7.229 0-10.844.025q-3.44-.004-6.879-.016l-3.28.025-3.054-.038-2.682-.01c-3.157-.67-4.353-2.065-6.39-4.508-1.445-2.888-1.377-4.796-1-8 3.743-4.552 6.572-6.11 12.376-6.161"/>
        <path d="M133 265c2.942 2.64 3.894 4.13 4.375 8.063-.368 2.885-.692 4.581-2.375 6.937-3.228 2.306-6.116 2.324-10 2-2.59-.863-3.665-1.531-5.25-3.75-.995-2.986-1.134-5.117-.75-8.25 3.856-5.984 7.179-6.675 14-5"/>
        <path d="M339 206c2.739 2.996 3.009 4.493 2.938 8.563-1.046 3.834-1.596 5.294-4.938 7.437-4.97.71-6.85.791-11-2.062-2.52-3.7-2.707-5.541-2-9.938 1.676-2.754 2.938-4.45 5.813-5.937 3.44-.099 6 .662 9.187 1.937"/>
        <path d="M211 206c2.739 2.996 3.009 4.493 2.938 8.563-1.046 3.834-1.596 5.294-4.938 7.437-4.97.71-6.85.791-11-2.062-2.52-3.7-2.707-5.541-2-9.938 1.676-2.754 2.938-4.45 5.813-5.937 3.44-.099 6 .662 9.187 1.937"/>
    </g>
</svg>
