<?xml version="1.0" encoding="UTF-8"?>
<svg data-bbox="-0.305 -0.315 512.642 512.529" height="512" width="512" xmlns="http://www.w3.org/2000/svg" data-type="shape">
    <g>
        <path d="m254.25-.313 2.338.007c11.383.05 22.348.456 33.412 3.305l2.502.619c12.046 3.027 23.305 7.02 34.498 12.381l2.785 1.274C343.78 23.882 357.454 33.68 368 44.999l2.438 2.438L373 50l1.7 1.523c7.043 6.543 12.106 14.454 17.3 22.476l1.977 3.036c25.473 41.35 30.433 95.776 19.693 142.328-3.018 11.877-7.076 23.722-12.67 34.637l-1.7 3.425c-4.543 8.974-9.914 17.18-15.735 25.369-2.272 3.201-4.52 6.42-6.77 9.638l-3.607 5.151a1939 1939 0 0 0-11.864 17.127c-4.08 5.95-8.2 11.87-12.324 17.79a3144 3144 0 0 0-13.5 19.5c-5.162 7.53-10.38 15.02-15.598 22.511A2785 2785 0 0 0 308.5 391c-5.162 7.53-10.38 15.02-15.598 22.512A2791 2791 0 0 0 281.5 430a3726 3726 0 0 1-13.875 20.063l-2.057 2.959A1221 1221 0 0 1 255 467.999c-3.238-3.1-5.907-6.096-8.312-9.875-3.953-6.058-8.049-12.005-12.188-17.937l-2.08-2.984-4.27-6.12a15599 15599 0 0 1-12.5-17.948 3249 3249 0 0 1-12.429-18A3119 3119 0 0 0 191 377.5a3501 3501 0 0 1-14.777-21.364A3127 3127 0 0 0 164 338.5a3331 3331 0 0 1-14.788-21.38q-3.915-5.703-7.88-11.37Q135.137 296.895 129 288l-2.15-3.116C107.842 257.217 93.754 227.993 91 194l-.203-2.445c-2.188-28.49.81-56.559 10.203-83.556l1.148-3.316C111.281 79.708 126.343 55.954 147 39l2.195-1.855C179.096 12.424 215.51-.508 254.25-.313M159 53l-2.527 2.117C125.663 81.796 111.156 122.33 108 162c-1.495 26.077 2.44 53.025 13 77l.854 1.94c5.172 11.495 11.967 21.74 19.146 32.06l1.926 2.781q5.118 7.389 10.265 14.758 4.685 6.71 9.309 13.46a3188 3188 0 0 0 13.5 19.5 3501 3501 0 0 1 14.777 21.364A3127 3127 0 0 0 203 362.5a3501 3501 0 0 1 14.777 21.363c4.732 6.894 9.517 13.752 14.296 20.613a2787 2787 0 0 1 13.39 19.389A664 664 0 0 0 254 436c4.001-3.611 6.774-7.867 9.75-12.313q1.737-2.567 3.477-5.133l1.852-2.735c3.312-4.861 6.68-9.683 10.046-14.507A3023 3023 0 0 0 292.5 382c5.162-7.53 10.38-15.02 15.598-22.512A2785 2785 0 0 0 319.5 343c5.162-7.53 10.38-15.02 15.598-22.512q6.375-9.154 12.682-18.356c3.332-4.858 6.7-9.691 10.074-14.52 3.393-4.864 6.77-9.738 10.146-14.613l1.758-2.527C376.767 260.364 382.956 250.23 388 239l1.387-3.008c16.769-39.675 15.264-87.423-.246-127.196-6.279-15.454-14.11-29.23-25.141-41.797l-2.062-2.43C338.754 37.675 304.775 22.477 270 18c-41.581-2.236-78.833 7.842-111 35"/>
        <path d="M158 367c2.219 1.84 3.657 3.265 4.875 5.875.214 3.642-.907 6.754-3.002 9.721-2.768 2.075-5.751 2.328-9.092 2.799l-2.186.34q-2.33.363-4.662.711c-4.12.62-8.231 1.29-12.343 1.96l-2.498.406C93.688 394.62 47.587 403.487 22 431c-2.887 4.24-3.714 6.82-3 12 6.476 13.45 26.702 20.38 39.924 25.028 33.97 11.411 69.293 17.297 104.826 21.222l2.063.233c28.877 3.219 57.813 3.896 86.839 3.835q4.057-.008 8.113-.01c26.088-.031 52.053-.419 78.026-3.083 2.213-.225 4.427-.438 6.641-.647C423.03 482.805 423.03 482.805 490 448c2.494-3.024 2.942-4.543 3.438-8.437-.948-7.716-6.88-12.7-12.76-17.338-28.896-21.105-69.586-29.287-104.194-34.565-.71-.11-1.42-.218-2.15-.33a619 619 0 0 0-10.384-1.507l-3.762-.55-3.333-.455c-3.347-.959-4.704-2.116-6.855-4.818-1.258-3.857-1.193-5.513.313-9.312C352 368 352 368 354 367c10.097-.765 19.907.783 29.813 2.5l2.356.401c39.365 6.754 95.483 16.574 120.292 51.134 5.31 8.21 6.588 15.152 5.539 24.965-5.112 15.821-19.815 24.673-33.805 31.902-58.58 29.31-133.041 34.24-197.675 34.266l-5.731.01q-5.97.009-11.937.007-6.004 0-12.009.02c-30.91.105-61.531-.662-92.28-4.08l-2.374-.257C41.382 495.394 41.382 495.394 8 460c-7-9.047-9.185-16.494-8-28 4.525-15.662 20.157-25.905 33.626-33.396 29.378-15.758 61.92-23.543 94.562-29.104l2.276-.395C150.598 365.66 150.598 365.66 158 367"/>
        <path d="M291.879 112.969C302.551 121.162 309.737 131.264 314 144l.742 2.121c4.516 15.867.875 33.2-6.601 47.414-8.731 14.816-23.04 23.65-39.422 28.082-10.93 1.54-23.446 1.642-33.719-2.617l-3.348-1.37c-16.037-7.278-26.756-18.956-33.09-35.567-5.22-15.144-3.775-32.976 2.981-47.344 8.102-14.684 20.387-25.42 36.414-30.691 18.86-5 37.775-2.101 53.922 8.941M230 129l-2.625 1.75c-9.033 8.558-13.416 19.448-13.875 31.813.486 12.62 5.708 22.633 14.563 31.504 9.173 7.807 20.08 11.075 32.007 10.41 11.76-1.426 21.204-6.947 28.961-15.793 7.406-9.775 10.356-20.505 8.97-32.684-2.072-11.016-7.106-20.433-16-27.437-16.446-11.124-35.883-12.01-52 .437"/>
    </g>
</svg>
