<?xml version="1.0" encoding="UTF-8"?>
<svg data-bbox="0 0 409 159" xmlns="http://www.w3.org/2000/svg" viewBox="0 0 409 159" height="159" width="409" data-type="color">
    <g>
        <path fill="#151515" d="M1.4.9c-.2.2-.4 15.9-.4 34.8V70h11V40.7l4.2.6c6 .8 6.8 2.4 6.8 14.1 0 14.4.1 14.6 6.4 14.6h5.1l-.6-12.7c-.8-14-1.6-17.3-5.1-19.7-2-1.5-2.1-1.8-.8-2.9 4.1-3.1 5-6 5-15.5C33 9.1 31.7 5 27.7 2.8 25.7 1.6 2.4-.1 1.4.9m20 10.7c1.2 1.1 1.6 3.6 1.6 9 0 8.8-1.7 11.4-7.5 11.4H12V10h3.9c2.3 0 4.6.7 5.5 1.6" data-color="1"/>
        <path fill="#151515" d="M76.3.8c-4 .2-7.3.5-7.3.7 0 .8-10 63.1-10.6 65.8-.6 2.8-.6 2.8 4.3 2.5l4.8-.3.9-6.3.9-6.3 7.1.3 7.1.3.9 6.2.9 6.3h5.4c4.7 0 5.4-.2 4.9-1.8-.3-.9-2.8-16.3-5.6-34.2-2.9-17.9-5.5-32.7-5.8-33-.4-.3-4-.4-7.9-.2m2.6 26.7c1.2 7.7 2.4 15.5 2.7 17.2l.6 3.3h-5.6c-3.8 0-5.6-.4-5.6-1.3 0-1.2 3.4-24.2 4.5-30.6.4-1.8.8-3.1 1-3 .2.2 1.3 6.7 2.4 14.4" data-color="1"/>
        <path fill="#151515" d="M121 35.4v34.8l11.3-.4C153 69.1 154 67.5 154 35c0-19.9-.3-23-1.9-26.7-1.1-2.3-3-4.7-4.3-5.5-1.4-.8-7.1-1.5-14.6-1.8L121 .5zm21.4-23.2c1.3 1.9 1.6 5.8 1.6 22.8 0 24.4-.2 25-8.1 25H131V10h4.9c4 0 5.3.4 6.5 2.2" data-color="1"/>
        <path fill="#151515" d="m185.8.8-4.8.3V70h9.9l.3-34.6c.2-19 .1-34.7-.2-34.7-.3-.1-2.6-.1-5.2.1" data-color="1"/>
        <path fill="#151515" d="M226.1 1.8c-6.6 3.6-7.1 5.7-7.1 33 0 27.1.5 29.6 6.4 33.4 2.5 1.5 4.5 1.8 10.5 1.6 6.8-.3 7.5-.6 10.1-3.5 3.5-3.9 5-8.9 5-16.6V44h-10v6.8c0 7.6-1.6 10.2-6.2 10.2-5.4 0-5.8-1.6-5.8-25.6 0-24.3.5-26.4 5.9-26.4 4.2 0 6.1 2.8 6.1 8.8V23h10.3l-.5-6.3C249.8 5.1 245 0 235 0c-3.5 0-6.8.7-8.9 1.8" data-color="1"/>
        <path fill="#151515" d="M285.5 3c-.7 3.6-10.5 65-10.5 66.1 0 .5 2 .9 4.5.9 4.3 0 4.4-.1 5-3.8 1.7-10.1.9-9.2 8.5-9.2s6.8-.8 8.6 9.2c.6 3.8.6 3.8 5.5 3.8 3.5 0 4.9-.4 4.9-1.4 0-1.4-9.7-62.7-10.5-66.1-.4-1.8-1.2-2-7.9-2-7.2 0-7.6.1-8.1 2.5m10.9 29.7 2.3 15.3h-11.4l2.4-16.3c2.6-17.4 3.4-20.8 4.1-16.7.2 1.4 1.4 9.4 2.6 17.7" data-color="1"/>
        <path fill="#151515" d="M338 35.2V70h28V60h-18V.5h-10z" data-color="1"/>
        <path fill="#151515" d="M300.4 89.5c-20.9 3.8-31.6 15.3-31.6 34 0 10.7 2.3 16.8 9.1 23.6 8.5 8.5 19.6 11.9 38.9 11.9 22.5 0 37.5-6.8 43.9-19.8 2.5-5.1 2.8-6.8 2.8-15.7s-.3-10.6-2.8-15.7c-3.3-6.6-8-11.2-15.4-14.5-10.7-4.9-30-6.5-44.9-3.8m24.9 17.9c4.4 1.8 9.5 7.8 10.3 12.1 1.6 8.7-2.6 17.2-10 20-7 2.7-17.2 1.8-22.1-1.9-4.9-3.8-6.8-8.5-6.3-15.6.5-6.9 3.5-11.5 9.2-14.1 4.9-2.2 14.3-2.5 18.9-.5" data-color="1"/>
        <path fill="#151515" d="M39.3 89.7 0 90v16h22.6c13.1 0 22.3.4 22 .9s-10.5 8.5-22.6 17.7L0 141.4V158h79v-17l-22.4-.2-22.5-.3 22.4-17 22.4-17 .1-8.8c0-4.8-.1-8.6-.2-8.5-.2.2-18 .4-39.5.5" data-color="1"/>
        <path fill="#151515" d="M85.7 89.7c-.4.3-.7 15.9-.7 34.5V158h83v-17h-54v-11h42v-13h-42v-11h50V89h-38.8c-21.4 0-39.2.3-39.5.7" data-color="1"/>
        <path fill="#151515" d="M173.8 89.5c-.5.5-.8 16.1-.8 34.7V158h28v-20h12.6c17.9 0 19.5.9 23.8 13.5l2.1 6 13.3.3c7.2.1 13.2 0 13.2-.2 0-.3-.7-3.8-1.5-7.8-1.8-8.5-3.4-11.2-8.2-14l-3.5-2.1 3.5-1.8c5-2.6 8.4-7.1 9.6-12.9 3.1-14.4-4.3-23.8-21.6-27.6-7.6-1.6-69.2-3.3-70.5-1.9m61.6 18.8c2.3 1.5 2.7 2.4 2.4 5.5-.5 5.8-4.1 7-21.8 7.3l-14.5.2-.3-6.3c-.2-3.5-.1-6.9.3-7.7.8-2.4 30.1-1.5 33.9 1" data-color="1"/>
        <path fill="#5271FF" d="M409 89c0 9.941-8.059 18-18 18s-18-8.059-18-18 8.059-18 18-18 18 8.059 18 18" data-color="2"/>
    </g>
</svg>
