<?xml version="1.0" encoding="UTF-8"?>
<svg data-bbox="0 0 450 250" height="250" width="450" xmlns="http://www.w3.org/2000/svg" data-type="ugc">
    <g>
        <path fill="#FDFDFD" d="M0 0h450v250H0z"/>
        <path fill="#020202" d="m338.438 136.5 3.858.032c8.835.18 16.525.919 24.704 4.468l2.352.91c7.536 3.26 13.328 9.41 16.766 16.82 2.532 9.38 2.789 22.363-1.676 31.168-7.397 10.786-17.075 15.318-29.656 17.712-5.047.707-10.072.677-15.16.64l-3.172.023c-13.618-.033-26.446-1.908-36.852-11.402-8.142-9.512-9.542-19.744-8.601-31.871 2.108-8.807 6.95-16.315 14.562-21.25 10.621-5.692 20.922-7.43 32.875-7.25"/>
        <path fill="#020202" d="m196 138 30-.187 9.367-.083c38.812-.202 38.812-.202 49.211 9.786 4.993 5.681 5.889 10.035 5.727 17.449-.68 6.77-3.552 10.591-8.555 15.035a192 192 0 0 1-3.75 3l2.75 1.5c4.188 2.845 5.411 5.771 7.25 10.5l2 12h-28l-3-9c-1.755-4.12-3.111-6.691-7-9-3.048-1.016-5.347-1.198-8.543-1.316l-3.252-.127-3.393-.12-3.427-.13q-4.192-.158-8.385-.307v20h-29z"/>
        <path fill="#010101" d="M108 138h79v17h-50v11h42v13h-42v11h54v17h-83z"/>
        <path fill="#030303" d="M23 138h80c0 17 0 17-4.25 21.625a173 173 0 0 1-4.78 3.1c-3.213 2.08-6.218 4.43-9.262 6.747a793 793 0 0 1-7.45 5.587C71.13 179.652 65.069 184.33 59 189l44 1v17H23c0-17 0-17 4.438-21.75 1.57-1.045 3.143-2.087 4.748-3.078 3.502-2.262 6.72-4.919 10.002-7.484C50.406 168.389 58.718 162.212 67 156l-44-1z"/>
        <path fill="#070707" d="M144 49c21 0 21 0 28 3 3.653 3.941 5.117 6.415 5.177 11.722l.039 2.974.022 3.226.025 3.311q.02 3.476.032 6.95c.017 3.539.061 7.076.105 10.614q.015 3.375.026 6.75l.053 3.201c-.018 5.908-.282 9.723-4.479 14.252-6 4-6 4-29 4z"/>
        <path fill="#050505" d="M24 49c21 0 21 0 28 3 4.69 5.06 5.205 8.531 5.25 15.25l.063 2.277c.034 4.94-.714 8.136-3.313 12.473l-1.187 2.375L52 86l1.938 1.813c3.28 3.479 3.221 6.568 3.378 11.167l.127 3.526.12 3.682.13 3.716q.16 4.548.307 9.096-2.718.039-5.437.063l-3.06.035C47 119 47 119 46 118a102 102 0 0 1-.246-5.277l-.1-3.244q-.09-3.41-.172-6.82c-.05-1.609-.05-1.609-.103-3.249l-.076-2.996C45.228 93.82 45.228 93.82 43 92l-8-1v28H24z"/>
        <path fill="#070707" d="M95.598 48.902q2.233.01 4.465.035l2.299.014q2.82.02 5.638.049c1.903 8.119 3.352 16.112 4.3 24.386a98 98 0 0 0 2.2 12.145c.842 4.156 1.257 8.374 1.746 12.583.445 3.73 1 7.36 1.88 11.01.78 3.46 1.055 6.351.874 9.876h-11c-1.826-3.654-1.639-7.98-2-12H93l-2 12H81c.4-8.172 1.493-15.941 3.18-23.942 2.607-12.575 4.197-25.381 5.818-38.113l.354-2.703.307-2.41c.629-3.376 1.284-2.83 4.939-2.93"/>
        <path fill="#070707" d="M308 49h17q1.126 6.718 2.25 13.438l.34 2.035a3518 3518 0 0 1 5.153 31.718l.46 2.907.396 2.516c.282 1.68.6 3.356.945 5.025.793 4.104.512 8.193.456 12.361h-10c-2-8.5-2-8.5-2-13h-14l-1 13h-10c-.164-4.426-.022-8.36.922-12.691 1.027-4.938 1.778-9.875 2.453-14.871C303.344 77.254 305.646 63.124 308 49"/>
        <path fill="#070707" d="m256.875 48.625 3.617-.023c5.27.598 8.465 2.163 11.883 6.21C275.263 60.327 274.301 66.975 274 73h-10l-.113-2.3-.2-3.013-.175-2.988c-.563-2.967-1.04-4.004-3.512-5.699-3.12.075-3.12.075-6 1-1.153 2.306-1.138 3.652-1.161 6.219l-.03 2.64-.012 2.856-.017 2.93q-.014 3.07-.02 6.14c-.01 3.136-.041 6.272-.072 9.408q-.01 2.98-.016 5.96l-.038 2.85.01 2.65-.011 2.33c.47 2.58 1.262 3.486 3.367 5.017 3.12-.075 3.12-.075 6-1 1.416-2.833 1.346-5.475 1.563-8.625l.253-3.602L264 93h10c.817 17.423.817 17.423-4 23-4.94 4.032-9.09 4.638-15.414 4.387-4.969-.743-7.597-3.318-10.899-6.887-2.473-3.664-2.81-6.782-2.88-11.142l-.049-2.772a2491 2491 0 0 1-.108-12.529 669 669 0 0 0-.082-6.593 753 753 0 0 1-.091-9.542l-.07-2.952c.024-7.645 2.226-12.435 7.476-17.947 3.052-1.475 5.618-1.42 8.992-1.398"/>
        <path fill="#FAFAFA" d="M349.5 156.688c3.933 2.298 6.463 5.238 8.5 9.313.491 5.832.83 11.178-1.625 16.562-4.974 5.104-9.529 7.569-16.625 7.688-6.59-.079-10.484-1.287-15.562-5.688-4.162-4.875-4.635-8.56-4.5-14.875.609-5.238 3.59-8.169 7.375-11.5 6.239-4.646 15.42-4.778 22.437-1.5"/>
        <path fill="#5573FF" d="M423.188 122.563c4.143 2.362 7.065 4.928 8.813 9.437.843 5.494.95 10.957-1.625 16-3.232 4.082-6.449 6.358-11.375 8-5.616.369-9.194.24-14-3-4.488-4.54-7.144-7.745-7.313-14.25.06-5.11.795-7.862 4.313-11.75 6.275-6.013 13.037-8.049 21.187-4.437"/>
        <path fill="#080808" d="M360 49h11v60h18v10h-29z"/>
        <path fill="#050505" d="M204 49h11v70h-11z"/>
        <path fill="#FCFCFC" d="M155 59c8 0 8 0 11 2 .381 1.973.381 1.973.388 4.418l.029 2.77-.019 3 .01 3.07q.002 3.219-.017 6.436c-.016 3.293 0 6.584.02 9.876q-.004 3.121-.013 6.243l.019 2.998-.029 2.771-.007 2.445L166 107c-3 2-3 2-11 2z"/>
        <path fill="#F9F9F9" d="M225 155q6.281-.08 12.563-.125c1.18-.017 2.362-.034 3.58-.05 13.07-.074 13.07-.074 18.857 3.363 1.64 2.973.665 5.609 0 8.812-7.671 3.126-14.337 3.365-22.562 3.188l-3.635-.042c-2.935-.035-5.869-.088-8.803-.146z"/>
        <path fill="#F5F5F5" d="M35 59c8 0 8 0 9.977 1.031 1.59 3.06 1.456 6.105 1.398 9.469l.035 2.05c-.016 2.745-.157 4.963-1.433 7.419C43 80 43 80 35 80z"/>
        <path fill="#E9E9E9" d="M99 63h1q.974 5.968 1.938 11.938l.552 3.384C103.493 84.54 104.37 90.734 105 97H94a431 431 0 0 1 5-34"/>
        <path fill="#EDEDED" d="M315 63h2q.86 6.298 1.709 12.598l.582 4.283q.42 3.082.834 6.166l.508 3.745C321 93 321 93 321 97h-10c.615-11.436 2.294-22.686 4-34"/>
    </g>
</svg>
