<?xml version="1.0" encoding="UTF-8"?>
<svg data-bbox="72.425 72.425 2999.991 882.678" viewBox="0 0 3144.85 1027.528" height="1027.528" width="3144.85" xmlns="http://www.w3.org/2000/svg" data-type="color">
    <g>
        <path d="M513.76 72.425c-243.347 0-441.335 197.988-441.335 441.336s197.988 441.342 441.336 441.342c243.355 0 441.342-197.987 441.342-441.342S757.116 72.425 513.761 72.425m0 860.669c-231.217 0-419.326-188.117-419.326-419.333S282.545 94.442 513.76 94.442s419.333 188.11 419.333 419.326S744.977 933.1 513.76 933.1" xmlns="http://www.w3.org/2000/svg" fill="#111111" data-color="1"/>
        <path d="m789.17 563.321-52.073-52.074 6.424-19.8c2.246-6.953-4.497-15.34-15.064-18.759s-20.967-.6-23.22 6.36l-.086.253-163.297-163.304 28.166-28.173a20.105 20.105 0 0 0 0-28.456 20.134 20.134 0 0 0-28.441 0l-28.173 28.18-28.174-28.173a20.12 20.12 0 0 0-28.44 28.449l28.172 28.166-162.427 162.435c-2.68-6.475-12.681-9.054-22.915-5.737-10.552 3.412-17.302 11.791-15.064 18.759l6.112 18.844-53.022 53.023a20.12 20.12 0 0 0 28.434 28.455l38.516-38.515 66.956 206.614c2.267 6.923 12.646 9.777 23.213 6.366 10.56-3.426 17.31-11.842 15.064-18.773l-73.28-226.146 176.862-176.87 177.818 177.833-72.968 225.198c-2.238 6.924 4.504 15.354 15.064 18.772s20.945.558 23.212-6.373l66.653-205.65 37.552 37.559a20.12 20.12 0 1 0 28.427-28.463" xmlns="http://www.w3.org/2000/svg" fill="#4c9e2c" data-color="2"/>
        <path d="M1327.744 614.54h-74.308c-3.976-11.943-6.627-19.243-6.627-57.056v-72.976c0-43.114-14.593-59.04-47.764-59.04h-25.211V614.54h-72.975V150.15h110.122c75.633 0 108.137 35.163 108.137 106.813v36.487c0 47.765-15.26 78.284-47.764 93.537v1.333c36.488 15.252 48.43 49.756 48.43 98.179v71.65c0 22.553.66 39.138 7.96 56.39m-118.748-398.047h-35.162v142.633h28.528c27.196 0 43.78-11.943 43.78-49.09v-45.772c0-33.17-11.276-47.764-37.153-47.764m285.354 0v129.365h100.178v66.341h-100.17v136h126.048v66.341h-199.024V150.16h199.024v66.34zm215.71 45.12c0-74.307 36.488-116.763 107.479-116.763s107.464 42.456 107.464 116.756v14.594h-68.992v-19.243c0-33.171-13.268-45.773-36.488-45.773s-36.487 12.602-36.487 45.773c0 33.837 14.593 59.04 62.358 100.837 61.032 53.74 80.275 92.211 80.275 145.284 0 74.308-37.154 116.764-108.796 116.764s-108.804-42.463-108.804-116.764v-28.528h68.999v33.17c0 33.171 14.594 45.121 37.806 45.121s37.82-11.95 37.82-45.12c0-33.83-14.594-59.041-62.358-100.838-61.04-53.739-80.276-92.211-80.276-145.284m311.24 352.927V150.144h72.974v464.389zm346.393 0-70.984-185.09-22.553 42.456v142.634h-72.975V150.144h72.975V351.16h1.326l94.203-201.008h72.975l-101.496 206.976 101.503 257.398zm224.329-357.577V507.72c0 33.171 14.593 45.773 37.813 45.773s37.813-12.602 37.813-45.773V256.964c0-33.171-14.594-45.773-37.806-45.773s-37.82 12.602-37.82 45.773m-72.975 246.121V261.606c0-74.3 39.145-116.756 110.788-116.756s110.788 42.455 110.788 116.756v241.48c0 74.307-39.138 116.763-110.788 116.763s-110.788-42.463-110.788-116.764m478.417 111.455-89.561-336.341h-1.325v336.34h-65.682V150.152h91.552l73.641 277.967h1.326V150.151h65.008V614.54z" fill="#111111" data-color="1"/>
        <path d="M1375.516 872.814v-81.673l-29.115 82.405c-1.652 4.577-7.692 5.678-9.524 0l-28.202-82.405v81.673c0 3.839-2.926 5.86-6.04 5.86s-6.23-2.014-6.23-5.867V774.49c0-3.476 2.565-6.047 6.23-6.047h5.866c4.02 0 6.221 2.933 7.134 5.678 8.792 26.181 16.846 49.437 25.82 75.807l26.55-76.358c.92-2.563 2.564-5.127 6.41-5.127h7.322c5.316 0 6.047 2.933 6.047 5.866v98.513c0 3.838-3.114 5.859-6.228 5.859s-6.04-2.014-6.04-5.867m78.617-.55v-97.412c0-4.215 3.295-6.416 6.41-6.416h42.114c4.027 0 6.04 2.933 6.04 6.047s-2.013 6.229-6.04 6.229h-36.255v35.517h28.752c4.208 0 6.229 2.933 6.229 6.04s-2.202 6.41-6.229 6.41h-28.752v37.907h36.255c3.846 0 5.867 3.114 5.867 6.04 0 3.114-2.02 6.047-5.867 6.047h-42.115c-3.114 0-6.41-1.1-6.41-6.41m117.257.725v-98.693c0-3.839 2.933-5.86 5.866-5.86s6.04 2.014 6.04 5.867v98.693c0 7.873-11.906 7.873-11.906 0m75.69-10.067c-4.026-7.503 6.23-13 10.988-5.49 2.383 3.839 9.524 10.437 20.873 10.437 4.765 0 16.665-3.476 18.316-17.027 1.094-8.242-6.78-16.296-20.33-23.075-19.048-8.973-33.51-16.846-33.51-32.591 0-18.686 15.752-27.47 32.59-27.47 15.21 0 23.625 9.342 26.559 14.1 4.208 6.772-4.947 13.37-10.067 6.772-2.571-3.295-7.51-8.785-16.484-8.785-10.067 0-20.511 4.758-20.511 15.383 0 8.423 9.343 13.181 23.256 19.772 16.295 8.06 33.33 15.934 30.766 37.357-2.021 16.846-14.833 27.652-30.585 27.652-11.9 0-26.551-6.41-31.86-17.035m120.551-94.485h55.304c3.838 0 5.67 3.114 5.67 6.228s-1.824 6.04-5.67 6.04h-20.88v92.11c0 3.84-3.115 5.86-6.229 5.86s-6.04-2.014-6.04-5.867v-92.102h-22.155c-3.838 0-5.678-2.926-5.678-6.04s1.832-6.23 5.678-6.23m120.008 103.83V774.86c0-4.216 3.296-6.417 6.403-6.417h42.122c4.027 0 6.04 2.933 6.04 6.047s-2.013 6.229-6.04 6.229h-36.256v35.517h28.745c4.208 0 6.229 2.933 6.229 6.04s-2.202 6.41-6.229 6.41h-28.752v37.907h36.263c3.838 0 5.86 3.114 5.86 6.04 0 3.115-2.014 6.048-5.867 6.048h-42.115c-3.115 0-6.403-1.101-6.403-6.41m129.525-25.638v26.189c0 4.026-3.114 5.859-6.048 5.859-3.114 0-6.04-1.833-6.04-5.867V774.49c0-3.664 2.014-6.047 6.04-6.047h24.72c6.96 0 28.933 2.013 28.933 26.739v22.886c0 13.913-5.128 22.706-16.846 26.551l12.457 25.088c2.556 4.94-1.29 8.974-5.316 8.974-2.195 0-4.94-1.47-6.41-4.578l-13.362-27.47zm35.524-28.565v-22.886c0-4.396-1.65-14.47-16.853-14.47h-18.671v53.652h17.02c8.98 0 18.504-2.013 18.504-16.296m76.785 54.391v-98.164c0-2.926 1.463-5.86 5.497-5.86h23.987c18.128 0 28.014 6.591 28.014 24.907 0 7.323-.912 14.464-5.497 19.41 10.444 7.322 12.27 19.96 12.27 32.773 0 22.524-12.27 33.148-33.324 33.148h-24.537c-3.114 0-6.41-1.1-6.41-6.228m12.269-5.866h15.933c15.195 0 23.618-6.229 23.618-21.062 0-15.194-3.838-25.45-18.678-25.45h-20.873zm33.142-73.244c0-10.987-7.692-12.638-15.934-12.638h-17.208v27.101h16.846c11.537 0 16.296-3.295 16.296-14.463m80.45 78.922v-97.412c0-4.215 3.302-6.417 6.409-6.417h42.122c4.027 0 6.04 2.933 6.04 6.048s-2.013 6.228-6.04 6.228h-36.263v35.517h28.753c4.208 0 6.228 2.934 6.228 6.04s-2.201 6.41-6.228 6.41h-28.753v37.908h36.263c3.839 0 5.86 3.114 5.86 6.04 0 3.114-2.021 6.047-5.867 6.047h-42.115c-3.114 0-6.41-1.1-6.41-6.41m113.96-103.828h55.304c3.839 0 5.679 3.115 5.679 6.229s-1.833 6.04-5.679 6.04h-20.872v92.11c0 3.839-3.115 5.86-6.229 5.86s-6.04-2.014-6.04-5.867v-92.088h-22.162c-3.839 0-5.671-2.926-5.671-6.04s1.832-6.23 5.67-6.23m132.64 78.19v26.19c0 4.026-3.115 5.859-6.04 5.859-3.115 0-6.04-1.833-6.04-5.867V774.49c0-3.664 2.013-6.047 6.04-6.047h24.718c6.96 0 28.934 2.013 28.934 26.739v22.886c0 13.913-5.128 22.706-16.846 26.551l12.457 25.088c2.557 4.94-1.29 8.974-5.316 8.974-2.195 0-4.947-1.47-6.41-4.578l-13.37-27.47zm35.524-28.564v-22.886c0-4.396-1.644-14.47-16.846-14.47h-18.678v53.652h17.034c8.974 0 18.49-2.013 18.49-16.296m77.154 54.935v-98.708c0-3.839 2.934-5.86 5.867-5.86s6.04 2.014 6.04 5.867v98.693c0 7.873-11.907 7.873-11.907 0m77.893-.731v-97.412c0-4.215 3.296-6.416 6.403-6.416h42.122c4.027 0 6.04 2.933 6.04 6.047s-2.013 6.229-6.04 6.229h-36.256v35.517h28.746c4.215 0 6.228 2.933 6.228 6.04s-2.202 6.41-6.228 6.41h-28.753v37.907h36.263c3.839 0 5.86 3.114 5.86 6.04 0 3.114-2.014 6.047-5.867 6.047h-42.115c-3.115 0-6.403-1.1-6.403-6.41m116.894.182v-98.15c0-2.926 1.456-5.86 5.49-5.86h23.987c18.128 0 28.014 6.591 28.014 24.907 0 7.323-.912 14.464-5.49 19.41 10.43 7.322 12.269 19.96 12.269 32.773 0 22.524-12.269 33.148-33.33 33.148h-24.537c-3.115 0-6.41-1.1-6.41-6.228m12.261-5.86h15.934c15.195 0 23.618-6.228 23.618-21.06 0-15.195-3.839-25.45-18.679-25.45h-20.873zm33.142-73.243c0-10.986-7.691-12.638-15.933-12.638h-17.209v27.102h16.847c11.537 0 16.295-3.296 16.295-14.464" fill="#111111" data-color="1"/>
    </g>
</svg>
