<?xml version="1.0" encoding="UTF-8"?>
<svg data-bbox="0.574 0.473 443.36 97.095" xmlns="http://www.w3.org/2000/svg" viewBox="0 0 444 98" height="98" width="444" data-type="color">
    <g>
        <path fill="#151515" d="M285.56 48.373V58.73h3.021v-5.308c0-4.53.129-5.437.777-6.041 1.208-1.122 2.977-1.338 4.186-.561 1.078.69 1.078.82 1.078 6.3v5.61h3.021v-4.876c0-5.653-.475-7.681-2.028-8.933-1.381-1.079-4.661-1.165-6.085-.172l-.949.647v-7.379h-3.021z" data-color="1"/>
        <path fill="#151515" d="M200.116 48.848v9.969l4.445-.173c3.927-.13 4.661-.259 6.041-1.208 2.503-1.683 3.755-4.618 3.755-8.674 0-2.762-.173-3.668-1.208-5.61-1.727-3.323-3.712-4.272-9.02-4.272h-4.013zm8.847-6.775c1.812 1.165 2.546 3.15 2.546 6.732.043 5.265-2.158 7.768-6.732 7.768h-2.072V40.908l2.59.259c1.467.13 3.107.518 3.668.906" data-color="1"/>
        <path fill="#151515" d="M248.448 42.332c0 1.64-.086 1.726-1.294 1.726-1.079 0-1.295.173-1.295 1.079s.216 1.079 1.295 1.079h1.294v4.703c0 6.819.691 8.243 4.057 8.243 1.424 0 1.553-.13 1.553-1.208 0-1.036-.173-1.209-1.165-1.166h-1.208l-.13-5.307-.129-5.265h1.337c1.079 0 1.295-.173 1.295-1.079s-.216-1.079-1.295-1.079c-1.208 0-1.294-.086-1.294-1.726 0-1.683-.043-1.726-1.51-1.726s-1.511.043-1.511 1.726" data-color="1"/>
        <path fill="#151515" d="M220.398 45.008c-2.114 1.467-3.02 3.495-3.02 6.818 0 3.236.906 5.135 3.107 6.473 2.028 1.208 5.394 1.165 7.293-.13 2.675-1.769 1.726-3.668-1.036-2.028-.734.475-1.899.863-2.546.863-1.467 0-3.668-1.942-4.057-3.582l-.259-1.165h10.012v-1.64c-.043-2.287-1.424-5.092-2.977-5.868-1.899-.993-4.834-.864-6.517.258m5.351 2.114c.648.518 1.122 1.295 1.122 1.942 0 .992-.086 1.036-3.452 1.036-1.899 0-3.452-.087-3.452-.216 0-.173.302-.82.647-1.51 1.165-2.288 3.193-2.762 5.135-1.252" data-color="1"/>
        <path fill="#151515" d="m232.568 50.574.129 6.517 1.208 1.035c1.424 1.209 4.532 1.424 6.473.432.648-.346 1.166-.475 1.166-.216 0 .216.604.388 1.294.388h1.295V44.058h-3.021v5.783c0 6.343-.086 6.602-2.675 6.99-.907.173-1.727 0-2.288-.388-.776-.604-.863-1.251-.992-6.516l-.173-5.869h-2.546z" data-color="1"/>
        <path fill="#151515" d="M259.452 44.447c-2.071.862-3.15 3.322-2.373 5.221.561 1.338 2.114 2.244 5.265 3.02 2.33.605 3.063 1.252 2.848 2.676-.302 2.115-5.265 2.029-5.826-.086-.173-.647-.604-.863-1.683-.863-1.683 0-1.683.043-.777 1.942.95 2.028 3.064 2.934 6.257 2.718 1.899-.129 2.805-.431 3.582-1.165 1.424-1.337 1.77-3.107.95-4.703-.648-1.295-1.727-1.813-6.085-3.194-1.51-.474-1.726-.733-1.726-1.855 0-.993.259-1.381 1.122-1.683 1.596-.561 3.366 0 3.927 1.251.345.777.82 1.079 1.726 1.079 1.338 0 1.51-.561.734-2.33-.907-1.985-5.308-3.107-7.941-2.029" data-color="1"/>
        <path fill="#151515" d="M274.124 44.49c-1.165.474-2.632 2.114-3.193 3.581-.734 1.9-.561 5.912.302 7.639 1.64 3.322 6.128 4.53 9.192 2.46 1.553-1.036 2.762-3.021 2.33-3.755-.561-.906-2.158-.432-2.891.863-1.381 2.417-4.704 2.2-6.085-.431-.949-1.77-.777-5.481.302-7.164 1.424-2.114 4.531-1.856 5.955.475.907 1.596 2.935 2.157 2.935.863 0-1.252-1.338-3.28-2.719-4.1-1.424-.906-4.531-1.122-6.128-.431" data-color="1"/>
        <path fill="#151515" d="M303.685 45.008c-2.115 1.467-3.021 3.495-3.021 6.818 0 3.236.906 5.135 3.107 6.473 2.028 1.208 5.394 1.165 7.293-.13 2.675-1.769 1.726-3.668-1.036-2.028-.733.475-1.899.863-2.546.863-1.467 0-3.668-1.942-4.056-3.582l-.259-1.165h10.011v-1.64c-.043-2.287-1.424-5.092-2.977-5.868-1.899-.993-4.833-.864-6.516.258m5.351 2.114c.647.518 1.122 1.295 1.122 1.942 0 .992-.087 1.036-3.453 1.036-1.898 0-3.452-.087-3.452-.216 0-.173.302-.82.647-1.51 1.166-2.288 3.194-2.762 5.136-1.252" data-color="1"/>
        <path fill="#151515" d="M337.776 81.602v10.356h1.295c.733 0 1.294-.215 1.294-.431 0-.259.561-.173 1.295.216.69.345 1.942.647 2.805.647 3.711 0 5.782-2.762 5.825-7.681 0-5.092-2.028-7.638-5.825-7.336-1.165.13-2.503.345-2.892.517-.69.303-.776.044-.776-3.15v-3.495h-3.021zm7.552-1.726c2.114.82 3.021 4.962 1.769 7.983-1.036 2.417-3.15 3.064-5.178 1.467-1.036-.82-1.122-1.122-1.122-4.401 0-3.755.129-4.186 1.51-4.963 1.079-.604 1.597-.647 3.021-.086" data-color="1"/>
        <path fill="#151515" d="M246.895 72.28c-.13.346-.173.993-.087 1.425.216 1.078 2.633 1.078 2.848 0 .303-1.597-2.2-2.892-2.761-1.424" data-color="1"/>
        <path fill="#151515" d="M202.878 72.712c-2.028.906-3.193 2.632-3.193 4.876 0 2.72 1.769 4.445 5.955 5.783 3.625 1.165 4.833 2.115 4.833 3.797 0 3.625-6.991 4.014-8.329.475-.431-1.079-.733-1.294-1.942-1.294-1.38 0-1.467.086-1.165 1.165.734 3.107 3.409 4.876 7.336 4.876 3.107 0 5.136-.863 6.258-2.675 2.244-3.712.259-6.862-5.61-8.76-2.978-.993-4.143-1.727-4.445-2.892-.604-2.287 1.769-4.143 4.661-3.625 1.682.345 3.236 1.726 3.236 2.935 0 .604.345.776 1.554.776 1.467 0 1.553-.043 1.251-1.208-.734-3.107-3.15-4.833-6.689-4.833-1.294.043-2.977.302-3.711.604" data-color="1"/>
        <path fill="#151515" d="M393.012 75.56c0 1.64-.086 1.726-1.294 1.726-1.079 0-1.295.173-1.295 1.08 0 .905.216 1.078 1.295 1.078h1.294v4.704c0 6.818.691 8.242 4.057 8.242 1.424 0 1.553-.13 1.553-1.208 0-1.036-.172-1.209-1.165-1.165h-1.208l-.13-5.308-.129-5.265h1.338c1.079 0 1.294-.173 1.294-1.079s-.215-1.079-1.294-1.079c-1.209 0-1.295-.086-1.295-1.726 0-1.683-.043-1.726-1.51-1.726s-1.511.043-1.511 1.726" data-color="1"/>
        <path fill="#151515" d="M218.37 78.15c-1.338.776-2.287 2.07-2.287 2.977 0 .863 2.115.475 3.193-.604 1.985-1.985 5.438-.906 5.438 1.726 0 1.036-.13 1.079-2.374 1.079-3.064 0-5.178.863-5.998 2.546-.82 1.553-.863 2.632-.173 4.143.993 2.2 4.79 3.107 7.336 1.769.691-.389 1.295-.475 1.424-.216.173.216.907.389 1.64.389h1.381l-.259-5.697c-.129-3.193-.474-6.17-.776-6.689-1.209-2.287-5.913-3.063-8.545-1.424m6.257 8.716c-.129 1.683-.302 1.942-1.812 2.676-1.51.733-1.813.777-2.805.216-1.165-.648-1.769-2.719-.993-3.496.518-.518 2.805-1.122 4.532-1.165 1.165-.043 1.208.043 1.078 1.77" data-color="1"/>
        <path fill="#151515" d="M231.187 84.622v7.337h2.589v-4.92c0-2.719.129-5.265.259-5.653.431-1.079 2.675-2.028 4.056-1.726 1.726.388 2.158 1.985 2.158 7.595v4.704h2.632l-.129-6.3c-.13-6.301-.13-6.301-1.338-7.337-1.424-1.208-4.79-1.424-6.171-.388-1.079.82-1.467.82-1.467 0q0-.648-1.295-.648h-1.294z" data-color="1"/>
        <path fill="#151515" d="M246.722 84.622v7.337h3.021V77.286h-3.021z" data-color="1"/>
        <path fill="#151515" d="M255.784 78.236c-2.114 1.467-3.021 3.495-3.021 6.818 0 3.236.907 5.135 3.108 6.473 2.028 1.208 5.394 1.165 7.292-.13 2.676-1.769 1.727-3.668-1.035-2.028-.734.475-1.899.863-2.546.863-1.467 0-3.668-1.942-4.057-3.581l-.259-1.165h10.012v-1.64c-.043-2.288-1.424-5.092-2.978-5.87-1.898-.992-4.833-.862-6.516.26m5.351 2.114c.648.518 1.122 1.295 1.122 1.942 0 .993-.086 1.036-3.452 1.036-1.899 0-3.452-.087-3.452-.216 0-.172.302-.82.647-1.51 1.165-2.287 3.193-2.762 5.135-1.252" data-color="1"/>
        <path fill="#151515" d="M267.867 84.622v7.337h2.589V86.78c0-5.955.432-6.904 3.28-6.904 1.424 0 1.51-.087 1.381-1.209-.086-.992-.345-1.208-1.554-1.294-.949-.087-1.769.13-2.287.604-.733.69-.82.69-.82.043 0-.518-.388-.734-1.294-.734h-1.295z" data-color="1"/>
        <path fill="#151515" d="M276.929 82.68c0 8.07 1.166 10.055 5.697 9.537 1.251-.129 3.193-.258 4.358-.215h2.028V77.286h-3.02v5.524c0 4.833-.087 5.653-.777 6.257-1.295 1.165-3.409 1.424-4.402.518-.777-.69-.863-1.338-.863-6.56v-5.739h-3.021z" data-color="1"/>
        <path fill="#151515" d="M292.465 84.622v7.337h2.589v-4.92c0-2.719.129-5.265.259-5.653.431-1.079 2.675-2.028 4.056-1.726 1.726.388 2.158 1.985 2.158 7.595v4.704h2.632l-.129-6.3c-.13-6.301-.13-6.301-1.338-7.337-1.424-1.208-4.79-1.424-6.171-.388-1.079.82-1.467.82-1.467 0q0-.648-1.295-.648h-1.294z" data-color="1"/>
        <path fill="#151515" d="M309.942 78.236c-3.496 2.718-3.711 9.45-.432 12.73 1.209 1.208 1.727 1.424 3.539 1.424 1.208 0 2.503-.302 3.064-.69.906-.605.949-.605.949.388 0 2.762-3.495 4.143-6.3 2.503-1.511-.906-1.597-.906-2.115-.173-1.122 1.51 1.683 3.15 5.438 3.15 1.985 0 2.373-.172 3.883-1.683l1.683-1.683V77.287h-1.294c-.863 0-1.295.216-1.295.69 0 .605-.086.605-.949 0-1.467-1.035-4.704-.905-6.171.26m5.998 2.114c1.036.82 1.122 1.122 1.122 4.445 0 3.97-.431 4.79-2.934 5.265-1.122.215-1.554.043-2.719-1.08-1.294-1.337-1.338-1.466-1.165-4.444.129-2.675.302-3.15 1.338-4.056 1.467-1.252 2.848-1.295 4.358-.13" data-color="1"/>
        <path fill="#151515" d="M325.909 77.675c-2.072.863-3.15 3.323-2.374 5.221.561 1.338 2.115 2.244 5.265 3.021 2.33.604 3.064 1.251 2.848 2.676-.302 2.114-5.265 2.028-5.826-.087-.172-.647-.604-.863-1.683-.863-1.683 0-1.683.043-.776 1.942.949 2.028 3.064 2.935 6.257 2.719 1.899-.13 2.805-.432 3.582-1.165 1.424-1.338 1.769-3.107.949-4.704-.647-1.295-1.726-1.812-6.085-3.193-1.51-.475-1.726-.734-1.726-1.856 0-.993.259-1.381 1.122-1.683 1.597-.561 3.366 0 3.927 1.251.345.777.82 1.08 1.726 1.08 1.338 0 1.511-.562.734-2.331-.906-1.985-5.308-3.107-7.94-2.028" data-color="1"/>
        <path fill="#151515" d="M355.9 78.236c-2.114 1.467-3.02 3.495-3.02 6.818 0 3.236.906 5.135 3.107 6.473 2.028 1.208 5.394 1.165 7.293-.13 2.675-1.769 1.726-3.668-1.036-2.028-.734.475-1.899.863-2.546.863-1.467 0-3.668-1.942-4.057-3.581l-.258-1.165h10.011v-1.64c-.043-2.288-1.424-5.092-2.977-5.87-1.899-.992-4.834-.862-6.517.26m5.351 2.114c.648.518 1.122 1.295 1.122 1.942 0 .993-.086 1.036-3.452 1.036-1.899 0-3.452-.087-3.452-.216 0-.172.302-.82.647-1.51 1.165-2.287 3.194-2.762 5.135-1.252" data-color="1"/>
        <path fill="#151515" d="M367.983 84.622v7.337h2.59V86.78c0-5.955.431-6.904 3.279-6.904 1.424 0 1.511-.087 1.381-1.209-.086-.992-.345-1.208-1.553-1.294-.95-.087-1.77.13-2.287.604-.734.69-.82.69-.82.043 0-.518-.389-.734-1.295-.734h-1.295z" data-color="1"/>
        <path fill="#151515" d="M379.462 78.106c-1.165.777-2.373 2.374-2.416 3.15-.043.82 2.632.26 3.625-.733 2.028-2.028 5.005-1.079 5.005 1.553 0 1.252-.043 1.252-2.416 1.252-2.503 0-3.625.388-5.222 1.855-1.381 1.252-1.381 4.143 0 5.74 1.295 1.467 4.661 1.942 6.689.863.777-.389 1.381-.518 1.381-.259 0 .216.647.431 1.424.431h1.381l-.13-4.833c-.129-6.386-.302-7.336-1.596-8.544-1.554-1.467-5.912-1.726-7.725-.475m6.214 8.588c0 1.855-.776 2.805-2.761 3.28-2.417.604-4.402-2.158-2.633-3.625.691-.561 2.805-1.166 4.445-1.252.82-.043.949.173.949 1.597" data-color="1"/>
        <path fill="#151515" d="M401.212 82.68c0 8.07 1.165 10.055 5.696 9.537 1.251-.129 3.193-.258 4.358-.215h2.029V77.286h-3.021v5.524c0 4.833-.086 5.653-.777 6.257-1.295 1.165-3.409 1.424-4.402.518-.776-.69-.863-1.338-.863-6.56v-5.739h-3.02z" data-color="1"/>
        <path fill="#151515" d="M416.747 84.622v7.337h2.589v-4.92c0-2.719.13-5.265.259-5.653.432-1.079 2.676-2.028 4.056-1.726 1.727.388 2.158 1.985 2.158 7.595v4.704h2.632l-.129-6.3c-.129-6.301-.129-6.301-1.338-7.337-1.424-1.208-4.79-1.424-6.171-.388-1.079.82-1.467.82-1.467 0q0-.648-1.295-.648h-1.294z" data-color="1"/>
        <path fill="#151515" d="M434.224 78.236c-3.495 2.718-3.711 9.45-.432 12.73 1.209 1.208 1.727 1.424 3.539 1.424 1.208 0 2.503-.302 3.064-.69.906-.605.949-.605.949.388 0 2.762-3.495 4.143-6.3 2.503-1.51-.906-1.597-.906-2.115-.173-1.122 1.51 1.683 3.15 5.438 3.15 1.985 0 2.373-.172 3.884-1.683l1.683-1.683V77.287h-1.295c-.863 0-1.295.216-1.295.69 0 .605-.086.605-.949 0-1.467-1.035-4.704-.905-6.171.26m5.998 2.114c1.036.82 1.122 1.122 1.122 4.445 0 3.97-.431 4.79-2.934 5.265-1.122.215-1.554.043-2.719-1.08-1.294-1.337-1.338-1.466-1.165-4.444.13-2.675.302-3.15 1.338-4.056 1.467-1.252 2.848-1.295 4.358-.13" data-color="1"/>
        <path fill="#3333CC" d="M42.476.775c-.172.13-.302 7.336-.302 15.967V32.45l-2.546-1.985c-3.84-3.021-8.501-4.531-14.068-4.531-2.373 0-5.308.258-6.516.604-8.113 2.157-14.759 9.623-17.52 19.592-.82 2.89-.95 4.487-.95 12.169 0 7.767.13 9.278.95 12.255 2.632 9.537 8.587 16.7 15.967 19.333 7.508 2.676 17.995.69 23.216-4.358 1.726-1.64 1.813-1.683 2.071-.777.13.518.26 1.856.26 2.978v2.07h10.356V.474h-5.308c-2.934 0-5.48.13-5.61.302m-9.537 35.3c2.978.863 5.912 2.934 7.725 5.394l1.51 2.071v29.733l-1.251 1.683c-5.05 6.99-15.665 8.846-22.224 3.84-5.394-4.056-8.113-13.377-7.164-24.252.906-10.054 4.575-16.182 11.177-18.512 2.115-.777 7.595-.734 10.227.043" data-color="2"/>
        <path fill="#3333CC" d="M131.071 45.137v44.664h10.356v-1.64c0-.863.13-2.33.259-3.193l.302-1.64 2.417 2.244c4.013 3.711 9.192 5.523 15.622 5.523 6.127 0 11.392-2.114 15.535-6.257 5.61-5.61 8.285-12.687 8.846-23.303.691-12.989-2.287-23.087-8.63-29.344-4.704-4.618-8.933-6.257-16.01-6.257-6.43 0-11.868 1.941-15.708 5.653l-1.77 1.726V.473h-11.219zm31.502-8.976c2.589.82 5.998 3.711 7.508 6.344 2.029 3.495 2.935 7.379 3.151 13.852.474 12.558-2.676 20.584-9.278 23.82-2.201 1.08-2.935 1.209-6.776 1.209-4.013 0-4.531-.086-7.206-1.424-2.805-1.381-5.869-4.315-7.207-6.862-.302-.647-.475-5.264-.475-14.672V44.662l1.252-1.942c3.323-5.135 7.163-7.206 13.464-7.25 1.985-.043 4.186.26 5.567.691" data-color="2"/>
        <path fill="#3333CC" d="M84.465 26.84C77.43 28.652 71.864 33.7 70.05 39.743c-1.596 5.35-.388 10.615 3.28 14.5 3.41 3.624 8.415 5.868 18.125 8.155 11.004 2.546 14.629 5.179 14.629 10.487.043 2.546-.475 3.84-2.029 5.437-4.79 4.747-16.225 4.876-21.835.259-1.77-1.467-3.798-5.178-3.798-6.991v-1.208h-11.22v1.165c.043 4.1 2.59 9.148 6.43 12.73 4.66 4.402 9.667 6.257 17.736 6.689 11.479.561 20.585-3.539 24.253-11.004 1.337-2.676 1.424-3.15 1.424-7.423 0-4.1-.13-4.79-1.209-6.99-2.459-5.05-8.285-8.718-17.779-11.177-10.96-2.848-13.55-3.798-15.492-5.567-1.77-1.64-1.77-1.683-1.77-4.876 0-2.849.13-3.366 1.252-4.79 1.726-2.288 5.179-3.798 9.149-4.057 7.25-.474 12.773 2.848 14.111 8.501l.518 2.201h11.004v-1.208c0-2.158-1.295-6.3-2.719-8.674-2.589-4.272-7.983-7.94-13.766-9.321-3.97-.95-11.867-.82-15.88.259" data-color="2"/>
    </g>
</svg>
