<?xml version="1.0" encoding="UTF-8"?>
<svg data-bbox="18.478 5.811 432.785 135.262" xmlns="http://www.w3.org/2000/svg" viewBox="0 0 476 150" height="150" width="476" data-type="ugc">
    <g>
        <g filter="url(#dee38855-70c4-435d-937d-9d770d9033ec)" clip-path="url(#c363983a-46f6-4080-b95d-5f431b732dcd)">
            <path fill="#6B1515" d="M141.22 58.158c-.21.654-.372 5.35-.21 5.181.117-.096.233-1.283.302-2.639l.117-2.47 7.507-.072c4.114-.024 7.507-.024 7.53 0 .047.048.117 14.77.186 32.76.117 32.444.117 32.686.581 32.758.419.049.419.049.07-.193-.395-.243-.418-2.058-.418-32.639 0-24.865-.07-32.468-.279-32.686-.419-.436-15.27-.412-15.386 0"/>
            <path fill="#6B1515" d="M142.172 59.005c-.093.073-.139.533-.139 1.017l.046.872.14-.848.139-.847 4.533-.121 4.532-.145-4.556-.049c-2.51-.024-4.625.024-4.695.121"/>
            <path fill="#6B1515" d="M152.887 59.005a8 8 0 0 0 1.511 0c.395-.048.07-.097-.767-.097s-1.162.049-.744.097"/>
            <path fill="#6B1515" d="M142.126 99.512c0 20.968.023 29.564.046 19.08.047-10.508.047-27.65 0-38.135-.023-10.508-.046-1.912-.046 19.055"/>
            <path fill="#6B1515" d="M393.839 66.753c-.511.073-1.023.218-1.162.363-.163.17-.023.194.465.073.395-.097 2.998-.266 5.81-.363l5.113-.17h-4.648c-2.557 0-5.067.049-5.578.097"/>
            <path fill="#6B1515" d="M406.273 67.31c.837.266 1.209.266 1.046 0-.069-.145-.488-.242-.883-.218-.72.024-.72.024-.163.218"/>
            <path fill="#6B1515" d="M390.12 67.48c-.372.072-.767.193-.883.29-.093.097.349.121.999.024.628-.072 1.232-.218 1.325-.314.163-.17-.232-.17-1.441 0"/>
            <path fill="#6B1515" d="M408.295 67.552c.256.242 2.511.969 2.999.969.743 0 .139-.267-1.534-.702-.907-.243-1.557-.364-1.465-.267"/>
            <path fill="#6B1515" d="M397.744 67.722c.999.048 2.556.048 3.486 0 .93-.024.116-.073-1.813-.073-1.906 0-2.673.049-1.673.073"/>
            <path fill="#6B1515" d="M391.863 68.182c-.558.339-.534.339.465.193 1.232-.169 1.813-.58.814-.58-.395.024-.953.169-1.279.387"/>
            <path fill="#6B1515" d="M394.49 67.964c.209.048.581.048.813 0 .209-.073.023-.121-.418-.121-.442 0-.628.048-.395.12"/>
            <path fill="#6B1515" d="M404.879 68.158c4.021.63 4.067.653 3.719.411-.395-.266-3.882-.799-4.974-.75-.395.024.163.17 1.255.339"/>
            <path fill="#6B1515" d="M387.401 68.303c-.233.12-.419.194-.419.145 0-.073-.743.194-1.673.557-1.604.654-2.278 1.21-1.488 1.21.21 0 .372-.12.372-.242 0-.145.163-.242.349-.242s.535-.096.767-.218a18 18 0 0 1 2.487-1.09c.534-.193.72-.362.465-.362-.256 0-.651.096-.86.242"/>
            <path fill="#6B1515" d="M187.262 68.448c-.093.073-.139.969-.116 1.986l.047 1.84.069-1.695c.07-1.235.186-1.768.465-2.01.326-.242.349-.29.047-.29-.21 0-.442.072-.512.17"/>
            <path fill="#6B1515" d="M188.68 68.448c.581.121.651.315.233.75-.21.219 3.556.291 17.013.291 9.506 0 17.222-.048 17.153-.12-.07-.073-7.577-.122-16.665-.122-13.248 0-16.549-.048-16.479-.29.093-.243 3.649-.315 17.269-.315h17.176l.186.605c.139.557.163.557.116-.121l-.046-.726-18.245-.025c-10.041-.024-18.013.025-17.711.073"/>
            <path fill="#6B1515" d="M235.746 68.424c.069.097 4.997.17 10.9.194 5.927.024 10.343-.049 9.832-.146-1.139-.218-20.942-.242-20.732-.048"/>
            <path fill="#6B1515" d="M287.785 68.57c-.372.387-.419 69.464-.047 70.191.233.435.558.46 6.438.46 3.394 0 6.136-.073 6.067-.146-.07-.072-2.743-.121-5.904-.121-3.347.024-5.927-.072-6.136-.218-.302-.193-.349-4.334-.349-34.817 0-28.352.047-34.672.303-34.987.186-.218.65-.436 1.046-.484.65-.073.627-.097-.186-.121-.535-.024-1.07.073-1.232.242"/>
            <path fill="#6B1515" d="M290.551 68.375c.046.049 4.648.146 10.203.194s9.39.024 8.483-.073c-1.743-.169-18.849-.29-18.686-.12"/>
            <path fill="#6B1515" d="M339.173 68.448c.186.17 11.807.121 11.97-.048.07-.073-2.626-.121-5.997-.121s-6.043.072-5.973.17"/>
            <path fill="#6B1515" d="M235.211 103.58c0 31.379.046 34.914.372 35.253.302.339 1.255.388 6.81.388 6.74 0 6.996-.049 6.996-1.066 0-.46-.047-.436-.302.097-.186.387-.535.63-.953.678-.419.048-.605 0-.488-.169.069-.146-.024-.267-.233-.267s-.302.097-.232.242c.093.17-1.767.242-5.416.242h-5.578l-.372-.605c-.348-.557-.372-3.608-.372-35.011 0-18.934-.046-34.478-.116-34.55-.07-.073-.116 15.568-.116 34.768"/>
            <path fill="#6B1515" d="M258.709 68.86c.093.097.883.29 1.743.411 1.348.194 3.347.727 4.974 1.356.186.073.139-.024-.116-.218-.837-.654-7.089-2.106-6.601-1.55"/>
            <path fill="#6B1515" d="M311.794 69.03c.511.12 1.348.266 1.859.338.744.097.674.049-.348-.242-.698-.194-1.534-.339-1.86-.315q-.593 0 .349.218"/>
            <path fill="#6B1515" d="M387.68 69.15c-.581.218-1.139.484-1.279.606-.279.29 2.022-.509 2.325-.775.279-.29.209-.267-1.046.17"/>
            <path fill="#6B1515" d="M290.644 69.247c-.767.073 2.951.194 8.251.29 10.505.194 12.992.388 16.106 1.284 2.232.654 2.58.726 1.953.339-1.116-.678-4.579-1.332-8.972-1.67-3.579-.291-15.014-.437-17.338-.243"/>
            <path fill="#6B1515" d="M410.573 69.199c.279.29 2.022.823 2.162.653.116-.12-.814-.532-1.767-.75-.418-.121-.557-.073-.395.097"/>
            <path fill="#6B1515" d="M238.651 69.417c.674.048 1.72.048 2.324 0 .604-.049.046-.073-1.232-.073s-1.766.024-1.092.073"/>
            <path fill="#6B1515" d="M243.88 69.417a5.7 5.7 0 0 0 1.279 0c.348-.049.046-.097-.651-.097s-1 .048-.628.097"/>
            <path fill="#6B1515" d="M247.599 69.417c.349.048.86.048 1.162 0 .279-.049 0-.097-.651-.097-.627 0-.883.048-.511.097"/>
            <path fill="#6B1515" d="M252.875 69.49c.837.096 2.254.169 3.138.169h1.627l-1.976-.194c-1.092-.097-2.487-.17-3.138-.145-1.115 0-1.092 0 .349.17"/>
            <path fill="#6B1515" d="M343.008 69.417c1.418.048 3.789.048 5.23 0 1.417-.025.255-.073-2.627-.073s-4.044.048-2.603.073"/>
            <path fill="#6B1515" d="M315.885 69.95c.72.241 1.417.508 1.58.605.139.096.256.072.256-.049 0-.218-2.278-1.041-2.813-.993-.186 0 .256.218.977.436"/>
            <path fill="#6B1515" d="M339.847 103.798c.047 18.886.093 28.764.117 21.985.162-32.687.162-56.294.023-56.294-.116 0-.163 15.448-.14 34.309"/>
            <path fill="#6B1515" d="M351.422 103.629c0 18.812.046 34.163.116 34.09.163-.169.186-67.988.023-68.181-.069-.073-.139 15.278-.139 34.091"/>
            <path fill="#6B1515" d="M187.96 103.653c.023 18.667.116 33.994.185 34.066.07.073.117-15.205.117-33.921 0-18.74-.07-34.067-.163-34.067-.116 0-.163 15.278-.139 33.922"/>
            <path fill="#6B1515" d="M258.988 69.9c.093.146.697.34 1.371.437 1.766.242 1.836.266 3.649.847.93.315 1.72.654 1.79.75a.51.51 0 0 0 .395.219c.488 0-1.046-.92-2.139-1.308-.604-.194-1.696-.484-2.463-.605-.767-.145-1.697-.34-2.069-.412-.441-.12-.627-.073-.534.073"/>
            <path fill="#6B1515" d="M381.242 70.99c-1.813.969-2.325 1.405-1.627 1.405.162 0 .534-.17.836-.388.372-.29.605-.315.767-.145.186.194.047.315-.418.436-.349.097-.86.387-1.139.654-.256.266-.348.435-.209.387.72-.242 5.648-3.002 5.555-3.1-.14-.12-2.045.727-2.231 1.042-.186.242-.674-.024-.674-.363 0-.146.116-.17.278-.073s.186.073.093-.097-.023-.29.186-.29c.186 0 .419-.121.488-.242.21-.34.21-.34-1.905.774m.813.485c-.07.17-.256.314-.418.314-.163 0-.349-.145-.395-.314-.07-.17.093-.29.395-.29s.465.12.418.29"/>
            <path fill="#6B1515" d="M413.804 70.337c.256.193.581.363.697.363.14 0 .047-.17-.186-.363-.255-.194-.581-.364-.697-.364-.139 0-.047.17.186.364"/>
            <path fill="#6B1515" d="M224.613 75.3c0 2.857.046 4.044.069 2.59a96 96 0 0 0 0-5.205c-.023-1.428-.069-.242-.069 2.615"/>
            <path fill="#6B1515" d="M317.953 70.53c0 .049.418.388.93.75.511.34.929.558.929.437s-.418-.436-.929-.75c-.512-.291-.93-.485-.93-.437"/>
            <path fill="#6B1515" d="M223.683 75.663c0 2.785.046 3.898.07 2.47a94 94 0 0 0 0-5.085c-.024-1.356-.07-.193-.07 2.615"/>
            <path fill="#6B1515" d="M338.918 104.621c-.024 26.198.023 34.091.232 34.309s2.022.291 6.74.291c6.136 0 6.462-.025 6.694-.46.302-.606.302-1.477 0-1.477-.116 0-.232.217-.232.508 0 1.162-.256 1.211-6.857 1.186-3.393-.024-6.182-.048-6.206-.072-.046-.024-.116-15.399-.186-34.188l-.116-34.14z"/>
            <path fill="#6B1515" d="M236.489 103.75c0 18.11.023 25.495.047 16.391.046-9.104.046-23.921 0-32.928-.024-9.007-.047-1.574-.047 16.537"/>
            <path fill="#6B1515" d="M266.681 71.16c.186.29 1.58 1.041 1.72.896.046-.073-.349-.34-.883-.63-.535-.29-.907-.411-.837-.266"/>
            <path fill="#6B1515" d="M418.406 71.572c.046.266.372.508.813.605.884.194.791-.121-.209-.654-.651-.339-.697-.339-.604.049"/>
            <path fill="#6B1515" d="M288.761 74.09c0 1.404.023 1.96.07 1.259.046-.678.046-1.84 0-2.543-.047-.678-.07-.12-.07 1.284"/>
            <path fill="#6B1515" d="M318.418 71.91c0 .121.349.412.767.63l.744.412-.558-.654c-.581-.654-.953-.8-.953-.388"/>
            <path fill="#6B1515" d="M320.719 72.395c.302.266.651.484.767.484.139 0-.023-.218-.349-.484-.767-.63-1.139-.63-.418 0"/>
            <path fill="#6B1515" d="M420.916 73.121c.442.412 1.092.896 1.464 1.09.349.218.628.484.628.605 0 .145.116.242.232.242.535 0 .14-.484-1.046-1.307-.697-.485-1.324-.993-1.394-1.114-.07-.145-.256-.242-.419-.242-.139 0 .093.339.535.726"/>
            <path fill="#6B1515" d="M268.633 73.726c.395.34.767.606.883.606.093 0-.069-.267-.371-.606-.303-.339-.698-.605-.884-.605-.162 0 0 .266.372.605"/>
            <path fill="#6B1515" d="M321.904 73.266c0 .073.628.75 1.395 1.526 1.743 1.767 1.859 1.477.116-.34-1.185-1.258-1.511-1.5-1.511-1.186"/>
            <path fill="#6B1515" d="M419.754 73.484c.325.17.627.267.697.218.14-.17-.511-.581-.93-.557-.209 0-.116.145.233.34"/>
            <path fill="#6B1515" d="M322.137 74.937c.674.726 1.301 1.283 1.348 1.21.046-.048-.326-.556-.86-1.113-.535-.581-.953-1.138-.953-1.235s-.186-.194-.395-.194c-.279 0 0 .412.86 1.332"/>
            <path fill="#6B1515" d="M421.265 74.622c.255.145 1.022.75 1.72 1.356.79.702 1.162.92.976.605-.349-.677-.326-.799.116-.799.186 0 .279-.12.209-.242-.093-.17-.302-.145-.627.025-.349.193-.512.193-.651 0-.163-.291-1.743-1.235-2.022-1.235-.116 0 .023.145.279.29"/>
            <path fill="#6B1515" d="M270.679 75.712c1.766 2.324 1.952 2.518 1.952 2.3 0-.121-.163-.363-.349-.533s-.348-.46-.348-.653c0-.291-1.767-2.252-2.046-2.252-.046 0 .302.508.791 1.138"/>
            <path fill="#6B1515" d="M377.337 74.816c-.256.097-.837.605-1.278 1.114l-.814.92 1.162-.944c1.813-1.478 1.836-1.502.93-1.09"/>
            <path fill="#6B1515" d="M271.748 75.542c.302.412.836 1.09 1.185 1.526.535.63.488.508-.186-.606-.465-.75-1.023-1.428-1.209-1.5-.209-.098-.139.12.21.58"/>
            <path fill="#6B1515" d="M374.339 76.172c-.605.605-1.046 1.162-1 1.235.07.048.605-.412 1.209-1.017.581-.63 1.023-1.187.976-1.235-.046-.073-.581.387-1.185 1.017"/>
            <path fill="#6B1515" d="M424.867 76.172c0 .315 1.348 1.67 1.511 1.525.046-.072-.256-.508-.697-.944-.442-.46-.814-.702-.814-.581"/>
            <path fill="#6B1515" d="M323.764 76.705c0 .12.139.363.325.508s.442.605.604 1.017c.163.387.349.678.395.63.14-.17-.464-1.478-.906-1.938-.232-.242-.418-.339-.418-.218"/>
            <path fill="#6B1515" d="M374.501 77.286c-.72.847-.929 1.355-.325.799.488-.436 1.069-1.332.883-1.332-.046 0-.302.242-.558.533"/>
            <path fill="#6B1515" d="M424.565 76.898c-.093.097.418.823 1.162 1.598 1.441 1.526 2.162 1.961.86.533-.441-.484-.79-.969-.79-1.09 0-.096-.209-.242-.442-.339-.255-.072-.488-.314-.534-.508-.047-.218-.14-.29-.256-.194"/>
            <path fill="#6B1515" d="M288.738 78.69c0 .993.046 1.404.093.896.046-.484.046-1.308 0-1.816-.047-.484-.093-.073-.093.92"/>
            <path fill="#6B1515" d="M325.623 77.89c0 .291.116.606.232.679.442.29 1.186 2.179 1.325 3.317.07.63.279 1.186.442 1.259.395.17.418.242-.14-1.574-.604-1.985-1.836-4.43-1.859-3.68"/>
            <path fill="#6B1515" d="M273.561 78.278c0 .218.093.412.185.412.349 0 1.139 2.542 1.906 6.053l.465 2.058-.116-1.574c-.047-.871-.209-1.961-.372-2.421-.976-3.123-2.068-5.496-2.068-4.528"/>
            <path fill="#6B1515" d="M371.201 79.658c-1.139 1.332-1.371 1.72-1.092 1.84.488.194.464.485-.117 1.332-.255.388-.418.702-.372.702.186 0 1.79-2.348 1.79-2.566 0-.121-.163 0-.348.242-.186.266-.419.412-.489.339-.255-.29.14-1.041 1.209-2.228.581-.63.999-1.21.953-1.259s-.744.654-1.534 1.598"/>
            <path fill="#6B1515" d="M427.633 79.102c.79.992.93 1.694.372 1.912-.209.097-.465.388-.604.678-.14.29.093.146.581-.387.465-.509.836-.993.836-1.09 0-.218-1.58-2.01-1.766-2.01-.07 0 .186.412.581.897"/>
            <path fill="#6B1515" d="m372.688 79.344-.418.678.628-.582c.65-.63.72-.75.395-.75-.116 0-.395.29-.605.654"/>
            <path fill="#6B1515" d="M325.6 80.094c.279.557.534 1.017.604 1.017.209 0-.418-1.453-.744-1.743-.255-.218-.232-.024.14.726"/>
            <path fill="#6B1515" d="M395.814 79.683c-.697.12-1.58.314-1.975.46-.628.218-.581.218.348.097 1.256-.146 2.418-.267 5.346-.533l2.208-.218h-2.324c-1.278 0-2.905.072-3.603.194"/>
            <path fill="#6B1515" d="M395.931 80.651c-.372.121-1.116.315-1.627.436l-.93.266.93-.145c.511-.097 2.603-.218 4.648-.315 3.347-.12 3.579-.17 2.208-.339-1.743-.218-4.207-.17-5.229.097"/>
            <path fill="#6B1515" d="M405.902 80.603c.093.145.371.266.604.266.256 0 .999.218 1.65.484.651.29 1.325.46 1.464.412.395-.17-1.139-.775-3.323-1.308-.395-.096-.512-.048-.395.146"/>
            <path fill="#6B1515" d="M391.05 80.869c-.07.121.07.242.325.242.279 0 .488-.12.488-.242 0-.145-.139-.242-.325-.242s-.418.097-.488.242"/>
            <path fill="#6B1515" d="M273.863 81.16c.069.218.279.871.441 1.452.256.92.302.969.372.412.047-.388-.139-.993-.441-1.453-.256-.46-.442-.63-.372-.412"/>
            <path fill="#6B1515" d="M288.738 82.322c0 .871.046 1.21.093.775a9 9 0 0 0 0-1.574c-.047-.412-.093-.073-.093.799"/>
            <path fill="#6B1515" d="M403.601 81.111c.395.097.906.194 1.162.194l.465.024-.465-.218c-.256-.121-.767-.194-1.162-.194h-.698z"/>
            <path fill="#6B1515" d="m426.122 81.644-.674.799.767-.702c.698-.678.86-.872.674-.872-.046 0-.372.363-.767.775"/>
            <path fill="#6B1515" d="M201.649 81.329c-.093.121 4.277.242 10.668.266 7.368 0 10.808-.048 10.808-.242 0-.314-21.29-.339-21.476-.024"/>
            <path fill="#6B1515" d="M250.388 81.28c.744.049 1.883.049 2.557 0 .674-.048.069-.072-1.348-.072-1.395 0-1.953.024-1.209.073"/>
            <path fill="#6B1515" d="M300.429 81.499c-.163.411-.21 6.053-.047 5.883.116-.121.395-6.27.279-6.27-.047 0-.163.169-.232.387"/>
            <path fill="#6B1515" d="M302.334 81.28a27 27 0 0 0 2.789 0c.721-.048.07-.072-1.464-.072s-2.138.024-1.325.073"/>
            <path fill="#6B1515" d="M388.958 81.74c-.767.34-1.697.872-2.092 1.163a10 10 0 0 1-1.394.944c-.372.218-.558.388-.372.412.163 0 .953-.436 1.72-.969s1.65-1.04 1.999-1.138c.65-.17 2.161-1.04 1.766-1.04-.116.023-.86.29-1.627.629"/>
            <path fill="#6B1515" d="M199.767 81.668c-.07.17-.093 3.026-.047 6.344l.047 6.053.069-6.223.047-6.222.534-.097.512-.097-.535-.049c-.279 0-.581.122-.627.291"/>
            <path fill="#6B1515" d="M254.386 81.474c.558.194 3.625.29 3.347.097-.186-.12-1.046-.194-1.953-.194-.883 0-1.51.049-1.394.097"/>
            <path fill="#6B1515" d="M326.344 81.959c.534 1.55.906 4.406.929 7.215.024 1.864.093 2.736.209 2.348.535-1.743-.162-8.62-.976-9.709l-.418-.58z"/>
            <path fill="#6B1515" d="M224.473 81.838c-.093.314-1.58.363-11.528.363-6.299 0-11.435.072-11.435.17 0 .266 22.591.241 22.986-.025.163-.121.256-.363.209-.533-.092-.266-.139-.266-.232.025"/>
            <path fill="#6B1515" d="M309.377 81.692c.046.049.511.146 1.022.218.651.121.791.097.465-.072-.441-.194-1.696-.34-1.487-.146"/>
            <path fill="#6B1515" d="M406.506 81.813c.534.315 2.022.606 1.743.315-.116-.121-.651-.29-1.162-.387-.604-.097-.814-.073-.581.072"/>
            <path fill="#6B1515" d="M259.034 82.2c.395.17.744.267.814.219.162-.194-.558-.581-1.046-.557-.349 0-.302.097.232.339"/>
            <path fill="#6B1515" d="M250.086 82.322c-.256.17-.07.242.697.218.79 0 .93-.049.581-.218-.627-.29-.86-.29-1.278 0"/>
            <path fill="#6B1515" d="M248.064 83.17c0 .532.046.725.093.41.046-.29.046-.726 0-.968-.07-.218-.116.025-.093.557"/>
            <path fill="#6B1515" d="M249.133 84.065c-.046.969-.046 3.898.023 6.489l.14 4.721.093-6.489c.069-3.559.046-6.464-.024-6.464-.093 0-.186.799-.232 1.743"/>
            <path fill="#6B1515" d="M252.712 82.491c.349.049.86.049 1.162 0 .279-.048 0-.097-.65-.097-.628 0-.884.049-.512.097"/>
            <path fill="#6B1515" d="M255.78 82.588c.512.097 1.255.194 1.627.17.674 0 .674 0 .116-.194-.325-.097-1.045-.194-1.627-.194h-1.045z"/>
            <path fill="#6B1515" d="M303.032 82.491c.534.049 1.371.049 1.859 0 .465-.048.023-.097-.999-.097s-1.418.049-.86.097"/>
            <path fill="#6B1515" d="M389.4 82.564c-.628.266-1 .799-.395.557.232-.097.674-.315.999-.484.651-.34.163-.412-.604-.073"/>
            <path fill="#6B1515" d="M408.621 82.419c.325.29 3.486 1.816 3.347 1.622-.07-.145-.814-.605-1.627-.993-1.348-.654-1.999-.896-1.72-.63"/>
            <path fill="#6B1515" d="M260.661 83.024c.395.242.744.387.814.339.186-.17-.744-.8-1.139-.8-.209 0-.07.194.325.46"/>
            <path fill="#6B1515" d="M259.36 83.436c.441.193.836.29.906.217.116-.12-.999-.605-1.418-.605-.162.024.07.17.512.388"/>
            <path fill="#6B1515" d="M311.794 83.508c.511.242 1.139.63 1.348.872.232.218.488.339.581.242s.023-.242-.139-.29a2 2 0 0 1-.605-.46c-.372-.364-1.394-.824-1.836-.824-.163 0 .14.218.651.46"/>
            <path fill="#6B1515" d="M425.75 83.218c-.232.048-.418.218-.418.338 0 .34.372.267.697-.145.163-.193.256-.339.209-.339-.046.025-.278.073-.488.146"/>
            <path fill="#6B1515" d="M314.281 84.259c.534.532.906.968.813.968s-.069.218.07.509c.349.678.535.435.256-.315-.233-.654-1.557-2.13-1.883-2.13-.116 0 .233.435.744.968"/>
            <path fill="#6B1515" d="M386.634 84.259c-.767.532-1.534.968-1.674.968-.162 0-.302.17-.302.388 0 .29.279.17 1.116-.436a41 41 0 0 1 1.906-1.356c.441-.29.72-.509.581-.509-.116 0-.86.436-1.627.945"/>
            <path fill="#6B1515" d="M261.707 83.968c0 .097.302.46.697.775.372.339.698.775.698.968.023.243.069.267.162.073.047-.17-.186-.678-.511-1.162-.604-.8-1.046-1.09-1.046-.654"/>
            <path fill="#6B1515" d="M367.97 84.065c-.162.17-.279.412-.279.533 0 .145-.209.532-.464.871-.558.727-.581.993-.117.824.186-.097.349-.315.349-.485 0-.193.232-.678.511-1.065.512-.726.512-1.21 0-.678"/>
            <path fill="#6B1515" d="M413.479 84.017c0 .145.278.363.627.508.581.218 1.766 1.138 2.766 2.155.767.775.953.557.209-.242-.372-.412-.79-.727-.906-.727-.14 0-.512-.29-.814-.63-.674-.75-1.882-1.428-1.882-1.064"/>
            <path fill="#6B1515" d="M261.265 84.646c.21.242.558.775.767 1.186.233.388.326.509.256.243a5 5 0 0 1-.209-.8c-.023-.169-.302-.484-.628-.702-.534-.387-.557-.387-.186.073"/>
            <path fill="#6B1515" d="M412.316 84.356c0 .072.698.605 1.581 1.186.86.605 1.836 1.38 2.185 1.719.65.654.883.775.883.436 0-.097-.558-.63-1.209-1.162-1.301-1.041-3.44-2.422-3.44-2.18"/>
            <path fill="#6B1515" d="M368.505 85.13c-.209.34-.349.654-.302.727.046.048.279-.242.511-.63.488-.896.349-.968-.209-.097"/>
            <path fill="#6B1515" d="M383.984 84.985c-.302.266-.441.484-.302.484.116 0 .465-.218.767-.484.302-.242.465-.46.325-.46-.116 0-.488.218-.79.46"/>
            <path fill="#6B1515" d="M421.474 86.268c-.883.969-1.72 1.913-1.813 2.107-.232.411 1.58-1.284 2.254-2.13.233-.291.558-.534.744-.534.256 0 .674-.944.512-1.138-.047-.024-.791.727-1.697 1.695"/>
            <path fill="#6B1515" d="M423.914 84.622c0 .145-.046.46-.093.702-.069.436-.046.436.302.073.303-.315.326-.46.093-.703-.162-.169-.278-.193-.302-.072"/>
            <path fill="#6B1515" d="m248.041 90.675.069 5.787.651.17c.79.217.837.048.07-.267l-.581-.218-.023-5.496c0-3.051-.07-5.57-.117-5.642-.069-.048-.093 2.494-.069 5.666"/>
            <path fill="#6B1515" d="M314.537 86.414c.278.653.534 1.04.581.847.069-.315-.791-2.034-1-2.034-.046 0 .14.533.419 1.187"/>
            <path fill="#6B1515" d="M328.226 86.559c0 .799.07 1.985.186 2.663l.163 1.21v-1.089c.023-.605-.07-1.791-.163-2.663l-.163-1.574z"/>
            <path fill="#6B1515" d="M382.264 86.607c-1.418 1.55-2.231 2.591-2.115 2.736.07.049.581-.436 1.139-1.09a39 39 0 0 1 1.674-1.888c.348-.363.534-.654.395-.654-.14 0-.651.412-1.093.896"/>
            <path fill="#6B1515" d="M422.194 86.922c-1.208 1.26-.906 1.26.395 0 .535-.533.907-.944.767-.944-.116 0-.65.436-1.162.944"/>
            <path fill="#6B1515" d="M383.124 86.995c-.558.653-.86 1.138-.72 1.138.162 0 1.557-1.38 1.557-1.55 0-.315-.395-.121-.837.412"/>
            <path fill="#6B1515" d="M263.729 88.496c.07 1.065.163 1.985.209 2.034.186.218.047-2.785-.139-3.366-.116-.363-.14.17-.07 1.332"/>
            <path fill="#6B1515" d="M288.761 89.464c0 1.453.023 2.034.07 1.26a26 26 0 0 0 0-2.664c-.047-.702-.07-.073-.07 1.404"/>
            <path fill="#6B1515" d="M276.117 89.32c0 1.064-.163 2.76-.348 3.8-.396 2.131-.326 2.64.116.896.302-1.259.627-6.61.372-6.61-.07 0-.14.872-.14 1.913"/>
            <path fill="#6B1515" d="M365.832 88.254c-.139.363-.302.774-.395.92-.093.145-.023.17.139.072.326-.218.791-1.355.628-1.55-.07-.072-.232.195-.372.558"/>
            <path fill="#6B1515" d="M417.43 88.302c0 .266 1.464 1.768 1.72 1.768.302 0 1.998-1.477 1.998-1.744 0-.145-.418.146-.929.63-1.023.944-1 .944-2.232-.315-.302-.315-.557-.484-.557-.339"/>
            <path fill="#6B1515" d="M262.614 89.997c-.047.969-.024 1.67.046 1.574.256-.29.372-2.058.209-2.712-.116-.412-.186-.048-.255 1.138"/>
            <path fill="#6B1515" d="M301.521 89.464c0 .654.046.92.093.533a5.3 5.3 0 0 0 0-1.21c-.047-.291-.093 0-.093.677"/>
            <path fill="#6B1515" d="M300.336 92.66c-.024 2.712.023 3.729.255 3.874.279.17 3.208.146 3.394-.072.046-.049-.512-.097-1.279-.097-.743 0-1.534-.121-1.72-.242-.279-.17-.372-.969-.488-3.68l-.116-3.463z"/>
            <path fill="#6B1515" d="M366.204 89.513c-.047.242-.186.702-.256 1.04-.232.873.233.316.535-.677.139-.412.163-.775.046-.775-.116 0-.255.194-.325.412"/>
            <path fill="#6B1515" d="M379.196 90.554c-.302.581-.302.702-.023.581.186-.073.372-.387.442-.726.139-.775.023-.727-.419.145"/>
            <path fill="#6B1515" d="M315.792 90.941c-.093.097-.163.34-.163.557 0 .266.07.29.256.097.139-.145.232-.387.162-.557-.046-.145-.162-.194-.255-.097"/>
            <path fill="#6B1515" d="M379.312 92.297c-.464 1.017-.557 1.332-.255.92.255-.339.604-.944.767-1.331.139-.412.395-.8.511-.896.163-.121.163-.194-.023-.194-.163 0-.604.678-1 1.501"/>
            <path fill="#6B1515" d="M301.288 92.249c0 .726.047 1.04.093.654a6.3 6.3 0 0 0 0-1.332c-.046-.363-.093-.049-.093.678"/>
            <path fill="#6B1515" d="M314.583 91.789c-.093.266-.465.871-.86 1.331-.744.872-.744 1.163.023.315.674-.75.884-.097.256.823l-.535.775.628-.605c.837-.775 1.278-1.598.767-1.38-.581.242-.651-.097-.14-.969.256-.435.372-.799.233-.799-.116 0-.302.218-.372.509"/>
            <path fill="#6B1515" d="M261.312 93.169c-.558.605-1 1.138-1 1.162s.419-.17.907-.46c.651-.387.953-.702.999-1.186.07-.388.093-.678.093-.654-.023 0-.465.508-.999 1.138"/>
            <path fill="#6B1515" d="M288.738 94.186c0 .992.046 1.404.093.896.046-.485.046-1.308 0-1.816-.047-.485-.093-.073-.093.92"/>
            <path fill="#6B1515" d="M327.018 93.072c0 .315-.21 1.259-.465 2.082-.256.848-.419 1.574-.372 1.623.139.145.837-1.817.837-2.373 0-.267.093-.436.186-.364.093.049.139-.266.093-.726-.117-.944-.279-1.09-.279-.242"/>
            <path fill="#6B1515" d="M262.544 93.338c-.209.34-.302.606-.209.606.232 0 .836-.969.697-1.114-.047-.073-.279.17-.488.508"/>
            <path fill="#6B1515" d="M327.878 93.46c-.07.338-.186.871-.256 1.21-.256 1.404-.697 2.784-.93 2.954a.77.77 0 0 0-.279.363c-.046.63-.395 1.525-.581 1.525-.116 0-.209.121-.209.267 0 .557.511-.145 1.139-1.55.767-1.743 1.534-4.576 1.348-5.036-.07-.218-.163-.097-.232.266"/>
            <path fill="#6B1515" d="M377.476 93.798c-.139.388-.232.75-.162.8.162.193.65-.897.534-1.211-.069-.17-.232.024-.372.411"/>
            <path fill="#6B1515" d="M274.49 94.476a17 17 0 0 1-.465 1.598c-.278.678-.278.775-.046.775s.651-1.235.86-2.494c.186-1.21-.047-1.138-.349.121"/>
            <path fill="#6B1515" d="M363.81 94.404c-.442 1.428-.372 2.348.07 1.113.186-.532.302-1.234.279-1.525-.047-.46-.117-.387-.349.412"/>
            <path fill="#6B1515" d="M202.161 93.871c.278.048.697.048.929 0 .209-.073-.023-.121-.534-.097-.512 0-.698.049-.395.097"/>
            <path fill="#6B1515" d="M213.968 93.944c7.809.096 9.854.193 10.156.46.349.266.396.266.396-.049a.6.6 0 0 0-.372-.508c-.21-.073-4.765-.121-10.157-.097l-9.808.073z"/>
            <path fill="#6B1515" d="M301.219 93.992c0 .17.116.484.232.678.186.29.233.218.233-.315 0-.363-.093-.654-.233-.654-.116 0-.232.146-.232.291"/>
            <path fill="#6B1515" d="M364.809 94.307c-.069.218-.139.58-.116.799 0 .218.116.097.233-.29.209-.776.139-1.163-.117-.51"/>
            <path fill="#6B1515" d="M260.429 95.13c-1.186.678-2.092.993-3.254 1.138-.93.097-1.348.242-1 .29.837.097 3.045-.338 3.975-.799.674-.338 2.278-1.573 2.022-1.55-.07 0-.86.412-1.743.921"/>
            <path fill="#6B1515" d="M311.562 94.694c-.582.315-.721.436-.349.363a6 6 0 0 1 1.116-.145c.302 0 .511-.145.511-.363 0-.46-.116-.436-1.278.145"/>
            <path fill="#6B1515" d="M204.415 94.912c-2.859.073-.535.17 7.438.242l11.621.121v11.138l-10.808.121-10.808.121 10.855.073c9.18.048 10.877 0 11.04-.291.209-.387.023-11.162-.186-11.38-.186-.193-13.899-.29-19.152-.145"/>
            <path fill="#6B1515" d="M377.825 95.275c-.209.34-.325.75-.232.896.093.145.302-.073.488-.533.395-.992.255-1.186-.256-.363"/>
            <path fill="#6B1515" d="M257.407 95.154c-.627.121-1.789.218-2.556.242-1.07.049-1.232.097-.698.218.744.17 4.649-.266 4.904-.532.186-.194-.023-.17-1.65.072"/>
            <path fill="#6B1515" d="M312.724 95.154c-.07.121-.628.388-1.232.581-.651.218-.883.364-.581.364.604.024 2.394-.727 2.394-.993 0-.267-.419-.242-.581.048"/>
            <path fill="#6B1515" d="m306.216 95.396-3.254.121 2.44.17c2.348.145 4.695-.024 5.044-.363.07-.097-.116-.146-.418-.121-.303.024-2.023.12-3.812.193"/>
            <path fill="#6B1515" d="M249.854 95.59c0 .097.488.145 1.115.097 1.743-.121 1.906-.242.349-.266-.814 0-1.464.048-1.464.17"/>
            <path fill="#6B1515" d="M376.64 95.88c-.093.291-.117.582-.047.654.07.049.186-.12.279-.411.093-.29.116-.581.047-.654-.07-.048-.186.121-.279.412"/>
            <path fill="#6B1515" d="M274.955 96.292c-.023.242-.209.872-.465 1.404-.255.533-.465 1.066-.465 1.211 0 .121-.348.702-.767 1.259-.395.557-.929 1.308-1.162 1.647s-.511.556-.651.484c-.116-.097-.209 0-.209.194 0 .169-.209.556-.465.847-.278.291-.395.533-.302.533.21 0 .721-.581 2.092-2.301 1.534-1.912 3.277-5.69 2.626-5.69-.116 0-.232.194-.232.412"/>
            <path fill="#6B1515" d="M309.493 96.147c.07.121-.116.242-.418.242-.326.024-.396.073-.163.145.186.049.604 0 .906-.12.558-.219.558-.219.047-.34-.279-.097-.465-.048-.372.073"/>
            <path fill="#6B1515" d="m251.713 96.631-1.511.145 1.813.025c.976.024 1.79-.049 1.79-.146 0-.12-.14-.193-.279-.193-.163.024-.976.096-1.813.17"/>
            <path fill="#6B1515" d="M288.738 97.818c0 .871.046 1.21.093.774a9 9 0 0 0 0-1.573c-.047-.412-.093-.073-.093.799"/>
            <path fill="#6B1515" d="M363.252 96.898c0 .169-.139 1.55-.302 3.026-.163 1.501-.209 2.736-.116 2.736.186 0 .372-1.211.581-3.947.093-1.162.093-2.106 0-2.106-.07 0-.14.145-.163.29"/>
            <path fill="#6B1515" d="M325.553 97.939c-.511 1.138-.488 1.283.07.605.256-.315.465-.75.465-1.017 0-.63-.093-.557-.535.412"/>
            <path fill="#6B1515" d="M224.543 100.118c-.14 5.496-.14 7.602.046 7.409.093-.097.14-2.47.093-5.254-.046-3.753-.07-4.31-.139-2.155"/>
            <path fill="#6B1515" d="M364.112 98.253c-.093.436-.116.872-.046.945.255.29.395-.121.325-.945l-.07-.799z"/>
            <path fill="#6B1515" d="M272.677 99.198c-.697 1.113-.557 1.259.163.17.302-.46.511-.872.465-.92-.047-.05-.326.29-.628.75"/>
            <path fill="#6B1515" d="M376.826 99.997c0 .726.046 1.041.093.653a6.4 6.4 0 0 0 0-1.331c-.047-.363-.093-.049-.093.678"/>
            <path fill="#6B1515" d="M324.693 99.488c0 .121-.279.581-.627 1.017-.488.605-.535.726-.186.509.558-.291 1.418-1.744 1.069-1.744-.139 0-.256.097-.256.218"/>
            <path fill="#6B1515" d="M363.903 100.408c-.232.945-.116 6.852.116 6.998.116.072.186.411.186.75 0 .363.023.581.07.533.046-.049.023-2.107-.047-4.576-.093-3.027-.209-4.237-.325-3.705"/>
            <path fill="#6B1515" d="M375.71 104.234c.07 3.656.256 5.036.581 4.479.093-.169.07-.654-.07-1.065-.139-.412-.325-2.179-.395-3.898l-.163-3.148z"/>
            <path fill="#6B1515" d="M271.236 101.207c-.139.267-.162.485-.069.485.116 0 .325-.218.488-.485.162-.266.186-.484.046-.484-.116 0-.325.218-.465.484"/>
            <path fill="#6B1515" d="M51.365 101.716c-.697.121-.604.169.535.193.72 0 1.325-.024 1.325-.072 0-.194-1.093-.267-1.86-.121"/>
            <path fill="#6B1515" d="M73.469 103.556c.046 1.913.139 1.695.255-.605.047-.678 0-1.259-.093-1.259-.116 0-.162.847-.162 1.864"/>
            <path fill="#6B1515" d="M74.56 102.006c.14.17.303.969.35 1.744l.07 1.452.046-1.767c.046-1.453-.023-1.743-.326-1.743-.279 0-.325.072-.14.314"/>
            <path fill="#6B1515" d="M84.044 102.321c-.21.581-.163.654.232.242.79-.847 1-.508 1.093 1.84l.07 2.252.046-2.373.046-2.348h-.674c-.395 0-.72.145-.813.387"/>
            <path fill="#6B1515" d="m90.691 104.161.046 2.252.07-2.131c.093-2.034.116-2.106.651-2.106h.558l.023 5.399c0 2.978-.046 5.593-.14 5.811-.209.581-.673.509-.976-.145-.255-.533-.255-.533-.255.121-.024.654.395.92 1.185.726.372-.097.395-.629.349-6.077l-.047-5.956-.743-.073-.768-.073z"/>
            <path fill="#6B1515" d="m321.881 103.047-.79.896.744-.557c.418-.314.79-.702.86-.895.185-.485.069-.412-.814.556"/>
            <path fill="#6B1515" d="M376.593 103.629c0 .871.047 1.21.093.774a9 9 0 0 0 0-1.573c-.046-.412-.093-.073-.093.799"/>
            <path fill="#6B1515" d="M288.738 103.75c0 .799.046 1.089.093.653a7.7 7.7 0 0 0 0-1.452c-.047-.364-.093 0-.093.799"/>
            <path fill="#6B1515" d="M399.696 102.587c-.07.121 7.368.218 16.525.267 9.158.048 16.734.145 16.827.193.117.073.21 1.671.21 3.56.023 2.493.093 3.171.232 2.469.302-1.598 0-6.004-.442-6.368-.278-.217-4.02-.29-16.804-.29-9.041 0-16.502.073-16.548.169"/>
            <path fill="#6B1515" d="M47.879 103.144c-.325.267-.465.485-.302.485.255 0 1-.63 1-.872 0-.17-.094-.121-.698.387"/>
            <path fill="#6B1515" d="M269.47 103.168c-.442.533-.442.533.07.243.557-.291.906-.751.581-.751-.116 0-.395.242-.651.508"/>
            <path fill="#6B1515" d="M323.136 103.023c-.441.509-.372.654.163.363.256-.145.465-.363.465-.484 0-.339-.302-.29-.628.121"/>
            <path fill="#6B1515" d="M51.319 103.314c.279.048.743.048 1.046 0 .279-.049.046-.097-.535-.097s-.813.048-.511.097"/>
            <path fill="#6B1515" d="M398.65 109.076c-.023 3.317.023 6.295.093 6.586.116.412.302.557.767.533.535-.049.558-.049.093-.146-.302-.048-.558-.121-.581-.145 0-.024-.093-2.93-.186-6.465l-.139-6.416z"/>
            <path fill="#6B1515" d="M83.95 108.616c-.046 5.279-.046 5.375.442 5.496.651.194 1.14-.048 1.116-.532 0-.242-.046-.267-.14-.097-.046.169-.348.315-.673.315h-.558l-.07-5.279-.046-5.254z"/>
            <path fill="#6B1515" d="M400.393 103.677c-.163.097 6.88.194 15.619.194s15.851-.049 15.781-.121c-.186-.194-31.121-.267-31.4-.073"/>
            <path fill="#6B1515" d="M56.71 104.258c0 .315-.162.363-.836.266-.767-.145-.813-.121-.418.194.58.46.883.436 1.325-.073.441-.508.511-.774.162-.774-.116 0-.232.169-.232.387"/>
            <path fill="#6B1515" d="M267.308 104.839c-.557.412-.883.726-.697.726s.744-.338 1.232-.726c1.185-.944.79-.92-.535 0"/>
            <path fill="#6B1515" d="M319.975 104.597c-.325.266-.697.484-.813.484s-.349.17-.512.363c-.162.194-.186.364-.069.364.255 0 2.161-1.38 2.161-1.574 0-.218-.163-.145-.767.363"/>
            <path fill="#6B1515" d="M321.556 104.331c.069.121-.117.411-.395.605-.279.218-.396.387-.256.387.139 0 .488-.193.767-.435.488-.412.488-.46.139-.606-.209-.097-.325-.072-.255.049"/>
            <path fill="#6B1515" d="M64.148 105.202c.767.46 1.163.436.605 0-.256-.193-.628-.363-.814-.363q-.348.036.21.363"/>
            <path fill="#6B1515" d="M78.21 105.081c.65.097 1.371.267 1.627.363.325.097.279.025-.116-.217-.326-.194-1.046-.364-1.627-.339h-1.046z"/>
            <path fill="#6B1515" d="M399.859 109.561c0 2.663.046 3.777.069 2.493a83 83 0 0 0 0-4.842c-.023-1.38-.069-.315-.069 2.349"/>
            <path fill="#6B1515" d="M46.275 105.251c0 .145-.093.484-.163.726-.116.339-.093.363.117.17a.82.82 0 0 0 .186-.727c-.07-.266-.117-.339-.14-.169"/>
            <path fill="#6B1515" d="M59.314 107.672c.023 2.663.116 2.349.233-.847.046-.945 0-1.744-.093-1.744-.117 0-.163 1.162-.14 2.591"/>
            <path fill="#6B1515" d="M267.727 105.808c-.558.387-1.209.726-1.418.726-.232 0-.418.097-.418.242 0 .121.046.242.116.242.255 0 1.859-.944 2.44-1.428.86-.751.442-.606-.72.218"/>
            <path fill="#6B1515" d="M376.663 106.413c.093.654.186 1.259.232 1.307.209.243.07-1.816-.139-2.154-.163-.243-.186.024-.093.847"/>
            <path fill="#6B1515" d="M265.17 106.05c-1.673.92-3.695 1.477-7.414 2.034-.326.048.163.096 1.046.121 1.371.024 2.068-.146 4.276-.945 1.441-.532 2.65-.968 2.696-.968s.117-.17.21-.363c.069-.194.093-.363.069-.363-.023.024-.418.217-.883.484"/>
            <path fill="#6B1515" d="M80.65 106.171c.163.194.395.363.512.363.14 0 .116-.169-.047-.363-.162-.194-.395-.363-.511-.363-.14 0-.116.169.046.363"/>
            <path fill="#6B1515" d="M317.209 106.195c-.372.194-.65.412-.65.46 0 .145 1.208-.387 1.51-.654.349-.314-.162-.218-.86.194"/>
            <path fill="#6B1515" d="M71.237 106.534c.093.339.256 2.01.349 3.753l.186 3.147-.047-3.268c-.023-2.228-.116-3.414-.325-3.753-.302-.46-.302-.436-.163.121"/>
            <path fill="#6B1515" d="M288.738 107.502c0 .872.046 1.211.093.775a9 9 0 0 0 0-1.574c-.047-.411-.093-.072-.093.799"/>
            <path fill="#6B1515" d="M318.488 106.558c-.581.218-.698.46-.233.46.349 0 1-.411.86-.557-.069-.072-.348-.024-.627.097"/>
            <path fill="#6B1515" d="M363.089 108.035c.117.969.256 1.792.303 1.864.162.17.139-1.985-.024-2.857-.279-1.428-.464-.75-.279.993"/>
            <path fill="#6B1515" d="M61.15 107.236c-.534.775-.604.993-.255.993.139 0 .232-.17.232-.363 0-.194.21-.581.465-.848.255-.266.372-.484.255-.484s-.441.315-.697.702"/>
            <path fill="#6B1515" d="M199.79 106.921c-.209.557-.163.872.07.727.278-.194.488-1.114.255-1.114-.093 0-.255.169-.325.387"/>
            <path fill="#6B1515" d="m314.932 107.164-.814.338.814-.145c.929-.169 1.766-.581 1.162-.557-.186 0-.721.17-1.162.364"/>
            <path fill="#6B1515" d="M45.88 108.544c.047.92.21 1.791.372 1.937.186.218.232.121.116-.436-.07-.412-.232-1.283-.349-1.937-.209-1.162-.209-1.162-.139.436"/>
            <path fill="#6B1515" d="M81.743 107.502c.07.339.209 1.211.302 1.937l.163 1.332.023-1.21c.023-.678-.116-1.55-.302-1.937-.28-.606-.326-.606-.186-.122"/>
            <path fill="#6B1515" d="M70.145 110.238c.07 3.899.093 3.996.976 3.85.86-.121.93-.436.07-.411h-.605l-.116-3.027c-.046-1.671-.162-3.099-.232-3.196-.093-.097-.14 1.162-.093 2.784"/>
            <path fill="#6B1515" d="M80.162 107.599c.163.194.372.654.488 1.041l.186.678.024-.653c.023-.364-.14-.824-.35-1.017-.44-.485-.72-.509-.348-.049"/>
            <path fill="#6B1515" d="M75.072 107.963c-.116.266-.209.944-.209 1.525l.023 1.041.186-1.235c.093-.702.256-1.38.326-1.525.093-.145.116-.267.046-.267s-.232.218-.372.461"/>
            <path fill="#6B1515" d="M201.905 107.793c-.163.097 4.765.194 10.947.194 6.159 0 11.203-.073 11.203-.194 0-.218-21.801-.218-22.15 0"/>
            <path fill="#6B1515" d="m312.143 107.72-.814.17.86.121c.488.073 1.116-.024 1.395-.194l.534-.29-.581.024c-.325 0-.953.097-1.394.169"/>
            <path fill="#6B1515" d="M432.351 108.229c0 .46.047.654.116.411a2.6 2.6 0 0 0 0-.847c-.069-.218-.116-.024-.116.436"/>
            <path fill="#6B1515" d="m315.164 108.132-.581.363.581-.121c.325-.073.651-.145.767-.145.093 0 .163-.121.163-.242 0-.339-.233-.291-.93.145"/>
            <path fill="#6B1515" d="M52.806 108.762c.07.677.163.799.72.823.582.024.582.024.047-.073-.65-.121-.813-.896-.209-1.138.21-.073 1.232-.145 2.301-.145 1.93 0 1.952 0 2.045.654.117.653.117.653.07-.049l-.023-.726-2.51-.073-2.51-.072z"/>
            <path fill="#6B1515" d="M262.799 108.132c-.069.097-.488.242-.906.339-.628.169-.674.194-.186.218.628 0 2.208-.654 1.604-.678a.77.77 0 0 0-.512.121"/>
            <path fill="#6B1515" d="M377.012 108.229c0 .194.093.581.209.847.116.315.209.339.209.121 0-.193-.093-.581-.209-.847-.116-.315-.209-.339-.209-.121"/>
            <path fill="#6B1515" d="m251.48 108.471-1.975.145 1.859.049c1.023 0 2.278-.073 2.789-.17l.93-.218-.813.024c-.442 0-1.697.097-2.79.17"/>
            <path fill="#6B1515" d="M306.402 108.398a10.4 10.4 0 0 0 1.743 0c.465-.048.07-.097-.883-.097s-1.348.049-.86.097"/>
            <path fill="#6B1515" d="M200.882 109.682c0 .726.047 1.041.093.653a6.3 6.3 0 0 0 0-1.331c-.046-.364-.093-.049-.093.678"/>
            <path fill="#6B1515" d="M248.134 109.004c-.07.314-.117 6.876-.093 14.6l.069 14.043.117-13.922c.069-7.748.209-14.14.325-14.407s.325-.556.465-.653c.139-.121.046-.194-.233-.194-.325 0-.557.194-.65.533"/>
            <path fill="#6B1515" d="M300.429 108.858c-.07.218-.117 2.301-.093 4.649l.046 4.286.116-4.165c.093-2.445.233-4.261.395-4.431.14-.145.698-.339 1.279-.46l1.022-.218-1.301-.024c-1-.024-1.348.073-1.464.363"/>
            <path fill="#6B1515" d="M313.258 108.592c-.116.121-6.252.775-8.785.944-.837.049.023.049 1.906-.024 3.579-.097 6.809-.412 7.669-.799.535-.218.535-.218-.069-.218-.326-.024-.651.024-.721.097"/>
            <path fill="#6B1515" d="M64.637 111.183c-.024 2.373.023 2.615.441 2.857.279.145.465.169.465.024 0-.121-.116-.266-.256-.315-.162-.048-.325-1.138-.441-2.615l-.163-2.542z"/>
            <path fill="#6B1515" d="m256.71 109.197-1.395.17 1.627.024c.907.024 1.79-.073 1.976-.194.395-.266.116-.266-2.208 0"/>
            <path fill="#6B1515" d="M432.212 109.827c-.093.339-.116.702-.047.75.07.073.186-.169.279-.508.07-.363.093-.702.023-.775-.046-.072-.186.17-.255.533"/>
            <path fill="#6B1515" d="M47.414 109.706c0 .193.279.654.604 1.065l.605.726-.535-.968c-.65-1.235-.674-1.235-.674-.823"/>
            <path fill="#6B1515" d="M73.492 111.643c-.047 1.937.023 2.373.325 2.494.535.218 1.023.169 1.023-.097 0-.121-.14-.17-.326-.097-.51.218-.72-.363-.86-2.567l-.139-2.058z"/>
            <path fill="#6B1515" d="M252.015 109.609c.349.048.906.048 1.278 0 .349-.048.047-.097-.65-.097s-1 .049-.628.097"/>
            <path fill="#6B1515" d="M364.461 109.948c-.047.872.395 3.172.674 3.462.116.121.069-.436-.116-1.21a92 92 0 0 1-.419-2.155c-.093-.678-.093-.678-.139-.097"/>
            <path fill="#6B1515" d="M301.498 109.803c-.024.121-.047 6.61-.047 14.382l.023 14.115-.511.461c-.418.363-.442.46-.139.46.209 0 .488-.218.627-.46.163-.339.209-5.206.163-14.843-.023-7.893-.07-14.261-.116-14.115"/>
            <path fill="#6B1515" d="M249.272 123.483c0 7.53.024 10.605.047 6.852.046-3.777.046-9.927 0-13.68-.023-3.777-.047-.702-.047 6.828"/>
            <path fill="#6B1515" d="M288.761 112.345c0 1.404.023 1.961.07 1.259.046-.678.046-1.84 0-2.542-.047-.678-.07-.121-.07 1.283"/>
            <path fill="#6B1515" d="M80.674 110.384c0 .193-.28.702-.628 1.162-.325.436-.488.799-.395.775.372-.024 1.255-1.429 1.162-1.84-.07-.267-.116-.291-.14-.097"/>
            <path fill="#6B1515" d="M432.932 111.11c-.093.436-.139 1.211-.139 1.695.023.726.069.654.232-.46.256-1.477.163-2.518-.093-1.235"/>
            <path fill="#6B1515" d="M376.547 110.771c0 .436.65 1.477.674 1.065 0-.193-.163-.581-.349-.847-.186-.242-.325-.363-.325-.218"/>
            <path fill="#6B1515" d="M46.717 111.376c.302.63 1.394 1.768 1.557 1.623.047-.049-.349-.581-.883-1.163-.651-.726-.883-.871-.674-.46"/>
            <path fill="#6B1515" d="M75.072 110.965c0 .533.512 1.332.953 1.453.465.121.442.072-.163-.63-.371-.436-.697-.823-.72-.872-.046-.048-.07-.048-.07.049"/>
            <path fill="#6B1515" d="M363.717 111.909c.093.678.139.702.209.218.047-.315 0-.654-.116-.775-.139-.145-.163.073-.093.557"/>
            <path fill="#6B1515" d="M431.979 111.764c-.093.339-.116.678-.069.75.069.049.186-.193.255-.556.093-.339.116-.678.07-.751-.07-.048-.186.194-.256.557"/>
            <path fill="#6B1515" d="M377.848 114.088c.442.969.907 1.816 1 1.889s.232.29.302.484c.116.315.139.315.139-.024.024-.194-.232-.727-.558-1.187-.325-.46-.581-.944-.581-1.113 0-.388-.767-1.792-.976-1.792-.093 0 .209.799.674 1.743"/>
            <path fill="#6B1515" d="M378.15 112.49c0 .436.581 1.55.86 1.647.14.072.047-.291-.209-.775-.627-1.114-.651-1.162-.651-.872"/>
            <path fill="#6B1515" d="M363.996 113.071c0 .194.093.581.209.848l.209.484v-.484c0-.267-.093-.654-.209-.848-.209-.314-.232-.314-.209 0"/>
            <path fill="#6B1515" d="M49.134 113.677c.256.193.627.363.813.363q.35-.036-.209-.363c-.767-.46-1.162-.436-.604 0"/>
            <path fill="#6B1515" d="M59.29 113.434c-.046.896 1.21 1.138 1.302.243.047-.267 0-.339-.07-.194-.07.169-.325.315-.557.315s-.488-.146-.535-.315c-.07-.145-.14-.194-.14-.049"/>
            <path fill="#6B1515" d="M431.398 114.088c0 .363-.186 1.114-.395 1.647-.209.557-.325 1.041-.256 1.113.21.218.907-2.276.791-2.857-.093-.484-.093-.484-.14.097"/>
            <path fill="#6B1515" d="m52.76 114.185-1.046.339 1.023-.121c.976-.145 2.23-.63 1.417-.557-.186 0-.813.17-1.394.339"/>
            <path fill="#6B1515" d="M365.367 114.694c0 .314.116.556.233.556.302 0 .302-.266 0-.726-.186-.291-.233-.266-.233.17"/>
            <path fill="#6B1515" d="M379.312 114.718c0 .339.372 1.162.744 1.598.116.145.581.702 1.023 1.235a32 32 0 0 1 1.534 2.009c.372.581.744.993.813.92.07-.048-.674-1.114-1.627-2.348-.976-1.211-1.929-2.543-2.115-2.978-.209-.412-.372-.606-.372-.436"/>
            <path fill="#6B1515" d="M432.026 115.735c-.209.678-.302 1.21-.186 1.21.186 0 .79-2.179.627-2.324-.046-.049-.232.46-.441 1.114"/>
            <path fill="#6B1515" d="M364.461 115.032c-.024.073.186.557.441 1.09.256.557.419.726.395.436-.069-.484-.813-1.84-.836-1.526"/>
            <path fill="#6B1515" d="M402.392 115.178a58 58 0 0 0 4.067 0c1.116-.024.186-.073-2.045-.073s-3.161.049-2.022.073"/>
            <path fill="#6B1515" d="M411.921 115.178c.976.048 2.603.048 3.603 0 .976-.024.163-.073-1.813-.073s-2.789.049-1.79.073"/>
            <path fill="#6B1515" d="M418.429 115.347c.209.17.395.533.395.775.024.436.024.436.256.024.279-.508-.093-1.138-.697-1.138-.326.024-.326.049.046.339"/>
            <path fill="#6B1515" d="M365.948 116.025c.14.823.535 1.889.674 1.889.14 0-.186-1.09-.534-1.937l-.256-.606z"/>
            <path fill="#6B1515" d="M411.224 116.146c.209.049.581.049.814 0 .209-.072.023-.121-.419-.121-.441 0-.627.049-.395.121"/>
            <path fill="#6B1515" d="M380.01 117.841c.674.944.929 1.211.929.944 0-.048-.371-.508-.836-1.017l-.837-.944z"/>
            <path fill="#6B1515" d="M365.367 117.357c0 .508 1.929 4.576 2.022 4.261.07-.169-.093-.605-.348-.968-.512-.775-1.023-2.252-.791-2.252.093 0 .047-.097-.093-.194-.139-.097-.371-.387-.511-.653-.139-.267-.279-.364-.279-.194"/>
            <path fill="#6B1515" d="M416.872 117.696c-.535.654-.349.847.209.218.232-.267.372-.533.325-.606-.069-.048-.302.122-.534.388"/>
            <path fill="#6B1515" d="M431.05 118.737a72 72 0 0 1-.884 1.937c-.232.508-.395.993-.325 1.065.163.17 1.836-3.51 1.72-3.801-.023-.121-.256.242-.511.799"/>
            <path fill="#6B1515" d="M288.761 120.456c0 1.453.023 2.034.07 1.259a26 26 0 0 0 0-2.663c-.047-.702-.07-.073-.07 1.404"/>
            <path fill="#6B1515" d="M200.905 121.182c0 1.598.024 2.228.07 1.381a30 30 0 0 0 0-2.906c-.046-.751-.07-.073-.07 1.525"/>
            <path fill="#6B1515" d="M417.081 119.27c-.511 1.162-3.626 4.455-4.207 4.455-.348 0-.302-.121.256-.727.372-.411.558-.726.418-.726-.139 0-.395.169-.558.412a5 5 0 0 1-1.022.847l-.697.46.65-.169c.883-.218.767.121-.441 1.162-1.627 1.428-1.093 1.186 1.534-.702 1.51-1.066 4.788-5.109 4.602-5.666-.047-.17-.279.121-.535.654"/>
            <path fill="#6B1515" d="M429.516 119.899c-.303.702-1.116 2.3-1.813 3.535-.698 1.235-1.209 2.3-1.139 2.373.116.121 2.022-3.075 2.022-3.39 0-.072.302-.653.651-1.283.581-1.041 1.115-2.494.906-2.494-.046 0-.325.581-.627 1.259"/>
            <path fill="#6B1515" d="M381.172 119.318c0 .097.279.46.627.799.465.436.535.46.303.097-.558-.775-.93-1.138-.93-.896"/>
            <path fill="#6B1515" d="M414.827 120.698c-1.232 1.477-1.093 1.695.162.242.581-.653 1.046-1.21 1.046-1.259 0-.29-.488.097-1.208 1.017"/>
            <path fill="#6B1515" d="M382.962 121.328c.278.29.581.484.65.411.07-.072-.162-.314-.511-.557l-.651-.411z"/>
            <path fill="#6B1515" d="M384.193 121.182c0 .194.372.557.814.775.813.412 1.069.92.534 1.114-.162.048-.209.194-.116.315s.256.097.349-.049a1 1 0 0 1 .465-.363c.186-.073-.14-.508-.86-1.138-.814-.726-1.186-.92-1.186-.654"/>
            <path fill="#6B1515" d="m199.697 123.652-.047 2.203.721.267c.79.29 4.346.387 4.091.097-.093-.073-1.139-.218-2.301-.291l-2.162-.145-.139-2.179-.117-2.179z"/>
            <path fill="#6B1515" d="M383.961 121.981c0 .097.279.46.627.799.465.436.535.46.303.097-.558-.775-.93-1.138-.93-.896"/>
            <path fill="#6B1515" d="M369.016 122.901c.209.582 1.929 2.882 1.929 2.591 0-.121-.302-.581-.697-1.041-.372-.46-.674-.968-.697-1.114 0-.145-.163-.411-.349-.581-.302-.266-.325-.242-.186.145"/>
            <path fill="#6B1515" d="M429.144 122.95c-.14.097-.326.412-.419.702-.093.315-.255.557-.371.557-.093 0-.233.242-.326.533-.07.314-.441.92-.837 1.38-.395.436-.674.92-.627 1.065.07.266 1.371-1.525 2.347-3.293.651-1.186.674-1.259.233-.944"/>
            <path fill="#6B1515" d="M386.75 123.192c0 .218.767.726 1.534 1.017.883.363.651.097-.488-.557-.581-.339-1.046-.533-1.046-.46"/>
            <path fill="#6B1515" d="M158.581 123.652c.21.048.581.048.814 0 .209-.073.023-.121-.418-.121-.442 0-.628.048-.396.121"/>
            <path fill="#6B1515" d="M173.689 123.652c.209.048.581.048.813 0 .21-.073.024-.121-.418-.121s-.628.048-.395.121"/>
            <path fill="#6B1515" d="M177.268 123.773c.419.218.511.533.651 2.228.093 1.065.116 4.382.07 7.36-.047 2.954 0 5.375.116 5.375.093 0 .163-3.293.163-7.336 0-7.699-.024-7.942-1.023-7.893-.465 0-.465.024.023.266"/>
            <path fill="#6B1515" d="M288.761 128.809c0 3.003.046 4.213.07 2.712.046-1.477.046-3.947 0-5.448-.024-1.477-.07-.266-.07 2.736"/>
            <path fill="#6B1515" d="m155.699 124.136.279.557h10.39c6.763 0 10.273-.097 10.04-.242-.209-.145-4.23-.218-10.273-.194-8.344.049-9.971 0-10.319-.314-.372-.315-.372-.291-.117.193"/>
            <path fill="#6B1515" d="M368.575 123.943c.186.096.325.29.325.411.023.339 1.395 2.276 1.627 2.276.116 0 0-.315-.256-.702-.279-.387-.488-.823-.488-.968s-.139-.267-.325-.267c-.163 0-.372-.218-.442-.484s-.255-.484-.441-.484c-.256 0-.256.048 0 .218"/>
            <path fill="#6B1515" d="M387.122 124.427c-.07.121.023.266.209.363.209.073.349 0 .349-.218 0-.387-.372-.484-.558-.145"/>
            <path fill="#6B1515" d="M410.225 124.693c-.442.267-.698.46-.581.46.139 0 .604-.193 1.045-.46.442-.266.721-.46.581-.46-.116 0-.604.194-1.045.46"/>
            <path fill="#6B1515" d="M176.873 130.674c0 4.455.07 5.883.302 5.956q.35.145 0 .145c-.163.024-.302.145-.302.315 0 .218.07.218.256.024.302-.315.279-11.719-.024-12.033-.162-.17-.232 1.84-.232 5.593"/>
            <path fill="#6B1515" d="M207.739 125.105c2.858.048 7.46.048 10.226 0 2.766-.024.442-.049-5.183-.049-5.624 0-7.902.025-5.043.049"/>
            <path fill="#6B1515" d="M223.683 125.298c.186.194.441.364.581.364.163 0 .279 2.179.325 6.585l.047 6.61.069-6.803c.047-7.264.07-7.119-1.045-7.119-.303 0-.303.049.023.363"/>
            <path fill="#6B1515" d="M388.377 125.299c0 .193 3.556 1.815 3.951 1.791.279 0-1.069-.678-1.371-.702-.186 0-.558-.194-.814-.46-.464-.436-1.766-.896-1.766-.629"/>
            <path fill="#6B1515" d="M407.621 125.734c-.488.146-.883.339-.883.436 0 .17 2.046-.436 2.301-.654.163-.145-.511-.048-1.418.218"/>
            <path fill="#6B1515" d="M206.158 126.146c-.232.169.488.242 2.208.218 1.65 0 2.394-.073 2.092-.218-.651-.291-3.881-.291-4.3 0"/>
            <path fill="#6B1515" d="M215.339 126.17c-.511.073.999.17 3.37.17 2.464.024 4.439-.049 4.648-.194.372-.266-6.345-.242-8.018.024"/>
            <path fill="#6B1515" d="M392.793 126.001c0 .072.651.339 1.464.605 1.674.533 7.066.896 8.181.557.512-.145-.418-.242-3.253-.339-2.162-.073-4.207-.242-4.533-.363-.813-.339-1.859-.581-1.859-.46"/>
            <path fill="#6B1515" d="M409.179 126.17c-.256.412-.047.436.581.097.558-.339.558-.339.069-.363-.278 0-.581.121-.65.266"/>
            <path fill="#6B1515" d="M425.495 127.018c-.372.46-.628.895-.581.968.162.145 1.394-1.356 1.301-1.622-.046-.121-.372.169-.72.654"/>
            <path fill="#6B1515" d="M404.298 126.63c-.814.17-.744.194.534.17.791-.025 1.441-.121 1.441-.218 0-.218-.65-.194-1.975.048"/>
            <path fill="#6B1515" d="M223.636 131.884c-.023 2.954.024 5.424.14 5.472.093.073.139-1.525.093-3.535-.093-6.707-.186-7.385-.233-1.937"/>
            <path fill="#6B1515" d="m406.134 127.26-.674.339.93-.146c1.162-.169 1.836-.532.999-.532-.302 0-.883.169-1.255.339"/>
            <path fill="#6B1515" d="M393.165 127.357c.744.314 4.044.823 4.207.629.069-.073-.117-.145-.419-.145a3.1 3.1 0 0 1-1.139-.363c-.325-.194-1.162-.339-1.859-.339-.906 0-1.139.072-.79.218"/>
            <path fill="#6B1515" d="M373.2 128.616c.999 1.21 2.905 3.099 3.114 3.099.093 0-.674-.872-1.72-1.937-1.998-2.034-2.51-2.47-1.394-1.162"/>
            <path fill="#6B1515" d="M399.185 128.083c-1.325.242 2.115.266 3.835 0 1.162-.17 1.115-.17-.814-.17-1.139 0-2.51.073-3.021.17"/>
            <path fill="#6B1515" d="M423.449 130.964c-1.905 1.961-2.696 2.688-2.951 2.688-.117 0-.279.169-.372.363-.093.29-.047.315.279.145.604-.339 4.602-4.31 4.462-4.455-.07-.048-.697.509-1.418 1.259"/>
            <path fill="#6B1515" d="M374.222 131.158c.767.75 1.627 1.525 1.906 1.719.279.169.07-.097-.465-.605-.557-.509-.999-1.041-.999-1.163 0-.145-.232-.363-.511-.484-.302-.145-.512-.363-.488-.508.023-.121-.163-.242-.395-.267-.303-.024.023.412.952 1.308"/>
            <path fill="#6B1515" d="M422.194 130.94c-.395.363-1.069.944-1.51 1.307-.442.364-.744.703-.674.799.069.073.534-.266.999-.726.488-.46.93-.847 1.023-.847s.348-.291.581-.606c.534-.774.441-.75-.419.073"/>
            <path fill="#6B1515" d="M418.94 133.749c-.371.314-.627.653-.557.726s.418-.194.79-.581c.813-.872.72-.92-.233-.145"/>
            <path fill="#6B1515" d="M377.337 133.894c.232.266.511.484.627.484.117 0 .674.315 1.232.726 1.116.799 1.488.921 1.046.364-.162-.194-.418-.364-.558-.364-.139 0-.627-.314-1.069-.677-.441-.388-1.022-.775-1.255-.872-.441-.17-.441-.145-.023.339"/>
            <path fill="#6B1515" d="M379.498 134.112c.419.411.86.75 1.023.75.14 0-.046-.242-.418-.532-1.186-.92-1.395-.993-.605-.218"/>
            <path fill="#6B1515" d="M417.616 134.596c-.024.121-.488.436-1 .726-.651.364-.79.509-.441.509.488 0 2.277-1.429 1.789-1.453-.139 0-.302.097-.348.218"/>
            <path fill="#6B1515" d="M381.172 135.153c0 .242 3.44 1.961 3.695 1.84.14-.024-.65-.508-1.72-1.041-1.092-.533-1.975-.896-1.975-.799"/>
            <path fill="#6B1515" d="M418.452 135.201c-.069.194-.418.46-.743.606-.814.339-2.65 1.428-2.952 1.743-.326.339.604-.024 1.046-.412.186-.169.627-.387.999-.46.349-.097.628-.266.628-.363s.325-.315.697-.484c.813-.339 1.046-.63.697-.848-.139-.072-.302 0-.372.218"/>
            <path fill="#6B1515" d="M380.846 136.121c.07.097.465.364.86.533.419.194 1.372.63 2.115.993.93.436 1.279.508 1.093.266-.186-.218-.488-.387-.721-.387s-.534-.17-.697-.363c-.163-.194-.465-.364-.697-.364a.92.92 0 0 1-.674-.339c-.302-.363-1.488-.702-1.279-.339"/>
            <path fill="#6B1515" d="M413.943 136.824c-.441.266-.627.435-.395.363.233-.073.581-.146.744-.146s.349-.169.442-.363c.162-.436.209-.46-.791.146"/>
            <path fill="#6B1515" d="M386.355 137.647c.372.218.72.339.813.266.186-.218 0-.339-.767-.508l-.697-.146z"/>
            <path fill="#6B1515" d="M412.2 137.453a2.2 2.2 0 0 0-.697.363c-.302.315 1.069.024 1.394-.315.233-.242.093-.242-.697-.048"/>
            <path fill="#6B1515" d="M140.848 138.034c0 .145.116.46.232.727.233.46.697.46 18.524.46 10.041 0 18.222-.049 18.175-.122-.069-.048-8.25-.121-18.198-.121l-18.059-.024-.209-.605c-.233-.605-.465-.775-.465-.315"/>
            <path fill="#6B1515" d="M142.242 138.058c0 .267.744.339 1.976.17.651-.073 2.301-.17 3.719-.194 1.394-.024 2.603-.121 2.672-.169.07-.073-1.789-.097-4.113-.049-2.348.024-4.254.146-4.254.242"/>
            <path fill="#6B1515" d="M170.877 137.889c.162.194 2.51.218 2.672.024.07-.073-.511-.145-1.324-.145s-1.418.048-1.348.121"/>
            <path fill="#6B1515" d="M189.308 138.01c-.186.29 31.609.315 33.004.024.534-.121-6.392-.218-15.968-.242-11.04-.024-16.943.048-17.036.218"/>
            <path fill="#6B1515" d="M237.768 138.01c0 .145 1.789.242 4.904.242 3.184 0 4.834-.073 4.741-.242-.186-.339-9.645-.339-9.645 0"/>
            <path fill="#6B1515" d="M289.714 138.01c-.256.097 1.557.145 4.067.073 2.487-.073 4.579-.17 4.625-.218.21-.194-8.251-.049-8.692.145"/>
            <path fill="#6B1515" d="M413.479 138.058c-.326.146-.465.291-.303.364.163.048.535-.073.814-.267.581-.436.348-.484-.511-.097"/>
            <path fill="#6B1515" d="M187.123 138.615c.093.484.279.484 18.57.484h18.478l-18.106-.048c-16.85-.073-18.152-.097-18.57-.508-.419-.388-.442-.388-.372.072"/>
            <path fill="#6B1515" d="M389.539 138.567c1.766 1.041 9.669 1.719 13.364 1.162.767-.121-.65-.218-4.299-.315-5.067-.121-6.369-.266-9.158-1.041-.395-.121-.372-.072.093.194"/>
            <path fill="#6B1515" d="M409.132 138.422c-.302.048-.534.217-.534.339 0 .266-.07.29 1.046-.146.883-.314.627-.411-.512-.193"/>
            <path fill="#6B1515" d="M386.285 138.615c0 .242 3.463 1.235 5.113 1.477.628.073.698.049.349-.121-.279-.121-.837-.266-1.278-.339-.442-.072-1.232-.29-1.743-.46-1.046-.411-2.441-.726-2.441-.557"/>
            <path fill="#6B1515" d="M412.061 138.615c-.116.097-1.511.509-4.044 1.211-.628.169-.953.315-.698.339.93.048 5.974-1.574 5.09-1.647-.139-.024-.302.025-.348.097"/>
            <path fill="#6B1515" d="m405.692 139.221-1.162.169 1.046.024c.581 0 1.255-.072 1.511-.193.534-.243.279-.243-1.395 0"/>
            <path fill="#6B1515" d="M393.258 140.407c.581.121 2.51.339 4.3.508 2.649.218 3.672.218 5.462-.048l2.208-.339h-4.533c-2.487.024-5.415-.048-6.508-.145-1.278-.097-1.603-.097-.929.024"/>
            <path fill="#961515" d="M141.429 58.4c-.302.944-.395 8.402-.488 41.96-.093 32.807-.047 37.117.255 37.819l.349.775 18.222.024 18.222.025.023-5.86c.023-3.196-.023-6.585-.116-7.481-.14-1.526-.209-1.671-.814-1.937-.418-.194-1.232-.242-2.231-.146-.883.073-1.395.049-1.185-.048.325-.145-9.228-.121-15.387.024l-1.51.049-.117-32.687c-.069-17.99-.139-32.71-.186-32.76-.023-.023-3.393-.047-7.484-.047-5.764 0-7.484.072-7.553.29m14.015.823c.511.363.72 1.066.279 1.066-.163 0-.233 10.726-.233 31.693 0 28.619.047 31.718.372 32.009.279.242 2.394.291 10.32.266l9.971-.048.581.557.604.533.023 5.738c.023 7.094.116 6.828-2.649 6.9-1.046.025-2.325.025-2.836 0-1.697-.097-21.336-.048-23.939.049a62 62 0 0 0-3.719.242c-1.464.194-2.046.097-1.883-.363.07-.194.023-.339-.093-.339-.279 0-.325-78.279-.07-78.545.093-.073 2.999-.145 6.439-.121 5.043 0 6.391.097 6.833.363"/>
            <path fill="#961515" d="M394.304 67.068c-.767.097-1.627.121-1.906.073a.99.99 0 0 0-.883.266c-.326.315-1.767.557-2.534.412-.116-.025-.279.072-.395.242-.093.145-.465.29-.86.314-.395 0-.674.073-.627.146.046.072-.256.29-.651.46-.419.17-.93.411-1.139.532-.232.121-.581.218-.767.218s-.349.121-.349.267c0 .12-.186.218-.395.193-.558-.072-1.696.436-1.696.751 0 .121-.21.242-.489.242-.348 0-.441.121-.348.388.07.193.046.29-.093.217-.14-.072-.465.025-.744.218-.279.218-.744.388-.999.388-.279 0-.721.218-1 .484-.279.29-.511.436-.511.363s-.325.242-.721.702c-.395.484-.79.848-.859.848-.419-.073-.744.048-.744.266 0 .315-1.929 2.3-2.417 2.494-.21.097-.372.339-.372.557 0 .242-.117.339-.372.242-.186-.073-.302-.049-.233.048.163.29-.534 1.308-.79 1.138-.186-.12-.627.34-.697.727-.093.92-.325 1.356-.628 1.235-.209-.097-.441.12-.65.653-.163.412-.535.92-.791 1.114-.255.194-.395.46-.325.581s-.093.533-.372.92c-.256.363-.488.848-.488 1.041 0 .194-.209.436-.465.509-.256.097-.418.242-.348.363.069.097-.047.508-.233.872-.186.387-.349.823-.349.968s-.139.412-.325.557c-.186.17-.395.654-.465 1.114-.093.46-.232.847-.325.847-.256 0-.86 2.204-.767 2.76.07.557-.442 2.567-.674 2.567-.093 0-.116.266-.07.58.07.316 0 1.72-.163 3.1-.488 4.383-.534 6.053-.209 6.271.209.121.326.848.372 2.082.07 2.615.14 3.196.325 3.075.14-.097.21.218.582 2.494.093.509.325 1.187.534 1.526.233.339.395.823.395 1.089-.023.266.093.605.209.775.14.169.372.46.535.678.163.194.256.363.186.363-.209 0 .395 1.55.837 2.252.255.363.418.823.348.992-.069.194.14.582.442.896.325.315.534.678.465.848-.07.169.093.339.348.411.233.073.442.291.442.509s.163.387.349.387.348.121.348.267c0 .145.209.556.465.944.256.363.395.726.325.799-.093.072 0 .29.163.484.186.194.581.678.883 1.09.302.435.698.774.86.774.186 0 .326.17.326.364 0 .339.279.46.767.387.093 0 .139.097.116.266-.047.17.163.412.465.557.279.121.511.339.511.46 0 .339 2.162 2.397 2.626 2.494.256.049.814.412 1.279.799.465.412.976.726 1.139.726.139 0 .418.194.581.412.162.242.557.484.883.509.325.048.744.242.953.435.186.194.534.339.72.339.209 0 .488.17.651.364s.465.363.697.363c.233 0 .535.169.698.363s.488.363.72.363c.256 0 .442.121.442.266 0 .121.093.194.209.121.232-.169 2.626.461 3.347.872.279.145.813.291 1.208.315.372.048 1.999.242 3.556.46 3.417.46 12.203.363 12.598-.121.069-.097.581-.266 1.162-.412.581-.121 1.673-.436 2.44-.653.767-.243 1.557-.436 1.79-.461.209-.024.511-.169.697-.314.163-.146.558-.339.883-.436.326-.097.86-.388 1.209-.63.325-.266.744-.435.93-.387.162.048.209.048.116-.024-.209-.121.488-.581 1.511-1.017.325-.145.674-.436.743-.63.07-.169.279-.266.488-.193.233.096.349 0 .349-.267 0-.266.116-.363.325-.29.21.097.396-.049.489-.339.093-.242.302-.46.511-.46.186 0 .395-.218.465-.484.069-.267.209-.436.302-.364s1.115-.871 2.231-2.058c2.743-2.905 3.045-3.268 2.952-3.559-.047-.145.232-.629.627-1.065.372-.46.767-1.017.837-1.284.093-.266.302-.629.465-.823.186-.169.325-.484.325-.678 0-.193.093-.339.186-.339.117 0 .442-.339.721-.75.302-.436.441-.702.279-.606-.349.243-.326-.024.093-.774.627-1.235 1.534-3.438 1.65-3.995.046-.315.256-1.066.465-1.647s.465-1.888.581-2.881.279-1.84.372-1.864c.232-.097.093-7.143-.117-7.385-.093-.073-7.786-.194-17.129-.242l-16.967-.073v6.465c0 3.535.093 6.537.186 6.658.116.097 4.137.218 8.925.242 4.811.024 8.855.097 9.041.17.488.193.256 1.259-.465 2.082-.348.436-.674.944-.697 1.138-.07.533-1.813 2.494-2.185 2.494-.209 0-.278.072-.209.169.209.194-.976 1.526-1.371 1.526-.163 0-.442.145-.604.339-.442.46-1.72 1.113-2.162 1.113-.186 0-.348.097-.348.218 0 .242-2.046.896-2.487.799-.163-.048-.303.073-.303.242 0 .218-.441.339-1.441.388-.813.048-1.882.194-2.394.339-.581.145-1.998.194-3.834.072-2.65-.145-4.393-.532-6.973-1.525-.186-.073-.488-.145-.674-.194a.8.8 0 0 1-.465-.266c-.07-.121-.79-.46-1.58-.775-.767-.29-1.627-.75-1.906-1.017-.256-.242-.628-.46-.837-.46-.511 0-.418.751.116.896.256.073.465.242.465.363s.186.17.418.097c.256-.097.488.024.628.388.163.339.488.532 1.023.605.441.048.999.266 1.231.484.698.654 2.022 1.09 3.789 1.259.906.097 1.859.291 2.138.46.279.146.883.315 1.325.339.465.049.837.146.837.218s.488.049 1.115-.048c.605-.097 1.999-.194 3.115-.194 1.255-.024 2.463-.169 3.137-.436.605-.218 1.279-.411 1.465-.436 1.232-.169 2.068-.46 2.184-.75.07-.194.396-.339.721-.339.465 0 1.604-.823 2.673-1.937.07-.073.418-.291.767-.484.883-.46 3.3-3.172 3.765-4.238.232-.46.488-.774.604-.702.117.073.21-.072.21-.314 0-.243.209-.63.464-.872.581-.509.628-1.743.07-1.986-.232-.096-4.532-.169-9.552-.145h-9.135l.047-5.665c.023-4.819.093-5.69.395-5.811.279-.097 31.214-.194 31.656-.097a.64.64 0 0 0 .302 0c.116-.024.139.072.07.193-.093.122-.07.291.023.339.116.073.163 1.526.139 3.245-.069 4.479-.069 4.455-.278 4.31-.117-.073-.163.072-.093.339.069.242 0 .532-.14.605-.139.097-.256.581-.256 1.065 0 1.066-1.557 5.835-2.417 7.458-.325.605-.604 1.186-.604 1.234 0 .388-1.929 3.439-2.115 3.342-.116-.097-.209.097-.209.411 0 .388-.419.969-1.279 1.768-.72.654-1.231 1.332-1.185 1.501.07.17-.023.315-.186.315s-.558.387-.86.847-.627.848-.72.848-.535.387-1.023.847c-.465.46-.906.799-.953.751-.07-.073-.418.266-.813.726-.372.46-.791.775-.884.702-.116-.072-.255-.024-.348.121-.093.146-.256.17-.395.097-.14-.097-.186-.048-.117.073.186.314-.813 1.041-1.464 1.041-.256 0-.465.097-.465.242 0 .121-.162.242-.348.242-.163 0-.419.17-.535.363-.093.218-.511.412-.93.436-.395.024-.79.17-.836.339-.07.17-.512.363-1 .436-.488.097-1.092.242-1.348.363-.929.412-1.418.533-2.208.654-.441.048-.86.169-.929.29-.07.097-.791.194-1.627.242-.837.025-2.092.146-2.789.267-2.975.484-10.599 0-12.784-.848-.581-.218-1.208-.411-1.394-.435s-.581-.194-.883-.364c-.279-.169-.605-.242-.721-.169-.232.145-1.418-.339-1.418-.581 0-.097-.279-.194-.627-.218-.837-.073-3.951-1.671-4.114-2.107-.07-.193-.256-.29-.442-.217-.302.121-2.277-1.381-2.44-1.865-.047-.121-.209-.218-.372-.218s-.488-.218-.721-.484-.557-.484-.697-.484c-.558 0-4.764-4.649-4.764-5.254 0-.17-.233-.315-.512-.315-.395 0-.441-.073-.209-.218.163-.121.209-.242.116-.291-.418-.193-1.975-2.421-2.022-2.881-.023-.266-.162-.532-.325-.581-.163-.073-.302-.363-.302-.629 0-.291-.093-.436-.233-.364-.232.146-.325-.169-.255-.799.023-.145-.047-.29-.163-.29-.209 0-.535-.775-.604-1.38-.024-.145-.21-.484-.419-.727-.209-.242-.534-.968-.674-1.598-.162-.629-.395-1.138-.488-1.138-.116 0-.186-.29-.186-.678 0-1.065-.07-1.476-.255-1.38-.233.17-.396-.605-.674-3.268-.14-1.235-.326-2.373-.442-2.518-.186-.267-.186-6.368.023-8.378.047-.605.233-1.332.372-1.622.163-.29.279-1.065.279-1.743 0-.654.139-1.356.302-1.526.14-.17.302-.678.325-1.138s.163-.895.303-.992c.116-.073.279-.557.325-1.066.163-1.259.349-1.84.628-1.84.116 0 .209-.12.209-.266 0-.145.209-.533.465-.872.255-.339.395-.702.325-.823s-.023-.218.093-.218c.139 0 .302-.29.372-.63.186-.702 2.092-3.777 2.254-3.607.07.048.117-.097.14-.363.046-.533.767-1.477 1.046-1.308.093.073.186-.072.186-.29 0-.242.069-.34.162-.267.07.097.395-.266.698-.799.302-.532.697-.968.883-.968.162 0 .372-.194.441-.436.093-.266.419-.726.767-1.041.326-.315.535-.412.419-.218s.255-.17.813-.799c.535-.63 1.348-1.307 1.767-1.501.441-.194.79-.46.79-.605 0-.146.07-.218.186-.146.093.049.372-.048.627-.242.233-.194.349-.339.233-.339-.419 0 .72-.896 1.348-1.065.348-.073.836-.363 1.069-.606.256-.266.511-.387.604-.314.07.097.209.048.302-.097.256-.363 2.115-1.162 2.301-.993.07.097.302.024.512-.17.209-.193.441-.362.557-.362a18 18 0 0 0 1.046-.388c.465-.218 1.046-.339 1.255-.266.233.048.465.024.512-.073.069-.097.534-.194 1.046-.218.534-.048 1.301-.266 1.72-.532.557-.34 1.138-.46 2.417-.436.929.024 1.766-.024 1.836-.121.581-.606 11.76.218 12.83.944.279.194.627.29.743.218a.55.55 0 0 1 .512.024c.139.097.534.194.86.242.883.073 1.882.533 1.882.848 0 .17.209.218.512.145.278-.073.813.024 1.208.242 1.023.557 1.488.8 3.045 1.622.767.388 1.441.8 1.511.896.069.073.395.218.767.315.348.073.627.315.627.484 0 .194.558.63 1.255.969.698.339 1.302.75 1.348.871.047.146.256.194.488.097.512-.194.372-.726-.162-.63-.209.049-.372-.024-.372-.169 0-.12-.372-.436-.814-.726-.441-.267-.79-.63-.767-.775.047-.145-.139-.315-.395-.363-.255-.024-.581-.266-.767-.509-.162-.242-.348-.411-.395-.387-.418.242-1.348 0-1.441-.363-.116-.533-3.045-2.155-3.602-2.034-.117.024-.186-.049-.186-.145 0-.29-1.86-.92-2.394-.824-.302.073-.395 0-.279-.193.116-.218.023-.242-.326-.121-.534.17-3.323-.557-3.161-.848.047-.072-.511-.145-1.231-.145-.767-.024-1.348-.145-1.395-.29-.093-.315-9.088-.364-11.551-.049"/>
            <path fill="#961515" d="M187.704 68.57c-.279.169-.372.653-.418 1.96-.024 1.695-.024 1.695-.186.533-.07-.678-.163 13.898-.186 32.372-.047 23.849.023 33.631.209 33.728.116.096.186.339.093.532-.07.218.046.581.256.823.371.436 1.162.46 18.733.46h18.315v-6.658c0-5.593-.047-6.658-.326-6.658-.186 0-.372-.121-.418-.267-.047-.169-3.184-.242-10.018-.218-5.461 0-10.598-.048-11.411-.145l-1.488-.169.046-8.426.024-8.402.697-.169c.395-.097 5.671-.194 11.737-.194l11.04-.048.047-3.269c0-1.792.07-4.843.139-6.78.047-1.937.047-3.365 0-3.22-.069.242-.232.218-.604-.048-.418-.267-2.487-.34-11.784-.388l-11.272-.048.069-5.302c.047-4.117 0-5.279-.209-5.133-.209.12-.232.048-.139-.243.093-.242.163-.484.163-.532s.162-.097.348-.097.349-.073.349-.194c0-.097 5.113-.17 11.365-.17s11.435-.072 11.528-.169c.186-.17.186-12.953 0-13.244-.069-.121-7.553-.194-17.245-.194-13.551.049-17.13.121-17.223.364-.07.242 3.231.29 16.479.29 14.712 0 16.618.024 16.92.363.535.557.558 11.404.023 11.743-.395.267-20.244.29-21.15.025-.325-.097-.976-.049-1.441.072l-.883.242-.023 6.078c0 3.317-.047 6.295-.117 6.61l-.093.532 9.018-.024c14.015-.073 14.992-.049 14.829.411-.07.194-.047.291.093.218.279-.17.418 10.412.163 10.92-.186.315-1.744.363-11.831.315l-11.598-.049-.348.678c-.256.533-.326 1.962-.302 7.119.023 3.535.093 7.53.186 8.862l.139 2.421 2.208.193c1.209.122 2.626.194 3.138.17.999-.024 4.137 0 7.321.048 1.092.025 3.998-.024 6.438-.121 3.975-.169 4.463-.145 4.346.194-.069.194-.023.363.117.363.162 0 .255 1.768.302 5.424.046 2.978.023 5.423-.047 5.423-.418-.024-.534.097-.232.291.488.315 1.487.29-17.501.411-13.086.073-16.898.025-16.758-.193.116-.194.023-.267-.302-.17-.279.073-.605.049-.744-.048-.209-.121-.279-8.741-.325-34.067l-.047-33.921.651-.363c.349-.218.627-.485.627-.606 0-.339-1.045-.484-1.487-.242"/>
            <path fill="#961515" d="M289.203 68.448c-.396.049-.86.266-1.046.484-.256.315-.303 6.635-.372 34.648-.047 30.701-.023 34.309.302 34.842l.372.581 5.787-.025c3.207-.024 5.904.025 6.02.097.093.073.418-.072.697-.314l.511-.461-.023-14.236-.023-14.261.883-.17c.488-.097 1.557-.169 2.394-.169 1.65-.025 7.716-.654 9.181-.945.511-.121 1.162-.339 1.464-.508.279-.145.604-.242.72-.17.093.073.396-.024.628-.217.232-.194.581-.364.767-.364s.442-.169.581-.363c.14-.194.488-.387.79-.436s.744-.266 1-.484c.232-.218.488-.411.558-.411.278 0 1.255-1.066 1.138-1.235-.069-.121.047-.146.233-.073.348.145 1.069-.387 1.069-.775 0-.218.953-1.065 1.185-1.065.117 0 .256-.266.349-.605.07-.339.279-.606.465-.606s.325-.169.325-.363.116-.363.233-.363c.139 0 .232-.218.232-.484 0-.267.093-.485.209-.485s.279-.266.349-.605c.093-.411.256-.557.441-.436.186.121.186.049-.023-.218-.255-.339-.255-.435.023-.605.326-.194.767-1.574 1.093-3.462.093-.581.255-1.09.372-1.138.116-.049.209-.557.186-1.162-.024-.606.046-1.138.139-1.211.093-.049.07-.726-.023-1.501s-.209-2.373-.279-3.56c-.047-1.549-.186-2.227-.442-2.42-.186-.146-.395-.751-.488-1.356-.139-1.114-.906-3.003-1.325-3.27-.116-.072-.232-.314-.232-.532s-.186-.532-.395-.702c-.349-.266-.349-.315-.07-.339.186 0-.465-.799-1.464-1.792-.976-.992-1.79-1.912-1.79-2.058s-.162-.266-.348-.266c-.21 0-.628-.266-.953-.605-.302-.34-.698-.582-.86-.533-.163.024-.256-.097-.209-.266.023-.194-.047-.267-.163-.17-.14.073-.511-.048-.86-.29-.349-.218-.744-.436-.883-.485-.14-.024-.976-.266-1.883-.532-4.323-1.235-6.299-1.405-17.199-1.453-4.207-.024-7.879-.073-8.135-.121-.256-.049-.79-.024-1.208.024m18.779 1.041c5.137.412 9.274 1.283 9.274 1.986 0 .12.093.17.209.097s.325.024.488.242c.256.29.349.29.511.048.14-.242.349-.145.837.412.349.411.814.702 1.046.653s.395.073.395.29c0 .219.186.388.465.388.256 0 .465.097.465.194s.418.654.93 1.21c.511.533.929 1.187.929 1.405 0 .242.07.363.14.266.232-.218.906.606 1.255 1.526.162.46.465 1.04.674 1.283.186.242.372.702.372.993.023.314.255.871.511 1.259.697 1.04 1.348 5.81 1.116 8.28a72 72 0 0 0-.21 3.003c0 .605-.093 1.065-.186.992-.116-.048-.185.145-.185.46s-.21 1.041-.465 1.623c-.256.58-.465 1.234-.465 1.5 0 .243-.256.703-.581 1.042-.326.339-.581.678-.581.75v.34c0 .12-.512.798-1.162 1.501-1.883 2.106-2.394 2.614-2.58 2.518-.093-.073-.326.145-.512.46-.464.702-1.929 1.694-2.254 1.477-.116-.073-.232-.025-.232.121 0 .29-1.093.799-1.697.774-.209 0-.349.073-.279.194.163.266-1.65.799-1.976.605-.139-.072-.232-.048-.232.097 0 .485-.465.533-6.392.848-5.996.314-6.554.436-6.879 1.331-.14.364-.303 6.199-.372 14.382-.116 11.259-.209 13.777-.465 14.019-.232.194-.395.194-.581 0-.14-.145-.674-.218-1.209-.169-.534.048-2.696.169-4.811.242-3.393.097-3.905.073-4.183-.291-.279-.314-.326-6.053-.326-34.236 0-18.595.093-33.921.186-34.042.116-.097.837-.242 1.627-.315 2.348-.218 13.783-.048 17.385.242"/>
            <path fill="#961515" d="m303.589 81.353-2.858.121-.163 2.906c-.163 3.365-.163 3.51-.093 7.917.046 3.971.116 4.068 2.208 4.092 1.023 0 1.302.073.976.218-.325.145.07.218 1.232.218.906.024 1.673-.073 1.673-.194 0-.12.349-.194.767-.145 1.023.097 2.278-.121 2.115-.388-.069-.12.163-.096.489.025.767.314.883.314.697 0-.07-.146.046-.242.279-.242.232 0 .836-.218 1.348-.485.488-.266.953-.436.999-.363.233.218 1.209-1.453 1.093-1.791-.07-.218-.07-.291.023-.218.325.363.976-.267.86-.8-.093-.363-.07-.484.116-.363s.279 0 .279-.314c0-.267.116-.557.256-.654.441-.267.093-4.431-.372-4.794-.209-.145-.395-.484-.442-.727-.023-.217-.186-.508-.349-.605a.5.5 0 0 1-.209-.508c.047-.194-.023-.364-.162-.364-.535-.072-1.046-.435-.907-.629.07-.121-.046-.218-.232-.218-.209 0-.581-.218-.837-.484s-.535-.46-.628-.436c-.302.073-2.277-.339-2.51-.533-.348-.29-2.51-.387-5.648-.242m5.137 1.284c-.07.096.163.12.488.024.302-.073.721-.049.883.048.163.121.512.242.767.266.86.146 1.976.582 1.976.8 0 .12.209.29.465.363.255.072.465.363.465.63 0 .241.092.46.209.46s.418.362.65.774c.372.678.442 1.186.372 3.293-.046 2.276-.116 2.566-.697 3.438-.372.533-.837 1.017-1.046 1.114a.62.62 0 0 0-.418.557c0 .29-.349.484-1.325.702-3.045.678-4.044.775-6.624.557-1.441-.121-2.719-.218-2.836-.194s-.348-.218-.534-.557c-.209-.436-.279-1.283-.163-3.148.093-2.033.279-7.408.326-9.152 0-.266.72-.314 3.579-.242 1.975.049 3.533.17 3.463.266"/>
            <path fill="#961515" d="M351.143 68.4c-.047.072-2.789.145-6.043.17l-5.95.023-.139.945c-.093.532-.093 1.04-.024 1.138.047.12.117 15.592.117 34.381 0 23.438.092 34.139.255 34.043.116-.097 2.952-.146 6.276-.122 6.461.025 6.717-.024 6.717-1.186 0-.291.116-.508.255-.508.163 0 .233-9.976.186-33.97-.046-33.825-.046-33.946-.511-34.503-.465-.508-.883-.678-1.139-.411m.395 1.138c.256.266.163 68.085-.116 68.181-.116.049-.163.218-.093.339.093.17.046.194-.116.097-.14-.097-2.766-.169-5.834-.169h-5.578V103.75c0-32.396.023-34.237.418-34.333.581-.194 11.133-.073 11.319.12"/>
            <path fill="#961515" d="M235.443 103.168c0 31.573.024 34.648.372 35.205l.372.605h5.578c3.649 0 5.509-.072 5.416-.242-.07-.145.023-.242.232-.242s.302.097.233.242c-.233.388.952.291 1.255-.097.209-.266.278-3.946.255-14.503-.023-13.365 0-14.164.395-14.333.233-.073 1.511-.194 2.859-.267 1.348-.048 2.696-.145 3.022-.218.325-.072 1.72-.169 3.137-.217 1.488-.073 2.58-.218 2.627-.364.046-.145.209-.266.348-.266.674.024 4.347-1.356 4.347-1.646 0-.146.186-.291.418-.291.349 0 1.952-.993 2.743-1.671.139-.121.557-.387.929-.581.372-.218.581-.387.488-.411-.093 0-.046-.146.117-.339.162-.194.371-.291.488-.218.093.048.162.024.139-.097-.093-.533.047-1.065.233-.92.139.072.418-.145.65-.484s.767-1.09 1.162-1.647c.419-.557.767-1.138.767-1.259 0-.145.21-.678.465-1.21.256-.533.442-1.163.465-1.405 0-.218.116-.411.256-.411.116 0 .162-.121.093-.243-.07-.145-.047-.242.069-.242.14 0 .186-.242.093-.532-.069-.34-.023-.46.14-.34.186.098.232.05.139-.169-.069-.194-.023-.993.117-1.767.371-2.155.325-5.327-.093-7.337-.21-.992-.326-1.985-.279-2.251.069-.242.023-.388-.07-.315-.116.073-.325-.34-.488-.896-.395-1.55-1-3.1-1.186-3.1-.116 0-.185-.169-.185-.386 0-.218-.279-.751-.628-1.187-.86-1.065-1.487-2.01-1.487-2.227 0-.121-.21-.267-.465-.364-.233-.097-.442-.339-.442-.556 0-.194-.209-.364-.465-.364-.302 0-.465-.17-.465-.436 0-.435-.209-.556-1.789-1.307-.372-.17-.953-.533-1.348-.823-.372-.29-.837-.46-1.023-.388-.186.049-.256 0-.186-.12.07-.122-.046-.219-.256-.219-.209-.024-1.231-.266-2.231-.556-1.022-.267-2.138-.509-2.487-.509-.348 0-.929-.121-1.301-.266-.442-.194-4.161-.315-12.086-.34l-11.435-.072zm22.15-33.46c.163.12.767.241 1.348.217 1.348-.024 3.254.315 3.115.533-.07.12.069.145.325.072.581-.145 2.44.533 3.812 1.405.604.387 1.208.702 1.325.702.139 0 .232.097.232.242 0 .121.186.242.418.242.256 0 .767.363 1.162.775a22 22 0 0 0 1.651 1.67c.511.509.976 1.163.999 1.526.047.339.186.702.302.799.093.12.116.048 0-.145-.139-.242-.093-.29.093-.17a.47.47 0 0 1 .163.533c-.07.194-.023.339.093.339.139 0 .232.17.232.363 0 .194.116.363.233.363.139 0 .232.17.232.363 0 .194.326.896.697 1.574.396.727.698 1.574.698 2.01s.046 1.162.116 1.622c.163 1.162.163 7.578 0 9.2-.14 1.526-.511 2.64-1.046 3.1-.186.194-.209.266-.047.17.14-.073.279-.05.279.072 0 .145-.139.29-.325.363-.163.073-.372.436-.442.823-.069.364-.441.993-.79 1.405-.348.387-.651.774-.674.847-.07.484-.418.969-.697.969-.186 0-.302.121-.279.29.046.17-.093.291-.279.315-.186 0-.349.145-.349.315 0 .363-.79 1.065-1.022.92-.07-.049-.279.048-.442.242s-.232.339-.139.339-.233.315-.744.726c-.488.388-1.092.727-1.302.727s-.488.169-.581.338c-.116.194-1.371.799-2.789 1.332-2.789 1.017-3.533 1.09-11.691 1.38-1.348.024-2.486.073-2.556.073-.093.024-.256.387-.419.823-.209.605-.278 4.431-.278 14.431 0 13.389 0 13.631-.465 13.752-.256.073-.395.218-.326.339.07.121-1.998.218-4.764.218-3.463 0-4.904-.073-4.904-.266 0-.17-.21-.218-.489-.146-.325.097-.534-.024-.674-.387-.232-.605-.325-65.082-.092-66.826.116-.871.255-1.138.65-1.21 1.162-.218 20.151.024 20.43.29"/>
            <path fill="#961515" d="m251.248 81.353-2.905.121-.163 1.671c-.093.944-.116 1.767-.07 1.864.07.073.117 2.615.117 5.618l.023 5.472.697.363c.442.218 1.092.314 1.79.266 2.742-.29 3.068-.29 3.068-.097 0 .121.418.218.929.218s.93-.097.93-.218c0-.12.651-.29 1.464-.363 1.023-.121 1.999-.46 3.347-1.162 1.069-.557 1.883-1.065 1.813-1.114-.046-.073.093-.412.349-.775.255-.387.465-.799.465-.944s.093-.266.186-.266c.255 0 .325-.412.348-2.373.047-2.107-.116-3.68-.348-3.68-.093 0-.186-.121-.186-.242 0-.146-.279-.533-.628-.872-.372-.363-.651-.8-.651-1.041 0-.218-.116-.388-.232-.412-.535-.024-1.488-.678-1.348-.896.07-.12 0-.17-.186-.12-.186.072-.697-.025-1.139-.219-.442-.193-1.65-.411-2.673-.484s-1.906-.218-1.975-.29c-.07-.073-1.418-.097-3.022-.025m2.673 1.017c2.557-.048 4.137.145 3.951.436-.046.097.372.242.976.315.628.072 1.209.29 1.372.532.162.218.627.606 1.069.848.418.218.767.508.767.63.023.12.139.605.279 1.065.674 2.179.767 4.987.162 5.496-.209.145-.348.339-.348.412.116 1.065-.024 1.259-1.674 2.179-1.325.75-2.092 1.016-3.649 1.234-1.092.146-2.347.194-2.766.097-.441-.097-1.534-.097-2.463 0-2.464.242-2.394.388-2.441-5.302-.046-7.651-.046-8.063.302-7.918.186.073.465.025.651-.097.186-.12.581-.145.907-.072.325.097 1.627.145 2.905.145"/>
            <path fill="#961515" d="M423.705 75.93c0 .435.558 1.09.837.968.186-.072.325.024.325.218 0 .17.209.412.465.484s.465.243.465.34c0 .12.348.58.767 1.04.627.703.744.969.581 1.429-.209.63-2.255 2.736-2.882 2.978-.209.097-.326.218-.256.315.209.194-.302.823-.534.678-.117-.073-.256.194-.349.605-.093.388-.279.727-.465.727-.163 0-.418.169-.581.363s-.372.314-.465.242c-.116-.073-.279 0-.372.145-.093.194-.069.218.093.121.558-.363.256.121-.674 1.017-.906.872-1.022.92-1.743.678-.441-.145-.86-.46-.93-.678-.069-.242-.232-.436-.371-.436-.14 0-.465-.218-.744-.484-1-1.017-2.185-1.937-2.766-2.155-.349-.145-.628-.412-.628-.63 0-.193-.162-.363-.348-.363s-.349-.12-.349-.266c0-.145-.139-.218-.279-.17-.162.073-.604-.072-.999-.338-.372-.243-.883-.509-1.092-.581-.233-.097-.419-.243-.419-.364 0-.12-.139-.145-.302-.072-.186.072-.86-.097-1.534-.388-.651-.266-1.418-.484-1.673-.484s-.512-.17-.581-.363c-.07-.194-.419-.34-.744-.315-.349 0-1.209-.121-1.906-.266-1.488-.364-4.602-.364-5.857 0-.465.12-1.139.218-1.511.193-1.255-.048-3.835.436-4.021.751-.093.17-.395.242-.674.17-.279-.073-.488-.049-.488.048 0 .194-1.278.896-2.022 1.114-.279.072-1.139.58-1.906 1.113-.744.509-1.418.945-1.487.945-.535 0-5.741 5.714-5.741 6.295 0 .242-.209.508-.442.605-.488.145-1.255 1.622-1.301 2.518 0 .315-.186.702-.419.872-.209.17-.395.508-.395.75 0 .267-.209 1.042-.441 1.72-.233.702-.372 1.307-.302 1.38.046.072 0 .266-.117.436-.139.169-.209.556-.162.847.046.315.023.557-.093.557-.233 0 .046 6.513.348 7.409.163.508.163.896.024 1.186-.163.291-.163.484.046.605.163.097.232.315.139.461-.093.145.07.581.349.968s.442.847.395 1.017c-.07.194.047.484.209.678.186.169.279.484.21.654-.07.193 0 .314.139.266.139-.024.325.266.442.654.093.363.348.871.557 1.113.233.267.326.582.21.751-.093.194-.07.242.093.121.186-.097.278 0 .278.266 0 .243.372.848.814 1.381.442.508.813 1.089.813 1.283s.093.29.186.218c.117-.073.395.169.651.532.233.339.651.799.883.993.233.218.628.581.884.799.232.242.418.363.418.266s.279.17.604.581c.349.436.744.703.93.63.534-.218.372-.726-.372-1.041-.395-.17-.837-.581-.999-.944-.163-.339-.419-.606-.581-.582-.14.049-.581-.387-.953-.968a24 24 0 0 0-1.465-1.913c-1.255-1.477-1.603-1.985-1.743-2.615-.07-.339-.232-.726-.395-.847-.395-.363-.93-1.55-.767-1.719.07-.097-.163-1.041-.558-2.107-.372-1.089-.604-2.179-.534-2.421.093-.29.046-.411-.093-.315-.302.194-.488-1.743-.395-4.092.046-1.065.093-2.59.116-3.389 0-.993.07-1.308.209-.969.163.436.395-.726.558-2.93.023-.266.325-.944.697-1.5.349-.557.581-1.017.535-1.017-.07 0 .186-.654.581-1.453.372-.8.836-1.453 1.022-1.453.21 0 .279-.145.186-.412-.093-.266-.069-.338.117-.218q.278.183.418-.58c.093-.46.256-.703.441-.63.326.121 1.372-.896 1.139-1.138-.209-.218.884-1.332 1.418-1.429.279-.048.488-.314.535-.63.046-.29.186-.532.325-.532.14 0 .907-.436 1.72-.968.813-.533 1.58-.969 1.697-.969.093 0 .325-.17.511-.387.163-.194.488-.315.721-.267.232.073.371.025.278-.096-.069-.121.21-.218.581-.218.489 0 .721-.121.721-.363a.37.37 0 0 1 .372-.364c.186 0 .279.097.209.243-.163.266.535.048.999-.315.14-.121.279-.145.279-.049 0 .097.14.073.303-.072.836-.727 7.855-1.26 9.11-.678.256.12.651.193.884.17.441-.073 4.09.822 4.927 1.186 2.208.968 3.626 1.767 3.812 2.106.139.242.255.34.255.242.024-.557 4.416 2.664 4.672 3.414.07.242.232.412.349.412s.441.218.72.484c.976.944 1.162 1.041 1.488.847.162-.12.418-.145.558-.072.116.097.162.048.046-.049-.209-.266.721-1.331 1.162-1.331.186 0 .279-.097.209-.218-.139-.218 1.558-1.961 1.953-1.961.116 0 .255-.121.255-.242.024-.146.07-.364.093-.485.024-.145.07-.363.093-.508.023-.194.116-.194.326-.024.302.266.976-.243.697-.533-.093-.073.023-.145.232-.145.233 0 .326-.146.256-.34-.07-.193.093-.387.442-.484.302-.072.743-.435.999-.799a9 9 0 0 1 .976-1.162c.279-.29.511-.678.511-.847 0-.436-1.673-2.664-1.975-2.664-.349 0-1.511-1.283-1.511-1.646 0-.17-.255-.29-.581-.29s-.581.072-.581.145"/>
            <path fill="#961515" d="M49.53 102.2c-.466.218-1.024.63-1.233.92-.232.266-.58.509-.767.509-.209 0-.302.096-.232.242.07.121-.07.363-.349.532-.255.17-.465.557-.465.896 0 .315-.14.775-.325.969-.302.363-.232 1.622.186 3.535.046.266.116.581.116.726.023.121.279.557.604.944.303.388.512.799.442.92-.07.097-.046.194.07.17.488-.097.72.073.837.533.07.29.232.435.371.363.256-.17 1.418.314 1.418.581 0 .097.767.145 1.697.097.906-.049 1.952-.121 2.324-.121.349-.025.628-.121.628-.243 0-.096.209-.266.464-.338.256-.073.465-.315.465-.509s.28-.46.605-.581c.325-.145.534-.339.441-.46-.07-.121-.023-.291.116-.387.14-.097.186-.243.117-.364-.07-.121.023-.363.209-.557.372-.363.441-.677.395-1.694l-.023-.654h-1.953c-2.254 0-2.696.121-2.696.75 0 .364.256.46 1.395.606 1.232.145 1.394.218 1.394.702 0 .29-.302.872-.697 1.283-.372.436-.697.702-.697.605s-.117-.048-.28.122c-.162.169-.58.29-.929.29-.348 0-.65.097-.65.242 0 .121-.163.242-.35.242-.185 0-.348-.097-.348-.218s-.535-.266-1.185-.363c-1.023-.145-1.372-.339-2.208-1.235l-1-1.089.047-2.179c.023-1.259.163-2.276.302-2.373.14-.097.372-.412.535-.726.162-.291.371-.485.51-.412.117.097.21 0 .21-.194 0-.363.674-.653 1.58-.653.326 0 .489-.097.372-.267-.093-.193.163-.242.86-.145 1.883.242 2.65.46 2.906.823.162.17.627.388 1.069.484.674.097.836.049.93-.363.092-.363-.117-.678-.907-1.259-.558-.436-1.092-.702-1.162-.629s-.279.024-.465-.146c-.511-.435-3.742-.387-4.695.073"/>
            <path fill="#961515" d="M73.77 101.982c-.301.484-.185 10.92.117 11.501.256.533 1.278.702 1.092.194-.093-.291.93-.291 1.186 0 .116.096.046.121-.14 0-.209-.121-.279-.097-.163.072.233.412 2.627.654 3.045.291.186-.17.488-.242.674-.17.21.097.581-.145.93-.557.325-.411.674-.726.813-.726.14 0 .256-.218.256-.46 0-.266.116-.557.233-.629.302-.194.302-2.422-.024-3.632-.14-.533-.465-1.163-.743-1.38-.28-.218-.512-.557-.512-.727s-.209-.29-.441-.242c-.28.049-.372-.024-.233-.218.093-.169.07-.242-.046-.145-.116.073-.79.048-1.488-.049-.93-.121-1.487-.072-2.022.194-1.092.509-1.464.097-1.464-1.646 0-1.598-.581-2.518-1.07-1.671m4.858 4.358c-.046.121.163.194.488.194.372 0 .605.145.605.363 0 .194.093.363.209.363.627 0 .953.799.93 2.252-.024 1.259-.14 1.647-.628 2.228-.534.678-.72.726-2.231.774-2.232.049-2.58-.145-2.906-1.477-.395-1.622-.325-2.736.186-3.268.256-.267.396-.533.35-.605-.047-.073-.024-.097.046-.049.07.049.488-.145.952-.46.721-.533 2.278-.751 2-.315"/>
            <path fill="#961515" d="M84.253 102.563c-.21.218-.326.557-.256.751s.14 2.639.14 5.423v5.061h.558c.72 0 .813-.339.767-2.809 0-1.065.07-2.058.162-2.227.233-.388 4.579-.412 4.95-.025.187.194.233.848.14 1.937-.14 1.719.186 3.124.744 3.124.535 0 .604-.727.581-6.223l-.023-5.399h-.581c-.558 0-.558.048-.558 2.034 0 1.501-.093 2.106-.349 2.324-.348.315-4.16.363-4.88.097-.28-.121-.35-.605-.35-2.3 0-2.276-.208-2.639-1.045-1.768"/>
            <path fill="#961515" d="M62.545 105.009c-.28.193-.581.314-.628.242-.07-.073-.418-.049-.767.072-.348.097-.813.073-1.023-.048-.557-.315-.604-.121-.72 4.552l-.093 4.164.488-.145c.28-.073.65-.266.814-.436.348-.363.395-3.825.046-3.607-.14.097-.14-.097 0-.509.14-.363.186-.823.116-1.017-.07-.169.093-.653.372-1.041.419-.629.605-.702 1.674-.702 1.022.024 1.278.121 1.627.605.232.339.372.702.325.799s-.023 1.405.07 2.882c.14 1.985.279 2.832.557 3.099.21.242.372.29.372.121 0-.145.093-.218.21-.121.116.072.186-.242.139-.751-.07-.847.232-4.479.418-5.181.395-1.308.465-1.405 1.255-1.526.93-.169 1.65.073 2.209.703.302.363.395 1.113.464 3.486.093 2.978.117 3.027.628 3.027.534 0 .534-.025.511-2.785-.07-4.455-.58-5.738-2.37-5.98-.628-.097-1.21.024-1.953.387-.58.291-1.046.581-1.046.654s.116.048.28-.048c.162-.097.185-.073.092.121-.093.145-.232.242-.325.193s-.581-.29-1.093-.532a60 60 0 0 1-1.534-.751c-.511-.266-.674-.266-1.115.073"/>
            <path fill="#406B15" d="M79.256 57.335c0 .12.116.314.279.484s.186.29.07.29c-.14 0-.233 2.01-.233 5.012v5.037l1.395.944c.767.508 1.673 1.138 2.022 1.38.348.266.697.46.743.46.117 0 4.393 2.712 7.461 4.697 1.557 1.017 1.93 1.235 3.068 1.84.535.29 1.023.678 1.092.872s.256.339.442.339c.163 0 .837.387 1.464.847.628.46 1.302.848 1.511.848.21 0 .883.411 1.511.896 1.162.944 1.418 1.09 3.742 2.42a58 58 0 0 1 2.394 1.502c.581.412 1.185.75 1.348.75.139 0 .279.097.279.194 0 .121.348.388.767.606a73 73 0 0 1 3.997 2.47c.651.435 1.488.944 1.86 1.113l.697.339.07 12.518.046 12.542-.511.097c-.302.072-2.812.096-5.578.072l-5.067-.048v4.019c0 3.462.046 4.068.372 4.189.558.218 18.524.169 18.873-.049.232-.169.278-4.188.232-19.273l-.07-19.103-.697-.388a32 32 0 0 1-1.395-.871c-.371-.242-1.534-1.017-2.556-1.695s-2.162-1.38-2.557-1.574c-.372-.194-.883-.484-1.092-.678s-.512-.266-.651-.17c-.139.073-.209.05-.186-.072.093-.29-5.508-4.164-5.996-4.164-.07 0-.605-.364-1.186-.8-1.557-1.137-2.208-1.598-2.789-1.84-.279-.145-.581-.387-.697-.58-.209-.412-1.534-1.139-2.022-1.139-.186 0-.372-.072-.419-.193-.023-.097-.65-.557-1.348-1.017-.697-.46-1.324-.896-1.394-.969-.07-.097-.907-.654-1.86-1.259-4.276-2.712-5.81-3.559-6.205-3.438-.326.121-.349.097-.093-.097.255-.194.116-.363-.65-.75-.535-.29-1.07-.46-1.186-.388-.14.073-.163-.024-.093-.218.093-.218.023-.387-.14-.387-.162 0-.674-.339-1.162-.726-.488-.412-.953-.727-1.046-.727-.07 0-.86-.484-1.743-1.09-2.092-1.38-2.835-1.767-3.207-1.646-.163.073-.372-.072-.419-.339-.116-.436-1.487-1.428-1.487-1.09"/>
            <path fill="#406B15" d="m34.817 100.529-.07 15.327-8.135.121-8.134.121v3.801c0 2.082.092 3.874.185 3.995.117.097 3.766.194 8.135.218l7.95.024.069 7.53.046 7.555H69.17c22.963 0 34.235-.073 34.143-.243-.07-.145 0-.314.185-.387.256-.097.326-.872.326-4.116 0-3.438-.047-3.971-.372-3.995-.209-.024-13.806-.048-30.238-.073l-29.866-.024-.07-2.663c-.047-1.477-.023-2.882.046-3.148.117-.484.28-.484 25.822-.411l25.683.048v-8.377l-25.264.072c-13.899.049-25.497.049-25.752-.024-.465-.121-.465-.266-.442-11.937 0-6.489-.07-12.106-.186-12.445-.116-.363-.558-.799-1.023-1.04-.465-.219-1.836-1.187-3.068-2.18-1.232-.969-2.603-1.937-2.998-2.18-.418-.217-.767-.508-.767-.629 0-.145-.093-.242-.232-.242-.14 0-.256 5.375-.28 15.302"/>
            <path fill="#6B9615" d="M31.516 6.562c-.07.411-.139 6.73-.139 14.043v13.292h.65c4.928.097 14.388-.072 14.55-.242.117-.121.117-.605.047-1.065l-.163-.872h-6.206c-3.625 0-6.321-.097-6.46-.218-.117-.145-.164-2.47-.094-5.883l.116-5.642 6.299-.073 6.322-.048.14-.726c.278-1.501.44-1.453-6.23-1.453-3.323 0-6.205-.097-6.368-.218-.465-.29-.581-8.644-.116-9.104.232-.266 1.58-.339 6.392-.363 4.532 0 6.135-.097 6.275-.315.116-.145.163-.63.14-1.017l-.07-.726-7.461-.073-7.46-.048z"/>
            <path fill="#6B9615" d="M157.117 10.508c-1.418.412-3.3 1.453-4.253 2.325-.442.387-.93.726-1.069.726-.14 0-.256.145-.256.315 0 .193-.232.556-.535.847-.464.46-1.138 1.67-2.068 3.777-.209.484-.302 1.743-.302 3.995 0 2.954.046 3.414.534 4.383.907 1.912 1.697 3.147 1.976 3.147.163.024.488.363.744.8.255.41.836.992 1.278 1.307.442.29.93.653 1.092.799.349.29 1.93.92 3.324 1.283.581.17 2.255.29 3.719.266 3.3 0 4.671-.411 6.787-2.034 2.463-1.888 3.788-4.334 4.067-7.53l.139-1.598-.767-.145c-1.208-.266-7.414-.194-7.902.073-.372.218-.418.339-.209.823.302.678 1.278.872 4.532.872h2.185v.968c0 .993-.744 2.785-1.557 3.777-.884 1.066-2.58 2.252-3.975 2.76-1.301.485-1.743.533-3.881.412-2.371-.145-2.929-.29-5.23-1.453-1.139-.58-2.649-2.01-3.486-3.317a12 12 0 0 0-.697-.968c-.791-.775-1.209-5.835-.605-7.724.21-.654.372-1.332.372-1.453 0-.145.279-.605.651-1.017.349-.411.906-1.186 1.278-1.719.349-.557.628-.92.628-.823s.256-.048.581-.29c.325-.267 1.394-.848 2.394-1.308 1.65-.726 1.975-.799 4.23-.799 2.998 0 4.323.46 7.53 2.615 1.372.944 1.372.944 1.837.46.255-.266.395-.654.325-.847-.14-.388-2.998-2.543-3.882-2.882a24 24 0 0 0-1.045-.435c-1.418-.606-2.301-.727-4.742-.703-1.487 0-3.161.146-3.742.315"/>
            <path fill="#6B9615" d="M436.721 10.411a11.4 11.4 0 0 0-2.092.606c-1.162.508-3.022 1.791-3.022 2.106 0 .121-.186.29-.418.387-1.116.46-3.091 3.753-3.51 5.884-.418 2.058-.348 5.23.163 6.658 1.441 4.213 5.113 7.506 9.297 8.354 1.952.387 5.369.17 7.159-.46 1.65-.606 3.718-1.937 3.928-2.543.093-.218.278-.411.441-.411.558 0 2.255-4.044 2.487-5.884.116-.944.14-1.767.07-1.84-.209-.242-5.183-.29-7.182-.097l-1.859.194v.726l.023.727 2.882.048c3.858.097 3.951.121 3.951 1.186 0 1.937-2.324 4.891-4.765 6.078-1.278.605-1.627.653-4.299.653-3.185 0-3.905-.193-6.229-1.815-1.255-.872-3.068-2.785-3.068-3.245 0-.17-.14-.436-.326-.581-1.022-.896-1.417-5.593-.697-7.917.232-.654.86-1.913 1.441-2.81 1.139-1.79 2.255-2.687 4.858-3.825 1.882-.847 4.323-.968 6.786-.339 1.511.388 1.86.582 4.509 2.397l1.325.92.465-.508c.256-.29.465-.63.465-.75 0-.775-4.277-3.39-6.322-3.899-1.116-.266-4.858-.266-6.461 0"/>
            <path fill="#6B9615" d="M78 11.525c-.092.46-.162 3.753-.139 7.312.047 9.128.024 9.976-.209 9.976s-1.046-.824-1.999-2.034c-.372-.485-1.069-1.283-1.534-1.792a35 35 0 0 1-1.72-2.106c-.488-.678-1.162-1.502-1.487-1.84-.326-.34-.814-.872-1.07-1.211-.882-1.114-5.577-6.828-6.414-7.796-.465-.533-.953-.896-1.092-.8-.186.122-.233 3.439-.21 11.477l.047 11.307.674.073c.372.048.744 0 .837-.121.116-.097.232-3.801.279-8.184.023-4.407.116-8.377.185-8.837l.117-.848.93.993a46 46 0 0 1 1.557 1.695c.348.387.743.799.86.944.139.121.767.896 1.417 1.695.674.799 1.72 2.058 2.325 2.784a116 116 0 0 1 1.627 1.937c.278.34.999 1.162 1.58 1.84a109 109 0 0 1 2.138 2.518c2.278 2.76 2.487 2.979 2.743 2.81.209-.122.279-3.148.279-11.43V10.654h-.79c-.721 0-.79.073-.93.872"/>
            <path fill="#6B9615" d="m94.875 22.3.07 11.646 6.135-.025c6.555 0 6.833-.048 6.136-1.138-.348-.556-.418-.58-5.392-.63l-5.02-.072-.07-4.697c-.046-3.608.023-4.745.232-4.915.163-.097 2.58-.194 5.369-.194h5.044v-.726c0-.557-.116-.75-.511-.848-.419-.072-6.322-.314-9.53-.363h-.65v-3.874c0-2.13.023-3.898.07-3.922.023-.024 2.463-.097 5.391-.17l5.346-.145.07-.799.07-.775H94.828z"/>
            <path fill="#6B9615" d="M121.092 12.397c0 .968 0 4.552-.023 7.941-.07 12.082-.024 13.269.464 13.56.256.12.628.169.814.096.302-.121.372-.92.418-5.496l.07-5.375.79-.073c.883-.097 1.906.726 2.487 2.034.186.436.767 1.186 1.278 1.695a14.4 14.4 0 0 1 1.627 2.13c.372.63.953 1.453 1.279 1.816.325.34.743.92.953 1.284.209.339.627.774.906.944.302.145.511.411.488.557-.046.29 1.093.508 1.627.29.326-.145.326-.193.023-.58-.186-.219-.418-.606-.488-.848-.093-.218-.255-.412-.395-.412-.116 0-.232-.17-.232-.363 0-.17-.14-.436-.302-.533-.163-.096-.651-.678-1.093-1.283s-.976-1.259-1.208-1.477c-.233-.218-.419-.484-.419-.58 0-.098-.348-.606-.743-1.115-2.255-2.736-2.511-3.293-1.674-3.607.325-.146.976-.242 1.441-.267 3.208-.072 5.625-2.663 5.625-6.053 0-2.615-1.139-4.358-3.58-5.472-1.092-.484-1.557-.532-5.647-.557h-4.486zm7.786.242c1.534.072 1.999.17 2.533.605 1.139.944 1.604 2.13 1.488 3.874-.093 1.38-.186 1.622-.976 2.47-.512.532-1.186 1.09-1.511 1.235-.372.145-1.952.218-4.091.193l-3.486-.072-.023-4.068c-.047-4.721-.209-4.455 2.51-4.358.93.048 2.533.097 3.556.12"/>
            <path fill="#6B9615" d="M186.054 10.944c-.07.17-.093 5.375-.07 11.573l.07 11.26.767.072.743.072V10.653h-.697c-.395 0-.767.146-.813.29"/>
            <path fill="#6B9615" d="M202.579 11.04c-.209.582-.163 22.446.046 22.809.163.218 1.558.29 6.229.242l6.02-.073v-1.695l-5.346-.12-5.345-.122-.07-3.874c-.023-2.13 0-4.334.07-4.915l.139-1.017h5.206c3.394 0 5.253-.097 5.346-.266.093-.121.093-.509.023-.848l-.139-.58h-5.113c-3.766 0-5.137-.073-5.253-.291-.233-.387-.233-7.385 0-7.627.07-.097 2.278-.194 4.881-.218 5.066-.048 5.717-.17 5.717-1.186v-.606h-6.136c-5.369 0-6.159.049-6.275.388"/>
            <path fill="#6B9615" d="M228.633 11.67c-.209 1.623-.186 21.598 0 21.888.465.702 8.786.484 9.576-.242.233-.218.558-.387.744-.387.442 0 1.348-1.017 2.161-2.349.535-.92.605-1.283.605-3.147 0-2.083-.024-2.155-.814-3.1-1.673-1.985-1.929-2.203-2.882-2.542l-.953-.315 1.255-1.38c1.186-1.307 1.767-2.494 1.767-3.753 0-.484-.721-2.808-.93-3.026-.07-.073-.302-.412-.534-.775-.21-.363-.907-.92-1.511-1.21-.953-.485-1.511-.558-4.718-.63l-3.649-.073zm7.577 1.26c1.302.556 1.79 1.525 1.79 3.486 0 1.501-.07 1.792-.628 2.445-.348.412-.767.75-.906.75-.163 0-.325.098-.372.243-.093.339-2.301.726-4.021.726-1.325 0-1.464-.048-1.603-.556-.186-.775-.163-6.78.046-7.095.093-.17.418-.339.744-.411.976-.218 4.114.024 4.95.411m.349 9.975c2.324.799 3.3 2.155 3.3 4.576 0 2.01-.511 2.978-2.045 3.922-.999.606-1.325.678-4.137.75l-3.045.098-.139-2.01c-.186-2.518-.209-6.465-.023-7.167.116-.484.325-.557 1.812-.63 1.999-.096 2.952.025 4.277.46"/>
            <path fill="#6B9615" d="M256.059 10.823c-.139.145-.232 23.05-.093 23.098.372.121 9.878.218 10.971.097 1.626-.17 1.859-.46 1.092-1.331-.395-.436-.744-.485-5.183-.436-2.626.024-4.904-.049-5.044-.145-.395-.243-.395-9.129 0-9.54.21-.218 1.651-.29 5.09-.29 2.65 0 4.974-.073 5.183-.146.21-.097.372-.436.372-.823v-.678l-5.206-.097c-2.859-.048-5.299-.17-5.415-.266-.303-.315-.372-6.49-.07-7.288l.256-.702 3.997.12c2.208.073 4.532.073 5.16-.024 1.092-.145 1.162-.193 1.162-.871v-.726l-6.066-.073c-3.324-.024-6.113.024-6.206.12"/>
            <path fill="#6B9615" d="M282.439 10.944c-.209.218-.279 3.1-.279 11.5 0 11.09 0 11.187.488 11.453 1.046.605 1.139.29 1.162-3.922.024-2.18.093-4.649.186-5.52.14-1.502.163-1.574.721-1.502.976.146 1.511.654 3.277 3.1a226 226 0 0 0 2.51 3.39c.465.58 1.162 1.476 1.534 2.033 1.581 2.227 1.79 2.421 2.719 2.421.977 0 1.139-.363.489-.992a5 5 0 0 1-.767-.945c-.186-.315-.675-.968-1.046-1.428-.396-.485-1.325-1.744-2.092-2.809a90 90 0 0 0-2.278-3.075c-.953-1.235-.953-1.646 0-1.646.79 0 3.254-.678 4.091-1.138 2.022-1.09 3.091-3.439 2.719-6.053-.302-2.276-1.278-3.608-3.37-4.576-1.209-.557-1.534-.582-5.532-.582-2.998 0-4.346.097-4.532.29m8.507 1.67c1.65.34 2.696 1.477 3.091 3.27.232 1.089.232 1.428-.116 2.324-.605 1.622-1.069 2.106-2.464 2.494-1.302.363-7.089.556-7.391.242-.232-.218-.349-6.223-.186-7.506l.163-1.041 2.835-.024c1.558 0 3.394.096 4.068.242"/>
            <path fill="#6B9615" d="M341.033 11.04c-.326.897.232 1.187 2.51 1.308l2.185.121.069 10.702.047 10.726h1.859V23.365c0-12.082-.279-10.92 2.533-10.992 1.837-.025 2.58-.412 2.58-1.284 0-.411-.325-.436-5.81-.436-5.183 0-5.834.049-5.973.388"/>
            <path fill="#6B9615" d="M365.832 19.66c0 5.763.093 9.37.256 9.976.348 1.283 1.557 2.954 2.487 3.414.395.218.743.484.743.605 0 .315 1.999.775 3.928.896 1.558.097 1.836.048 3.184-.654 1.697-.847 2.255-1.38 2.092-1.84-.069-.194 0-.315.14-.266.418.097 1.325-1.889 1.557-3.487.279-1.67.349-15.641.116-16.9-.139-.63-.256-.75-.813-.75h-.674l-.024 4.164c-.023 8.208-.209 13.85-.488 14.479-.557 1.186-1.65 2.445-2.603 2.978-.744.412-1.348.533-2.696.508-1.534 0-1.883-.072-2.905-.726a5.74 5.74 0 0 1-1.86-1.913l-.697-1.162-.093-9.176-.07-9.153h-1.58z"/>
            <path fill="#6B9615" d="M411.387 19.467c0 5.835-.093 8.886-.233 8.982-.325.194-1.766-1.138-2.789-2.542a23 23 0 0 0-1.65-2.058c-1.302-1.453-2.743-3.148-4.532-5.35-2.603-3.221-5.578-6.732-6.113-7.216l-.488-.46v22.832l.628.266c1.255.485 1.231.703 1.231-8.861 0-6.417.07-8.838.256-8.838.302 0 1.836 1.647 3.974 4.237 3.092 3.753 3.58 4.334 4.254 5.06.395.412 1.115 1.284 1.627 1.938.511.678 1.534 1.864 2.277 2.639.721.799 1.325 1.501 1.325 1.598s.395.581.86 1.09c.767.798.883.847 1.023.435.139-.339.139-21.016 0-22.275 0-.17-.349-.29-.837-.29h-.813z"/>
            <path fill="#6B9615" d="M318.302 12.639c-.372.847-1.209 2.712-1.86 4.189-.674 1.452-1.58 3.486-2.045 4.479-.441 1.017-1.604 3.535-2.557 5.593s-1.812 4.02-1.905 4.334c-.093.339-.372.968-.628 1.404-.93 1.574.418 2.18 1.534.678.325-.46.604-.92.604-.993 0-.218 1.302-3.22 2.115-4.842l.581-1.21 4.998-.073c4.555-.049 5.043-.024 5.368.363.186.242.907 1.695 1.604 3.22 1.906 4.286 1.883 4.237 2.812 4.31.767.072.814.024.721-.533-.07-.363-.232-.557-.372-.46-.139.073-.163.024-.07-.12.07-.146-.209-1.018-.674-1.938-.441-.92-.813-1.816-.813-1.961s-.256-.8-.558-1.429a94 94 0 0 1-1.185-2.59 331 331 0 0 0-2.185-4.843 921 921 0 0 1-2.836-6.222c-.836-1.913-1.371-2.857-1.627-2.857-.232 0-.627.556-1.022 1.5m1.511 3.269c0 .242.209.702.464 1.04.256.34.465.703.465.848 0 .121.372.944.814 1.816 1.092 2.13 1.51 3.148 1.673 3.922.163.896-.256.969-4.3.872-3.695-.073-4.114-.242-3.393-1.332.232-.363.488-.847.558-1.065s.744-1.768 1.511-3.462c.999-2.18 1.51-3.051 1.812-3.051.21 0 .396.194.396.412"/>
            <path fill="#6B9615" d="M79.023 57.577c0 .145-.371.387-.813.532s-.813.412-.813.557c0 .17-.605.557-1.325.872-.72.339-1.697 1.017-2.185 1.525-.465.509-1.093.92-1.348.92s-.604.194-.767.46c-.163.243-.558.533-.883.63-.326.097-.744.315-.93.484-.186.17-.837.557-1.464.848-.605.314-1.279.75-1.511.944-.21.218-.697.508-1.092.654-.372.145-.674.363-.651.508s-.418.436-1 .678c-.58.218-1.185.63-1.324.896-.21.387-1.558 1.186-2.487 1.525-.605.218-.907.46-1 .823-.07.291-.418.509-.976.606q-.871.181-.976.653c-.093.34-.279.46-.558.388-.232-.073-.395 0-.372.121.023.145-.279.363-.697.484-.418.097-.813.315-.883.436-.07.145-.349.242-.581.242-.465 0-1.093.436-2 1.404-.278.315-.929.678-1.417.824s-1.418.63-2.068 1.065c-.651.46-1.302.823-1.418.823-.14 0-.674.315-1.186.727-.534.387-1.069.726-1.162.726-.116 0-.372.194-.58.412-.21.242-.768.653-1.256.92-.488.266-.976.605-1.069.775a.7.7 0 0 1-.535.314c-.302 0-1.208.436-1.487.727-.256.266-1.534.992-2.162 1.259-.395.145-.604.387-.534.58.07.219-.21.412-.86.63-.883.267-1.325.581-1.325.92 0 .073.395.315.883.557.465.242 1.279.8 1.79 1.26s1 .847 1.07.847c.092 0 .673.411 1.3.944.628.508 1.488 1.114 1.907 1.332.395.242.836.653.953.944l.209.533v-.533c.023-.29-.117-.557-.256-.63-.442-.145-.116-.411.65-.484 1.395-.194 4.672-2.13 4.393-2.59-.07-.122.326-.315.86-.412.721-.145 1.023-.34 1.093-.678.093-.63.441-.848 1.278-.848.465 0 .883-.242 1.325-.75.349-.412.744-.678.86-.605.14.072.372.024.558-.146.697-.678 1.813-1.404 2.161-1.404.186 0 .349-.121.349-.242 0-.145.163-.242.349-.242s.441-.218.58-.484c.14-.267.442-.485.675-.485.209 0 .813-.387 1.325-.847.58-.533 1.045-.8 1.301-.702.232.072.418.024.418-.121 0-.122.581-.606 1.279-1.042.697-.435 1.278-.871 1.278-.968 0-.121.186-.194.418-.194.395-.024 1.488-.726 1.093-.726-.093 0 0-.218.232-.484.233-.267.674-.485.976-.485s.79-.266 1.093-.605.906-.726 1.325-.896c.441-.145.836-.339.906-.411.07-.073.535-.364 1.046-.63a15 15 0 0 0 1.65-1.017c.395-.315.883-.557 1.093-.557s.488-.193.604-.46c.14-.242.58-.58 1-.775 1.092-.46 2.277-1.331 2.091-1.525-.07-.097 0-.12.186-.048s.65-.049 1-.29l.65-.46v-5.255c0-2.905-.046-5.327-.116-5.423-.07-.073-.14 0-.14.145"/>
            <path fill="#6B9615" d="M95.479 62.274c-.07 2.3-.163 4.334-.21 4.503-.046.194.535.703 1.418 1.26.837.532 1.674 1.089 1.86 1.283.674.63 4.857 3.026 4.741 2.712-.069-.17-.023-.388.116-.485.279-.17.372-10.363.117-12.324l-.163-1.114h-7.763z"/>
            <path fill="#6B9615" d="M95.154 78.642c.07.12.162 8.474.186 18.57.046 14.528 0 18.377-.21 18.45-.395.145-.441 8.692-.046 8.838.162.048.255 1.137.279 2.929l.046 2.833h3.975c2.998 0 3.974-.073 3.974-.315.116-2.227.372-5.205.465-5.496.209-.557.209-8.474.023-8.523-.209-.072-.279-31.645-.093-31.863.093-.073-.511-.508-1.301-.968-.814-.46-1.674-1.042-1.93-1.284-.255-.242-1.045-.702-1.79-1.065-.72-.339-1.44-.8-1.603-.993-.325-.411-2.185-1.477-1.976-1.114m.534 47.31c-.046.315-.093.121-.093-.411-.023-.533.023-.775.093-.557.047.242.047.678 0 .968"/>
        </g>
        <defs fill="none">
            <clipPath id="c363983a-46f6-4080-b95d-5f431b732dcd">
                <path fill="#ffffff" d="M476 0v146H0V0z"/>
            </clipPath>
            <filter color-interpolation-filters="sRGB" filterUnits="userSpaceOnUse" height="154" width="484" y="0" x="-4" id="dee38855-70c4-435d-937d-9d770d9033ec">
                <feFlood result="BackgroundImageFix" flood-opacity="0"/>
                <feColorMatrix result="hardAlpha" values="0 0 0 0 0 0 0 0 0 0 0 0 0 0 0 0 0 0 127 0" in="SourceAlpha"/>
                <feOffset dy="4"/>
                <feGaussianBlur stdDeviation="2"/>
                <feComposite operator="out" in2="hardAlpha"/>
                <feColorMatrix values="0 0 0 0 0 0 0 0 0 0 0 0 0 0 0 0 0 0 0.25 0"/>
                <feBlend result="effect1_dropShadow_10_124" in2="BackgroundImageFix"/>
                <feBlend result="shape" in2="effect1_dropShadow_10_124" in="SourceGraphic"/>
            </filter>
        </defs>
    </g>
</svg>
