<?xml version="1.0" encoding="UTF-8"?>
<svg data-bbox="0.361 0 116.514 110" xmlns="http://www.w3.org/2000/svg" viewBox="0 0 119 110" height="110" width="119" data-type="color">
    <g>
        <g clip-path="url(#d30ea148-90ba-4734-afe5-db1852f1228f)">
            <path fill="#151515" d="M36.094.894c-.206.481-.275 10.587-.206 22.481l.206 21.656 9.487.206c6.119.138 9.419-.068 9.419-.55 0-.343-.756-.687-1.719-.687-1.65 0-1.718-.206-1.718-4.331-.07-5.363-1.513-7.563-4.95-7.219l-2.27.206-.206 5.638L43.932 44h-6.118V1.375h26.125V5.5c0 2.269.275 4.125.687 4.125s.688-2.063.688-4.813V0H50.875c-11 0-14.575.206-14.781.894M49.5 38.844c0 5.018-.069 5.156-1.719 5.156s-1.718-.138-1.718-5.156c0-5.019.068-5.157 1.718-5.157s1.719.138 1.719 5.157" data-color="1"/>
            <path fill="#151515" d="M39.463 5.019c-.207.55-.276 2.681-.138 4.675l.206 3.712h6.188V4.47l-2.956-.207c-1.994-.137-3.026.07-3.3.757M44 9.28c0 2.819-.138 3.094-1.719 3.094s-1.718-.275-1.718-3.094.137-3.094 1.718-3.094S44 6.464 44 9.282" data-color="1"/>
            <path fill="#151515" d="M47.438 8.938v4.812h6.187V4.125h-6.187zm4.812.343c0 2.819-.138 3.094-1.719 3.094s-1.718-.275-1.718-3.094.137-3.094 1.718-3.094 1.719.276 1.719 3.094" data-color="1"/>
            <path fill="#151515" d="M55.688 8.869v4.881h2.337c3.163 0 3.988-1.238 3.712-5.637l-.206-3.644-2.887-.207-2.956-.206zm4.812.412c0 2.819-.138 3.094-1.719 3.094s-1.718-.275-1.718-3.094.137-3.094 1.718-3.094 1.719.276 1.719 3.094" data-color="1"/>
            <path fill="#151515" d="M68.063 16.981C66 18.7 62.906 21.312 61.256 22.825s-3.712 3.163-4.606 3.781c-2.887 1.856-2.062 2.956 2.131 2.956h3.782v15.882l10.174-.207 10.107-.206.206-7.768.206-7.7h3.438c2.681 0 3.437-.207 3.231-1.032C89.65 27.363 73.631 13.75 72.6 13.82c-.412 0-2.475 1.443-4.537 3.162M78.1 19.456c2.681 2.407 5.844 5.088 7.013 5.913 2.887 1.994 2.75 2.681-.344 2.956l-2.613.206-.206 7.7L81.744 44h-5.431v-9.625h-8.25V44H63.25V28.187H60.5c-1.513 0-2.75-.343-2.75-.687 0-.413.206-.687.55-.687.275 0 1.581-1.032 2.888-2.27 3.025-2.818 11.206-9.418 11.687-9.418.206 0 2.544 1.994 5.225 4.331m-2.475 20.419V44h-6.188v-8.25h6.188z" data-color="1"/>
            <path fill="#151515" d="M68.338 25.781c-.207.55.068 1.444.618 1.994.894.963 1.1.963 1.444.069.206-.619-.069-1.032-.687-1.032-.688 0-.963-.412-.688-1.03.206-.55.206-1.032 0-1.032-.138 0-.481.481-.687 1.031" data-color="1"/>
            <path fill="#151515" d="M72.531 26.813c-.275.412-.069.687.413.687.55 0 .481.344-.138 1.169-.894 1.031-.825 1.031.619.275.825-.413 1.513-1.1 1.513-1.375 0-.894-1.994-1.513-2.407-.756" data-color="1"/>
            <path fill="#151515" d="M69.781 30.938c-.275.412-.687.55-1.031.343-.275-.206-.756.138-.963.688-.275.893-.137.893.963.343 1.237-.687 2.475-2.062 1.787-2.062-.206 0-.55.344-.756.688" data-color="1"/>
            <path fill="#151515" d="M39.188 20.969v4.468h6.187V16.5h-6.187zm4.812 0c0 2.819-.138 3.093-1.719 3.093s-1.718-.274-1.718-3.093.137-3.094 1.718-3.094S44 18.15 44 20.969" data-color="1"/>
            <path fill="#151515" d="M47.438 20.969c0 2.543.274 4.468.687 4.468s.688-1.718.688-3.78c0-3.576.068-3.782 1.718-3.782 1.1 0 1.719.413 1.719 1.1 0 .55.344.825.688.619.412-.207.687-1.032.687-1.788 0-1.1-.481-1.306-3.094-1.306h-3.093z" data-color="1"/>
            <path fill="#151515" d="M102.644 45.719c0 1.512.137 2.062.275 1.169.137-.825.137-2.063 0-2.75-.207-.62-.344.068-.275 1.58" data-color="1"/>
            <path fill="#151515" d="M93.5 49.156c.894.963 1.787 1.581 1.925 1.375.481-.481-1.994-3.093-2.819-3.093-.412 0 0 .756.894 1.718" data-color="1"/>
            <path fill="#151515" d="M97.419 51.563c-3.713 3.23-4.056 8.387-.757 11.893 1.238 1.375 1.65 2.544 1.65 5.088 0 4.194 1.444 6.394 4.125 6.394s4.125-2.2 4.125-6.257c0-2.062.413-3.506 1.1-4.125 1.719-1.375 3.025-4.468 3.025-6.943-.068-6.944-8.112-10.588-13.268-6.05m10.725 1.443c2.612 3.163 2.543 6.669-.207 9.763-1.1 1.306-2.062 3.025-2.062 3.85 0 1.306-.413 1.444-3.438 1.444-3.162 0-3.437-.138-3.437-1.582 0-.893-.619-2.2-1.375-2.887-1.994-1.788-2.956-5.844-1.994-8.525 1.856-5.225 8.869-6.325 12.513-2.063m-2.269 16.775c0 .756-.825 1.031-3.438 1.031-3.162 0-4.124-.48-2.956-1.58.207-.276 1.788-.482 3.438-.482 2.2 0 2.956.275 2.956 1.031m-.688 1.994c0 1.306-1.1 2.475-2.406 2.475-1.65 0-3.369-1.513-2.612-2.269.481-.55 5.018-.687 5.018-.206" data-color="1"/>
            <path fill="#151515" d="M104.362 53.281c1.238.55 2.475 1.65 2.888 2.544.412 1.169.619 1.237.619.412.068-1.58-2.613-3.987-4.332-3.987-1.1.069-.893.275.825 1.031" data-color="1"/>
            <path fill="#151515" d="M88 57.75c0 .344.894.688 1.994.688 1.168 0 2.269-.344 2.475-.688.275-.413-.55-.687-1.994-.687-1.375 0-2.475.274-2.475.687" data-color="1"/>
            <path fill="#151515" d="M112.406 57.75c.206.344 1.306.688 2.475.688 1.1 0 1.994-.344 1.994-.688 0-.413-1.1-.687-2.475-.687-1.444 0-2.269.274-1.994.687" data-color="1"/>
            <path fill="#151515" d="M110.688 66.344c.893.962 1.718 1.58 1.856 1.443.412-.412-2.063-3.162-2.819-3.162-.344 0 .069.756.963 1.719" data-color="1"/>
            <path fill="#151515" d="M47.094 82.363c-3.3 2.268-5.088 5.637-5.157 9.624 0 3.026 1.582 7.013 2.82 7.013.343 0 .137-.963-.482-2.2-1.444-2.75-.962-8.181.894-10.725 4.881-6.531 14.094-5.775 18.425 1.444 1.512 2.612 1.718 2.75 1.718 1.168 0-1.168-.893-2.68-2.543-4.262-3.575-3.369-5.019-3.987-9.282-3.987-2.818.068-4.262.48-6.393 1.924" data-color="1"/>
            <path fill="#151515" d="M51.288 88.756c-1.582 1.719-1.72 2.269-1.032 2.75.825.55.825.757-.069 1.306-.893.55-.825.757.344 1.65 1.581 1.238 2.407 1.376 2.407.413 0-.412.618-.687 1.374-.687s1.376-.344 1.376-.688c0-.412-.62-.687-1.376-.687s-1.374-.344-1.374-.688c0-.412.618-.687 1.374-.687s1.376-.344 1.376-.688c0-.412-.62-.687-1.376-.687-.962 0-1.237-.344-.893-1.1.275-.757 1.031-1.032 2.337-.825 1.375.206 1.994 0 1.994-.62 0-.55-.825-.893-2.269-.893-1.718 0-2.818.55-4.193 2.131" data-color="1"/>
            <path fill="#151515" d="M68.544 93.706c-3.644 1.238-3.85 1.444-2.956 2.475.962 1.1.687 1.582-3.3 5.5l-4.4 4.4-3.3-3.231c-1.857-1.719-3.575-3.162-3.85-3.162-.276 0-2.82 2.337-5.57 5.156-2.818 2.818-4.812 5.156-4.4 5.156.482 0 2.888-2.063 5.432-4.606l4.675-4.607 3.644 3.575 3.644 3.575 4.743-4.812c4.469-4.469 4.813-4.675 5.982-3.644 1.1.963 1.237.963 1.65-.206.206-.756.825-2.475 1.374-3.988.55-1.443.963-2.68.825-2.818-.137-.069-1.993.481-4.193 1.237" data-color="1"/>
            <path fill="#151515" d="M55 96.938c1.375.893 2.75.893 2.75 0 0-.413-.825-.688-1.856-.688-1.513 0-1.719.138-.894.688" data-color="1"/>
            <path fill="#ECC115" d="M96.25 85.594c0 1.031-3.506 3.919-5.019 4.194-.412.068-2.337.618-4.193 1.237-2.338.825-3.575.962-4.126.412-.48-.48-1.1.07-1.925 1.788-1.168 2.475-1.168 2.613.344 5.294 1.031 1.787 1.581 2.337 1.719 1.581.138-.619.756-1.1 1.306-1.1.619 0 3.163-.619 5.707-1.375 7.287-2.2 13.749-7.7 13.749-11.756 0-1.1-.481-1.306-3.781-1.306-2.887 0-3.781.275-3.781 1.03" data-color="2"/>
            <path fill="#404040" d="M53.831 8.938c0 2.475.138 3.437.275 2.2.138-1.17.138-3.232 0-4.47-.137-1.168-.275-.205-.275 2.27" data-color="3"/>
            <path fill="#404040" d="M55.688 17.531c-1.307 1.582-.55 1.788 1.306.275 1.1-.893 1.237-1.306.55-1.306-.55 0-1.375.481-1.856 1.031" data-color="3"/>
            <path fill="#404040" d="M46.956 20.625c0 2.063.138 2.956.275 1.856.138-1.031.138-2.681 0-3.781-.137-1.031-.275-.137-.275 1.925" data-color="3"/>
            <path fill="#404040" d="M49.5 32.863c0 .343.481 1.1 1.1 1.58.962.826 1.1.757.894-.343-.275-1.375-1.994-2.406-1.994-1.238" data-color="3"/>
            <path fill="#404040" d="M76.519 39.188c0 2.818.137 3.987.275 2.543.137-1.375.137-3.712 0-5.156-.138-1.375-.275-.206-.275 2.612" data-color="3"/>
            <path fill="#404040" d="M55 41.113c0 2.406.275 4.262.688 4.262s.55-1.444.274-3.987c-.618-5.294-.962-5.363-.962-.276" data-color="3"/>
            <path fill="#404040" d="M23.375 46.063c-7.356 2.062-9.419 5.5-7.975 13.268.206 1.169.137 2.682-.275 3.231-.963 1.582-3.644-1.1-2.75-2.818 1.925-3.575.206-8.388-3.506-9.831C5.43 48.538.963 47.78.48 48.538c-.618 1.03 1.307 10.38 2.544 12.237 1.375 2.2 4.056 2.888 6.463 1.788 1.58-.688 1.993-.62 3.024.687.825.963 1.307 2.819 1.307 5.088l.137 3.506.413-3.575c.275-1.994.962-4.125 1.581-4.744 1.031-1.031 1.238-1.031 2.681 0 2.063 1.375 6.05 1.444 8.044 0 2.131-1.444 3.506-5.019 4.675-11.962.481-3.232.962-6.05.962-6.394 0-.825-4.262-.413-8.937.894m7.15 3.918c-.619 5.225-2.131 9.763-3.919 11.688-1.65 1.856-5.637 2.131-7.7.619-1.237-.894-1.1-1.17 2.613-4.95 2.131-2.27 3.919-4.538 3.919-5.088s-1.857.962-4.125 3.438c-4.47 4.88-5.5 4.88-5.5 0 0-3.782 2.13-6.532 5.98-7.77 4.057-1.306 5.57-1.65 7.632-1.787 1.444-.069 1.512.069 1.1 3.85m-24.062.275c4.674 1.306 7.218 5.225 5.225 8.182-.55.825-1.17.55-3.438-1.857-3.437-3.575-3.644-2.475-.344 1.375 2.338 2.75 2.407 2.888 1.1 3.506-3.644 1.582-6.187-1.375-7.219-8.73-.55-3.645-.206-3.85 4.676-2.476" data-color="3"/>
            <path fill="#404040" d="M110.619 48.606c-1.169 1.375-1.238 1.581-.206.688.756-.619 1.581-1.031 1.787-.825.138.206.344-.138.344-.688 0-1.306.069-1.375-1.925.825" data-color="3"/>
            <path fill="#404040" d="M101.269 50.669c.619.137 1.719.137 2.406 0 .619-.206.069-.344-1.237-.344s-1.857.137-1.169.344" data-color="3"/>
            <path fill="#404040" d="M96.319 51.838c-.481.55-.55 1.168-.207 1.374.413.207 1.032-.068 1.444-.55.481-.55.55-1.168.207-1.374-.413-.207-1.032.068-1.444.55" data-color="3"/>
            <path fill="#404040" d="M93.225 65.931c-.894.963-.962 1.444-.344 1.856.481.275.688.207.413-.206-.55-.894 1.169-2.475 1.925-1.719.344.276.344.07.069-.412-.62-1.1-.688-1.031-2.063.481" data-color="3"/>
            <path fill="#404040" d="M101.269 69.231c1.031.138 2.544.138 3.437 0 .825-.137 0-.275-1.925-.275-1.856 0-2.612.138-1.512.275" data-color="3"/>
            <path fill="#404040" d="M101.612 71.981c.825.138 2.063.138 2.75 0 .619-.206-.068-.343-1.581-.275-1.512 0-2.062.138-1.169.275" data-color="3"/>
            <path fill="#404040" d="M50.875 95.219c0 .275 4.125 2.406 4.744 2.406.55 0-2.2-1.787-3.507-2.269-.687-.275-1.237-.343-1.237-.137" data-color="3"/>
            <path fill="#404040" d="M50.256 99.138c.138.137 1.375 1.099 2.682 2.268l2.406 2.063-1.994-2.269c-1.169-1.169-2.337-2.2-2.75-2.2-.344 0-.481.069-.344.138" data-color="3"/>
            <path fill="#EC6B40" d="M27.981 19.8c-.206.962-.894 1.512-1.856 1.512-1.925 0-9.694 3.713-11.137 5.294C12.994 28.806 11 33 11 34.856c0 1.788 0 1.788 3.919 1.306 2.612-.274 4.194-.825 4.606-1.58 1.856-3.3 7.494-6.188 8.594-4.4.275.412 1.169-.55 2.062-2.2l1.581-2.957-1.65-3.369c-1.443-2.818-1.787-3.093-2.13-1.856" data-color="4"/>
            <path fill="#6BC140" d="M93.5 19.113c0 .137.894 1.306 2.063 2.612 1.1 1.237 2.2 3.506 2.406 4.881.275 1.444.825 4.057 1.375 5.844.619 2.337.687 3.3.137 3.3-.412 0 .413.619 1.857 1.375 2.543 1.237 2.75 1.237 4.193.138 1.65-1.307 1.65-1.788.069-6.532-2.2-6.531-5.981-10.862-10.175-11.619-1.1-.206-1.925-.206-1.925 0" data-color="5"/>
            <path fill="#406BC1" d="M11.344 77.55C8.525 79.681 8.18 80.162 9.35 80.3c1.031.138 1.719 1.031 2.338 3.094 2.612 8.868 9.625 15.125 17.874 16.087l3.094.344-.137-2.338a92 92 0 0 1-.138-4.124c-.069-1.582-.481-1.994-2.612-2.544-3.438-.963-5.363-2.338-7.838-5.775-2.406-3.3-2.475-3.919-.481-3.919h1.512L21.45 79.75c-.825-.756-1.65-1.375-1.856-1.375-.275 0-1.444-.756-2.613-1.65l-2.2-1.719z" data-color="6"/>
        </g>
        <defs fill="none">
            <clipPath id="d30ea148-90ba-4734-afe5-db1852f1228f">
                <path fill="#ffffff" d="M118.25 0v110H0V0z"/>
            </clipPath>
        </defs>
    </g>
</svg>
