<?xml version="1.0" encoding="UTF-8"?>
<svg data-bbox="8.233 41.8 98.23 31.033" xmlns="http://www.w3.org/2000/svg" viewBox="0 0 114 114" height="114" width="114" data-type="color">
    <g>
        <g clip-path="url(#718e01f8-3801-4156-86a1-1bdee6d507c3)">
            <path fill="#154040" d="M8.867 42.433c0 .38 2.533 4.434 5.573 9.057a397 397 0 0 1 7.98 12.287c1.33 2.216 2.597 3.99 2.913 3.99.254 0 2.28-2.787 4.37-6.27l3.864-6.207V44.65l-3.8 5.7c-2.09 3.103-4.054 5.763-4.307 5.89-.317.063-2.787-3.103-5.51-7.157L14.947 41.8h-3.04c-1.647 0-3.04.317-3.04.633" data-color="1"/>
            <path fill="#154040" d="M35.467 57.317v15.516H41.8V41.8h-6.333z" data-color="1"/>
            <path fill="#154040" d="M45.6 44.333v2.534h10.64c7.41 0 10.893.253 11.4.76 1.077 1.076 1.077 18.303 0 19.38-.507.506-3.99.76-11.4.76H45.6v5.066h12.287c12.16 0 12.35 0 14.123-1.52l1.773-1.52V44.84l-1.773-1.52c-1.773-1.52-1.963-1.52-14.123-1.52H45.6z" data-color="1"/>
            <path fill="#154040" d="m79.547 43.447-1.647 1.71V69.73l1.647 1.52c1.71 1.583 1.836 1.583 14.313 1.583h12.603l-.19-2.406-.19-2.344-10.703-.19c-6.587-.063-11.083-.443-11.59-.823-.633-.57-.823-3.04-.823-9.753 0-6.714.19-9.184.823-9.754.507-.38 5.003-.76 11.59-.823l10.703-.19.19-2.407.19-2.343H81.257z" data-color="1"/>
            <path fill="#154040" d="M8.233 59.85v12.983h6.334V55.417l-2.85-4.307c-1.584-2.343-3.04-4.243-3.167-4.243-.19 0-.317 5.826-.317 12.983" data-color="1"/>
            <path fill="#154040" d="M48.133 57.317v2.85H66.5v-5.7H48.133z" data-color="1"/>
            <path fill="#154040" d="M84.867 57.317v2.85h19v-5.7h-19z" data-color="1"/>
        </g>
        <defs fill="none">
            <clipPath id="718e01f8-3801-4156-86a1-1bdee6d507c3">
                <path fill="#ffffff" d="M114 0v114H0V0z"/>
            </clipPath>
        </defs>
    </g>
</svg>
