<?xml version="1.0" encoding="UTF-8"?>
<svg data-bbox="-0.028 0 452.861 110" xmlns="http://www.w3.org/2000/svg" viewBox="0 0 454 110" height="110" width="454" data-type="ugc">
    <g>
        <g clip-path="url(#a9678724-beaf-419a-9532-3b1ce92a9cc9)">
            <path fill="#ECC115" d="M1.742 1.1C.092 1.742-.733 3.667.733 3.667c.367 0 1.192 1.375 1.925 2.933.734 1.65 2.109 4.125 3.025 5.5l1.742 2.567h85.067l.641-2.017c.275-1.1 1.834-4.033 3.3-6.417 1.559-2.475 2.475-4.766 2.2-5.041C97.808.367 3.942.275 1.742 1.1"/>
            <path fill="#6BC140" d="M11 21.542c0 .733.367 1.375.825 1.375s1.925 2.2 3.208 4.858c3.85 8.25 1.65 7.7 35.109 7.792h29.516l1.467-2.292c2.658-4.033 5.958-10.633 5.958-11.825 0-1.1-6.691-1.283-38.041-1.283-33.184 0-38.042.183-38.042 1.375"/>
            <path fill="#156B96" d="M229.442.642c-.642.183-1.192 1.008-1.192 1.741s-.55 1.009-1.375.734c-1.65-.642-1.742 0-.367 2.566.642 1.192.642 1.65.092 1.284-.55-.275-1.192-.184-1.558.366-.275.55.091 1.192.825 1.467 2.475.917 1.741 3.575-1.009 3.85-4.033.367-5.408 4.95-1.65 5.5 1.742.275 1.742.183.092-1.1-.917-.733-1.375-1.833-1.008-2.383.458-.734 1.191-.092 2.016 1.741.825 1.559 1.742 2.567 2.2 2.292s.825 2.475.825 5.958c0 3.942-.366 6.509-1.008 6.509-.458 0-.642.366-.367.916.275.459 1.375.917 2.384.917 1.558 0 1.741-.733 1.925-8.067l.183-7.975.55 7.792.55 7.792.183-6.692c.184-6.142.367-6.692 2.475-7.517 1.375-.55 2.292-1.558 2.2-2.475-.091-1.558-.183-1.558-.55-.091-.641 2.658-1.925 1.925-1.375-.734.275-1.65.092-2.291-.55-1.833-.641.367-1.283-.367-1.741-1.925l-.642-2.567-.642 2.292c-.55 1.925-.641 1.65-.733-1.375 0-2.383.183-3.208.733-2.383.642.916 1.1.733 2.384-.917 1.008-1.375 1.741-1.833 2.016-1.1.184.642 1.1.825 1.925.55s1.284-.275.917.183c-.825.825 1.925 3.117 3.758 3.209.734 0 1.009-.55.642-1.467-.458-1.283-.367-1.375.733-.458 1.009.825 1.375.733 1.834-.367.275-.733 0-1.375-.642-1.375-.733 0-.733-.275.183-.825 1.559-1.008.367-3.117-1.375-2.475-.733.275-1.283.183-1.283-.275 0-.367-.642-.733-1.375-.733-.825 0-1.283.55-1.008 1.283.641 1.558-4.034.825-5.409-.825C233.2.367 231.183-.092 229.442.642"/>
            <path fill="#156B96" d="m286.733 6.967.367 6.966-2.108-.733c-3.759-1.192-10.359-.825-9.534.55.275.55-.091 1.192-.825 1.467-.825.275-1.466 1.283-1.466 2.108 0 1.283-.184 1.283-.917.092-.55-.825-.917-.917-.917-.275 0 .55.459 1.375.917 1.65 1.192.733 1.192 2.291-.092 2.291-.458 0-.641-.458-.275-1.1.367-.55.275-.733-.183-.458-1.283.733-1.467 6.142-.367 6.142.55 0 .734-.459.367-1.1-.367-.642-.275-.734.367-.367.641.367 1.1 1.467 1.1 2.475s-.367 1.558-.917 1.283c-.458-.275-.917-.275-.917.184 0 .366 1.65 1.558 3.667 2.475 2.017.916 3.392 2.108 3.117 2.475-.275.458.55.825 1.833.825s2.567-.459 2.842-.917c.366-.55 1.008-.733 1.466-.458.459.275.55-.092.275-.825-.733-1.925 2.017-1.925 3.117 0 .458.825 1.65 1.283 3.025 1.1l2.2-.275.275-15.859c.183-13.566 0-15.858-1.192-16.316-.733-.367-1.925-.092-2.566.458-.825.55-1.559.642-2.109.092s-.733 1.741-.55 6.05m5.5 9.716-.183 15.859-.275-15.125C291.5 6.783 291.133 2.2 290.308 1.65c-.733-.458-.641-.733.55-.733 1.467 0 1.559 1.283 1.375 15.766m-7.241 2.384c2.108 2.016 2.475 2.841 1.741 4.216-.458.825-.641 1.834-.366 2.109.275.366.55.091.55-.459 0-.641.458-1.1 1.1-1.1.55 0 .275.825-.642 1.834-.917 1.008-2.383 1.833-3.392 1.833-.916 0-1.65.367-1.65.825 0 .367-1.008.55-2.2.367-1.283-.275-2.108-.917-1.833-1.559.183-.641.092-2.75-.367-4.675-.641-3.208-.458-3.85 1.192-4.766 2.658-1.467 2.933-1.467 5.867 1.375"/>
            <path fill="#156B96" d="M323.308.642c-.366.55-1.466.825-2.383.55s-2.017.091-2.475.733c-.458.825-.183.917.917.55 1.008-.367 1.375-.275.916.367-.275.55-1.283.825-2.2.55-1.65-.459-6.416 3.85-6.416 5.775 0 .55-.642 2.2-1.375 3.666-.917 1.834-1.1 2.75-.367 2.75.55 0 .917 1.375.733 3.392-.275 5.133-.091 5.775 1.559 5.133 1.283-.458 1.375-.275.458 1.375-.917 1.742-.825 2.017.825 2.017 1.1 0 2.2.825 2.75 2.2.642 1.742 1.283 2.108 2.842 1.742 1.466-.459 1.833-.275 1.283.55-.55.916-.183 1.008 1.375.55 1.558-.459 1.833-.367 1.375.458-.55.825.092 1.008 2.383.642 7.059-1.192 9.075-1.834 9.075-2.659 0-.458.367-.641.825-.366 1.1.733 3.025-1.742 2.109-2.659-.367-.458-.184-.458.458-.091.55.275 1.283.183 1.65-.367.275-.458.092-.917-.55-.917-.733 0-.642-.458.183-1.558.734-.917.825-1.283.184-.917-.55.367-1.65.092-2.292-.55-2.2-2.475-5.133-.275-4.492 3.392.092.458-.55.275-1.375-.458-1.375-1.1-1.558-1.1-.825 0 .55 1.008.367 1.191-.733.733-.917-.367-1.558-.092-1.558.458 0 .825-.275.825-1.009.092-.55-.55-1.558-.825-2.2-.642-.641.275-1.466.092-1.741-.458-.367-.55-1.284-.642-2.017-.367-1.008.367-1.375 0-1.1-1.191.183-1.192-.367-1.834-1.742-2.017-2.291-.367-2.841-2.75-1.008-4.583.733-.734.733-1.1.092-1.1-2.017 0-2.2-3.025-.275-4.309 1.008-.733 1.65-1.741 1.283-2.2-.275-.55.275-1.191 1.375-1.466s1.925-.825 1.925-1.284c0-.458 1.283-.825 2.842-.825 1.558 0 2.566-.366 2.2-.916-.917-1.467 0-1.1 2.291.916 1.192 1.009 2.659 1.834 3.392 1.834s1.1.275.917.641c-.275.459.183 1.375 1.008 2.109 1.283 1.191 1.375 1.1.825-.275s-.367-1.467 1.192-.642c1.466.825 1.65.733 1.283-.458-.458-1.009-.183-1.192.917-.825 1.1.458 1.375.183.916-.917-.275-.825-1.008-1.192-1.65-.825-.641.458-.641.183.092-.733.917-1.1.825-1.65-.642-2.934-1.008-.825-1.833-1.1-1.833-.641 0 .458-.642.641-1.375.366s-1.192-1.008-1.1-1.466c.092-.55-.917-1.284-2.292-1.742-1.466-.367-2.566-.275-2.566.183 0 1.192-3.484 1.009-3.85-.275-.275-.825-.55-.825-1.009-.091"/>
            <path fill="#156B96" d="M386.65 1.283c-1.375 1.009-1.558 3.3-1.833 16.409L384.542 33h2.2c1.375 0 1.925-.458 1.65-1.192-.275-.733.275-1.191 1.283-1.191s1.742.641 1.742 1.283c0 1.1.275 1.1 1.375.183 1.191-1.008 1.65-.733 1.558.917 0 .275 1.192.458 2.658.458 1.65.092 2.659-.366 2.659-1.191 0-.642.458-.917.916-.642.55.275.917-.092.917-.825 0-.825.55-1.467 1.192-1.467.825 0 1.008-1.558.825-5.591-.275-4.492-.092-5.5.916-4.859 1.009.55 1.009.459 0-.733-.916-1.192-.916-1.558 0-1.925.734-.367.642-.55-.366-.55-.917-.092-1.65-.733-1.65-1.467 0-.733-.367-1.375-.917-1.375-.458 0-.917.55-.917 1.1 0 .917-.183.917-.733 0-.917-1.375-6.6-2.291-6.6-1.008 0 .458-.642.825-1.467.825-.733 0-1.1.367-.825.917.275.458.092.916-.366.916-.642 0-1.009-2.658-1.009-6.875 0-4.858-.366-6.875-1.1-6.875-.825 0-.733-.366.184-.916.733-.459 1.008-.917.458-.917-.458.092-1.65.55-2.475 1.283m11.458 18.059c2.567 2.933 3.117 4.125 1.559 3.116-.825-.55-1.284 1.284-1.009 3.85.092.55-.366 1.375-.916 1.742-.734.458-.825.275-.367-.55.917-1.467-3.3-.275-4.308 1.283-.55.734-.734.642-.734-.183 0-.55-.55-1.1-1.191-1.1-.825 0-1.192-1.1-1.1-3.208.183-2.384-.184-3.209-1.284-3.209-1.191-.091-1.1-.275.367-1.1 1.008-.641 2.383-1.65 3.025-2.291 1.833-1.834 3.208-1.467 5.958 1.65"/>
            <path fill="#156B96" d="M142.45 2.108c-.55 1.559 1.925 6.325 2.842 5.409.458-.367.55 0 .183.825-.275.916.275 2.383 1.192 3.391 1.283 1.375 1.466 2.017.641 2.842-.825.917-.733 1.375.367 2.2.825.642 1.283 1.558 1.1 2.2-.183.55.458 1.742 1.375 2.75 1.008.917 1.65 2.383 1.467 3.3-.184 1.192.183 1.558 1.191 1.192 1.1-.459 1.192-.275.459.641-.734.825-.734 1.834.183 3.392.825 1.833 1.742 2.292 4.125 2.108 3.575-.091 4.675-1.008 2.842-2.108-1.1-.733-.917-.917.733-.917 1.1 0 2.017-.458 2.017-1.008 0-.458-.367-.733-.734-.458-.458.275-.825-.092-.825-.734 0-.825.642-1.1 1.467-.733.825.275 1.192.183.825-.275-.367-.367-.275-1.283.275-1.925.55-.733.825-1.833.55-2.658-.367-.734-.183-1.559.275-1.834.55-.366.917-1.375.917-2.383 0-.917.458-1.742 1.008-1.742.642 0 .825-.916.642-2.291-.275-1.284.091-3.025.733-3.85 1.008-1.375 1.283-1.375 1.283-.275.092.916.367.733.825-.459.459-1.1.367-2.108-.275-2.475-.641-.458-.366-.733.642-.733 1.283 0 1.467-.367.642-1.742-.642-1.283-.55-1.925.275-2.2.55-.275-.367-.55-2.109-.55-2.383-.091-2.841.184-1.833.825 1.192.734 1.1.917-.458 1.009-1.009.091-2.2.091-2.567 0-.367-.092-.275.733.275 1.741.825 1.467.733 1.742-.55 1.192-1.1-.367-1.375-.275-.917.458.367.642.184 1.1-.366 1.1s-.734 1.009-.55 2.2c.275 1.65.091 2.109-.917 1.742-1.467-.55-1.742.733-.367 2.108.642.642.642 1.65 0 3.209-.916 2.016-.916 2.108-.55.183.184-1.192-.091-2.383-.55-2.75-.55-.275-.733-.183-.458.275.275.55.183 1.467-.275 2.2-.458.825-.458 1.742.183 2.475.642.825.55 1.283-.458 1.742a1.61 1.61 0 0 0-1.008 2.016c.275.825-.459-.091-1.559-2.108s-2.291-3.758-2.566-3.942c-.367-.091-.55-1.466-.459-2.933.275-3.758-1.558-8.433-3.025-7.792-.916.275-1.1-.183-.641-1.833.458-1.65.091-2.475-1.1-2.933-.917-.367-1.742-.184-2.017.458-.183.642-.917 1.1-1.558 1.1-.642 0-1.467.55-1.65 1.1-.367.733-.55.642-.55-.367-.092-.825.641-1.741 1.558-1.925 1.467-.366 1.467-.458-.092-.55-.916 0-1.833.459-2.108 1.1"/>
            <path fill="#156B96" d="M213.492 1.1c0 .183-.275 1.467-.459 3.025-.55 4.033 2.109 5.5 5.684 3.117 1.466-.917 2.108-1.742 1.375-1.742-.917 0-1.009-.275-.184-1.283.917-1.1.734-1.559-.733-2.292-1.558-.917-5.408-1.375-5.683-.825"/>
            <path fill="#156B96" d="M178.75 13.108c0 .459-.733.642-1.558.459-.917-.184-2.109.458-2.75 1.558-.825 1.283-1.192 1.467-1.192.458-.092-1.741-2.842 4.4-3.208 7.15-.092 1.1.183 2.292.641 2.567.367.275.55.917.275 1.375-.366.458.184.825 1.1.825 1.375 0 1.467.183.275.917-1.375.825-1.1 1.008 1.834 1.283.733.092 1.283.733 1.1 1.375-.092.642.183.825.825.458.55-.275 1.375-.091 1.741.55 1.009 1.65 7.609 1.925 6.967.367-.275-.733-.092-1.283.275-1.283.458 0 1.008.366 1.192.916.458 1.467 2.658-.458 2.841-2.566 0-1.009.459-1.65.825-1.467.459.275.459 1.008.184 1.558-.367.642-.092.642.641-.091 1.1-1.009 1.009-1.375-.458-2.475-1.925-1.467-5.683-1.192-5.408.366.183.459-.275.734-1.009.459s-1.558-.092-1.925.458c-.275.55-1.191 1.008-1.925 1.008-.733 0-1.1-.366-.825-.916.275-.459 0-.642-.733-.367-1.283.458-2.842-1.925-2.017-3.208.184-.459 3.667-.642 7.7-.459 6.417.184 7.334.092 7.7-1.466.459-1.925-2.291-8.709-3.575-8.709-.458 0-.733-.275-.55-.733.092-.367-.183-.642-.733-.642-.458 0-.917.459-.917 1.009 0 .458-.458.641-.916.366-.55-.366-.734-1.008-.367-1.466.275-.55-.825-.825-2.75-.642-1.833.092-3.3.55-3.3 1.008m5.408 4.125c1.284 2.475-.458 3.942-3.3 2.842-1.283-.458-2.566-.642-3.025-.367-.458.275-1.1 0-1.466-.55-.367-.641-.275-.825.183-.55s1.925-.275 3.117-1.283c2.841-2.108 3.391-2.108 4.491-.092"/>
            <path fill="#156B96" d="M202.583 12.742c-.733.458-1.65.641-2.016.458-.367-.275-.734.275-.734 1.192-.091 1.558-.091 1.558-1.008 0-.733-1.192-1.283-1.375-2.75-.642-1.65.917-1.742 1.833-1.558 9.9.275 8.617.366 8.892 2.475 9.167 2.75.458 3.85-1.192 3.666-5.775-.183-6.142 0-7.059 1.192-6.325.642.458.825.091.55-1.192-.367-1.467 0-2.017 1.558-2.292q2.2-.549 1.65.825c-.641 1.742.367 1.467 2.475-.641 3.3-3.3 4.492-1.559 4.767 7.15l.275 7.975 2.567.275c4.308.55 5.225-1.1 5.133-8.434-.092-8.525-.825-11-3.392-11.366-1.925-.275-2.016 0-2.2 9.166l-.183 9.442-.275-8.433c-.367-8.159-.458-8.525-2.383-8.25-1.192.091-1.925-.275-1.742-1.009.092-.55-.55-1.1-1.375-1.1-.917 0-2.475-.275-3.483-.458-1.009-.275-2.475-.092-3.209.367m16.225 9.441c-.183 1.65-.366.55-.366-2.475s.183-4.4.366-3.025c.184 1.375.184 3.85 0 5.5"/>
            <path fill="#156B96" d="M242.917 12.65c0 .458-1.009.642-2.292.367-1.283-.184-2.292 0-2.292.55s-.275 1.558-.55 2.383-.091 1.467.55 1.467c.55 0 .825-.367.459-.825-.275-.459-.092-1.1.458-1.467s.917 1.375.825 4.767c0 3.85-.275 4.766-.825 3.483-.733-1.742-.825-1.742-.825.183-.092 1.192.367 2.109.825 2.109.55 0 .917.825.917 1.925 0 1.008-.367 1.65-.825 1.375-.459-.275-1.009.458-1.192 1.65-.367 1.925-.092 2.108 3.025 2.108h3.483l.275-9.35c.184-6.692-.091-9.717-.825-10.45-.641-.642-1.191-.733-1.191-.275"/>
            <path fill="#156B96" d="M253.275 12.558c-.642.275-1.192.825-1.192 1.375s-.641 1.467-1.375 2.017c-1.466 1.1-3.575 10.083-2.2 9.167.734-.367 1.284 2.291.917 4.4 0 .366.55.458 1.283.183 1.009-.458 1.192-.183.825.917-.275.825-.091 1.466.459 1.466s1.008-.458 1.008-1.1c0-.55.55-.366 1.192.55 1.466 2.017 7.975 2.842 7.975 1.009 0-.642.641-1.467 1.466-1.742.734-.275 1.1-.183.825.367-1.1 1.741 1.1.916 3.117-1.284 1.283-1.375 1.742-2.383 1.1-2.841-.55-.275-1.008 0-1.008.641 0 .917-.184.917-.734 0-.458-.641-1.65-1.283-2.841-1.558-1.1-.183-1.742-.092-1.559.367.275.366.092 1.191-.458 1.925-.55.916-.825 1.008-.825.183 0-.55-.458-1.1-1.008-1.1-.459 0-.734.275-.55.642.275.458-.55.825-1.742.825-1.192.091-2.017-.275-1.925-.917.092-.55-.367-.917-.917-.825-.641.183-1.191-.092-1.191-.55 0-1.375 4.858-2.567 8.891-2.108 4.309.458 6.234-.825 6.417-4.217.092-1.65-.183-2.017-1.283-1.65-1.009.458-1.284.183-.825-.917.641-1.558-2.75-5.316-4.125-4.491-.367.275-1.009.091-1.284-.459-.458-.733-1.1-.641-2.108.184-1.192 1.008-1.283 1.008-.733 0 .641-1.009.366-1.1-1.009-.275-1.008.458-2.2.55-2.658.183-.458-.458-1.375-.55-1.925-.367m9.442 5.5c.275 1.65-.184 1.925-2.659 1.925-1.558-.091-3.483.092-4.216.275-.642.184-1.467-.183-1.742-.916-.183-.734-.092-1.009.367-.734s1.833-.275 3.116-1.191c2.75-2.017 4.767-1.834 5.134.641"/>
            <path fill="#156B96" d="M346.592 13.108c-1.284.55-2.384 1.65-2.659 2.384-.275.733 0 1.008.642.641 1.467-1.008 1.192 0-.55 1.834-1.467 1.466-1.467 1.466.458.916 1.284-.458 2.017-.275 2.017.367 0 .733.55.733 1.833 0 1.009-.55 1.65-1.375 1.375-1.833-.641-1.1 2.109-.184 4.584 1.558 1.558 1.1 1.65 1.192.183 1.192-.917 0-1.833.55-2.108 1.191-.275.734-1.559 1.192-2.934 1.1-1.375 0-3.025.459-3.666 1.1-.734.642-1.65.917-2.2.642-.642-.367-.734-.183-.367.367.367.641.275 1.1-.183 1.1-1.375 0-.917 3.116.641 4.4.825.733.917.916.184.55-1.009-.459-1.009-.275-.275 1.1.641 1.191 2.016 1.741 4.125 1.741 1.833 0 3.025-.275 2.841-.641-.275-.459.367-.734 1.375-.734 1.1 0 1.925-.55 1.925-1.191 0-.642.459-.459 1.009.458.55 1.008 1.466 1.375 2.383 1.008.917-.366 1.283-.183.825.459-.367.55.092.916 1.192.825.916 0 2.2-.917 2.841-1.834.55-1.008.734-1.558.275-1.283-1.375.825-2.566-1.65-2.841-6.142-.092-2.383.183-4.858.641-5.5.825-1.008-1.008-5.866-2.108-5.408-.275.183-1.283.275-2.108.275-1.375 0-1.467-.183-.275-.917.916-.55.366-.825-2.109-.641-1.833.091-3.391.458-3.391.825 0 .458-.459.733-1.009.733-.458 0-.641-.458-.366-.917.733-1.191.458-1.1-2.2.275m8.433 13.017c.642 1.467.275 1.833-3.208 2.658-2.109.459-2.567.275-2.567-1.191 0-1.1.733-1.925 2.108-2.2 1.1-.184 2.292-.459 2.567-.55.367 0 .825.55 1.1 1.283"/>
            <path fill="#156B96" d="M373.542 12.742c.275.458-.184 1.1-1.009 1.375-.733.275-1.1.183-.825-.367.367-.55-.641-.917-2.2-.917-2.566 0-2.841.275-2.933 2.934l-.092 3.025-.733-2.75c-.458-1.925-.733.183-1.008 6.6-.367 8.708-.275 9.35 1.466 9.808 4.95 1.375 5.225 1.008 4.95-6.325-.275-4.492.092-7.242.825-7.975.55-.55 1.1-.733 1.1-.367 0 .459.642.275 1.375-.366.917-.825 1.375-.825 1.375-.092 0 .55.642 1.008 1.467 1.008.733 0 1.192-.366.917-.825s.091-1.1.916-1.375c2.2-.825 2.842-.641 1.284.367-.825.55-.917.917-.275.917 1.925 0 2.291-1.834.733-3.392-1.558-1.467-8.25-2.658-7.333-1.283m-7.15 15.858c-.184 1.65-.367.367-.367-2.933s.183-4.584.367-3.025c.183 1.65.183 4.4 0 5.958"/>
            <path fill="#156B96" d="M415.708 12.833c-.366.55-1.375.917-2.291.734-.917-.184-2.475.55-3.575 1.466-2.109 1.925-2.659 4.675-.734 3.759.55-.367.459-.092-.366.641-.825.642-1.65 1.834-2.017 2.567q-.55 1.65-.55-.275c-.092-2.2-1.925-2.017-1.925.275 0 1.008.642 1.833 1.375 1.833S407 24.2 407 24.75c0 .458.642.917 1.375.917s1.375.641 1.375 1.375c0 .733-.458 1.375-1.008 1.375s-.092.825 1.1 1.741c2.566 2.109 3.483 1.742 1.65-.55-1.192-1.466-1.1-1.558.366-.366.825.641 1.559 1.925 1.559 2.75 0 1.283.183 1.283.916.091.734-1.1.917-1.1 1.375.275.55 1.192 1.009 1.375 2.475.55 1.375-.733 1.742-.733 1.284 0-.459.642.091.917 1.375.734 1.191-.184 2.291-.825 2.475-1.375.183-.642.733-.917 1.191-.55.459.275.825 0 .825-.55s1.009-1.467 2.292-2.017c1.925-.825 2.108-1.283 1.1-2.383-.642-.917-.733-1.192-.092-.825 1.467.825 2.017-2.75 1.1-6.417-.458-1.65-1.191-3.208-1.833-3.575q-.962-.687-.275.55.688 1.237-.275.55c-.642-.367-1.1-1.192-1.1-1.925s-.733-1.1-1.742-.917-1.925-.183-2.2-.825c-.55-1.375-5.866-1.833-6.6-.55m7.242 6.875c.275.825.55 2.384.55 3.3 0 1.192.367 1.65 1.192 1.192.55-.367.275.183-.734 1.192s-2.108 1.741-2.383 1.558c-.367-.183-.825.275-1.192 1.008-.275.734-1.008 1.375-1.65 1.375-.825 0-.825-.275.184-1.008 1.1-.825 1.008-.917-.55-.55-1.375.275-2.384-.275-3.484-2.2-.916-1.467-2.016-2.475-2.475-2.2-.458.367-.825-.092-.825-.917s.367-1.283.825-1.008c.459.275 1.284-.092 1.925-.825.642-.733.917-1.375.55-1.375-.275 0 .184-.733 1.1-1.65 1.375-1.467 1.834-1.558 3.942-.55 1.375.642 2.658 1.925 3.025 2.658"/>
            <path fill="#156B96" d="m434.133 21.267.092 9.441-.55-8.25-.55-8.25-.458 8.892c-.459 8.342-.367 8.892 1.375 9.35 4.95 1.375 4.95 1.375 5.133-8.708.183-5.684.275-6.05 2.658-6.967 1.925-.733 2.842-.55 4.492.733 1.833 1.559 1.833 1.65.367 2.567-.917.55-1.192 1.008-.734 1.008.55 0 .917 2.567.917 5.684v5.775l3.025.275 2.933.275v-8.25c0-4.584-.366-8.525-.916-8.8-.55-.367-.734-.917-.459-1.375.275-.459.092-1.009-.458-1.375-.458-.275-.917-.092-.917.458s-.916.367-2.2-.458c-2.016-1.284-2.566-1.375-5.5-.092-2.108.825-3.3 1.008-3.3.367 0-.55-1.008-.734-2.291-.55-1.192.275-2.384.091-2.475-.367-.184-.367-.275 3.483-.184 8.617"/>
            <path fill="#156B96" d="M151.983 44.183c-1.466.459-2.566 1.284-2.566 1.742 0 .55-.459.642-.917.367-1.192-.734-3.85 1.283-3.117 2.383.275.458 0 .825-.458.825-.55 0-1.008 1.467-1.008 3.3 0 2.842.183 3.208 1.375 2.2 1.1-.917 1.283-.733.916.733-.183 1.009.275 2.109 1.009 2.384s1.283 1.1 1.283 1.833c0 .825.55 1.192 1.283.917.642-.275 1.467.183 1.834 1.008.275.825.916 1.283 1.375.917.55-.275 1.833.458 2.933 1.558 1.1 1.192 1.742 1.558 1.375.917-.458-.642-.092-1.1.825-1.1.825 0 1.192.366.917.916-.275.459-.184.917.366.917 1.467 0 .275 2.2-1.833 3.575-2.567 1.558-5.408 2.017-5.408.917 0-.459-.825-.825-1.834-.825-1.008 0-1.833-.459-1.833-.917 0-1.375-2.475-1.1-4.033.458-1.925 1.925-.917 4.034 1.558 3.392 1.833-.458 1.925-.367.642 1.192-.825 1.008-.917 1.466-.184 1.008.55-.367 1.1-.275 1.1.275s.55.733 1.192.458c.642-.183 1.925.184 2.933.917 1.192.825 2.567 1.008 4.309.458 1.375-.366 2.566-.458 2.566-.183s.734-.092 1.65-.917c.917-.916 2.017-1.283 2.384-.916.366.458.641.275.55-.184-.459-1.925 0-4.216.733-3.758.367.183 1.1-.642 1.742-1.833.825-1.742.733-2.2-.184-2.2-.641 0-1.1-.734-1.008-1.559.367-2.475-1.925-6.05-4.217-6.416-1.1-.184-2.383-.825-2.75-1.467-.55-.825-.733-.733-.733.183 0 1.009-.367.825-1.283-.458-.734-.917-1.65-1.467-2.017-1.008-.917.916-4.033-2.109-3.942-3.85q0-1.513.55-.275c.367 1.008.734.916 2.017-.184 2.108-1.925 6.783-2.658 6.142-.916-.275.641-.092 1.283.275 1.283.458 0 1.1-.55 1.283-1.192.275-.641.55-.458.55.459.092 1.375.458 1.466 2.383.55 2.75-1.192 2.934-4.95.275-4.767-.916.092-1.466-.275-1.375-.917.092-.55-.458-1.008-1.191-1.008-.734-.092-2.292-.55-3.392-1.192s-2.108-1.1-2.292-1.008c-.183 0-1.375.458-2.75 1.008m4.309.734c.275.458-.275.916-1.375.916s-1.65-.458-1.375-.916c.275-.55.916-.917 1.375-.917s1.1.367 1.375.917"/>
            <path fill="#156B96" d="M249.608 44.183c.459 1.284.092 1.375-2.108.734-1.467-.367-2.842-.55-3.117-.184-.275.275-.55 3.3-.55 6.692 0 5.592.184 6.233 1.65 5.683.917-.366 1.192-.275.642.275-.458.459-1.1 1.1-1.467 1.559-.275.366-1.283-.184-2.291-1.284-.917-1.191-1.192-1.741-.459-1.283.734.458 1.1.367.734-.092-.734-1.191-7.059-1.558-7.059-.458 0 .55-.916 1.375-1.925 2.017-1.558.825-1.833.733-1.191-.275.55-1.009.458-1.009-.825.091-1.009.825-1.375 2.017-1.009 3.667s.275 2.017-.366 1.192c-.642-1.009-1.009-.917-1.467.366-.367 1.009-.183 1.834.275 2.017.55.183 1.008.917 1.008 1.65 0 .825-.366 1.1-.916.825s-.642.092-.367.825c.275.825 1.008 1.192 1.65.825.55-.367.458.092-.275.917-.825 1.008-.917 1.558-.183 1.558.55 0 1.008.458 1.008 1.008 0 1.925 3.85 4.584 5.133 3.484.734-.642 1.284-.642 1.742.091.275.459 1.192.917 1.925.917s1.1-.458.825-.917c-.275-.55.092-.916.825-.916.825 0 1.467-.367 1.467-.917 0-.458 1.558-.275 3.575.458 2.016.642 3.85 1.009 4.125.734 1.008-1.009.55-29.975-.459-31.442-.825-1.192-.916-1.192-.55.183m-7.15 16.775c.55.092.825.642.642 1.284-.092.641.183.916.642.641 1.008-.641 1.833.459 2.383 3.117.183 1.192-.183 1.833-1.008 1.833-.734 0-1.192.367-.917.825.275.367-.367 1.559-1.467 2.475-1.1 1.009-1.65 1.192-1.283.55.458-.733-.092-1.1-1.742-1.1s-2.2.367-1.741 1.1c.366.642.458 1.009.091.734-.275-.275-.458-.734-.366-1.009.091-.366-.55-1.466-1.467-2.475-1.283-1.375-1.558-2.658-1.1-4.675.367-1.558.917-2.658 1.375-2.383.367.275 1.192-.183 1.833-.917.642-.733 1.559-1.1 2.2-.733.55.367 1.467.733 1.925.733"/>
            <path fill="#156B96" d="M308.458 43.908c-.55 1.009.825 2.109 1.742 1.284.825-.825.642-2.109-.275-2.109-.55 0-1.1.367-1.467.825"/>
            <path fill="#156B96" d="M310.75 51.975c0 6.05-.183 6.783-1.192 5.408-1.558-2.108-7.608-2.841-9.625-1.283-1.1.917-1.283.917-.733.092.458-.825.183-1.009-.733-.642-.825.275-1.1 1.1-.825 1.925.366.917.183 1.283-.367.917-1.375-.825-2.842 1.283-2.475 3.483.092 1.008-.183 2.108-.733 2.475-.825.458-.825 1.192 0 2.933.733 1.742.733 2.384-.092 2.75-.825.275-.825.459 0 .459.642.091.917.733.55 1.558-.367 1.1-.183 1.375.733 1.1.734-.275 1.742.458 2.2 1.467.734 1.375 1.925 1.925 4.4 2.108 1.834 0 3.392-.275 3.392-.733 0-.367.642-.55 1.375-.275.825.366 1.375 0 1.375-.825s.458-1.742 1.1-2.109c.733-.458.825 0 .458 1.375-.458 1.834-.183 2.017 1.467 1.559 1.008-.275 2.567 0 3.3.55 1.192.916 1.283.916.367-.184-1.375-1.466-1.559-5.5-.367-5.5.458 0 1.1.917 1.283 2.017.184 1.192.459-4.492.55-12.558l.092-14.667-2.75-.183-2.75-.184zm4.583 3.483c0 5.134-.366 8.709-.916 8.709s-.917-3.484-.825-8.709c0-4.766.458-8.708.916-8.708.459 0 .825 3.942.825 8.708m-8.433 5.775c.183.642.733.917 1.192.55.458-.275.825.459.825 1.65 0 1.65.183 1.834.916.734.642-1.009.917-.55.825 1.833 0 2.658-.183 2.842-.825 1.375s-.825-1.558-.825-.275c-.091.825-.916 2.108-1.925 2.842-1.008.733-1.65 1.466-1.375 1.741.275.184-.183.459-.916.459s-1.559-.642-1.742-1.284c-.275-.733-1.008-1.008-1.558-.641-.642.366-.825.275-.459-.367.275-.55-.091-1.375-.916-1.833-.917-.55-1.192-1.1-.55-1.467.458-.275.733-1.283.458-2.2-.183-.917.275-2.292 1.192-3.025 1.008-.733 1.375-.825.916-.183-.458.825-.183 1.008.734.641.825-.275 1.283-.916 1.008-1.283-.275-.458.275-.642 1.1-.55.825.183 1.742.733 1.925 1.283"/>
            <path fill="#156B96" d="M172.883 50.142c-.366.733-1.191 1.191-1.925.825-1.008-.367-1.375.091-1.375 1.65 0 1.283.55 2.475 1.192 2.658 1.008.458-2.383 1.008-4.125.733-.458 0-.733 1.1-.733 2.659 0 2.2.366 2.658 1.925 2.475 1.833-.184 1.925.275 1.925 5.958 0 3.483.366 6.233.916 6.233.459 0 .55.367.275.917-.275.458-.091.917.367.917 1.925 0 2.383.183 3.575 1.1.733.641 1.558.641 2.475-.184 1.192-1.008 1.375-.916.825.55-.367 1.284-.092 1.192 1.375-.55 1.742-2.108 1.925-2.2 2.017-.458 0 1.1.275 1.375.55.642.275-.642-.275-2.017-1.1-2.934-1.467-1.65-1.467-1.741.366-1.558 1.1.092 1.925.458 1.925.917 0 .366.367.55.734.275.458-.275.825.091.825.825 0 .733-.459 1.008-.917.733q-.825-.413-.275.55c.367.642 1.467 1.008 2.292.825.916-.183 2.291.275 3.025.917 1.191.916 1.65.825 2.658-.459 1.008-1.191 1.008-1.558.183-1.833-.641-.275-1.191-.825-1.191-1.375s.825-.275 1.833.642c1.008.916 2.108 1.375 2.383 1.1.367-.275 1.467 0 2.567.733 1.008.733 2.658 1.375 3.575 1.375 2.292 0 3.025-2.567 1.1-4.033-1.192-.917-1.467-2.2-1.283-5.775.183-2.567.091-4.492-.184-4.309-.366.184-1.1-1.375-1.65-3.575-1.1-3.758-1.283-3.85-5.225-4.125-3.025-.183-3.941.092-3.483.825.367.734.275.825-.367.459-1.466-.917-4.95 1.1-4.216 2.383.458.642.183.825-.734.458-1.008-.366-1.375 0-1.283.917.275 1.65 3.85 2.567 4.675 1.192.367-.55 1.008-.734 1.467-.367.458.275 1.558 0 2.383-.733 1.65-1.375 2.108-1.375 3.117.275.916 1.558-.734 3.575-2.934 3.575-.916 0-1.925.458-2.2.916-.366.55-1.008.734-1.466.459-.459-.367-1.1.091-1.375.916-.367.825-1.1 1.284-1.742 1.009-.733-.275-1.467.183-1.742.916-.275.825-.091 1.1.367.825.55-.275.917-.091.917.367 0 1.008-1.925 1.375-4.492 1.008-.733-.091-1.558.367-2.017 1.009-1.1 1.833-3.575-.734-3.483-3.667 0-2.108.092-2.2.825-.55.642 1.467.825 1.008.825-1.833.092-2.659-.183-3.3-.825-2.292-.458.733-.917.917-.917.458 0-1.833 1.375-2.933 3.484-2.75 1.833.092 2.016-.183 1.741-2.658-.275-2.292-.733-2.842-2.566-2.842-1.925 0-2.2-.458-2.384-3.208l-.091-3.208.733 3.208.733 3.208-.091-3.116c-.184-3.3-2.75-4.859-3.759-2.2m21.45 17.6c.092-.917.367-.734 1.009.366 1.283 2.2-.642 3.942-4.125 3.85-3.484-.183-4.125-1.925-1.009-2.658 1.559-.367 2.109-1.008 1.65-1.742-.366-.733-.091-.641.917.184 1.283 1.008 1.558 1.008 1.558 0"/>
            <path fill="#156B96" d="M205.975 55.55c-.275.367.092 1.192 1.008 1.833.825.642 1.192 1.467.825 1.834-.366.458-1.1.183-1.65-.55-.55-.917-.825 1.741-.733 8.066.092 8.617.825 11.642 2.108 9.442.275-.458 1.375-.642 2.292-.367s2.017-.091 2.383-.733c.459-.733.367-.917-.275-.458-.825.458-1.1-1.1-1.008-5.592.092-5.133.275-5.683.825-3.025.55 2.383.733 2.658.917 1.1.55-4.767 1.741-6.6 4.216-6.417 1.925.184 2.659 1.375 2.292 3.667 0 .458.367.733.825.733.55 0 .917 2.017.917 4.492 0 4.583.458 5.408 3.483 6.05 1.558.275 1.742-.367 1.925-5.5.092-4.125-.275-6.6-1.283-8.158-1.192-1.742-1.192-2.292-.275-2.75s.916-.642 0-1.1c-.642-.275-1.742-1.1-2.475-1.834-1.467-1.558-8.067-1.466-7.517.092.275.458-.642 1.008-1.925 1.1-1.375 0-1.833-.183-1.192-.642.825-.458.734-.825-.366-1.283-.917-.275-2.109-.183-2.75.367-.825.733-1.284.733-1.559 0-.183-.55-.641-.734-1.008-.367m2.108 7.333c0 .734-.366 1.284-.916 1.284-.459 0-.917-.825-.917-1.925 0-1.009.458-1.559.917-1.284.55.275.916 1.192.916 1.925m0 3.575c0 .734-.366 1.375-.916 1.375-.459 0-.917-.641-.917-1.375 0-.733.458-1.375.917-1.375.55 0 .916.642.916 1.375m0 6.325c0 3.3-1.375 3.667-1.65.459-.091-1.467.184-2.659.734-2.659.458 0 .916 1.009.916 2.2"/>
            <path fill="#156B96" d="M260.7 56.375c-1.1.733-2.292 1.008-2.658.642-.275-.367-.459-.275-.367.275.183.458-.183 1.833-.825 3.025-1.008 1.741-.917 2.108.367 2.658.825.275 1.833 0 2.2-.642 1.1-1.741 5.5-2.016 5.5-.366 0 .733.458 1.283 1.008 1.283 2.292 0-.275 1.467-3.025 1.65-1.65.183-3.117.642-3.3 1.1-.183.55-.825.917-1.467.917-1.65 0-4.491 3.391-3.758 4.491.275.55.092 1.009-.458 1.009s-.734.458-.459.916c.367.55 1.009.734 1.467.459.825-.55 1.283.825.825 2.75-.092.458.183.641.55.275.367-.367 1.283-.184 2.017.458 1.191.917 1.283.825.733-.092-.55-.825 0-1.008 2.2-.641 2.383.458 2.842.275 2.475-.825-.275-.734 0-1.559.733-1.834q1.238-.413.825.825c-.366.917 0 1.1 1.559.734 1.466-.459 1.833-.275 1.283.55-.825 1.466 5.133 1.1 6.142-.367 1.191-1.558.825-2.292-1.009-2.292-2.108 0-3.3-1.466-1.833-2.291 1.1-.734.917-9.259-.275-11.734-.458-.916-1.192-1.375-1.742-1.1-.458.367-.825.275-.733-.183.275-1.742-.183-3.025-1.1-3.025-.458 0-.642.367-.367.917.275.458.092.916-.366.916-.55 0-1.009-.458-1.009-.916 0-1.375-3.025-1.1-5.133.458m4.767 11.917c1.283 3.208-3.575 5.133-6.142 2.566-.733-.733-.183-1.191 1.833-1.65 1.559-.366 2.659-1.008 2.292-1.466-.275-.459 0-.825.55-.825s1.192.641 1.467 1.375"/>
            <path fill="#156B96" d="M278.392 56.192c.366.55 0 .733-.917.366-1.375-.55-1.558.459-1.558 9.442v9.992l2.566-.55c1.375-.275 2.934-.55 3.575-.55.734 0 .825-.55.367-1.467-1.192-2.383-1.1-7.608.183-6.783.642.366.55 0-.183-.917-1.008-1.375-1.008-1.558.183-1.558.734 0 1.284-.642 1.192-1.467 0-1.008.642-1.65 1.925-1.742 1.1-.091 1.833.092 1.65.459-.183.275.458.55 1.375.55s1.467-.367 1.283-.734c-.275-.366.459-1.1 1.65-1.741 1.834-1.009 1.834-1.192.459-2.2-.825-.55-1.375-1.284-1.1-1.559.641-.641-2.475-.641-4.125-.091-.734.366-1.65.641-2.017.733-.458.183-.825.275-.917.458-.825.55-3.391.642-3.025 0 .275-.366-.366-.916-1.375-1.191-1.191-.275-1.65-.092-1.191.55"/>
            <path fill="#156B96" d="M255.017 58.667c-.734 1.191-.734 1.833-.184 1.833s1.192-.642 1.559-1.375c.825-2.2-.092-2.475-1.375-.458"/>
            <path fill="#156B96" d="M149.783 95.975c.367.733.184 1.192-.641 1.192-.734 0-1.559 1.008-1.742 2.2-.367 1.925-.183 2.2 1.925 1.741 1.283-.183 2.017-.091 1.742.275-.367.275 0 1.192.733 1.925s1.008 1.834.642 2.384c-.459.733-.734.733-1.009-.092-.183-.642-.825-1.1-1.375-1.1-1.925 0 1.65 2.75 4.767 3.667l3.117.825-2.017-2.109c-1.008-1.1-1.65-2.383-1.283-2.841.458-.367.183-.459-.55 0-.917.55-1.1.183-.55-1.284.366-1.375.091-2.108-.917-2.475-.825-.366-1.283-1.1-1.008-1.833.275-.642-.275-1.65-1.1-2.383-1.009-.825-1.284-.917-.734-.092"/>
            <path fill="#156B96" d="M173.525 96.067c-.55.366-1.283 1.925-1.558 3.391-.459 2.292-.367 2.384.366.917l.917-1.833-.275 1.833c-.183 1.833-2.933 2.658-2.933.917 0-.55-.642-1.834-1.467-2.934-1.467-2.108-5.5-2.566-4.767-.55.459 1.192 1.559 1.559 3.759 1.284.55-.092 1.1.275 1.1.825s-.367.733-.917.458c-.458-.275-.917 0-.917.642 0 .916-.275.825-1.008-.184-.733-1.1-.825-.825-.367.917.367 1.283 1.742 3.392 3.209 4.767 1.466 1.283 2.291 2.75 2.016 3.116-.366.367-.091.367.55 0 1.009-.55 1.009-1.008 0-2.2-1.008-1.283-.916-1.375.55-.825 1.284.459 1.559.275 1.192-.733-.367-.733-.183-1.558.275-1.833s.642-1.925.458-3.667c-.275-3.483.917-4.95 2.567-3.3.825.825.733 1.008-.458.55-.917-.367-1.65-.275-1.65.183 0 1.559 1.191 2.109 2.475 1.1.916-.825.916-1.375.183-2.291-1.192-1.467-1.742-1.559-3.3-.55"/>
            <path fill="#156B96" d="M183.7 96.342c-.275.55-1.375.825-2.292.55-1.558-.459-1.741.091-1.741 5.133 0 6.692.458 7.425 4.4 7.792 2.291.275 2.933-.092 2.933-1.284 0-1.008-.55-1.375-1.742-1.008-1.283.275-1.65.092-1.283-.825.275-.825 0-1.192-.733-1.008-.734.183-1.009.183-.55 0 1.1-.734.733-4.859-.459-4.95-.641 0-.183-.459 1.009-.917s2.933-.642 3.85-.367c1.008.367 1.741.184 1.741-.458 0-.55-.55-.733-1.1-.458-.641.366-.366-.092.642-.917 1.1-1.008 1.283-1.375.458-1.1-.733.183-2.108 0-2.933-.367-.917-.55-1.742-.458-2.2.184"/>
            <path fill="#156B96" d="M193.05 96.8c-.275.825-.55 4.125-.55 7.333 0 5.317.183 5.867 1.833 5.867 1.834 0 3.942-3.3 3.025-4.858-.183-.367.275-.734 1.009-.734.825-.091 2.016-.183 2.658-.275.55-.091 1.008-1.008.825-2.108s.183-2.2.733-2.567c.734-.458.734-1.008-.091-1.925-1.1-1.375-3.025-.825-2.109.642.275.458-1.008 0-2.841-1.008-3.942-2.2-3.759-2.2-4.492-.367m6.233 3.575c1.467 1.1 1.559 1.375.367 1.375-.733 0-1.925-.642-2.567-1.375-1.466-1.742-.091-1.742 2.2 0"/>
            <path fill="#156B96" d="M207.075 95.792c0 .275 0 3.483-.092 7.058 0 5.958.184 6.692 1.65 6.692 1.192 0 1.742-.642 1.742-2.017.092-2.108 1.833-3.025 1.833-1.008.092.641.642 1.1 1.284.916.733-.183 1.008.275.733 1.192-.367.733-.183 1.375.275 1.375 1.192 0 1.192-2.475-.092-4.767-.916-1.65-.825-1.833.459-1.375 1.925.734 3.208-2.016 1.375-3.025-1.467-.916-4.767.642-4.034 1.925.367.459 0 .825-.733.825s-1.192-.825-1.1-2.108c.092-1.742.642-2.017 3.483-1.925 1.925.092 3.392-.183 3.392-.458-.092-1.559-1.65-2.567-3.667-2.384-1.283.092-2.658-.275-3.025-.825-.55-.733-.916-.641-1.283.092-.183.642-.825 1.192-1.283 1.192-.55 0-.642-.459-.367-.917.275-.55.367-.917.092-.917a.69.69 0 0 0-.642.459m2.108 10.541c.275 1.742 0 2.75-.641 2.75-.642 0-.917-1.008-.642-2.75.458-3.483.825-3.483 1.283 0"/>
            <path fill="#156B96" d="M242.733 96.342c-.916.458-1.65 1.375-1.65 2.016 0 .642.367.55.917-.275.642-1.008.917-.641.917 1.65 0 3.667 1.925 6.142 3.575 4.492 1.466-1.467 1.283-2.75-.459-2.108-.733.275-1.1.183-.825-.367s.092-.917-.366-.917c-1.559 0-1.192-2.475.458-3.116.733-.275 1.192-.184.917.183-.275.458.091.825.825.825.733 0 1.1-.367.825-.825-.275-.367.091-.733.733-.733.825 0 .825-.275-.183-.917-1.742-1.1-3.667-1.1-5.684.092"/>
            <path fill="#156B96" d="M252.542 96.25c-.367.55-.092.825.641.733.642-.183 1.1.275.917 1.009s.275 1.008 1.192.733c1.1-.458 1.375.275 1.375 4.4 0 6.508 1.558 6.6 2.016.092.275-4.95-.641-6.967-2.75-6.234-.55.184-1.1-.091-1.1-.641 0-1.284-1.558-1.284-2.291-.092"/>
            <path fill="#156B96" d="M277.567 95.975c-.184.458-.092 3.392.275 6.692.55 6.508 1.1 5.775.825-1.192-.092-2.658.275-4.308.916-4.308.55 0 .734-.459.459-.917-.642-1.1-2.017-1.192-2.475-.275"/>
            <path fill="#156B96" d="M325.05 97.35c-1.742 2.475-1.833 4.125-.275 4.675.825.275.825.642.092 1.65-1.284 1.558-2.2 6.417-1.192 5.775.458-.275.825-1.192.825-2.108 0-2.384.917-2.934 3.117-1.742 2.658 1.467 4.216 3.117 3.483 3.85-.275.367.183.367 1.008 0 1.559-.55 1.559-.642 0-2.475-.916-1.008-1.191-1.558-.55-1.283.642.458.825 0 .55-1.192-.275-1.008-.091-1.833.367-1.833.733 0 .917-2.934.275-4.584-.092-.275-.183-.733-.092-1.1 0-.366-1.008-.458-2.2-.183-1.283.183-2.291 0-2.291-.55 0-1.558-1.65-1.008-3.117 1.1m4.675 4.858c-.642 1.284-1.742 2.292-2.475 2.2-.917 0-1.008-.183-.183-.55.55-.183 1.1-.825 1.1-1.283 0-.55-.367-.642-.917-.367-.917.55-1.008.459-1.375-2.933-.183-1.925-.092-1.925 2.383-.733 2.292 1.191 2.384 1.558 1.467 3.666"/>
            <path fill="#156B96" d="M339.167 96.25c0 .55-.367.733-.917.458-.55-.366-.917 1.925-.917 6.234v6.875l4.859-.184 4.766-.091.092-4.4c.183-4.492-.917-6.142-1.283-1.834-.092 1.375-.642 2.75-1.192 3.117-.642.367-.733 1.1-.367 1.833.55.825.275.917-1.008.459-.917-.459-2.475-1.009-3.3-1.192-.917-.275-1.65-1.192-1.65-2.017 0-1.283.183-1.283.917-.091.641 1.008.916.275 1.008-2.75.092-2.292.092-4.4 0-4.859-.183-1.283 2.475-.641 3.025.734.275.825 1.008 1.375 1.65 1.283 2.842-.367 3.667.183 3.208 1.925-.275.917.092 2.2.734 2.75.916.733 1.1.367.916-1.925-.275-3.392-2.2-5.5-5.225-5.867-1.1-.183-2.841-.55-3.666-.916-1.009-.367-1.65-.275-1.65.458"/>
            <path fill="#156B96" d="M300.758 97.075c-.641.458-1.925.55-2.841.367-.917-.275-1.834-.092-2.109.366-.458.734 1.009 1.009 5.959 1.284 1.008 0 1.375.55 1.008 1.466-.458 1.1-.183 1.375.917.917 1.008-.367 1.558-.092 1.558.733 0 .734.367 1.375.825 1.375.367 0 .55-1.008.275-2.291-.183-1.284-.825-2.292-1.375-2.292-.458 0-1.375-.642-1.925-1.375-.642-.825-1.467-1.1-2.292-.55"/>
            <path fill="#156B96" d="M223.758 99.183c-.55.917-.733 1.65-.366 1.559 1.741-.275 2.108.183 1.008 1.375-.642.733-1.467 1.1-1.925.825-.367-.184-.642-.092-.55.366.275 1.65-.092 3.117-.733 2.75-.459-.275-.825.55-.917 1.834-.092 1.741.092 2.016.733 1.1.55-.917.825-.917.825-.184 0 .642.459 1.192 1.009 1.192.458 0 .641-.458.275-1.008-.459-.734.275-.917 2.291-.642 1.65.275 3.117.092 3.392-.367s1.283-.183 2.2.642c1.1 1.008 1.833 1.192 2.292.55.275-.55.091-1.008-.367-1.008-.55 0-.917-.55-.733-1.192.091-.55-.367-1.008-1.009-.825-.641.092-1.1-.275-1.008-.917.367-2.933-.092-3.758-1.375-2.566-.733.55-1.1 1.65-.825 2.383s-.092 1.283-.917 1.283c-1.375 0-2.933-2.658-2.016-3.483.275-.275.458 0 .458.642 0 .641.458.825.917.55.55-.367.733-1.009.458-1.467-.367-.458.092-1.1.917-1.375 1.008-.458 1.191-.917.458-1.742-.458-.55-.733-1.283-.458-1.466.183-.275-.367-.459-1.284-.459-1.008 0-2.2.734-2.75 1.65"/>
            <path fill="#156B96" d="M286.917 100.833c0 3.392-.184 3.667-1.742 2.75-2.658-1.375-1.925 1.192 1.283 4.309 1.467 1.375 2.292 2.108 2.017 1.466-.367-.55-.092-1.283.458-1.466q1.238-.55-.275-.55c-1.191-.092-1.375-1.009-1.008-5.134.183-2.75.183-5.041-.183-5.041-.275 0-.55 1.65-.55 3.666"/>
            <path fill="#156B96" d="M311.117 100.008c-1.375 2.659-1.375 2.934-.092 1.925 1.283-1.1 1.742-.916 3.117.734.916 1.1 2.108 2.475 2.658 3.116.55.55.733 1.65.55 2.384-.367 1.1-.275 1.191.917.183 1.741-1.375 1.1-5.133-.642-4.4-.733.275-1.467-.183-1.742-.917-.825-2.108-.733-2.2 1.1-1.558.825.275.55-.275-.733-1.192s-2.567-2.016-2.842-2.475c-.366-.55-1.375.459-2.291 2.2"/>
            <path fill="#156B96" d="M267.025 99.367c.367.916.092 1.191-.642.916-1.925-.733-2.658 3.942-1.008 6.325l1.375 1.925v-2.016c0-1.284.733-2.384 2.108-2.934 1.1-.458 1.559-.825.917-.825-1.375-.091-.917-2.75.733-3.85.917-.55.55-.825-1.375-.825-1.833 0-2.475.367-2.108 1.284"/>
            <path fill="#156B96" d="M279.583 98.817c0 .55.459 1.283.917 1.558.55.367.642 1.008.367 1.558-.459.734-.092.825.916.459.917-.367 2.017-.642 2.567-.642s.458-.55-.183-1.375c-.642-.825-1.375-1.192-1.65-.917s-1.009 0-1.742-.55c-.825-.733-1.192-.733-1.192-.091"/>
            <path fill="#156B96" d="M184.617 101.842c-.459.825-.184.916 1.008.55 1.283-.55 1.467-.275 1.1 1.191-.275 1.284-.092 1.834.55 1.559 1.65-.55 1.283-3.759-.458-4.125-.825-.184-1.834.183-2.2.825"/>
            <path fill="#156B96" d="M146.392 103.308c-1.009 1.009-.734 3.942.366 3.942.55 0 .825-.825.55-1.742q-.412-1.787 1.1-2.2c1.284-.366 1.284-.458 0-.55-.825 0-1.741.184-2.016.55"/>
            <path fill="#156B96" d="M271.058 104.225c-.825 1.833.092 3.392 2.384 4.033 1.466.367 2.291.275 1.925-.183-.275-.458-1.1-.825-1.834-.825-1.191 0-1.65-1.1-1.375-3.025 0-.367-.091-.642-.275-.642-.275 0-.641.275-.825.642"/>
            <path fill="#156B96" d="M303.233 105.142c-.275 1.008-1.008 1.833-1.741 1.925-.734.091-2.384.275-3.759.458-1.375.092-2.841.642-3.208 1.008-.367.459-.275.55.367.184.55-.275 1.283-.184 1.65.366.275.459 1.375.917 2.383.917 1.283 0 1.65-.367 1.192-1.192-.459-.641 0-.55 1.008.275.917.734 1.467.917 1.1.275-.367-.55-.275-1.283.275-1.65.458-.275.917 0 .917.642 0 .733.458.55 1.008-.458.55-.917.642-2.109.092-3.025-.734-1.284-.917-1.284-1.284.275"/>
            <path fill="#156B96" d="M246.583 106.333c-.55 1.009-1.65 1.834-2.383 1.834s-1.192-.367-.917-.734c.275-.458-.091-.825-.733-.825-.733 0-1.008.734-.733 1.742.458 1.833 2.383 1.833 6.875 0 2.75-1.192 3.208-2.475 1.008-3.3-2.017-.733-2.017-.733-3.117 1.283"/>
            <path fill="#156B96" d="M199.375 107.25c.183.733.367 1.65.367 2.017.091.458.55.733 1.1.733s.733-.642.458-1.558c-.367-.825-.092-1.834.55-2.2.733-.459.55-.734-.733-.642-1.284.092-1.834.733-1.742 1.65"/>
            <path fill="#156B96" d="M307.542 107.158c-.734 2.475-.184 3.3 1.191 1.65.55-.641.642-1.65.275-2.383-.641-.917-.916-.733-1.466.733"/>
            <path fill="#156B96" d="M262.808 106.975c-1.191 1.192-.641 3.025 1.009 3.025 1.283 0 1.375-.183.183-.917-1.192-.825-1.192-1.008 0-1.833.733-.458.917-.917.367-.917s-1.284.275-1.559.642"/>
            <g filter="url(#c50d3a08-aafd-4c22-903a-6975d12d4ac6)">
                <path fill="#156B96" d="M233.933 1.1c.642 1.742 3.484 2.017 3.484.367 0-.917-.825-1.467-1.925-1.467s-1.742.458-1.559 1.1"/>
                <path fill="#156B96" d="M287.375.733c.367.367 1.008.734 1.467.734.458.091 1.283.183 1.741.275.55.091.917 5.775.917 15.125 0 8.341.275 15.308.733 15.491.367.275.55-6.691.367-15.491-.183-11.642-.55-15.95-1.375-16.042-.642 0-1.833-.183-2.75-.367-1.008-.183-1.467 0-1.1.275"/>
                <path fill="#156B96" d="M324.5.917c0 .458.825.916 1.833.916s1.834-.458 1.834-.916c0-.55-.825-.917-1.834-.917-1.008 0-1.833.367-1.833.917"/>
                <path fill="#156B96" d="M383.167.917c-.459 5.041.091 31.166.641 31.166.367 0 .825-6.783 1.009-15.125.275-15.216.275-15.583 3.575-15.216.55.091 1.283-.184 1.466-.55.275-.459-1.1-.734-3.116-.734-1.925 0-3.575.184-3.575.459"/>
                <path fill="#156B96" d="M164.908 1.192c-.641 1.375-.55 4.308.092 4.766.55.275.642-.091.367-.825-.367-1.008.183-1.741 1.558-2.2l2.108-.825-2.016-.458c-1.1-.367-2.017-.458-2.109-.458"/>
                <path fill="#156B96" d="M143 3.392c0 1.008.275 1.283.733.641.367-.55 1.284-1.283 2.017-1.558.917-.367.733-.55-.642-.55-1.466-.092-2.108.458-2.108 1.467"/>
                <path fill="#156B96" d="M171.05 3.208c.367.734.917 1.1 1.375.825 1.283-.733.917-2.2-.55-2.2-.825 0-1.1.55-.825 1.375"/>
                <path fill="#156B96" d="M230.083 9.35c0 1.925.184 3.483.367 3.483.825 0 1.1-4.583.458-5.683-.55-.733-.825.092-.825 2.2"/>
                <path fill="#156B96" d="M167.933 9.717c-.641 1.283-.641 2.291 0 3.208.734 1.008.825 1.008.459-.275-.275-.825-.092-1.65.458-1.833s.825-1.009.55-1.65c-.367-1.1-.642-.917-1.467.55"/>
                <path fill="#156B96" d="M225.5 10.45c0 .733.458 1.65.917 1.925.55.275.916-.275.916-1.283 0-1.1-.366-1.925-.916-1.925-.459 0-.917.55-.917 1.283"/>
                <path fill="#156B96" d="M337.333 10.083c0 .642-.641.917-1.375.642-.733-.367-1.558-.183-1.833.275-.275.367.55.642 1.833.458 2.842-.275 3.667-1.008 2.384-1.833-.55-.275-1.009-.092-1.009.458"/>
                <path fill="#156B96" d="M145.933 12.375c.55 1.192 1.375 2.017 1.742 1.742.458-.184.092-1.284-.825-2.2-2.017-2.384-2.2-2.292-.917.458"/>
                <path fill="#156B96" d="M316.617 12.1c.275.825 0 1.65-.459 1.833-.55.184-.641 1.1-.275 2.017.642 1.65.734 1.65 1.467-.275.458-1.283.367-2.658-.275-3.575-.917-1.467-.917-1.467-.458 0"/>
                <path fill="#156B96" d="M214.958 12.833c-.366.55-1.1.642-1.65.275-.825-.458-.825-.275 0 .734.642.825 1.192 4.95 1.375 9.625l.275 8.158.459-9.9c.275-5.408.366-9.808.275-9.808-.092 0-.459.458-.734.916"/>
                <path fill="#156B96" d="M254.467 12.65c-.275.458.733.733 2.2.642 3.666-.184 4.216-.917.916-1.192-1.466-.092-2.841.183-3.116.55"/>
                <path fill="#156B96" d="M397.833 12.558c.734.275 1.65 1.009 2.017 1.559.458.641.733.366.733-.642s-.641-1.558-2.016-1.467c-1.467 0-1.65.184-.734.55"/>
                <path fill="#156B96" d="M412.958 12.833c-.275.459.092.917.825.917.734 0 1.65-.458 1.925-.917.275-.55-.091-.916-.825-.916-.733 0-1.65.366-1.925.916"/>
                <path fill="#156B96" d="M422.125 13.108c.642 1.467 3.392 1.742 2.933.275-.183-.55-1.008-1.1-1.833-1.283-1.008-.183-1.375.092-1.1 1.008"/>
                <path fill="#156B96" d="M446.508 12.192c.184.091 1.1.825 2.017 1.466 1.283 1.1 1.558 1.009 1.558-.275 0-.916-.733-1.466-2.016-1.466-1.1 0-1.742.091-1.559.275"/>
                <path fill="#156B96" d="M234.483 15.033c-.275 1.284 0 2.475.642 2.659.642.275.917-.459.642-2.2-.459-3.209-.734-3.3-1.284-.459"/>
                <path fill="#156B96" d="M364.467 13.567c.641.366 1.283 1.65 1.558 2.933.367 1.925.367 1.833.55-.733.092-2.2-.275-2.934-1.467-2.934-1.1 0-1.283.275-.641.734"/>
                <path fill="#156B96" d="M432.117 14.208c-.275.55-.275 4.767-.092 9.259l.275 8.158.367-8.708.366-8.709.55 8.709.459 8.708.458-9.258c.367-7.334.183-9.259-.733-9.259-.734 0-1.467.55-1.65 1.1"/>
                <path fill="#156B96" d="M153.908 14.667c-.366.733.184 2.2 1.1 3.116 1.559 1.559 1.742 1.65 1.742.275 0-.825-.367-1.558-.825-1.558s-1.008-.733-1.192-1.65c-.275-1.283-.458-1.283-.825-.183"/>
                <path fill="#156B96" d="M160.142 14.392c-.275.458-.092 1.558.366 2.566.367 1.009.734 1.375.734.734.091-.55.366-1.65.641-2.475.55-1.467-1.008-2.109-1.741-.825"/>
                <path fill="#156B96" d="M210.283 14.483c.275.55-.275 1.467-1.283 2.017s-1.833 1.375-1.833 1.833c0 1.192 3.483-1.008 4.033-2.475.275-.641 0-1.375-.55-1.741-.642-.367-.733-.275-.367.366"/>
                <path fill="#156B96" d="M222.475 14.392c-1.008.916-.733 1.833.642 2.383.916.367 1.1 0 .825-1.283-.55-1.925-.642-2.017-1.467-1.1"/>
                <path fill="#156B96" d="M218.442 19.708c0 3.025.183 4.125.366 2.475.184-1.65.184-4.125 0-5.5-.183-1.375-.366 0-.366 3.025"/>
                <path fill="#156B96" d="M239.158 14.85c-.55 1.742-.55 6.875.092 8.433.642 1.375.825.55.825-3.391.092-2.842-.092-5.225-.367-5.225s-.458.091-.55.183"/>
                <path fill="#156B96" d="M245.117 23.833c0 5.317.091 7.425.275 4.767.183-2.567.183-6.967 0-9.625-.184-2.567-.275-.458-.275 4.858"/>
                <path fill="#156B96" d="M260.7 17.325c.825.917 1.192 1.925.825 2.2-.275.367-.092.642.458.642 1.742 0 .642-3.942-1.1-4.217-1.466-.183-1.466-.092-.183 1.375"/>
                <path fill="#156B96" d="M271.883 16.867c.275.825.092 1.466-.366 1.466-.55 0-.917.825-.825 1.742 0 .917.55 1.558 1.191 1.283 1.192-.458 1.467-4.675.275-5.408-.458-.275-.55.183-.275.917"/>
                <path fill="#156B96" d="M308.917 17.142c0 .916.458 2.291.916 3.025.642 1.008.917.641.917-1.65 0-1.559-.367-2.934-.917-2.934-.458 0-.916.734-.916 1.559"/>
                <path fill="#156B96" d="M342.833 16.683c0 1.375 2.75 3.759 3.484 3.117.275-.367 0-1.008-.642-1.375-.642-.458-1.008-1.192-.733-1.65s0-.917-.734-.917c-.733 0-1.375.367-1.375.825"/>
                <path fill="#156B96" d="M358.325 16.775c.733.917 1.283 3.85 1.283 6.875.092 3.025.55 5.775 1.284 6.417.641.733 1.008 1.65.733 2.108-.367.458-.183.825.275.825 1.1 0 1.1-4.492.092-5.133-.459-.275-.825-2.475-.825-4.859 0-3.391-.459-4.766-2.017-6.141-1.742-1.467-1.833-1.467-.825-.092"/>
                <path fill="#156B96" d="M416.717 16.958q-.413 1.238.825.825c.641-.275 2.108-.091 3.116.55 1.1.55 1.925.734 1.925.55 0-.275-1.191-1.1-2.658-1.833-2.292-1.192-2.75-1.192-3.208-.092"/>
                <path fill="#156B96" d="M441.65 16.867c-1.467.458-2.567 1.466-2.567 2.108s-.366 1.192-.916 1.192c-.459 0-.917.366-.917.733 0 .458.642.825 1.375.825s1.1-.275.917-.642c-.275-.366.366-1.375 1.283-2.291 1.925-1.65 5.317-1.467 4.95.275-.275 1.191 1.192 1.558 1.833.366.275-.366-.458-1.283-1.558-2.108-1.467-1.1-2.475-1.192-4.4-.458"/>
                <path fill="#156B96" d="M278.942 17.783c-1.1.642-1.742 1.467-1.375 2.017.366.458 1.558-.092 2.658-1.192 2.2-2.291 1.833-2.566-1.283-.825"/>
                <path fill="#156B96" d="M374.458 17.325c-.275.55-.916.825-1.375.55-.825-.55-2.108 1.1-2.383 3.117-.183.733.458.458 1.467-.642 1.191-1.192 2.475-1.742 3.85-1.375 1.191.275 1.741.092 1.191-.367-.458-.366-1.191-1.1-1.466-1.466-.367-.459-.917-.275-1.284.183"/>
                <path fill="#156B96" d="M403.517 22.733c-.092 3.392.183 5.5.458 4.767s1.008-1.742 1.558-2.108c.734-.55.642-.917-.091-1.284-.642-.183-1.192-1.191-1.192-2.108s.55-1.925 1.192-2.108c.825-.367.825-.55-.092-.55-.642-.092-1.008-.459-.642-.917.275-.458.092-1.1-.275-1.375-.458-.275-.825 2.292-.916 5.683"/>
                <path fill="#156B96" d="M230.175 24.933c0 4.492.183 8.067.642 8.067.366 0 .55-2.567.366-5.683-.458-9.809-.825-10.725-1.008-2.384"/>
                <path fill="#156B96" d="M157.85 19.8c-.917 1.008-.917 1.742-.183 2.933.733 1.009.916 1.1.641.184-.183-.734.275-1.834 1.009-2.384s1.008-1.191.55-1.466c-.459-.275-1.375 0-2.017.733"/>
                <path fill="#156B96" d="M226.142 18.975c-1.009.917-.734 12.192.275 12.192.55 0 .916-2.75.916-6.417 0-6.417-.091-6.967-1.191-5.775"/>
                <path fill="#156B96" d="M316.892 18.975c-1.192 1.1-.642 3.942.733 3.942.733 0 1.375-.459 1.375-.917 0-.55-.458-.917-1.008-.917s-.825-.641-.459-1.375c.55-1.466.275-1.741-.641-.733"/>
                <path fill="#156B96" d="M200.842 21.083c-.55 3.85-.459 11.734.183 11.092.367-.367.55-3.392.367-6.6s-.367-5.225-.55-4.492"/>
                <path fill="#156B96" d="M366.025 25.667c0 3.3.183 4.583.367 2.933.183-1.558.183-4.308 0-5.958-.184-1.559-.367-.275-.367 3.025"/>
                <path fill="#156B96" d="M347.967 21.817c-.184.366.55.733 1.833.733 1.192 0 2.2-.367 2.2-.733 0-.367-.825-.734-1.742-.734-1.008 0-2.016.367-2.291.734"/>
                <path fill="#156B96" d="M411.583 22.458c0 .55.642 1.1 1.375 1.1.734 0 1.375-.55 1.375-1.1s-.641-1.1-1.375-1.1c-.733 0-1.375.55-1.375 1.1"/>
                <path fill="#156B96" d="M336.417 22.825c0 .458.641 1.1 1.466 1.375.734.275 1.1.917.825 1.467-.275.458-.091.916.367.916 1.467 0 1.192-1.466-.458-3.116s-2.2-1.834-2.2-.642"/>
                <path fill="#156B96" d="M439.267 25.667c0 1.741.183 2.475.458 1.558.183-.825.183-2.292 0-3.208-.275-.825-.458-.092-.458 1.65"/>
                <path fill="#156B96" d="M271.517 24.292c.366.366.275 1.283-.184 1.833-.733.825-.55 1.283.459 1.742 1.741.641 1.925-2.659.275-3.667-.642-.367-.917-.367-.55.092"/>
                <path fill="#156B96" d="M286.917 24.567c0 .458-1.1 1.191-2.475 1.741-2.292.825-2.384.917-.459.917 2.109-.092 6.05-3.392 4.034-3.392-.642 0-1.1.367-1.1.734"/>
                <path fill="#156B96" d="M330.733 25.667c-1.466 1.65-1.466 1.741.092 1.558.825 0 1.65-.825 1.65-1.742.183-1.925.275-1.925-1.742.184"/>
                <path fill="#156B96" d="M176 25.392c0 2.658 4.675 5.041 5.958 3.025.367-.55-.091-.642-1.008-.275-1.008.366-2.108-.184-3.208-1.65-.917-1.192-1.742-1.742-1.742-1.1"/>
                <path fill="#156B96" d="M353.558 26.492c-.275 1.1-.091 1.925.275 1.925 1.284 0 1.742-1.375 1.009-2.659-.55-.825-.917-.641-1.284.734"/>
                <path fill="#156B96" d="M238.7 27.042c.367 2.2 1.467 2.75 1.467.641 0-1.1-.367-2.016-.825-2.016-.459 0-.734.641-.642 1.375"/>
                <path fill="#156B96" d="M407 26.033c0 .184.642.825 1.375 1.467 1.1.917 1.375.917 1.375-.367 0-.825-.642-1.466-1.375-1.466s-1.375.183-1.375.366"/>
                <path fill="#156B96" d="M278.3 27.408c-.275.459.458 1.009 1.742 1.192q4.125.825.55-1.1c-1.009-.55-2.017-.55-2.292-.092"/>
                <path fill="#156B96" d="M174.167 30.8c0 .733.458 1.1.916.825.55-.275.917-.092.917.367 0 .55.458 1.008.917 1.008 1.558 0 1.008-1.283-.917-2.567-1.558-.916-1.833-.916-1.833.367"/>
                <path fill="#156B96" d="M273.808 30.708c.184.734 1.284 1.559 2.292 1.925 2.842.825 2.75 0-.183-1.65-2.017-1.191-2.567-1.191-2.109-.275"/>
                <path fill="#156B96" d="M252.633 31.625c-.275.825-.183 1.192.275.917.459-.275 1.1-.092 1.467.458.275.458 1.283.917 2.108.825 1.284 0 1.284-.183.184-.55-.734-.275-1.834-1.1-2.384-1.742-.916-1.191-1.191-1.1-1.65.092"/>
                <path fill="#156B96" d="M283.342 32.267c-1.192 1.925-1.192 2.016.091.916.825-.641 2.109-.916 2.934-.55.825.275 1.466.184 1.466-.366 0-.734-2.016-2.017-3.025-2.017-.091 0-.733.917-1.466 2.017"/>
                <path fill="#156B96" d="M388.3 31.533c.642 1.65 2.383 1.559 2.75-.183.092-.642 0-.733-.275-.183-.275.733-.825.641-1.742-.092-1.1-.917-1.191-.825-.733.458"/>
                <path fill="#156B96" d="M392.792 32.083c-.275.459-.459.917-.275 1.009 1.741.366 4.675.825 4.308.55-.183-.092-1.008-.734-1.925-1.375-1.008-.825-1.65-.917-2.108-.184"/>
                <path fill="#156B96" d="M153.358 44.642c0 .641.734 1.191 1.559 1.191s1.558-.55 1.558-1.191c0-.642-.733-1.192-1.558-1.192s-1.559.55-1.559 1.192"/>
                <path fill="#156B96" d="M245.667 43.908c0 1.192 4.583 1.834 5.225.642.275-.55.275-.733-.092-.367-.458.367-1.742.275-2.933-.183-1.192-.458-2.2-.55-2.2-.092"/>
                <path fill="#156B96" d="M311.667 44.275c-2.017 1.008-2.292 1.833-2.567 6.417-.183 2.841.183 5.958.642 6.783.733 1.192.916-.183 1.008-5.5v-7.15l2.383.275c1.375.183 2.659-.275 2.842-.917.55-1.375-1.375-1.375-4.308.092"/>
                <path fill="#156B96" d="M313.592 55.458c-.092 5.225.275 8.709.825 8.709s.916-3.575.916-8.709c0-4.766-.366-8.708-.825-8.708s-.916 3.942-.916 8.708"/>
                <path fill="#156B96" d="M174.808 51.058c.734 4.95 1.65 5.5 1.559.917-.092-2.017-.55-3.942-1.1-4.125-.642-.183-.825.917-.459 3.208"/>
                <path fill="#156B96" d="M171.417 49.5c-.734.458-1.009 1.1-.642 1.467.367.366 1.192.183 1.742-.367 1.375-1.375.641-2.2-1.1-1.1"/>
                <path fill="#156B96" d="M149.417 52.525c0 1.558 3.3 4.675 3.941 3.667.184-.367-.55-1.65-1.741-2.842q-2.2-2.062-2.2-.825"/>
                <path fill="#156B96" d="M234.667 56.008c0 .459-.367.734-.825.459-.459-.275-1.1.091-1.375.825-.367 1.191-.184 1.283 1.283.458 1.65-.917 2.567-2.75 1.375-2.75-.275 0-.458.458-.458 1.008"/>
                <path fill="#156B96" d="M180.4 56.558c-.275.367-.183 1.742.183 3.025l.55 2.292.734-2.2c.733-2.017-.642-4.767-1.467-3.117"/>
                <path fill="#156B96" d="M206.525 56.467c-.642.275-.825 1.1-.55 1.833.733 1.925 2.017 1.558 1.833-.55-.091-1.008-.091-1.833-.183-1.742 0 0-.458.275-1.1.459"/>
                <path fill="#156B96" d="M242.367 57.658c1.008 1.009 2.016 1.65 2.291 1.284.275-.367 1.009-1.1 1.467-1.467.55-.458.367-.642-.458-.367-.734.184-2.2 0-3.209-.55-1.833-.916-1.833-.916-.091 1.1"/>
                <path fill="#156B96" d="M258.5 56.925c0 .458-.367.642-.917.367-.458-.275-.916.091-.916.825 0 .733-.642 1.741-1.467 2.2-.825.458-1.1 1.1-.642 1.375s1.925-.917 3.3-2.659c1.467-1.741 2.109-3.116 1.559-3.116-.459 0-.917.458-.917 1.008"/>
                <path fill="#156B96" d="M199.008 59.308c.55 1.375 1.284 5.042 1.65 7.975.367 3.667 1.009 5.592 1.925 5.867 1.1.367 1.192.183.275-.825-.55-.733-1.191-3.85-1.375-6.967-.091-3.116-.55-5.408-1.008-5.133s-.642-.275-.458-1.1c.183-.917-.275-1.833-.917-2.017-.825-.366-.917.092-.092 2.2"/>
                <path fill="#156B96" d="M291.958 58.483c.825.825-3.208 3.025-4.4 2.384-.825-.459-.825-.367-.091.458.641.733 1.65.825 3.3.183 2.566-1.008 4.033-3.483 2.016-3.483-.733 0-1.1.275-.825.458"/>
                <path fill="#156B96" d="M191.858 60.775q-.412.825.55.275c.55-.367 1.284 0 1.559.733.275.825.916 1.284 1.375 1.009 1.1-.734 0-2.934-1.559-2.934-.733 0-1.65.459-1.925.917"/>
                <path fill="#156B96" d="M224.583 61.417c.55 1.008 1.192 1.833 1.375 1.833s.275-.825.184-1.833-.642-1.834-1.284-1.834c-1.008 0-1.008.459-.275 1.834"/>
                <path fill="#156B96" d="M163.167 61.325c0 .458.366 1.1.825 1.467.55.275.733 1.283.55 2.291-.184 1.1.183 1.834.916 1.834.825 0 1.009-.642.642-2.109-.55-2.2-2.933-5.041-2.933-3.483"/>
                <path fill="#156B96" d="M188.375 61.417c-.367.55-1.192.825-1.925.55-1.467-.55-1.742.916-.367 1.741 1.009.642 4.217-2.108 3.392-2.841-.275-.275-.733 0-1.1.55"/>
                <path fill="#156B96" d="M206.25 62.242c0 1.1.458 1.925.917 1.925.55 0 .916-.55.916-1.284 0-.733-.366-1.65-.916-1.925-.459-.275-.917.275-.917 1.284"/>
                <path fill="#156B96" d="M243.1 62.517c.642 1.466 1.467 2.566 1.833 2.566.367 0 .459.642.184 1.375-.367.734-.092 1.375.366 1.375 1.559 0 .459-3.85-1.65-5.866L242 60.042z"/>
                <path fill="#156B96" d="M300.85 61.692c-1.65 2.016-2.017 5.958-.55 6.508 1.008.367 1.192.183.458-1.008-.55-1.1-.458-2.384.459-4.125 1.375-2.75 1.191-3.3-.367-1.375"/>
                <path fill="#156B96" d="M210.925 69.117c-.092 4.766.183 6.141.917 5.408.733-.733.825-2.567.183-6.417l-.917-5.316z"/>
                <path fill="#156B96" d="M310.017 66c0 1.742.183 2.475.458 1.558.183-.825.183-2.291 0-3.208-.275-.825-.458-.092-.458 1.65"/>
                <path fill="#156B96" d="M157.942 66.367c.733 1.466 1.283 1.925 1.741 1.191.367-.641.275-1.283-.183-1.375-.55-.183-.733-.733-.367-1.191.275-.459-.091-.825-.825-.825-1.1 0-1.191.366-.366 2.2"/>
                <path fill="#156B96" d="M281.783 69.3c.184 4.4 0 5.317-1.466 5.683-2.384.55-2.017 2.2.458 1.834 1.833-.275 2.017-.825 2.2-6.509.092-3.391-.183-6.141-.642-6.141-.366 0-.641 2.291-.55 5.133"/>
                <path fill="#156B96" d="M206.25 66.458c0 .734.458 1.375.917 1.375.55 0 .916-.641.916-1.375 0-.733-.366-1.375-.916-1.375-.459 0-.917.642-.917 1.375"/>
                <path fill="#156B96" d="M219.083 70.125c0 3.575.367 4.95 1.192 4.767.55-.092 1.008.366.825 1.008-.092.733.733 1.1 2.383.917 3.3-.275 3.484-2.292.275-2.2-2.2.091-2.383-.184-2.658-4.767-.367-6.325-2.017-6.142-2.017.275"/>
                <path fill="#156B96" d="M228.525 66.825c0 1.008.458 1.558.825 1.375 1.008-.642.917-3.117-.092-3.117-.55 0-.825.825-.733 1.742"/>
                <path fill="#156B96" d="M256.025 67.1c-2.842 2.017-4.125 5.317-2.017 5.317.459 0 .642-.459.367-1.009-.733-1.1 2.108-4.491 3.85-4.491.642 0 1.192-.459 1.192-.917 0-1.192-.092-1.192-3.392 1.1"/>
                <path fill="#156B96" d="M175.175 67.925c-.092 2.383 2.2 5.317 3.3 4.217.275-.367-.183-.825-1.008-1.192-.825-.275-1.284-.825-1.1-1.192.183-.275 0-1.375-.459-2.383-.641-1.65-.733-1.558-.733.55"/>
                <path fill="#156B96" d="M148.042 68.383c.825.825 1.741 1.192 2.108.917.275-.367 0-1.008-.733-1.467-2.2-1.375-3.025-1.008-1.375.55"/>
                <path fill="#156B96" d="M194.333 68.475c0 1.192.459 2.108.917 2.108 1.192 0 1.192-1.008 0-2.75-.733-1.1-.917-1.008-.917.642"/>
                <path fill="#156B96" d="M165.092 69.942c-.092.916-.459 1.375-1.009 1.1-.458-.275-.916-.092-.916.55 0 .641-.734 2.016-1.559 3.025-.825 1.1-.183.641 1.467-.917 1.742-1.65 2.842-3.483 2.567-4.125-.367-.917-.55-.733-.55.367"/>
                <path fill="#156B96" d="M206.067 72.875c-.275 1.283.091 2.75.825 3.3 1.65 1.467 2.016.917 1.466-2.658-.55-3.484-1.741-3.85-2.291-.642"/>
                <path fill="#156B96" d="M271.15 71.133c-1.1 1.009.092 2.2 2.108 2.2 1.009 0 1.559-.458 1.284-.916-.367-.55-.917-.734-1.375-.459-.367.275-.917 0-1.1-.55-.184-.458-.642-.641-.917-.275"/>
                <path fill="#156B96" d="M313.683 73.242c.275 1.833 0 2.475-.733 2.2-.642-.184-1.375 0-1.742.55-.641 1.1 2.2 1.375 3.85.275 1.192-.734.459-5.684-.825-5.684-.55 0-.733 1.192-.55 2.659"/>
                <path fill="#156B96" d="M180.4 72.6c.825 1.008.917 1.65.183 2.108-1.191.734-1.191 2.292 0 2.292.55 0 .917-.642.917-1.375s.642-1.375 1.467-1.375 1.1.458.733 1.1-.275.825.092.458c1.191-1.1 1.283-3.116.091-3.116-.55 0-1.833-.367-2.841-.825-1.559-.642-1.65-.55-.642.733"/>
                <path fill="#156B96" d="M144.833 72.967c0 .275.55 1.1 1.284 1.833 1.191 1.1 1.375 1.1 1.191-.55-.091-1.558-2.475-2.842-2.475-1.283"/>
                <path fill="#156B96" d="M190.667 73.15c0 .642.458 1.1.916 1.1.55 0 .917.458.917 1.008 0 .459-.55.642-1.1.275-.642-.366-.917-.366-.55.092.367.367 2.292.733 4.308.825 3.025.183 3.392 0 2.109-.917-.825-.641-1.834-.916-2.292-.641s-1.558-.275-2.567-1.192c-1.008-.917-1.741-1.1-1.741-.55"/>
                <path fill="#156B96" d="M242.917 74.342c0 .458-.642.825-1.467.825-.733 0-1.1.458-.733 1.008.366.733.825.733 1.558 0 1.192-1.192 3.758-1.375 3.025-.275-.275.458.733.825 2.2.733 1.558-.091 2.75-.55 2.658-1.008-.091-.55-.55-.825-1.008-.642-.55.184-2.2-.183-3.575-.641-1.65-.55-2.658-.55-2.658 0"/>
                <path fill="#156B96" d="M253.55 74.433c.275.367 1.283 1.192 2.292 1.742 1.65.825 1.741.733.733-.825-.55-.917-1.65-1.742-2.292-1.742s-1.008.367-.733.825"/>
                <path fill="#156B96" d="M174.258 97.075c-1.008 1.008-2.016 1.558-2.2 1.283-.275-.275-.275.459 0 1.467.367 1.558.184 1.833-1.1 1.283-1.191-.366-1.466-.275-1.008.55.458.642 1.283.917 1.925.642 1.833-.642 2.383.458 1.1 2.017-.917 1.191-.825 1.283.092.733 1.65-1.008 4.216-6.142 2.841-5.867-.55.184-1.283-.275-1.466-.916-.275-.825.091-1.1 1.1-.917.916.183 1.833-.275 2.016-.917.642-1.65-1.375-1.283-3.3.642"/>
                <path fill="#156B96" d="M187.092 96.892c.825.916.55 1.375-1.1 2.016-1.192.459-1.559.917-.825.917.733 0 2.2-.55 3.116-1.283 1.009-.734 1.284-1.375.642-1.375s-.917-.367-.642-.734c.275-.458-.091-.825-.825-.825-1.008 0-1.1.367-.366 1.284"/>
                <path fill="#156B96" d="M196.167 96.25c0 .275.916.917 2.108 1.467 1.742.825 2.108.641 2.2-.734.092-1.191-.458-1.558-2.108-1.466-1.192.091-2.2.458-2.2.733"/>
                <path fill="#156B96" d="M207.258 96.617c-1.65 2.016-.916 11.916.917 12.283 1.1.183 1.375-.367.917-2.75l-.459-3.025-.641 2.75c-.459 2.108-.642 1.375-.734-2.933q-.137-5.638 1.1-6.05c.55-.184.825-.642.55-1.009s-1.1 0-1.65.734"/>
                <path fill="#156B96" d="M210.833 96.067c0 .366.825.733 1.834.825 1.008.091 1.833-.184 1.833-.459 0-.366-.825-.733-1.833-.825s-1.834.184-1.834.459"/>
                <path fill="#156B96" d="M255.383 95.975c-.366.458-1.191.733-1.65.733-.55 0-1.191.55-1.466 1.192-.275 1.008.183 1.008 2.2-.092 2.291-1.191 2.841-1.191 3.85-.091 1.466 1.558 2.933.916 2.933-1.284 0-1.375-.183-1.375-1.008-.183-.734 1.008-1.1 1.1-1.467.183-.458-1.191-2.383-1.466-3.392-.458"/>
                <path fill="#156B96" d="M287.65 99.825c.183 2.475-.092 5.225-.642 6.325-.825 1.558-.733 1.742.825 1.375 1.559-.458 1.834-1.283 1.834-5.775 0-3.575-.367-5.5-1.192-5.775-1.008-.367-1.192.458-.825 3.85"/>
                <path fill="#156B96" d="M294.342 96.617c-.55.641-.917 3.941-.917 7.241.092 5.409.275 6.142 1.925 6.142.917 0 1.467-.458 1.192-.917-.367-.55-1.009-.641-1.559-.366-.641.366-.733.183-.366-.459.366-.55 1.1-.825 1.558-.55.458.367.825-1.65.825-4.583 0-3.667-.275-4.95-1.1-4.492-.642.367-.733.275-.367-.366.917-1.467 3.575-1.375 2.75 0-.55.916-.366.916.642 0 1.742-1.559 2.2-1.375 2.567.916.825 5.592.458 9.442-.825 9.167-.734-.183-1.009 0-.642.367 1.283 1.283 3.392 1.191 3.392-.184 0-.825.458-1.1 1.191-.733.917.55.917.367 0-.642-.641-.641-1.191-1.833-1.191-2.658.091-1.1.275-1.1 1.008.275 1.375 2.383 2.658 1.008 1.467-1.558-.55-1.192-1.559-1.925-2.2-1.742-1.467.55-1.559-1.192-.184-2.017 1.375-.916.55-2.566-1.558-2.933-5.317-.917-6.783-.917-7.608.092"/>
                <path fill="#156B96" d="M323.675 97.533c0 1.1.275 1.375.55.734.183-.55.825-.917 1.192-.642.458.275.55 1.192.275 2.017-.55 1.375-.459 1.466.825.275 1.283-1.192 1.283-1.467.183-2.109-.733-.458-1.1-1.1-.917-1.466.275-.367-.091-.734-.825-.734-.825 0-1.375.825-1.283 1.925"/>
                <path fill="#156B96" d="M224.583 96.708c0 .184.825.825 1.834 1.375 1.466.825 1.65.734 1.283-.458-.458-1.192-3.117-2.017-3.117-.917"/>
                <path fill="#156B96" d="M248.417 97.075c-.734.55-1.742.642-2.292.275-.458-.275-.367.183.275.917 1.375 1.741 3.85 1.191 3.85-.734 0-1.466-.092-1.558-1.833-.458"/>
                <path fill="#156B96" d="M277.383 96.892c-.275.275-.55 3.3-.55 6.691 0 4.859.275 6.142 1.375 6.142.734 0 1.375-.367 1.375-.825s.459-.55 1.009-.275c1.1.733.733-7.242-.367-8.342-1.375-1.375-.55-2.383.917-1.191 1.008.825 1.283.916.825.183-.917-1.558-3.85-3.117-4.584-2.383m1.375 5.591c.092 2.567 0 5.042-.366 5.409-.367.275-.642-2.017-.642-5.225 0-6.875.733-7.059 1.008-.184"/>
                <path fill="#156B96" d="M313.133 97.533c.734 2.017 3.3 2.75 2.934.825-.184-.916-1.009-1.741-1.925-1.925-1.1-.183-1.375.092-1.009 1.1"/>
                <path fill="#156B96" d="M341.642 96.892c-.825.183-1.375.825-1.1 1.283.825 1.283 2.016 1.008 2.658-.55.275-.733.367-1.283.275-1.283-.092.091-.917.275-1.833.55"/>
                <path fill="#156B96" d="M241.267 98.633c-.642.734-.734 1.284-.184 1.284.459 0 .917.458.917 1.008 0 .458-.55.642-1.1.275-.917-.458-.917-.367-.092.55 1.559 1.65 2.292.733 1.925-2.108-.183-1.925-.458-2.109-1.466-1.009"/>
                <path fill="#156B96" d="M255.933 103.217c-.183 4.308.184 5.775 1.192 6.233.733.275 1.375.092 1.375-.367 0-.55-.367-.916-.917-.916-.458 0-1.008-2.384-1.191-5.317l-.275-5.225z"/>
                <path fill="#156B96" d="M165.733 100.742c.367.916.642 1.008.917.275.183-.642.733-.917 1.192-.55.458.275.825.091.825-.459 0-.458-.825-.825-1.742-.733-1.1.092-1.558.55-1.192 1.467"/>
                <path fill="#156B96" d="M201.942 100.467c-.275.733-.092 1.833.55 2.475.733.733 1.008.366 1.008-1.467 0-2.75-.642-3.208-1.558-1.008"/>
                <path fill="#156B96" d="M213.033 99.642c.275.366 1.559.733 2.659.916 1.558.184 1.741.092.641-.641-1.558-1.009-4.308-1.284-3.3-.275"/>
                <path fill="#156B96" d="M223.025 99.55c.275.55-.458 2.933-1.742 5.317-1.283 2.383-2.108 4.583-1.833 4.95.275.275.55-.092.55-.825 0-1.1.183-1.009 1.008.091s.917 1.1.459-.275c-.55-1.833.458-4.216 2.658-6.416 1.192-1.192 1.1-1.559-.183-2.659-.825-.641-1.284-.733-.917-.183"/>
                <path fill="#156B96" d="M269.133 99.733c-.183.367-.091 1.284.367 2.017.367.642.367 2.2 0 3.3-.55 1.283-.458 2.383 0 2.658.55.367 1.008.092 1.008-.366.092-.55.184-1.375.275-1.834 0-.458.459-1.191.825-1.65.459-.366.734-.275.642.184-.458 2.016.092 3.208 1.375 3.208 1.1 0 .917-.733-.825-3.392-1.283-1.833-2.108-3.666-1.833-4.125.275-.366.091-.733-.459-.733-.458 0-1.1.367-1.375.733"/>
                <path fill="#156B96" d="M345.583 99.917c0 .55.459.916.917.916.55 0 .917.55.825 1.1-.092.642-.092 2.2 0 3.484.092 1.558.367 1.925 1.1 1.191.642-.641.733-1.558.275-2.291-.458-.642-.642-1.834-.55-2.659.183-.825-.367-1.741-1.192-2.016-.733-.367-1.375-.184-1.375.275"/>
                <path fill="#156B96" d="M146.942 100.558c.366.55.275 1.284-.184 1.559-1.375.916 1.559 5.591 3.575 5.683 1.009.092 1.559-.183 1.375-.55-.641-1.008 1.834-2.842 2.659-2.108.366.366.366-.092 0-1.009-.459-1.283-.825-1.375-1.375-.366-.642.916-.825.916-.917-.184 0-.733-.367-.458-.642.642-.641 1.925-.641 1.925-2.841.183-2.017-1.65-2.017-1.741-.275-1.741 1.1 0 2.2-.459 2.566-1.1.367-.642.275-.734-.458-.367-.55.367-1.742.183-2.567-.55-.916-.733-1.283-.733-.916-.092"/>
                <path fill="#156B96" d="M182.233 100.558c.55.184 1.1 1.192 1.1 2.2 0 1.1.642 1.742 1.834 1.742 1.008 0 1.833-.642 1.833-1.375 0-.825-.55-1.1-1.558-.733-.917.366-1.284.183-.917-.367.55-.917-1.283-2.2-2.842-2.017-.366 0-.091.275.55.55"/>
                <path fill="#156B96" d="M227.242 101.292c-.092.275-.184.825-.275 1.283-.184 1.467-1.467 2.292-1.467 1.008 0-.641-.183-1.008-.458-.733-.917.825.641 3.483 2.016 3.483.825 0 1.192-.55.917-1.375-.367-.733-.183-1.558.275-1.833 1.192-.733 1.192-2.292 0-2.292-.458 0-1.008.184-1.008.459"/>
                <path fill="#156B96" d="M310.658 102.025c-1.558 1.192-3.025 7.975-1.741 7.975.366 0 1.191-.642 1.833-1.467.642-.733 2.108-1.283 3.117-1.191 1.1 0 2.566.091 3.3 0 1.191-.092 1.191-.184 0-1.009s-1.192-1.1.183-2.108c1.375-1.1 1.375-1.283-.367-2.383-1.558-1.009-1.741-.917-1.283.55.458 1.283 0 1.741-1.742 1.925-1.558.091-2.291-.275-2.291-1.284 0-.825.458-1.1 1.1-.733.641.367.733.275.366-.367-.825-1.283-.641-1.283-2.475.092"/>
                <path fill="#156B96" d="M246.675 103.767c-1.008 1.65-.917 1.741 1.008 1.1 1.834-.55 1.925-.459.825.916-1.466 1.742-.458 2.017 1.284.275 1.008-1.1 1.008-1.466-.367-2.658-1.467-1.283-1.742-1.192-2.75.367"/>
                <path fill="#156B96" d="M282.058 102.3c-.733.825.092 2.2 1.284 2.2.55 0 .641-.367.366-.917s.092-.641.917-.366c1.283.55 1.283.733-.092 1.741-1.375.917-1.375 1.1-.091 1.1 1.925 0 2.841-2.566 1.375-3.575-1.467-.825-2.934-.916-3.759-.183"/>
                <path fill="#156B96" d="M326.608 104.042c-2.016 1.375-3.575 6.325-1.741 5.683.55-.183 1.1-1.467 1.283-2.75.183-1.375.917-2.475 1.65-2.475s1.283-.458 1.283-.917c0-1.191-.183-1.191-2.475.459"/>
                <path fill="#156B96" d="M198.917 104.408c-1.65.642-2.384 3.759-.917 3.759.55 0 .733.458.458.916-.275.55-.091.917.459.917s.733-1.008.55-2.292c-.275-1.283-.092-2.108.366-1.833.459.275 1.009.092 1.284-.367.733-1.191-.55-1.833-2.2-1.1"/>
                <path fill="#156B96" d="M214.867 106.792c.55 1.741 1.283 3.208 1.65 3.208 1.008 0 .916-1.375-.367-4.125-1.558-3.392-2.475-2.75-1.283.917"/>
                <path fill="#156B96" d="M263.083 104.683c0 .825.55 1.742 1.192 1.925q1.375.55 0 .55c-1.65.092-1.467 1.925.183 1.925 1.742 0 1.742-1.741 0-4.033-1.1-1.467-1.375-1.558-1.375-.367"/>
                <path fill="#156B96" d="M266.75 106.15c0 1.1.367 2.017.825 2.017.917 0 .825-2.384-.183-3.3-.367-.367-.642.183-.642 1.283"/>
                <path fill="#156B96" d="M144.467 106.883c-1.192 3.025-.367 3.85 2.108 2.292 1.1-.733 1.1-1.1-.092-2.292-1.375-1.283-1.558-1.283-2.016 0"/>
                <path fill="#156B96" d="M171.05 107.433c.458.734.183.825-.825.459-1.558-.55-2.108.366-.917 1.466.642.734 3.025-1.008 3.025-2.2 0-.458-.458-.825-1.008-.825-.458 0-.642.459-.275 1.1"/>
                <path fill="#156B96" d="M183.883 107.158c-.366.459.275.642 1.284.367 1.191-.367 1.833 0 1.833.825 0 .733.642 1.375 1.283 1.375 1.009 0 1.192-.458.459-1.742-.917-1.741-4.034-2.291-4.859-.825"/>
                <path fill="#156B96" d="M201.117 107.8c.275.825.55 1.65.55 1.833s.366.367.825.367.641-.825.366-1.833-.916-1.834-1.375-1.834c-.55 0-.641.642-.366 1.467"/>
                <path fill="#156B96" d="M240.992 107.342c-.642.366-.917 1.1-.459 1.466.459.367 1.009.275 1.192-.275.183-.641 1.192-.916 2.108-.641 1.009.275 1.834.275 1.834 0 0-.825-3.484-1.284-4.675-.55"/>
                <path fill="#156B96" d="M228.342 108.717c.55.733 1.741 1.283 2.475 1.283 1.1 0 1.191-.275.366-1.1-.55-.55-1.741-1.192-2.475-1.283-1.191-.184-1.283.091-.366 1.1"/>
                <path fill="#156B96" d="M318.542 108.258c-.917 1.375.275 2.292 1.466 1.1.642-.641.642-1.191.092-1.558-.55-.275-1.283-.092-1.558.458"/>
                <path fill="#156B96" d="M154.458 109.083c2.567 1.1 3.392 1.1 2.75 0-.275-.55-1.466-.916-2.566-.825-1.925 0-1.925.092-.184.825"/>
                <path fill="#156B96" d="M272.708 109.083c2.567 1.1 3.392 1.1 2.75 0-.275-.55-1.466-.916-2.566-.825-1.925 0-1.925.092-.184.825"/>
            </g>
            <path fill="#156B96" d="M103.767 2.842c-.825 1.558-2.475 4.308-3.667 6.05-1.1 1.741-2.933 4.858-3.942 6.966-1.1 2.109-2.291 4.034-2.658 4.309s-2.017 2.933-3.575 5.958c-1.65 3.025-4.583 8.158-6.508 11.458-2.017 3.3-3.85 6.6-4.309 7.334-.366.733-2.658 4.766-5.041 8.891-2.384 4.034-4.4 7.884-4.4 8.434s-.275 1.008-.642 1.008c-.458 0-1.925 2.292-3.392 5.133l-2.658 5.042-2.475-4.4c-5.042-9.258-3.758-8.525-15.308-8.525-6.692 0-10.359.367-10.359 1.008 0 1.1 1.834 4.767 2.75 5.409.367.275 2.017 2.933 3.575 5.958s3.942 7.333 5.317 9.625c5.133 8.617 9.442 16.225 11.825 20.808 2.475 4.675 4.308 6.325 5.867 5.317.458-.275 2.75-4.125 5.225-8.525 2.383-4.4 4.766-8.617 5.316-9.442.459-.825 2.292-3.941 3.942-6.875 1.65-2.933 4.675-8.066 6.6-11.366 2.017-3.3 4.675-8.25 6.05-11s2.75-5.225 3.117-5.5c.641-.459 3.666-5.592 8.8-15.125 1.375-2.567 2.75-4.767 3.025-5.042.641-.458 7.791-13.383 10.908-19.708.825-1.559 1.742-2.934 2.017-3.209 1.1-.733 5.5-9.9 5.5-11.458 0-1.1-1.559-1.375-9.625-1.375h-9.717z"/>
            <path fill="#15C1C1" d="M23.192 41.525c-.275.367.183 1.467.825 2.292.733.825 2.658 3.85 4.216 6.6l2.842 5.133 17.692-.092c9.716 0 18.608-.366 19.616-.733 1.192-.458 2.75-2.475 3.942-5.225 1.1-2.475 2.383-4.767 2.842-5.042.55-.275.916-1.283.916-2.108 0-1.467-2.2-1.558-26.216-1.558-14.392-.092-26.4.275-26.675.733"/>
        </g>
        <defs fill="none">
            <clipPath id="a9678724-beaf-419a-9532-3b1ce92a9cc9">
                <path fill="#ffffff" d="M453.75 0v110H0V0z"/>
            </clipPath>
            <filter color-interpolation-filters="sRGB" filterUnits="userSpaceOnUse" height="118" width="315.083" y="0" x="139" id="c50d3a08-aafd-4c22-903a-6975d12d4ac6">
                <feFlood result="BackgroundImageFix" flood-opacity="0"/>
                <feColorMatrix result="hardAlpha" values="0 0 0 0 0 0 0 0 0 0 0 0 0 0 0 0 0 0 127 0" in="SourceAlpha"/>
                <feOffset dy="4"/>
                <feGaussianBlur stdDeviation="2"/>
                <feComposite operator="out" in2="hardAlpha"/>
                <feColorMatrix values="0 0 0 0 0 0 0 0 0 0 0 0 0 0 0 0 0 0 0.25 0"/>
                <feBlend result="effect1_dropShadow_11_52353" in2="BackgroundImageFix"/>
                <feBlend result="shape" in2="effect1_dropShadow_11_52353" in="SourceGraphic"/>
            </filter>
        </defs>
    </g>
</svg>
