<?xml version="1.0" encoding="UTF-8"?>
<svg data-bbox="0 0 453.907 103" xmlns="http://www.w3.org/2000/svg" viewBox="0 0 454 103" height="103" width="454" data-type="color">
    <g>
        <path fill="#6BC115" d="M4.2.7C.6 2.1 0 6.3 0 30.9c0 23.9 0 24 2.4 26.8l2.4 2.8 184.1.3L373 61v2.9c0 6.4-1.9 6.1 32.9 6.1 23.3 0 32-.3 32.9-1.2.7-.7 1.2-2.7 1.2-4.5 0-2.9.3-3.3 2.5-3.3 1.4 0 4.1-.6 6-1.4 5.2-2.2 5.7-5.4 5.3-31.9l-.3-22.9-2.8-2.4-2.8-2.4-221.2.1C105 .1 4.9.4 4.2.7m444.7 3.7c2 1.8 2.1 2.8 2.1 25.8 0 22.5-.1 23.9-2 25.8-2.4 2.4-9 2.8-9 .5 0-.8-1.1-2-2.5-2.8-1.5-.7-5.2-5.7-8.8-11.7l-6.3-10.5-16.1-.3-16.1-.2-2.1 2.9c-1.2 1.6-2.1 3.2-2.1 3.5 0 2.1-8.6 15.5-10.2 15.9-1.1.3-2.2 1.5-2.5 2.6l-.5 2.1H189.7C20.8 58 6.5 57.9 4.8 56.3 3.2 54.8 3 52.7 3 30.5 3 5.2 3.2 3.7 7.5 2.7c1.1-.3 100.4-.4 220.6-.3 213.5.1 218.7.1 220.8 2m-29.6 31.8c2.3 3.1 6.7 11.1 6.7 12.3 0 .3-8.8.5-19.5.5-13.6 0-19.5-.3-19.5-1.1 0-1.6 4.9-11.1 6.7-13.2 1.3-1.4 3.4-1.7 12.4-1.7h10.8zM414 65c0 1.8-.7 2-8 2s-8-.2-8-2 .7-2 8-2 8 .2 8 2" data-color="1"/>
        <path fill="#6BC115" d="M381 79v6h7V73h-7z" data-color="1"/>
        <path fill="#6BC115" d="M425 79v6h7V73h-7z" data-color="1"/>
        <path fill="#404040" d="M12 13.2c0 .7 2.7 8.7 5.9 17.8l5.8 16.5 3.5.3 3.6.3 3-8.3c1.6-4.6 3.3-9.3 3.6-10.6.4-1.2 1-2.2 1.4-2.2s2.3 4.6 4.3 10.3c3.5 10.2 3.6 10.2 7.1 10.5l3.5.3 6.1-17.5c3.4-9.6 6.2-17.7 6.2-18s-1.8-.6-3.9-.6h-4l-3.8 11.5c-2 6.3-4 11.5-4.3 11.5s-2.1-5.1-4-11.3c-3.5-10.9-3.7-11.2-6.6-11.5s-3.2 0-5.2 5.5c-1.1 3.2-2.9 8.4-3.9 11.5-1 3.2-2.1 5.8-2.4 5.8s-2.1-5.1-4.1-11.3l-3.5-11.2-4.1-.3c-3-.2-4.2.1-4.2 1" data-color="2"/>
        <path fill="#404040" d="M71.4 13.3c-.2.7-.3 8.7-.2 17.7l.3 16.5 4.3.3 4.2.3V12h-4c-2.4 0-4.3.5-4.6 1.3" data-color="2"/>
        <path fill="#404040" d="m87.2 29.7.3 17.8h8l.3-6.8c.3-5.9.5-6.7 2.2-6.7 2.7 0 5.4 2.9 8.5 9 2.5 5 2.5 5 7.5 5h4.9l-3-5.3c-1.7-2.8-3.9-5.9-5-6.9-2.2-1.9-2.4-2.8-.6-2.8 2.4 0 5.9-4.7 6.3-8.7 1.1-8.9-4.3-12.3-19.4-12.3H87zm20.8-8.8c2.3 4.5-.3 7.1-7.1 7.1H96v-9h5.5c4.3 0 5.6.4 6.5 1.9" data-color="2"/>
        <path fill="#404040" d="M138 30v18h9.2l-.4-8c-.2-4.4 0-8 .3-8s3.7 3.6 7.5 8l6.9 7.9 8.1.1h8.2l1.6-4 1.6-4h16.1l1.7 4c1.6 3.7 1.9 4 5.9 4h4.2l-1.8-4.3c-1-2.3-3.9-8.5-6.3-13.7s-5.3-11.4-6.3-13.8c-1.7-3.8-2.2-4.2-5.5-4.2h-3.5L178 28.5c-4.1 9-7.8 16.5-8.1 16.5s-3.6-3.6-7.3-8l-6.8-8 7.7-8.2 7.7-8.3-4.8-.3-4.9-.3-6.8 7.5c-3.8 4.2-7.2 7.6-7.5 7.6-.4 0-.6-3.4-.4-7.5l.4-7.5H138zm53.8-2.7c1.2 2.9 2.2 5.6 2.2 6s-2.3.7-5.1.7c-5.7 0-5.5.6-2.1-7.7.9-2.4 2-4.3 2.3-4.3s1.5 2.4 2.7 5.3" data-color="2"/>
        <path fill="#404040" d="M212 24.7c0 14.8 1.3 18.7 7 21.5 4.2 2.2 11.8 2.3 16.5.4 6.2-2.6 7.5-6.2 7.5-21.4V12h-8v11.4c0 6.3-.4 12.6-1 14-1.2 3.2-5 5.1-8.5 4.2-4.3-1.1-5.7-6-5.3-18.7l.3-10.9H212z" data-color="2"/>
        <path fill="#404040" d="M250 30v18h8.5V33.5l7.3-.3 7.2-.3V26h-15v-7h16v-7h-24z" data-color="2"/>
        <path fill="#404040" d="M280 30v18.1l12.3-.3 12.2-.3.3-3.3.3-3.2H288v-8h15.5v-7H288v-7h17.1l-.3-3.3-.3-3.2-12.2-.3-12.3-.3z" data-color="2"/>
        <path fill="#404040" d="M310 30v18h8V38c0-5.5.4-10 .9-10 .4 0 4.3 4.5 8.6 10 7.1 9.2 8 10 11.1 10h3.4V12h-7.9l-.3 10.7-.3 10.8-8.4-10.8c-7.7-9.8-8.7-10.7-11.7-10.7H310z" data-color="2"/>
        <path fill="#404040" d="M245.9 71.9c-4.9 1.6-6.9 3.2-8.9 7.1-3.9 7.7-1.8 17.3 4.9 21.7 2.7 1.8 4.8 2.3 10.2 2.3 3.7 0 7.9-.4 9.3-1 2.5-.9 2.6-1.3 2.6-9v-8.1l-6.2.3c-5.7.3-6.3.5-6.6 2.5s.1 2.3 2.8 2.3c3 0 3.1.1 2.8 3.7-.2 3.1-.7 3.9-2.7 4.1-3.4.5-6.9-.6-9.1-2.8-3.1-3.1-2.8-12.3.5-15.5 2.8-2.9 6.8-3.2 11.9-1.1 3.2 1.3 3.3 1.3 4.3-1.4.9-2.5.8-2.9-1.5-4-3.5-1.5-11.1-2.1-14.3-1.1" data-color="2"/>
        <path fill="#404040" d="M11 87.5V103h9.3c15.1 0 20.2-4 20.2-15.8 0-11.7-4.7-15.2-20-15.2H11zm19.6-7.3c2.9 2.6 3.7 7.2 2 11.3S28.4 97 23.1 97H19v-9.3c0-5.2.3-9.7.7-10.1 1.3-1.2 8.7.5 10.9 2.6" data-color="2"/>
        <path fill="#404040" d="M48 87.5V103h22v-6H55v-7h14v-6H54.9l.3-3.3.3-3.2 7.3-.3c6.9-.3 7.2-.4 7.2-2.7V72H48z" data-color="2"/>
        <path fill="#404040" d="M76 87.5V103h8V72h-8z" data-color="2"/>
        <path fill="#404040" d="m91.8 87.5-.3 15.5h7.4l.3-9 .3-9 7 9c6.2 7.9 7.4 8.9 10.3 9h3.2V72h-8.1l.3 8.5c.2 4.7 0 8.5-.4 8.5-.3 0-3.7-3.8-7.4-8.5-5.6-7-7.2-8.5-9.5-8.5h-2.8z" data-color="2"/>
        <path fill="#404040" d="M127 87.5V103h22.5v-6H135v-6.9l6.8-.3c6.5-.3 6.7-.4 7-3.1l.3-2.7H135v-7h7c6.8 0 7-.1 7-2.5V72h-22z" data-color="2"/>
        <path fill="#404040" d="M167 74.5c0 2.3.4 2.5 4.5 2.5h4.5v26h7.9l.3-12.8.3-12.7h4.8c4.5 0 4.7-.1 4.7-2.8V72h-27z" data-color="2"/>
        <path fill="#404040" d="M199 87.5V103h8V90h14v13h7V72h-7v12h-14V72h-8z" data-color="2"/>
        <path fill="#404040" d="M284 87.5V103h8.5c15.1 0 20.8-4.2 20.9-15.4.1-7.1-1.6-10.5-6.7-13.6-2.6-1.6-5.1-2-12.9-2H284zm19.8-6.9c2.2 2.5 2.8 6.6 1.6 11.2-.8 2.9-5.2 5.2-9.9 5.2H292V76.9l4.8.6c3.2.5 5.4 1.5 7 3.1" data-color="2"/>
        <path fill="#404040" d="m320.8 87.5-.3 15.5H343v-6h-15v-6.9l6.8-.3c6.5-.3 6.7-.4 7-3.1l.3-2.7H328v-7.2l7.5.4 7.5.3V72h-21.9z" data-color="2"/>
        <path fill="#404040" d="M270 99c0 3.9.1 4 3.5 4s3.5-.1 3.5-4-.1-4-3.5-4-3.5.1-3.5 4" data-color="2"/>
    </g>
</svg>
