<?xml version="1.0" encoding="UTF-8"?>
<svg data-bbox="-1.269 -1.269 514.539 514.539" height="512" width="512" xmlns="http://www.w3.org/2000/svg" data-type="shape">
    <g>
        <path d="m301 3 2.767.504C345.399 11.164 384.16 29.406 417 56l1.65 1.333C432.722 68.812 445.937 81.577 457 96c.76.93 1.519 1.861 2.3 2.82 25.86 32.252 42.328 71.705 49.7 112.18l.496 2.532c5.29 27.71 4.92 59.819-.496 87.468l-.504 2.767C500.836 345.399 482.594 384.16 456 417l-1.333 1.65C443.188 432.722 430.423 445.937 416 457c-.93.76-1.861 1.519-2.82 2.3-32.252 25.86-71.705 42.328-112.18 49.7l-2.532.496c-27.71 5.29-59.819 4.92-87.468-.496l-2.767-.504C166.601 500.836 127.84 482.594 95 456l-1.65-1.333C79.278 443.188 66.063 430.423 55 416c-.76-.93-1.519-1.861-2.3-2.82C26.84 380.928 10.371 341.475 3 301l-.496-2.532c-5.29-27.71-4.92-59.819.496-87.468l.504-2.767C11.164 166.601 29.406 127.84 56 95l1.333-1.65C68.812 79.278 81.577 66.063 96 55c.93-.76 1.861-1.519 2.82-2.3C131.072 26.84 170.525 10.371 211 3l2.532-.496c27.71-5.29 59.819-4.92 87.468.496M97.344 81.879c-2.143 1.94-4.327 3.814-6.531 5.683-3.217 2.814-6.042 5.788-8.793 9.055a210 210 0 0 1-4.633 5.266c-41.088 45.683-60.182 107.92-57.262 168.71 3.349 53.949 25.468 104.319 61.754 144.063 1.94 2.143 3.814 4.327 5.683 6.531 2.814 3.217 5.788 6.042 9.055 8.793a210 210 0 0 1 5.266 4.633c45.683 41.088 107.92 60.182 168.71 57.262 53.949-3.349 104.319-25.468 144.063-61.754 2.143-1.94 4.327-3.814 6.531-5.683 3.217-2.814 6.042-5.788 8.793-9.055a210 210 0 0 1 4.633-5.266c41.088-45.683 60.182-107.92 57.262-168.71-3.349-53.949-25.468-104.319-61.754-144.063-1.94-2.143-3.814-4.327-5.683-6.531-2.814-3.217-5.788-6.042-9.055-8.793a210 210 0 0 1-5.266-4.633C336.162 10.87 224.593 3.135 97.344 81.879"/>
        <path d="M389 148c2.927 1.993 4.457 3.527 5.691 6.875.622 4.279-.338 6.607-2.773 10.176-2.808 3.468-5.858 6.705-8.918 9.949q-1.47 1.606-2.934 3.219a843 843 0 0 1-5.574 6.074c-2.635 2.862-5.2 5.776-7.75 8.715A594 594 0 0 1 360.5 200a683 683 0 0 0-8 9c-3.393 3.895-6.852 7.728-10.312 11.563A578 578 0 0 0 336.5 227c-3.393 3.895-6.852 7.728-10.312 11.563A578 578 0 0 0 320.5 245c-3.393 3.895-6.852 7.728-10.312 11.563A578 578 0 0 0 304.5 263c-3.393 3.895-6.852 7.728-10.312 11.563A578 578 0 0 0 288.5 281c-3.393 3.895-6.852 7.728-10.312 11.563A578 578 0 0 0 272.5 299c-3.393 3.895-6.852 7.728-10.312 11.563A578 578 0 0 0 256.5 317c-3.387 3.889-6.84 7.716-10.297 11.543a527 527 0 0 0-5.953 6.77c-8.287 9.498-8.287 9.498-13.5 10-6.91-.576-12.053-6.084-17.25-10.375-5.126-4.201-10.274-8.363-15.5-12.438-5.74-4.482-11.397-9.06-17.04-13.664A801 801 0 0 0 164 298.5c-5.734-4.477-11.387-9.05-17.021-13.65a788 788 0 0 0-13.479-10.725C119.655 263.31 119.655 263.31 118 260c-.581-7.09-.581-7.09 1.875-10.937 2.73-2.65 3.753-3.002 7.563-3.625 6.457.15 10.809 4.635 15.562 8.562l1.929 1.576a1737 1737 0 0 1 10.805 8.908 486 486 0 0 0 11.328 9.079A840 840 0 0 1 182 285.5a983 983 0 0 0 16.689 13.318c5.385 4.215 10.69 8.527 15.983 12.856 3.066 2.504 6.13 4.989 9.328 7.326 3.677-1.51 5.719-3.649 8.313-6.625l2.394-2.727L237 307l3.5-4 1.688-1.937c2.843-3.237 5.738-6.427 8.625-9.625A578 578 0 0 0 256.5 285c3.393-3.895 6.852-7.728 10.313-11.562A578 578 0 0 0 272.5 267c3.393-3.895 6.852-7.728 10.313-11.562A578 578 0 0 0 288.5 249c3.393-3.895 6.852-7.728 10.313-11.562A578 578 0 0 0 304.5 231c3.393-3.895 6.852-7.728 10.313-11.562A578 578 0 0 0 320.5 213c3.393-3.895 6.852-7.728 10.313-11.562A578 578 0 0 0 336.5 195c3.393-3.895 6.852-7.728 10.313-11.562A578 578 0 0 0 352.5 177a683 683 0 0 1 8-9c7.051-7.683 7.051-7.683 13.563-15.812 4.373-4.938 8.656-6.015 14.937-4.188"/>
    </g>
</svg>
