<?xml version="1.0" encoding="UTF-8"?>
<svg data-bbox="14.063 8.742 483.658 488.936" height="512" width="512" xmlns="http://www.w3.org/2000/svg" data-type="shape">
    <g>
        <path d="m154.266 8.742 2.39.001c19.654.029 39.28.622 58.915 1.444 12.73.533 25.452.903 38.19 1.126l2.56.045q5.097.088 10.195.174c26.537.442 53.069 1.053 79.592 2.053q3.01.11 6.021.21c3.655.125 7.309.27 10.963.42l3.25.104 2.952.136 2.553.1c2.64.545 3.567 1.288 5.153 3.445.289 2.556.392 4.866.361 7.422l.008 2.31c.005 2.56-.012 5.121-.028 7.683l.001 5.498c.001 4.984-.017 9.967-.037 14.95-.02 5.205-.021 10.41-.025 15.615q-.015 14.79-.064 29.579c-.033 11.224-.05 22.447-.065 33.67-.031 23.091-.084 46.182-.15 69.273l2.48.395 3.263.53 3.23.521c23.987 4.39 46.067 21.038 60.026 40.554 15.677 23.481 22.07 52.381 16.75 80.25A194 194 0 0 1 461 333l-.808 3.012c-3.729 12.412-9.653 23.95-18.042 33.827-2.602 3.115-3.15 3.902-3.15 8.16 1.111 1.977 1.111 1.977 2.711 3.872l1.76 2.22 1.904 2.346 3.883 4.883 1.939 2.42a550 550 0 0 1 7.053 9.072l2.407 3.133 4.687 6.11 2.406 3.132 1.214 1.58c2.495 3.247 5.008 6.478 7.532 9.702 22.328 28.51 22.328 28.51 20.504 43.53-2.452 10.7-8.347 17.293-16.91 23.774-7.994 4.692-19.037 4.623-27.918 2.574-2.265-.922-4.15-1.973-6.172-3.347l-1.996-1.262c-6.569-4.879-9.926-12.069-13.639-19.146a895 895 0 0 0-4.626-8.643q-3.598-6.657-7.176-13.324a3473 3473 0 0 0-11.348-20.955 847 847 0 0 0-8.247-14.785 755 755 0 0 0-2.379-4.142C394 406.217 394 406.217 394 404l-16 4-.044 5.001a4434 4434 0 0 1-.218 18.333q-.05 3.97-.084 7.941c-.034 3.8-.086 7.6-.142 11.4l-.02 3.6-.06 3.335-.033 2.941c-.484 2.971-1.003 3.67-3.399 5.449-2.651.377-2.651.377-5.92.38l-3.77.026-4.165-.019q-2.204.007-4.407.017c-4.046.014-8.093.01-12.14.003-4.36-.005-8.72.007-13.079.018-8.545.017-17.09.018-25.635.012q-10.415-.005-20.828.003l-2.99.002-6.013.005c-18.811.014-37.622.008-56.432-.003-17.225-.01-34.45.003-51.674.027q-26.505.037-53.01.027c-9.928-.003-19.854-.001-29.781.016q-12.675.024-25.35-.002c-4.314-.008-8.628-.01-12.943.005q-5.918.02-11.835-.01-2.147-.006-4.294.01c-1.938.012-3.875-.001-5.813-.017h-3.269C18 466 18 466 16.155 464.365c-1.491-3.055-1.535-5.306-1.543-8.707-.01-1.313-.02-2.626-.032-3.978l.013-4.382q-.01-2.322-.023-4.646c-.02-4.262-.022-8.525-.02-12.787-.002-4.595-.02-9.19-.037-13.784-.032-10.05-.042-20.099-.047-30.149q-.007-9.41-.023-18.82c-.027-17.367-.05-34.733-.052-52.1v-3.368l-.001-6.76v-6.785c-.004-18.153-.04-36.305-.092-54.457q-.08-27.948-.078-55.896c0-10.463-.012-20.926-.051-31.389q-.053-13.364-.022-26.727c.01-4.546.01-9.091-.021-13.637q-.042-6.244.005-12.488.008-2.257-.022-4.514c-.156-12.633-.156-12.633 4.181-17.528A621 621 0 0 1 22 78c1.564-2.135 2.856-4.353 4.226-6.626C58.216 20.24 97.066 8.68 154.266 8.742M96 27l-1 63c-1 3-1 3-3 4l-64 1v358h336v-44l-11.5-1.188c-10.9-1.242-21.952-2.735-31.75-8.028-7.826-4.084-14.738-4.492-23.43-4.412q-2.164-.007-4.33-.022-4.626-.022-9.254-.003c-4.88.02-9.758.004-14.637-.015-7.712-.027-15.424-.031-23.136-.025-13.829.011-27.657-.013-41.486-.053q-7.275-.02-14.55-.006-4.518.004-9.034-.007a818 818 0 0 0-4.19.007c-1.905.008-3.81.003-5.715-.003l-3.23.003c-2.807-.253-4.451-.645-6.758-2.248-.875-2.938-.875-2.938-1-6l2-3c2.277-.385 2.277-.385 5.176-.399l3.323-.038 3.662.004 3.843-.03c3.483-.028 6.967-.037 10.45-.043 3.638-.01 7.276-.036 10.915-.06 6.891-.044 13.783-.073 20.675-.096 7.845-.027 15.69-.07 23.536-.116 16.14-.093 32.28-.164 48.42-.222l-1.225-1.427-1.62-1.887c-.527-.615-1.055-1.23-1.6-1.863a493 493 0 0 1-6.305-7.573l-2.297-2.797C277 365 277 365 275 362c-2.076-.454-2.076-.454-4.517-.379l-2.88-.025-3.171.019-3.331-.016q-3.589-.015-7.178-.01c-3.782.005-7.562-.01-11.344-.028-8.026-.037-16.052-.05-24.079-.061-9.297-.012-18.594-.034-27.891-.08-3.735-.014-7.47-.01-11.205-.005l-6.835-.03-3.17.018-2.882-.025-2.511-.002L162 361c-2-3-2-3-1.812-6.063C161 352 161 352 164 350c1.978-.262 1.978-.262 4.271-.279l2.64-.033 2.885-.007 3.046-.03c3.327-.031 6.655-.048 9.983-.065l6.915-.059c6.07-.051 12.142-.09 18.213-.128 6.194-.04 12.387-.091 18.58-.141q18.234-.145 36.467-.258l-.616-2.04-.813-2.698-.804-2.665c-1.05-3.554-1.991-7.128-2.892-10.722l-.511-1.973c-1.933-7.686-2.545-15.191-2.551-23.09l-.037-2.306c-.012-4.872.47-9.514 1.239-14.328l.556-3.515.43-2.663-3.746-.018q-17.437-.086-34.875-.218-8.966-.07-17.931-.11-8.647-.041-17.293-.117a1385 1385 0 0 0-6.61-.035c-3.077-.01-6.154-.037-9.23-.07l-2.784.005-2.533-.038-2.206-.014C162 282 162 282 160 279c.188-3.063.188-3.063 1-6 3.076-2.05 3.723-2.253 7.195-2.279l2.588-.033 2.83-.007 2.986-.03c3.263-.031 6.525-.048 9.788-.065l6.78-.059a7457 7457 0 0 1 17.86-.128c6.072-.04 12.145-.091 18.218-.141q17.877-.145 35.755-.258 1.972-4.155 3.938-8.313l1.13-2.38 1.085-2.295 1-2.111c.952-2.053.952-2.053 1.847-4.901l-1.725-.007q-20.769-.089-41.537-.229-10.043-.07-20.087-.11-9.687-.041-19.374-.117-3.7-.026-7.403-.035c-3.448-.01-6.896-.037-10.344-.07l-3.112.005-2.843-.038-2.472-.014c-2.643-.484-3.56-1.203-5.103-3.385.188-3.625.188-3.625 1-7 2.466-1.233 4.042-1.109 6.798-1.084l3.071.018 3.383.035 7.294.047 3.924.03a2113 2113 0 0 0 14.217.042l8.466.007c8.001.006 16.002.03 24.003.107q9.534.094 19.069.061c3.361-.01 6.718.004 10.08.054 15.671.995 15.671.995 29.317-5.193 2.016-2.226 3.694-4.642 5.378-7.124 2.268-1.985 4.649-3.634 7.188-5.25l1.892-1.227C323.613 207.873 341.997 205 364 203V27zM77.848 41.023l-2.67 2.66-2.9 2.907-2.955 2.952a5901 5901 0 0 0-6.197 6.202 5118 5118 0 0 1-7.967 7.963q-3.053 3.049-6.102 6.102-1.467 1.47-2.939 2.936a2133 2133 0 0 0-4.094 4.102l-2.36 2.362C37.887 80.715 37.887 80.715 38 82h45V37c-2.043 0-3.835 2.708-5.152 4.024M303 237l-1.726 1.285c-16.996 13.17-26.929 35.736-29.957 56.5-2.46 24.995 4.176 48.366 19.91 67.992 2.18 2.5 4.43 4.876 6.773 7.223l2.262 2.297c16.682 15.992 39.256 24.141 62.254 24.072 20.87-.606 39.057-7.798 55.484-20.37.675-.5 1.349-1.002 2.043-1.519C437.001 361.015 448.3 338.223 451 317c1.663-26.588-4.103-50.258-21.975-70.7C414.517 230.23 394.04 217.665 372 216c-25.906-1.27-48.66 4.128-69 21m120.246 150.004-1.808 1.558c-4.779 3.857-10 6.62-15.438 9.438 1.616 5.762 4.417 10.682 7.313 15.875l3.273 5.937 1.71 3.094c2.74 4.975 5.44 9.972 8.142 14.969l1.62 2.984c2.835 5.22 5.64 10.454 8.407 15.711l1.73 3.262a789 789 0 0 1 3.229 6.152c5.812 10.932 5.812 10.932 15.576 18.016 6.444.69 12.55.855 18-3 5.354-4.461 8.516-9.612 9.5-16.5-1.142-7.996-6.189-14.044-11.125-20.188l-3.789-4.793-1.864-2.345A655 655 0 0 1 461 428.5a2427 2427 0 0 0-13.595-17.53 601 601 0 0 1-9.05-11.865l-1.771-2.374a474 474 0 0 1-3.321-4.513l-1.52-2.035c-.435-.592-.87-1.184-1.317-1.795-2.255-2.196-4.383-2.985-7.18-1.384"/>
        <path d="m388 231 2.781.875c18.805 6.665 32.848 21.93 42.031 39.125 8.59 18.19 10.585 40.903 3.929 60.066-3.762 9.822-8.614 19.138-15.741 26.934l-2.426 2.703c-14.65 15.52-34.105 23.876-55.344 24.578-21.675.334-41.112-7.172-56.886-21.972-16.079-15.838-24.358-35.02-24.656-57.622.123-19.082 6.252-35.973 18.312-50.687l1.64-2.133C322.019 227.643 358.337 221.203 388 231m-76.434 30.492c-11.68 13.277-17.345 29.984-16.91 47.617 1.723 19.498 10.332 34.905 24.63 47.98 12.505 10.373 28.861 15.863 45.081 15.29 18.392-1.918 34.805-9.05 47.14-23.27C423.957 333.087 428.658 316.09 427 296c-2.142-16.564-11.982-31.47-24.527-42.121-28.623-21.75-66.09-17.801-90.907 7.613"/>
        <path d="m71.446 110.514 2.64-.019 2.825.044 2.92.003q3.052.009 6.105.046c3.119.037 6.237.041 9.355.04q2.967.015 5.932.036l2.832.007 2.63.038 2.311.023C111 111 111 111 114 113c.896 3.169 1.29 5.177.188 8.312C113 123 113 123 111 124c-2.626.087-5.225.116-7.851.097l-2.079-.003c-2.565-.005-5.13-.019-7.695-.032L76 124v48h48c-.118-9.08-.118-9.08-.27-18.16l-.023-3.422c-.015-1.158-.03-2.315-.047-3.507.34-2.911.34-2.911 1.71-4.754 2.301-1.633 3.797-2.09 6.63-2.157 2.625 1.474 2.625 1.474 5 4 .496 2.976.68 5.372.63 8.344l.007 2.442a362 362 0 0 1-.04 5.104c-.034 2.602-.02 5.2 0 7.801q-.011 2.483-.03 4.965l.015 2.352c-.072 3.314-.212 5.495-2.219 8.195-3.068 2.333-4.871 2.31-8.704 2.33l-3.894.048q-2.1-.006-4.198-.015-2.16.008-4.319.019a1090 1090 0 0 1-9.046-.009 859 859 0 0 0-11.573.042c-2.973.022-5.945.02-8.918.012q-2.133 0-4.266.02c-1.991.018-3.983 0-5.974-.02l-3.429-.002c-4.097-.846-5.56-2.298-8.042-5.628-.628-3.042-.628-3.042-.63-6.471l-.039-3.903.04-4.193q0-2.16-.007-4.321-.003-4.52.04-9.04c.034-3.86.028-7.718.009-11.578-.01-2.973-.002-5.945.013-8.918q.008-2.133-.001-4.268a396 396 0 0 1 .042-5.967l.019-3.426c.918-5.203 3.774-7.42 8.96-7.401"/>
        <path d="m72.344 222.353 2.498-.048 2.658.03 2.768-.014q2.89-.004 5.78.027c2.943.027 5.883 0 8.827-.032q2.813.005 5.625.02l2.658-.03c4.427.084 6.302.285 9.936 3.036C115 228 115 228 115 231.187 114 234 114 234 111 236a101 101 0 0 1-7.949.195l-2.076-.006c-2.554-.01-5.108-.038-7.662-.064L76 236v48h48c-.118-9.08-.118-9.08-.27-18.16l-.023-3.422-.047-3.507c.34-2.911.34-2.911 1.64-4.789 2.864-1.89 5.388-1.477 8.7-1.122 1.692 1.008 1.692 1.008 3 3 .31 2.823.444 5.422.434 8.246l.016 2.447q.01 2.561-.004 5.122c-.008 2.61.02 5.218.052 7.828q.003 2.49-.002 4.978l.034 2.362c-.042 3.323-.153 5.507-2.158 8.222-3.102 2.348-4.952 2.302-8.821 2.313l-3.964.038q-2.138-.011-4.274-.025-2.198.005-4.394.012-4.599.008-9.199-.022c-3.928-.022-7.855-.01-11.782.015-3.024.014-6.047.01-9.07 0q-2.172-.005-4.344.01c-2.025.01-4.05-.009-6.075-.028l-3.489-.01C67 297 67 297 64.63 295.364c-2.118-3.072-2.143-4.987-2.163-8.706l-.048-3.893q.006-2.1.015-4.199-.008-2.16-.019-4.318-.014-4.523.009-9.046c.017-3.859-.006-7.716-.042-11.574-.022-2.972-.02-5.945-.012-8.918q0-2.133-.02-4.266c-.018-1.99 0-3.982.02-5.973l.002-3.429c1.088-5.267 4.502-8.659 9.972-8.689"/>
        <path d="m70.516 335.482 2.76-.038 2.974.024 3.06-.011q3.203-.005 6.405.021c3.273.021 6.544 0 9.817-.025q3.109.003 6.218.015l2.974-.024 2.76.038 2.43.01c2.086.508 2.086.508 3.88 2.345 1.701 3.05 1.136 4.872.206 8.163-2 2-2 2-5.531 2.227q-2.27-.001-4.539-.032l-2.138-.006c-2.64-.01-5.278-.039-7.917-.064L76 348v48h48c-.118-8.706-.118-8.706-.27-17.412l-.023-3.292-.047-3.364c.381-3.283.972-4.651 3.34-6.932 3.5-.5 3.5-.5 7 0 2.789 2.481 3.006 4.052 3.389 7.803q.029 2.288.01 4.575l.009 2.45q.003 2.558-.017 5.117c-.016 2.612 0 5.222.02 7.834q-.003 2.487-.012 4.974l.018 2.368c-.07 5.348-.07 5.348-1.532 7.583-2.795 1.921-5.051 1.684-8.42 1.7l-1.996.02a593 593 0 0 1-6.531.01l-4.54.015q-4.755.013-9.512-.003c-4.066-.012-8.13.008-12.196.038-3.125.018-6.249.018-9.373.012q-2.25 0-4.498.018c-2.095.015-4.188.004-6.283-.013h-3.614C66 409 66 409 64.116 407.366c-1.44-3.054-1.497-5.347-1.504-8.724l-.028-3.903q.008-2.105.018-4.208l-.009-4.326q-.005-4.53.016-9.058c.017-3.868.008-7.734-.01-11.601-.011-2.977-.008-5.954 0-8.93q.004-2.14-.008-4.278c-.007-1.994.007-3.987.021-5.981l.007-3.436c.683-5.237 2.602-7.418 7.897-7.439"/>
        <path d="m169.149 157.74 3.9-.021 4.289.007 4.509-.015c4.084-.014 8.169-.014 12.253-.012q5.112 0 10.222-.008 12.054-.017 24.108-.006 12.447.007 24.892-.028 10.678-.025 21.356-.02c4.254.002 8.508 0 12.761-.015q6-.017 11.997.003 2.205.004 4.408-.009c2.002-.01 4.005 0 6.007.01h3.399c2.75.375 2.75.375 4.583 1.746 1.592 2.222 1.968 3.91 2.167 6.629-.977 2.706-1.405 3.702-4 5-2.005.102-4.014.14-6.022.147l-3.892.022-4.295.008-4.503.02q-6.128.025-12.254.036l-7.652.017q-11.964.03-23.928.042-13.823.016-27.644.076-10.676.044-21.353.049c-4.254.002-8.507.011-12.76.036q-6 .034-12.002.017-2.203 0-4.407.02c-2.004.018-4.008.008-6.012-.003l-3.4.008c-3.554-.612-4.766-1.607-6.876-4.495.062-3.625.062-3.625 1-7 3.527-2.352 4.972-2.253 9.149-2.261"/>
        <path d="m166.966 124.74 3.182-.021 3.506.007 3.681-.015q5.005-.016 10.01-.012 4.176 0 8.35-.008 9.849-.017 19.697-.006 10.167.007 20.333-.028 8.722-.025 17.445-.02c3.475.002 6.95 0 10.425-.015 3.874-.015 7.748-.005 11.622.006l3.5-.023 3.19.021h2.777c2.783.45 3.671 1.116 5.316 3.375.438 2.937.438 2.937 0 6-1.993 2.517-3.204 3.83-6.383 4.506l-2.696.008-3.105.039-3.39-.02-3.583.026c-3.24.02-6.48.02-9.72.01-2.705-.004-5.412.003-8.118.01q-9.577.024-19.156-.003a2653 2653 0 0 0-19.75.031q-8.485.04-16.969.026c-3.377-.005-6.753-.003-10.13.018-3.766.017-7.53.003-11.296-.02l-3.384.035c-7.526-.092-7.526-.092-11.555-3.007C159 133 159 133 159.063 129.813c1.58-4.74 3.219-5.063 7.903-5.073"/>
        <path d="M399.75 273.938c3.25 1.063 3.25 1.063 4.75 2.75.687 3.178.364 5.16-.5 8.313-1.83 2.164-3.554 3.98-5.625 5.875a1287 1287 0 0 0-3.309 3.167l-1.612 1.537c-1.824 1.782-3.493 3.664-5.142 5.608-3.18 3.738-6.632 7.148-10.125 10.594-2.585 2.622-4.969 5.38-7.363 8.176-2.802 3.138-5.817 6.051-8.824 8.992-2.15 2.108-2.15 2.108-4.187 5.05-1.813 2-1.813 2-4.75 3-4.775 0-7.262-2.248-10.676-5.453l-2.7-2.797c-3.171-3.248-6.357-6.425-9.812-9.375-12.565-10.896-12.565-10.896-13.687-16.25.812-3.125.812-3.125 2.5-5.062 2.78-1.277 4.273-1.428 7.312-1.062 2.43 1.722 2.43 1.722 4.875 4.062l2.64 2.496a566 566 0 0 1 7.64 7.63c1.957 1.921 3.985 3.725 6.056 5.522l2.158 1.877c.807.7.807.7 1.631 1.412q3.786-3.744 7.563-7.5l2.134-2.109c4.095-4.075 7.99-8.25 11.76-12.627 1.918-2.192 3.953-4.236 6.043-6.264 2.865-2.821 5.58-5.688 8.188-8.75 7.602-8.721 7.602-8.721 13.062-8.812"/>
        <path d="M135 227c2.063 2.125 2.063 2.125 3 5-.61 5.496-4.06 8.332-7.879 11.953-1.883 1.818-3.565 3.67-5.246 5.672-5.104 5.945-10.777 11.37-16.355 16.865a238 238 0 0 0-3.793 3.873c-2.253 2.136-3.632 2.562-6.727 2.637-5.84-3.04-12.09-7.934-14.941-14.004-.641-3.123-.2-4.775 1.504-7.433 3.172-2.034 4.73-2.244 8.437-1.563 2.875 2.5 2.875 2.5 5 5 3.352-1.456 5.548-3.303 8.117-5.887l2.34-2.345 2.418-2.456 2.395-2.396c3.52-3.547 6.957-7.11 10.175-10.936 3.7-4.316 5.91-4.574 11.555-3.98"/>
        <path d="M134 339c2.085 1.438 2.812 2.598 3.875 4.875.222 3.774-2.348 6.475-4.645 9.309-5.227 5.767-10.656 11.285-16.191 16.756-3.755 3.725-7.341 7.522-10.707 11.607C105 383 105 383 102 385c-5.003-.082-7.883-1.121-11.477-4.656l-1.398-1.469-1.469-1.398c-3.53-3.59-4.579-6.478-4.656-11.477 2.063-2.5 2.063-2.5 5-4 5.562-.118 8.022 2.553 12 6l2.57-2.79c3.122-3.375 6.265-6.73 9.42-10.075a1005 1005 0 0 0 3.95-4.22 586 586 0 0 1 5.56-5.853l1.704-1.844c3.492-3.583 5.537-5.106 10.796-4.218"/>
        <path d="M132.313 113.75c2.688 1.25 2.688 1.25 4.688 3.438 1.35 3.8.646 5.151-1 8.812-1.882 2.323-4.007 4.336-6.188 6.375a1552 1552 0 0 0-3.574 3.46l-1.72 1.664c-1.775 1.755-3.413 3.59-5.019 5.501a302 302 0 0 1-10 11l-1.619 1.785c-2.816 2.91-4.328 4.1-8.388 4.942-4.647-.967-6.697-2.957-9.868-6.352l-1.613-1.582C84.711 149.391 83.154 146.921 83 142c1-2.375 1-2.375 3-4 3.375-.562 3.375-.562 7 0 2.938 2.5 2.938 2.5 5 5 4.082-1.617 6.806-4.543 9.813-7.625l1.616-1.634c2.881-2.933 5.656-5.92 8.321-9.054 9.088-10.524 9.088-10.524 14.563-10.937"/>
    </g>
</svg>
