<?xml version="1.0" encoding="UTF-8"?>
<svg data-bbox="0 -0.586 494.099 120.885" height="120" width="495" xmlns="http://www.w3.org/2000/svg" data-type="ugc">
    <g>
        <path fill="#16719A" d="M116.307-.402c2.974-.092 5.907-.033 8.88.09l3.139.067q3.839.09 7.674.245l1 4h-2l-.313 1.562c-.93 3.298-2.301 6.304-3.687 9.438h-2l-.813 2.625C127.03 20.918 125.617 23.91 124 27h-2l-.813 2.625C120.03 32.918 118.617 35.91 117 39h-2l-.371 1.734c-.657 2.365-1.567 4.338-2.692 6.516l-1.098 2.14L110 51h-2l-.312 2.125C106.906 56.39 105.58 59.047 104 62h-2l-.813 2.625C100.03 67.918 98.617 70.91 97 74h-2l-.813 2.625C93.03 79.918 91.617 82.91 90 86h-2l-.22 1.988c-1.077 4.153-3.125 7.513-5.28 11.2l-2.47 4.292-1.107 1.903A74 74 0 0 0 77 109h-2l-.875 2.75c-.89 2.572-1.84 4.863-3.125 7.25-2.25 0-2.25 0-5-1-2.057-2.99-4-6.314-4-10h-2a652 652 0 0 1-2-3.875l-1.125-2.18C56 100 56 100 56 98h-2a1035 1035 0 0 1-2.5-4.875l-1.407-2.743C49 88 49 88 49 86h-2l-1.207-2.485-1.606-3.265-1.582-3.235c-1.465-2.971-1.465-2.971-3.305-5.156-1.3-1.86-1.3-1.86-1.3-5.86h23v2h2c1.507 2.188 1.507 2.188 3.125 5l1.632 2.813L69 78l5-10h2l.812-2.625C77.971 62.082 79.382 59.088 81 56h2l.812-2.625C84.971 50.082 86.382 47.088 88 44h2l.875-2.75c.89-2.572 1.84-4.864 3.125-7.25h2l.812-2.625c1.159-3.293 2.57-6.287 4.188-9.375h2l.25-2.063c.973-3.812 2.708-6.578 4.75-9.937h2l.312-2.188c1.83-7.49 1.83-7.49 5.995-8.214"/>
        <path fill="#DBAE24" d="M0 0h108c-.833 4.999-1.655 7.718-4 12h-2l-2 5a4342 4342 0 0 1-35.727.414c-5.53.042-11.06.099-16.59.19-5.335.086-10.67.134-16.008.155q-3.054.023-6.108.087c-2.853.058-5.701.066-8.554.062l-2.552.087c-2.403-.033-4.209-.15-6.461-.995-3.31-3.452-5-7.369-6-12H0z"/>
        <path fill="#293956" d="M417 0h9l1 13 3.063-.687c4.62-.367 6.935.411 10.937 2.687 1.2 2.113 1.2 2.113 2 4l1.32-1.277C449.586 12.878 452.806 12 460 12c4.22.65 6.393 2.54 8.938 5.895 1.831 3.63 1.82 7.16 1.062 11.105-1.464 3.71-3.365 5.354-6.934 7.238-4.88 1.8-9.437 1.493-14.128-.613L447 34v-2l-4-2-.687 1.813C440.576 34.707 439.082 35.63 436 37c-3.76.26-6.424.192-10-1a81 81 0 0 0-4.687-.062L417 36V19l-4 2h-7l-1 15h-8V13h9l3.313-.625C412 12 412 12 416 14zm39 19c-2.325 1.264-2.325 1.264-4 3l1 7c4.14.21 4.14.21 8-1v-7c-2.266-1.29-2.266-1.29-5-2m-28.25.875L426 21v7l7 1c1.335-2.198 2.028-3.526 1.875-6.125-.76-2.01-.76-2.01-2.687-3.25-2.221-.873-2.221-.873-4.438.25"/>
        <path fill="#283855" d="M193 52v8h6l1 4 1.25-1.375c3.02-2.804 5.037-3.56 9.188-3.937 4.047.355 6.671 1.421 9.562 4.312.073 2.53.092 5.033.063 7.563l-.014 2.154q-.02 2.64-.049 5.283h3l-.035-3.684-.028-4.754-.025-2.431c-.009-2.044.036-4.088.088-6.131l1-1c2.151 0 4.302.006 6.453.047 3.21-.06 6.263-.59 9.406-1.219C242 59 242 59 244.746 60.312c3.49 4.162 2.794 8.192 2.566 13.438l-.068 2.98A398 398 0 0 1 247 84h-8l-1-16-4 1-1 15-8.105-.098c-2.752.093-5.206.55-7.895 1.098l-2.312-.5c-2.62-.487-4.164-.354-6.75.063-4.017.446-4.64.203-7.938-1.563l-1.75.938c-3.378 1.595-6.713 1.144-10.25.062-1.734-1.102-1.734-1.102-3-3-.293-3.355-.293-3.355-.187-7.187l.082-3.856L185 67h-4v-7h4l-.25-2.312c.25-2.688.25-2.688 2-4.5C189 52 189 52 193 52m0 15v9l3 1c2.416-1.265 2.416-1.265 5-3 3.679-1.993 6.85-3.39 11-4v-3l-2.187.438L207 68l-2.687.688L202 69l-2-2c-3.583-.167-3.583-.167-7 0m15.375 9.5L207 78l5-1v-2c-2.124-.226-2.124-.226-3.625 1.5"/>
        <path fill="#65AF47" d="M12 22h85v2h-2l-.812 2.625C93.028 29.918 91.618 32.911 90 36h-2v3c-8.65.186-17.297.328-25.948.414a988 988 0 0 0-12.05.19 683 683 0 0 1-11.631.155 230 230 0 0 0-4.434.087c-11.548.324-11.548.324-14.948-2.54C16.858 34.04 15.868 30.78 15 27h-2z"/>
        <path fill="#283857" d="M248 0c6.799 0 13.266.002 20 1 1.332 5.447 1.332 5.447-.125 7.875-2.47 1.482-4.041 1.488-6.875 1.125l-2-2c-2.57-.648-2.57-.648-5-1v6h14v23h-9V20h-5v16h-9V20h-4v16h-9l-1-17-3 2c-3.187.125-3.187.125-6 0-1.054 3.162-1.313 5.87-1.562 9.188l-.254 3.292L220 36h-8V13l16-1 2 4h2v-3h13l-.187-3.125C245.01 5.765 245.945 3.511 248 0"/>
        <path fill="#293956" d="M312 0h9v36h-10l-2 1c-4.156.4-6.535.228-10.312-1.625C296 33 296 33 294 27l-14 1c3.747 1.398 3.747 1.398 6 0 5.538-.23 5.538-.23 8 1l-1 4h-2v2c-4.33 2.464-8.114 2.575-13 2-3-1.312-3-1.312-5-3l-1-3h-2c-1.49-4.473-1.49-8.527 0-13h2l.625-1.875C274 14 274 14 276.563 12.688c4.374-.875 8.13-.941 12.437.312 2.706 2.198 4.448 3.896 6 7l.563-2.312C297 15 297 15 300.188 13.125c4.124-1.217 6.656-1.058 10.812-.125zm-32 19v2h6l-1-2zm27 0c-3.177 1.661-3.177 1.661-3.75 4.438-.437 2.68-.437 2.68.75 5.562 4.14.21 4.14.21 8-1v-7c-2.329-1.198-2.329-1.198-5-2"/>
        <path fill="#293957" d="M336 47h9v37h-10l-3.75.688c-4.08.392-5.91-.357-9.25-2.688-2.943-4.414-2.179-9.892-2-15l-1.812 1C316 69 316 69 313 69v-2l-2 1c-1.105 3.315-1.321 6.204-1.562 9.688l-.254 3.574L309 84h-8V60h9l3.813-.75C317 59 317 59 319.438 60.938L321 63l1.5-1.437c3.555-2.222 6.314-2.297 10.5-2.563l3 1zm-6 20c-1.813 4.43-1.813 4.43-1 9 2.397.68 2.397.68 5 1 2.316-1.885 2.316-1.885 2.25-5 .066-3.115.066-3.115-2.25-5z"/>
        <path fill="#12AFC6" d="M25 44h59l-1 5h-2l-.586 1.863-.789 2.45-.773 2.425C78 58 78 58 76 61c-1.873.36-1.873.36-4.174.34h-2.609l-2.819-.047-2.883-.013c-3.047-.017-6.093-.054-9.14-.093q-3.093-.022-6.187-.04Q40.593 61.093 33 61c-4-6.625-4-6.625-4-10h-2c-1.46-2.647-2-3.894-2-7"/>
        <path fill="#283957" d="M365.563 1.125c2.995 2.304 4.694 4.528 6.438 7.875-1 3-1 3-4 5-3.915-.294-5.321-1.32-8-4-2.985-1.02-4.621-1.097-7.688-.312-2.76 1.566-3.412 2.284-4.312 5.312-.34 3.732-.24 6.352 1.062 9.875 1.873 2.422 1.873 2.422 5.313 3.125 4.048 0 5.359-.765 8.625-3 2.562-.937 2.562-.937 5-1 2.312 1.938 2.312 1.938 4 4-1.957 4.402-4.353 6.35-8.625 8.266-5.26 1.626-10.616 1.882-15.75-.254-3.522-2.091-6.662-4.33-8.625-8.012v-3h-2V12h2l.062-2.125c1.383-4.243 4.405-6.297 7.938-8.875 5.231-2.616 13.167-1.579 18.562.125"/>
        <path fill="#283955" d="M266 47h9v37h-11l-3.375.625c-3.195.456-4.84-.033-7.625-1.625l-1-3h-2c-2.107-4.213-1.513-9.423-1-14 1.254-3.135 2.19-3.834 5-6 3.871-1.175 7.116-1.295 11 0zm-6 20-1 3h-2v4h2v2c1.847.692 1.847.692 4 1l3-2c.5-3 .5-3 0-6-2.815-2.277-2.815-2.277-6-2"/>
        <path fill="#283856" d="M176.375 48.188c2.964 2.046 3.698 3.384 4.625 6.813l-5 4c-.536-.31-1.072-.62-1.625-.938-2.773-1.24-5.375-1.653-8.375-2.062v3l2.5.687c5.07 1.901 10.016 4.058 13.063 8.688.595 3.575.378 6.113-.563 9.624-2.864 3.58-5.5 5.954-10 7-4.972-.01-9.016-.86-13-4l-1-3h-2v-3l7-3 1.563 1.5c3.244 1.997 5.7 1.716 9.437 1.5-2.235-3.476-4.231-4.816-8-6.437-3.064-1.47-4.84-2.383-7.125-4.937-1.499-4.497-1.537-8.057.313-12.438 4.625-5.583 11.83-5.236 18.187-3"/>
        <path fill="#293857" d="M154 1h11q1.007 3.154 2 6.313l1.125 3.55C169 14 169 14 169 17h2l1 3 3-9h2l2-10h10c-1.087 5.126-2.226 10.06-4 15h-2l-.25 2.313c-1.038 5.102-2.893 9.833-4.75 14.687h-2l-1 4h-7q-1.012-2.119-2-4.25l-1.125-2.39C164 28 164 28 164 24h-2q-1.259-3.404-2.5-6.812l-.723-1.948C157.73 12.35 157 10.1 157 7h-2z"/>
        <path fill="#283858" d="M204.313 13.063c3.539 2.551 4.406 4.81 5.688 8.938v5l-15 1 5 1 1-1q3.5-.063 7 0c.75 1.75.75 1.75 1 4-2.63 3.287-4.811 4.745-9.051 5.238-5.486.18-8.705-.408-12.95-4.238-2.326-3.913-2.393-7.516-2-12 1.272-3.48 2.376-5.465 5.188-7.876 5.014-2.005 9.123-1.667 14.125-.062m-8.312 5.938-1 2h6l-1-2z"/>
        <path fill="#283855" d="M293.875 60.375C296 62 296 62 297 64c.071 2.374.084 4.75.063 7.125l-.028 3.883L297 78h3v6c-5.39 1.128-5.39 1.128-8.375.5-2.607-.497-4.057-.327-6.625.125-2.905.402-4.094.346-7-.562-2.333-2.407-2.295-3.025-2.312-6.25L276 74c8.262-4.592 8.262-4.592 13-4l-1-2h-4l-1 2a85 85 0 0 1-7-2c.543-3.8 2.115-5.539 5-8 4.614-1.538 8.437-1.747 12.875.375M288 75l-4 1v2l5-1z"/>
        <path fill="#283856" d="M392 14v3h2v13h2v7c-7.75.125-7.75.125-10-1l-2 1c-7.146.454-7.146.454-10-1.062-1.584-3.07-1.362-5.555-1-8.938 2.039-2.607 4.095-3.623 7.188-4.687l2.167-.762L384 21v-2l-2.187 1.563c-3.233 1.651-4.43 1.5-7.813.437l-1-4c5.637-4.854 12.173-7.551 19-3m-11 15v2l4-1v-2c-2.075-.15-2.075-.15-4 1"/>
        <path fill="#293957" d="M493 14c.941 2.824 1.117 4.53 1.098 7.45l-.01 2.568-.026 2.67-.013 2.705A1649 1649 0 0 1 494 36h-8l-1-15h-5v15h-9V13h10l2.688-.625c3.488-.566 6.06.374 9.312 1.625"/>
        <path fill="#2A3957" d="M209 104c8.398-.195 8.398-.195 11 0 2 2 2 2 2.188 5.5C222 113 222 113 221 115l1 5h-13z"/>
        <path fill="#293755" d="M304 103c3.739 2.657 5.65 4.581 7 9h2v-8l4 1v15c-5.021-1.004-5.862-1.398-9-5l-1 5h-5v-16z"/>
        <path fill="#283956" d="M225 104c8.3-.39 8.3-.39 11 0 1.855 1.828 1.855 1.828 3 4v3h-2v9h-5l-1-2-1 2h-5z"/>
        <path fill="#26344F" d="m354.504 103.902 3.059.035 3.066.028L363 104c1.493 2.986 1.118 5.708 1 9l-1 2a76 76 0 0 0 1 5h-4v-2h-2l-1-2-1 4h-5q-.04-3.72-.062-7.438l-.026-2.142c-.008-1.807.036-3.614.088-5.42 1-1 1-1 3.504-1.098M356 108v3h4v-3z"/>
        <path fill="#2A3A57" d="M195 104h12v5l-1 1c-.202 3.632.268 6.34 1 10h-12z"/>
        <path fill="#283857" d="M372.25 103.688c3.29.058 4.779.327 7.813 1.813 2.355 3.04 2.63 4.822 2.335 8.593-.398 1.907-.398 1.907-1.71 4.407-4.332 2.417-8.838 1.8-13.688 1.5q-.04-3.72-.062-7.438l-.026-2.143c-.009-1.806.036-3.613.088-5.42 1.56-1.56 3.09-1.244 5.25-1.312m-1.25 4.313v9c3.29-.38 3.29-.38 6-2 .25-2.459.25-2.459 0-5l-2-2z"/>
        <path fill="#293A58" d="m320 104 4.75-.187 2.672-.106c3.104.353 4.385 1.09 6.578 3.293 1.25 3.498 1.358 6.927.188 10.438C333 119 333 119 331 120c-3.67.138-7.326.043-11 0zm4 4v9l5-1c.688-2.354.688-2.354 1-5l-2-3z"/>
        <path fill="#283854" d="m245 104 4 1 1 5h2l3 10h-16c.944-4.72 2.264-8.548 4-13h2z"/>
        <path fill="#273757" d="M178 104h6l2 4 2-4h6a1126 1126 0 0 1-.937 4.375l-.528 2.46C192 113 192 113 191 115h-2l-1 5h-4v-3h-2a742 742 0 0 1-2-4.812l-1.125-2.708C178 107 178 107 178 104"/>
        <path fill="#273656" d="M273 105v4h-5l6 4-1 7h-11v-4h5l-2.5-1.625C262 112 262 112 261.375 108.938 262 106 262 106 264.125 104c3.674-1.278 5.385-.542 8.875 1"/>
        <path fill="#283855" d="m295 104 .805 1.828 1.07 2.422 1.055 2.39a74 74 0 0 0 2.203 4.47C301 117 301 117 301 120h-5v-2h-6v2h-5a2944 2944 0 0 1 2.207-6.602 252 252 0 0 0 1.856-5.898c1.333-3.555 2.198-3.5 5.937-3.5"/>
        <path fill="#283756" d="M162 104h4q.758 1.903 1.5 3.813l.844 2.144C169 112 169 112 169 115h2l1 5h-5v-2h-6v2h-6l.836-1.61c1.381-2.836 2.585-5.724 3.789-8.64l1.352-3.266z"/>
        <path fill="#293957" d="M341 104h3l1 5h2q.758 1.903 1.5 3.813l.844 2.144C350 117 350 117 350 120h-4v-2h-6v2h-5c.486-3.123.999-5.996 2-9h2l.438-2.375C340 106 340 106 341 104m1 8 1 2Z"/>
        <path fill="#28354D" d="M274 104h12l1 4h-4v12l-5-1v-11h-4z"/>
        <path fill="#293856" d="M240 1c1 1 1 1 1.188 3.938C241 8 241 8 239 10c-3.625-.375-3.625-.375-7-1V1c2.882-1.441 4.918-.656 8 0"/>
    </g>
</svg>
