<?xml version="1.0" encoding="UTF-8"?>
<svg data-bbox="0 0 458 110" height="110" width="458" xmlns="http://www.w3.org/2000/svg" data-type="ugc">
    <g>
        <path fill="#FBFCFA" d="M0 0h458v110H0z"/>
        <path fill="#FCFCFC" d="M0 0h458v110H0zm2 6c-.883 2.534-.883 2.534-.76 5.262l-.048 3.104.046 3.322-.01 3.44q0 3.595.045 7.191c.04 3.669.02 7.333-.005 11.001q.01 3.496.033 6.993l-.021 3.32.057 3.105.021 2.72C2.286 59.135 4.114 60.596 7 63c3.025.737 3.025.737 6.362.615l3.915.03 4.295-.044q2.283.003 4.567.013c4.184.011 8.369-.009 12.553-.034 4.512-.021 9.024-.014 13.536-.01q11.726.002 23.453-.041c11.303-.041 22.606-.054 33.909-.06a27763 27763 0 0 0 55.014-.092 38654 38654 0 0 1 56.771-.106l16.523-.02C283.6 63.2 329.3 63.112 375 63l-.195 6.055c.012 2.184.012 2.184 2.195 3.945 2.738.307 2.738.307 5.979.259l3.802.019 4.125-.012 4.215.005q4.417.005 8.837-.01c3.78-.012 7.559-.005 11.339.007q4.351.009 8.704 0 2.09-.003 4.181.005c1.947.005 3.893-.004 5.84-.014l3.36-.005c2.777.01 2.777.01 4.618-2.254.242-1.981.242-1.981.125-4.125L442 63l3.188.188c4.037-.199 5.696-.695 8.812-3.188 1.854-2.998 2.255-5.283 2.275-8.781l.029-2.862-.003-3.072.013-3.175q.008-3.323.002-6.645c-.003-3.386.02-6.772.045-10.158q.004-3.23.002-6.46l.028-3.065c.024-6.926.024-6.926-3.391-12.782C449.408.59 445.814.717 441.637.74l-2.265-.012c-2.518-.01-5.036-.006-7.555-.002L426.363.71C421.355.696 416.348.694 411.34.695 405.944.693 400.548.68 395.152.668c-11.804-.022-23.607-.03-35.41-.035q-11.05-.006-22.1-.017a74824 74824 0 0 0-77.03-.042h-3.985C235.308.57 213.99.544 192.67.506Q159.858.449 127.045.448C114.758.448 102.471.44 90.184.41Q74.493.372 58.802.393C53.462.401 48.123.4 42.784.377Q35.456.347 28.128.38q-2.655.005-5.31-.016a450 450 0 0 0-7.204.015L13.522.341C8.018.441 5.712 2.217 2 6"/>
        <path fill="#76CF11" d="m15.612.376 2.273-.02C20.4.34 22.915.359 25.43.378q2.732-.006 5.462-.02c5.005-.016 10.01-.002 15.015.017C51.304.391 56.7.377 62.097.368 72.67.353 83.243.365 93.815.387c12.307.024 24.613.022 36.92.02 21.952-.004 43.906.017 65.859.05q31.971.051 63.943.042c23.198-.007 46.396-.005 69.593.015l3.716.003 7.388.006q12.874.01 25.75.007 15.683-.004 31.367.032c5.337.011 10.674.019 16.012.013q7.323-.007 14.646.023 2.655.007 5.309-.001c2.4-.008 4.798.004 7.197.02l2.099-.02C447.903.651 450.57 1.412 454 4c1.997 2.91 2.256 5.296 2.275 8.78l.029 2.863-.003 3.071.013 3.176q.008 3.323.002 6.645c-.003 3.386.02 6.772.046 10.158q.003 3.23.002 6.459l.028 3.065C456.334 57 456.334 57 453 61c-3.419 2.564-6.855 2.159-11 2l.125 3.875c.07 2.18.07 2.18-.125 4.125-2.719 2.719-4.174 2.253-7.978 2.258l-3.802.02-4.126-.013-4.214.006q-4.419.004-8.837-.01c-3.78-.012-7.56-.005-11.34.007-2.9.007-5.802.004-8.703 0q-2.091-.003-4.182.004c-1.946.005-3.893-.004-5.84-.014l-3.359-.004C377 73 377 73 375 71c-.27-2.689-.087-5.292 0-8l-2.353.005a106029 106029 0 0 1-154.598.27l-3.331.003c-17.812.022-35.624.061-53.436.107q-27.404.07-54.807.085-16.917.01-33.834.07-11.592.038-23.184.027c-4.462-.003-8.924.002-13.386.029q-6.125.035-12.25.008-2.218-.004-4.437.02c-2.007.02-4.014.006-6.021-.01l-3.382.007C6.03 62.797 4.519 61.08 2.001 58c-.642-2.542-.642-2.542-.663-5.262l-.058-3.105.021-3.32-.021-3.441a699 699 0 0 1 .014-7.192c.019-3.668-.02-7.333-.065-11q0-3.496.01-6.993c-.016-1.096-.03-2.192-.047-3.32l.048-3.106.005-2.72c2.028-6.825 8-8.278 14.367-8.165m-9.54 6.013c-1.45 2.18-1.459 3.684-1.476 6.294l-.038 2.872.009 3.097-.016 3.187q-.009 3.338.003 6.675c.009 3.407-.02 6.812-.052 10.218q-.001 3.241.002 6.482c-.01 1.02-.022 2.04-.034 3.091l.029 2.882v2.53C5.197 56.895 6.475 57.977 9 60c2.915.594 2.915.594 6.209.492l3.887.024 4.28-.035q2.27.002 4.54.01c4.164.009 8.327-.007 12.491-.027 4.488-.017 8.976-.012 13.465-.009q11.666.003 23.333-.032c11.246-.033 22.491-.043 33.737-.048q27.366-.016 54.732-.074 26.588-.055 53.174-.082l3.31-.003 16.437-.015c45.469-.042 90.937-.112 136.405-.201l.855-1.86C377 56 377 56 379.332 53.76c3.233-3.346 5.187-6.866 7.356-10.949a1158 1158 0 0 1 2.324-4.293l1.015-1.903C391 35 391 35 393 33c4.238-.445 8.49-.415 12.749-.426 2.112-.012 4.222-.061 6.333-.111q2.017-.015 4.036-.022l3.706-.04C423 33 423 33 425.278 35.275c2.912 4.605 2.912 4.605 4.16 6.86l1.273 2.248a825 825 0 0 1 2.578 4.641l1.274 2.236 1.129 2.03c1.547 2.02 3.063 2.587 5.308 3.709l1 3c3.332.417 3.332.417 7 0 2.524-2.143 3.816-3.9 4.37-7.204.16-2.744.185-5.458.162-8.207l.011-3.043q.005-3.18-.021-6.357c-.022-3.244 0-6.486.025-9.73q-.003-3.09-.015-6.182l.024-2.939-.038-2.741-.01-2.404C452.78 8.046 451.541 6.981 449 5a43 43 0 0 0-7.37-.501l-2.268-.017c-2.522-.013-5.043.002-7.564.016q-2.73-.006-5.462-.016c-5.013-.015-10.026-.005-15.04.01-5.402.01-10.804-.001-16.206-.01-10.587-.014-21.174-.007-31.761.008-12.32.017-24.639.014-36.958.01-21.974-.006-43.949.008-65.923.033q-32.013.036-64.025.02a62573 62573 0 0 0-77.081.006l-3.69.003q-12.892.005-25.785-.002-15.703-.008-31.405.021-8.017.017-16.035.007-7.33-.01-14.661.018-2.661.006-5.322-.004c-2.4-.008-4.799.002-7.198.017l-2.117-.02c-2.858.035-4.7.092-7.057 1.79"/>
        <path fill="#4E4E4E" d="M140 14h9l1 14a2831 2831 0 0 0 4.875-5.312c.46-.5.92-1 1.395-1.514 2.116-2.316 3.985-4.557 5.73-7.174 2.602-.293 2.602-.293 5.625-.187l3.04.082L173 14c-1.369 3.097-2.921 5.118-5.375 7.438-4.138 4.001-4.138 4.001-7.625 8.562.232 4.256 3.16 6.702 5.938 9.688l1.38 1.51c2.547 2.774 2.547 2.774 5.682 4.802l.332-2.116c.755-3.258 1.946-5.992 3.356-9.025l1.617-3.492L180 27.75l1.695-3.664c4.159-8.94 4.159-8.94 5.305-10.086 2.67-.141 5.324-.042 8 0a543 543 0 0 1 11.938 24.75l1.216 2.67 1.123 2.502 1.008 2.237C211 48 211 48 211 50h-9l-3-6h-16l-3 6c-13.943 1.933-13.943 1.933-18.967-1.244-4.358-3.83-8.431-8.553-11.033-13.756l-1 15h-9z"/>
        <path fill="#4E4E4E" d="M13 14h10q1.507 4.654 3 9.313l.867 2.67.82 2.568.762 2.364C29 33 29 33 29 36h2l.344-3.04c.568-3.972 1.773-7.564 3.156-11.335l1.344-3.71C37 15 37 15 38 14h7l7 22c2.262-6.865 2.262-6.865 4.517-13.732l.854-2.577.873-2.65C59 15 59 15 60 14a75 75 0 0 1 4.563-.062l2.503.027L69 14q-2.534 7.21-5.072 14.417l-1.726 4.906q-1.238 3.522-2.48 7.044l-.78 2.223C57.115 47.772 57.115 47.772 56 50h-8l-7-20c-2.262 6.207-2.262 6.207-4.517 12.416l-.854 2.33-.873 2.396C34 49 34 49 33 50c-2.67.141-5.324.042-8 0q-2.57-7.206-5.127-14.417-.87-2.452-1.746-4.906-1.255-3.52-2.502-7.044l-.795-2.223C13 16.228 13 16.228 13 14"/>
        <path fill="#4D4D4D" d="m89 14 10.625-.187 3.315-.083c5.412-.046 9.454.073 14.06 3.27 2.697 4.045 2.541 7.253 2 12-1.25 3-1.25 3-3 5-2.187.813-2.187.813-4 1v2l3 1c1.605 2.723 1.605 2.723 3.188 6.063l1.605 3.347L121 50c-3.448.482-6.573.694-10 0-2.374-2.33-3.619-5.003-5-8-1.359-2.4-1.359-2.4-3-4l-5-1v13h-9z"/>
        <path fill="#4D4D4D" d="M13 73c18.943-.444 18.943-.444 25 3 5.188 5.454 5.35 9.45 5.277 16.79-.358 4.148-1.331 6.264-4.277 9.21-5.4 3.535-10.164 3.359-16.375 3.188L13 105z"/>
        <path fill="#4D4D4D" d="m286 73 8.5-.25 2.627-.11c5.724-.08 10.15 1.027 14.873 4.36 3.94 4.406 4.585 8.828 4.32 14.637-.64 4.73-2.36 7.475-5.82 10.676-3.411 2.302-5.93 2.812-9.95 2.785l-2.314-.008-2.923-.028L286 105z"/>
        <path fill="#4F4F4F" d="M312 14c7 0 7 0 9.188 1.652L323 17.938l2 2.46L327 23l2.063 2.602A509 509 0 0 1 334 32l1-18h9v36c-7 0-7 0-9.187-1.652L333 46.063l-2-2.461L329 41l-2.062-2.602A509 509 0 0 1 322 32l-1 18h-9z"/>
        <path fill="#515151" d="M214 14h9l.06 2.247c.095 3.356.205 6.71.315 10.066.03 1.167.062 2.334.094 3.537l.117 3.388.095 3.127c.146 2.863.146 2.863 2.319 5.635 3.5.417 3.5.417 7 0 2.678-2.678 2.305-4.14 2.414-7.883l.117-3.535.094-3.707.117-3.73q.142-4.573.258-9.145h10c.088 3.854.14 7.708.188 11.563l.076 3.29c.067 7.417-.302 12.736-5.327 18.522-4.43 3.716-9.656 3.163-15.207 3.047-4.497-.509-6.548-1.617-9.628-4.817-2.389-3.48-2.219-6.727-2.2-10.804l.01-3.662.025-3.826.014-3.862q.018-4.725.049-9.451"/>
        <path fill="#4E4E4E" d="M281 14h26v7h-17v7h16v7h-16v8h17v7h-26z"/>
        <path fill="#4E4E4E" d="M93 73c7 0 7 0 8.773 1.238l1.247 1.719 1.408 1.873 1.385 1.983 1.443 1.947c1.99 2.701 3.882 5.448 5.744 8.24l1-17h8v32c-7 0-7 0-8.988-1.469l-1.54-2.031-1.708-2.187L108.063 97l-1.784-2.312A421 421 0 0 1 102 89l-1 16h-8z"/>
        <path fill="#575757" d="M201 73h8v13h13V73h9v33h-9V93h-12v12h-9z"/>
        <path fill="#4F4F4F" d="M261.11 73.684c1.64.816 1.64.816 3.89 2.316l-2 6-1.683-.48c-2.503-.561-4.815-.759-7.379-.832l-2.598-.113c-2.47.221-2.47.221-4.125 2.199-1.83 3.354-1.711 6.544-1.214 10.226.649 3.055.649 3.055 3 5 3.33.719 6.599.93 10 1v-6h-6v-6h13v17c-8.116 2.32-14.379 3.307-22.274-.011-3.728-2.134-5.405-5.024-6.726-8.989-.488-5.54-.744-10.399 1.625-15.5 6.33-6.664 13.487-8.732 22.484-5.816"/>
        <path fill="#4F4F4F" d="M252 14h25v7h-16v7h15v8h-15v14h-9z"/>
        <path fill="#4D4D4D" d="M322 73h23v7h-15v6h14v6h-14v7h15v6h-23z"/>
        <path fill="#4C4C4C" d="M129 73h23v7h-15v6h14v6h-14v7h15v6h-23z"/>
        <path fill="#FEFEFE" d="M0 0h450l-1 2-2.822-.005a189892 189892 0 0 0-185.319-.215l-3.992-.003c-21.353-.017-42.705-.049-64.057-.086q-32.848-.056-65.696-.067-20.28-.008-40.56-.056a9787 9787 0 0 0-27.787-.022c-5.35.003-10.699-.001-16.048-.023q-7.34-.028-14.68-.007a665 665 0 0 1-5.323-.016 564 564 0 0 0-7.214.008l-2.104-.032C8.685 1.542 6.316 2.683 3 6c-1.21 2.42-1.157 4.022-1.205 6.725l-.06 2.972-.051 3.217-.063 3.287q-.097 5.213-.183 10.424l-.131 7.055Q1.145 48.34 1 57H0z"/>
        <path fill="#4F4F4F" d="M50 73h23v7H58v6h14v6H58v7h14v6H50z"/>
        <path fill="#FAFDF8" d="m407.813 34.625 2.736-.113c4.544-.06 6.728-.06 10.444 2.75 1.673 2.282 3.12 4.371 4.32 6.926l.988 2.042c.7 1.77.7 1.77.7 3.77h-38c2.27-6.812 2.27-6.812 4.5-10.312l1.28-2.051c3.006-4.036 8.467-2.941 13.032-3.012"/>
        <path fill="#575757" d="M168 73h28v7h-9v26h-9V80h-10z"/>
        <path fill="#494949" d="M73 14h9v36h-9z"/>
        <path fill="#4B4B4B" d="M78 73h8v32h-8z"/>
        <path fill="#F5F5F5" d="M21 80c9.192 0 9.192 0 13 3 1.887 3.774 1.498 8.424.25 12.375-1.655 2.152-2.636 2.8-5.25 3.625h-8z"/>
        <path fill="#F8F8F8" d="M294 80c9 0 9 0 11.5 1.875 2.72 3.853 2.902 6.387 2.5 11.125-1.796 2.753-3.053 4.526-6 6h-8z"/>
        <path fill="#78D017" d="M382 74h8v13h-8z"/>
        <path fill="#F8F8F8" d="M98 21a365 365 0 0 1 4.875-.125l2.742-.07C108 21 108 21 110 23c.25 2.5.25 2.5 0 5-2 2-2 2-4.383 2.195l-2.742-.07-2.758-.055L98 30z"/>
        <path fill="#6BCB00" d="M427 75h7v12h-7z"/>
        <path fill="#505050" d="M271 97h9v8h-9z"/>
        <path fill="#F0F9E5" d="M400 65h16v4h-16z"/>
        <path fill="#E9E9E9" d="M190 25h2a875 875 0 0 1 2 4.375l1.125 2.46C196 34 196 34 196 36h-10c1.213-3.724 2.509-7.378 4-11"/>
    </g>
</svg>
